<svg width="26" height="26" viewBox="0 0 26 26" fill="none" xmlns="http://www.w3.org/2000/svg">
<g clip-path="url(#clip0_35_136)">
<path d="M24.4372 11.175C24.3309 11.1578 24.2232 11.1498 24.1155 11.1512H5.77299L6.17295 10.9652C6.5639 10.7801 6.91958 10.5283 7.22401 10.221L12.3677 5.07736C13.0451 4.43067 13.159 3.39037 12.6374 2.61248C12.0305 1.78354 10.8665 1.60356 10.0375 2.21054C9.97048 2.2596 9.90686 2.31308 9.84702 2.37064L0.545587 11.6721C-0.18132 12.3982 -0.18196 13.576 0.544133 14.3029L0.545587 14.3044L9.84702 23.6058C10.5745 24.3313 11.7524 24.3296 12.4779 23.6021C12.535 23.5449 12.5883 23.484 12.6374 23.4198C13.159 22.6419 13.0451 21.6016 12.3677 20.9549L7.23331 15.8019C6.96039 15.5287 6.64658 15.2996 6.30317 15.1229L5.74509 14.8718H24.0131C24.9634 14.9071 25.7972 14.2432 25.9757 13.3091C26.1402 12.295 25.4514 11.3395 24.4372 11.175Z" fill="#E29104"></path>
</g>
<defs>
<clipPath id="clip0_35_136">
<rect width="26" height="26" fill="white"></rect>
</clipPath>
</defs>
</svg>