<svg width="26" height="26" viewBox="0 0 26 26" fill="none" xmlns="http://www.w3.org/2000/svg">
<g clip-path="url(#clip0_35_133)">
<path d="M1.56276 11.175C1.66912 11.1578 1.77679 11.1498 1.88453 11.1512H20.227L19.827 10.9652C19.4361 10.7801 19.0804 10.5283 18.776 10.221L13.6323 5.07736C12.9549 4.43067 12.841 3.39037 13.3626 2.61248C13.9695 1.78354 15.1335 1.60356 15.9625 2.21054C16.0295 2.2596 16.0931 2.31308 16.153 2.37064L25.4544 11.6721C26.1813 12.3982 26.182 13.576 25.4559 14.3029L25.4544 14.3044L16.153 23.6058C15.4255 24.3313 14.2476 24.3296 13.5221 23.6021C13.465 23.5449 13.4117 23.484 13.3626 23.4198C12.841 22.6419 12.9549 21.6016 13.6323 20.9549L18.7667 15.8019C19.0396 15.5287 19.3534 15.2996 19.6968 15.1229L20.2549 14.8718H1.9869C1.03659 14.9071 0.202831 14.2432 0.0243015 13.3091C-0.14016 12.295 0.548613 11.3395 1.56276 11.175Z" fill="#E29104"></path>
</g>
<defs>
<clipPath id="clip0_35_133">
<rect width="26" height="26" fill="white" transform="matrix(-1 0 0 1 26 0)"></rect>
</clipPath>
</defs>
</svg>