<svg width="105" height="100" viewBox="0 0 105 100" fill="none" xmlns="http://www.w3.org/2000/svg">
<path opacity="0.69" d="M81.8863 23.7505L66.4822 3.04803C64.1471 -0.0936296 59.8723 -0.927747 56.5711 1.11412L34.8023 14.5593M34.8023 14.5593L16.9272 25.6298L16.7868 25.722H16.8169C16.487 25.9497 16.1714 26.1985 15.872 26.4669C16.162 26.2053 16.4676 25.9624 16.7868 25.7391L5.19956 32.9348C0.740388 35.6962 -1.14911 41.3266 0.711556 46.3083C4.7688 57.1978 11.6777 75.693 15.3209 85.3593C16.0763 87.31 17.4235 88.9616 19.1645 90.071L21.7791 91.2395C22.0062 91.301 22.2365 91.3557 22.467 91.4001C24.7754 91.8565 27.167 91.4168 29.1757 90.1666L36.5221 85.5949C42.5664 81.8237 50.4203 83.356 54.6845 89.1383L59.8838 96.1598C61.3003 98.0802 63.3664 99.3893 65.6774 99.8328C65.9078 99.8808 66.1415 99.9151 66.3752 99.9454C67.3277 100.039 68.2879 100.012 69.2337 99.8632C71.2676 99.4882 73.1286 98.4503 74.5398 96.9043C81.3988 89.3023 94.4787 74.6953 102.169 66.0951C105.689 62.1625 105.956 56.2166 102.804 51.9701L94.599 40.8894L94.7158 41.0704C94.6757 41.0122 94.639 40.9509 94.5955 40.8894C94.5723 40.8518 94.5489 40.8141 94.5221 40.7766L81.8863 23.7505" fill="#CAE5F8"/>
<g clip-path="url(#clip0_363_245)">
<path d="M52.3202 80C67.1549 80 79.1809 67.9741 79.1809 53.1393C79.1809 38.3046 67.1549 26.2786 52.3202 26.2786C37.4854 26.2786 25.4595 38.3046 25.4595 53.1393C25.4595 67.9741 37.4854 80 52.3202 80Z" fill="white"/>
<path d="M78.9388 52.208C79.4435 52.208 79.8526 51.7988 79.8526 51.2941C79.8526 50.7894 79.4435 50.3802 78.9388 50.3802C78.434 50.3802 78.0249 50.7894 78.0249 51.2941C78.0249 51.7988 78.434 52.208 78.9388 52.208Z" fill="#B8CBFE"/>
<path d="M36.3258 39.5706C37.2593 41.9202 36.107 44.5919 33.7577 45.5256C31.4081 46.4595 28.7363 45.3076 27.8024 42.9574C26.8683 40.608 28.0208 37.9363 30.3702 37.0026C32.72 36.0688 35.3915 37.2204 36.3258 39.5706ZM28.9983 42.4826C29.6698 44.1728 31.5917 45.0016 33.282 44.3296C34.9728 43.6581 35.8009 41.7361 35.1293 40.0459C34.4573 38.3551 32.5355 37.5265 30.8453 38.1984C29.1551 38.8704 28.3265 40.792 28.9983 42.4826Z" fill="#FE5D0D"/>
<path fill-rule="evenodd" clip-rule="evenodd" d="M25.81 54.5385L27.4725 54.54L26.6401 55.9796L25.8076 57.4189L24.9774 55.9782L24.1475 54.5374L25.81 54.5385Z" fill="#FEC900"/>
<path fill-rule="evenodd" clip-rule="evenodd" d="M54.0856 77.8854C53.3098 78.4003 52.2636 78.1888 51.7487 77.4131C51.2338 76.6374 51.4453 75.5911 52.221 75.0762C52.9967 74.5613 54.043 74.7728 54.5579 75.5484C55.0729 76.3241 54.8614 77.3705 54.0856 77.8854Z" fill="#79BB35"/>
<path d="M67.7622 40.2256L71.7993 31.1655L72.944 31.6755L68.9069 40.7357L67.7622 40.2256Z" fill="#FEC900"/>
<path d="M72.9561 38.4316L78.9773 34.9339L79.6068 36.0177L73.5856 39.5154L72.9561 38.4316Z" fill="#FEC900"/>
<path fill-rule="evenodd" clip-rule="evenodd" d="M38.4557 31.6971C38.3618 32.3517 37.7549 32.8063 37.1003 32.7123C36.4457 32.6185 35.9911 32.0116 36.0851 31.357C36.1789 30.7024 36.7858 30.2479 37.4404 30.3417C38.095 30.4357 38.5495 31.0425 38.4557 31.6971Z" fill="#79BB35"/>
<path d="M73.1337 73.3246H31.1733V45.3905L46.2804 42.6779H58.7524L73.1337 45.3905V73.3246Z" fill="white"/>
<path d="M70.6038 42.6779H58.7525V46.8161H70.6036C71.2986 46.8161 71.8637 47.3407 71.8637 47.9855V70.2454C71.8637 70.8901 71.2987 71.4146 70.6036 71.4146H34.43C33.7346 71.4146 33.1691 70.8901 33.1691 70.2454V47.9855C33.1691 47.3407 33.7346 46.8161 34.43 46.8161H46.2804V42.6779H34.43C31.4528 42.6779 29.0308 45.0589 29.0308 47.9855V70.2454C29.0308 73.1719 31.4528 75.5527 34.43 75.5527H70.6036C73.5804 75.5527 76.0021 73.1719 76.0021 70.2454V47.9855C76.0021 45.0589 73.5805 42.6779 70.6038 42.6779Z" fill="#B8CBFE"/>
<path d="M64.9514 35.5659L53.9869 24.6013C53.2096 23.7995 51.8239 23.7996 51.0467 24.6013L40.082 35.5659C39.2708 36.3766 39.2708 37.6912 40.082 38.502C40.8931 39.3132 42.207 39.3132 43.0181 38.502L50.4403 31.0801V52.2865C50.4403 53.4331 51.3697 54.3628 52.5167 54.3628C53.6636 54.3628 54.593 53.4331 54.593 52.2865V31.0802L62.0152 38.5022C62.2077 38.6953 62.4365 38.8484 62.6885 38.9528C62.9404 39.0572 63.2105 39.1108 63.4832 39.1105C64.0145 39.1105 64.5457 38.9077 64.9513 38.5022C65.7626 37.6914 65.7626 36.3767 64.9514 35.5659Z" fill="#917EEC"/>
</g>
<defs>
<clipPath id="clip0_363_245">
<rect width="56" height="56" fill="white" transform="translate(24 24)"/>
</clipPath>
</defs>
</svg>
