<svg width="105" height="100" viewBox="0 0 105 100" fill="none" xmlns="http://www.w3.org/2000/svg">
<path opacity="0.69" d="M81.8863 23.7505L66.4822 3.04803C64.1471 -0.0936296 59.8723 -0.927747 56.5711 1.11412L34.8023 14.5593M34.8023 14.5593L16.9272 25.6298L16.7868 25.722H16.8169C16.487 25.9497 16.1714 26.1985 15.872 26.4669C16.162 26.2053 16.4676 25.9624 16.7868 25.7391L5.19956 32.9348C0.740388 35.6962 -1.14911 41.3266 0.711556 46.3083C4.7688 57.1978 11.6777 75.693 15.3209 85.3593C16.0763 87.31 17.4235 88.9616 19.1645 90.071L21.7791 91.2395C22.0062 91.301 22.2365 91.3557 22.467 91.4001C24.7754 91.8565 27.167 91.4168 29.1757 90.1666L36.5221 85.5949C42.5664 81.8237 50.4203 83.356 54.6845 89.1383L59.8838 96.1598C61.3003 98.0802 63.3664 99.3893 65.6774 99.8328C65.9078 99.8808 66.1415 99.9151 66.3752 99.9454C67.3277 100.039 68.2879 100.012 69.2337 99.8632C71.2676 99.4882 73.1286 98.4503 74.5398 96.9043C81.3988 89.3023 94.4787 74.6953 102.169 66.0951C105.689 62.1625 105.956 56.2166 102.804 51.9701L94.599 40.8894L94.7158 41.0704C94.6757 41.0122 94.639 40.9509 94.5955 40.8894C94.5723 40.8518 94.5489 40.8141 94.5221 40.7766L81.8863 23.7505" fill="#CAE5F8"/>
<path d="M66.8601 31.3291C66.825 31.5752 66.5965 31.7509 66.3504 31.7509H57.8262C58.7137 29.4045 60.1637 27.5855 62.1762 26.2673C63.3274 26.2233 64.4962 26.5924 65.3662 27.3394L65.375 27.3482C65.5595 27.4888 65.7177 27.6558 65.8671 27.8403C66.658 28.7982 67.0271 30.0988 66.8601 31.3291Z" fill="#C7C4C4"/>
<path d="M65.3662 27.3394C64.9883 27.2076 64.5137 27.2867 64.2941 27.6206C64.1007 27.9106 64.1359 28.35 63.8459 28.5521C63.3625 28.8861 62.6507 28.1479 62.1674 28.473C61.7368 28.763 62.018 29.5012 61.6841 29.8967C61.4556 30.1691 61.0513 30.1603 60.6998 30.2482C60.0144 30.4152 59.4783 31.0567 59.408 31.7509H57.8174C58.705 29.4045 60.155 27.5855 62.1674 26.2673C63.3274 26.2233 64.4874 26.5924 65.3662 27.3394Z" fill="#ABABAB"/>
<path d="M63.3712 31.9618H57.8172C57.7469 31.9618 57.6854 31.9267 57.6415 31.8739C57.6205 31.8469 57.607 31.8147 57.6024 31.7808C57.5977 31.7469 57.6021 31.7123 57.6151 31.6806C58.5203 29.3079 60.0054 27.4273 62.0442 26.1003C62.0793 26.0827 62.1145 26.0652 62.1496 26.0652C63.3712 26.0124 64.5927 26.4255 65.4803 27.19C65.656 27.3218 65.823 27.4976 66.0075 27.7085C66.3063 28.0776 66.5524 28.4906 66.7369 28.9388C66.7809 29.0442 66.7281 29.1673 66.6227 29.2112C66.5172 29.2552 66.3942 29.2024 66.3503 29.097C66.1833 28.6839 65.9636 28.3148 65.6824 27.9809C65.5242 27.7876 65.366 27.6382 65.2166 27.5239C64.4081 26.8297 63.3272 26.4606 62.22 26.487C60.3657 27.7085 58.986 29.4133 58.116 31.5488H63.3536C63.4678 31.5488 63.5645 31.6455 63.5645 31.7597C63.5821 31.8652 63.4942 31.9618 63.3712 31.9618Z" fill="#010101"/>
<path d="M60.3222 51.717C61.0603 56.0758 61.3767 60.663 59.9091 64.8373H29.4767C29.7579 64.0376 29.9688 63.2291 30.127 62.3942C30.8037 58.9142 30.4785 55.2409 29.8809 51.717C29.1515 47.3494 28.0091 43.0258 27.8685 38.6142C27.8334 37.5333 27.8685 36.4348 27.9828 35.3364C28.3167 32.2079 29.3185 29.1585 31.287 26.7682C31.5594 26.443 31.9725 26.2673 32.3943 26.2673H62.1676C59.1622 29.5188 58.1691 34.1939 58.3009 38.6142C58.3449 39.9852 58.4855 41.3561 58.6876 42.7182C59.1182 45.7324 59.8212 48.7115 60.3222 51.717Z" fill="#F3EDED"/>
<path d="M40.6633 28.7015C39.8285 28.93 38.8618 28.3676 38.1061 28.7894C37.5348 29.1058 37.3679 29.8176 37.2185 30.4503C37.0691 31.083 36.8142 31.7949 36.1991 31.997C35.5664 32.2079 34.8809 31.7333 34.213 31.8124C33.6418 31.8827 33.2024 32.3573 32.9652 32.8758C32.7279 33.3942 32.6576 33.9742 32.5433 34.5367C32.4291 35.0903 32.2533 35.6703 31.8491 36.0745C31.1197 36.8215 29.8455 36.7776 28.9667 36.2239C28.5888 35.9955 28.2636 35.6879 27.9912 35.3452C28.3252 32.2167 29.327 29.1673 31.2955 26.777C31.5679 26.4518 31.9809 26.2761 32.4027 26.2761H41.6739C41.7091 26.3903 41.7442 26.5045 41.7706 26.6188C41.9288 27.4624 41.507 28.473 40.6633 28.7015Z" fill="#D8D6D6"/>
<path d="M31.4802 39.2997C31.076 39.2997 30.6805 39.247 30.3202 39.1415C29.2833 38.8603 28.3957 38.2627 27.7366 37.7794C27.6399 37.7091 27.6224 37.5773 27.6927 37.4806C27.763 37.3839 27.8948 37.3664 27.9915 37.4367C28.6242 37.9024 29.4678 38.4648 30.4345 38.7285C31.5505 39.0361 33.0181 38.8867 33.809 37.8585C34.1605 37.3927 34.3275 36.8215 34.4945 36.2239C34.5648 35.9603 34.6439 35.6967 34.7318 35.4418C35.0481 34.5542 35.7424 33.6052 36.753 33.5788C37.1924 33.57 37.5966 33.737 37.9833 33.8952C38.4315 34.0797 38.8533 34.2555 39.2487 34.1324C39.7145 33.983 39.9693 33.447 40.0396 33.0252C40.0924 32.7 40.0924 32.3748 40.0836 32.0321C40.0836 31.8212 40.0748 31.6103 40.0836 31.3994C40.1187 30.6524 40.356 30.09 40.769 29.7561C41.2963 29.3255 41.9642 29.3518 42.6145 29.3782C43.089 29.3958 43.5372 29.4133 43.9239 29.2639C44.7236 28.9564 45.0927 27.9897 45.0487 27.19C45.0399 26.9176 44.9872 26.6364 44.8905 26.3288C44.8554 26.2145 44.9169 26.1003 45.0311 26.0652C45.1454 26.03 45.2596 26.0915 45.2948 26.2058C45.4002 26.5485 45.453 26.8648 45.4705 27.1724C45.5233 28.0952 45.119 29.2727 44.0821 29.6682C43.6075 29.8439 43.0978 29.8264 42.6057 29.8088C42.0081 29.7912 41.4457 29.7648 41.0415 30.0988C40.646 30.4152 40.5318 31.0039 40.5142 31.4345C40.5054 31.6367 40.5054 31.8388 40.5142 32.0409C40.523 32.3924 40.523 32.7527 40.4615 33.113C40.356 33.6667 40.0221 34.3345 39.3805 34.5455C38.8357 34.7212 38.326 34.5015 37.8251 34.2994C37.456 34.15 37.1133 34.0094 36.7618 34.0094C35.9708 34.027 35.3996 34.8355 35.1272 35.5912C35.0393 35.8373 34.969 36.0921 34.8987 36.347C34.723 36.9621 34.5472 37.6036 34.143 38.1309C33.4927 38.9658 32.4645 39.2997 31.4802 39.2997ZM59.909 64.8285H29.4766C29.7578 64.0288 29.9687 63.2203 30.1269 62.3855C31.4363 62.9655 33.0445 62.1745 34.143 61.1991C35.3205 60.1533 36.3927 58.8264 37.9305 58.4748C40.3384 57.9212 42.9308 59.9952 45.1981 59.0197C47.8257 57.8861 47.9839 53.4833 50.7696 52.7979C51.833 52.5342 52.993 52.9473 54.0563 52.6573C55.1196 52.3585 55.8754 51.383 56.2708 50.3548C56.6663 49.3267 56.7718 48.2106 56.9915 47.1297C57.3166 45.583 57.8966 44.0891 58.6963 42.727C59.1269 45.7324 59.8211 48.7203 60.3308 51.717C61.0602 56.0758 61.3766 60.663 59.909 64.8285Z" fill="#D8D6D6"/>
<path d="M59.9091 65.0394H29.4767C29.4064 65.0394 29.3448 65.0042 29.3009 64.9515C29.257 64.8988 29.2482 64.8197 29.2745 64.7582C29.547 63.9849 29.7579 63.1939 29.9161 62.3503C30.663 58.5276 30.1358 54.4676 29.67 51.7433C29.4591 50.4779 29.2042 49.1949 28.9582 47.947C28.3694 44.9152 27.7542 41.7691 27.6576 38.6142C27.5521 35.2221 28.0618 30.3888 31.0848 26.6979C31.4188 26.2936 31.9021 26.0564 32.4118 26.0564H62.1764C62.2642 26.0564 62.3345 26.1091 62.3697 26.1794C62.4048 26.2585 62.3873 26.3464 62.3345 26.4079C60.533 28.3588 59.3467 30.9336 58.8194 34.0709C58.8018 34.1852 58.6876 34.2642 58.5733 34.2467C58.4591 34.2291 58.38 34.1149 58.3976 34.0006C58.9073 30.9688 60.0233 28.4379 61.7018 26.4782H32.403C32.0251 26.4782 31.6561 26.6539 31.41 26.9615C28.4748 30.5558 27.9827 35.2749 28.0794 38.6055C28.1761 41.7164 28.7912 44.8449 29.38 47.8679C29.6261 49.1158 29.8721 50.3988 30.0918 51.673C30.5576 54.4236 31.0936 58.5364 30.3291 62.4294C30.1797 63.1939 29.9951 63.9146 29.7667 64.6176H59.7597C60.3836 62.7897 60.7 60.8036 60.7264 58.5364C60.7264 58.4221 60.823 58.3255 60.9373 58.3255C61.0515 58.3255 61.1482 58.4221 61.1482 58.5364C61.113 60.9003 60.7791 62.983 60.1024 64.89C60.0848 64.9867 60.0058 65.0394 59.9091 65.0394Z" fill="#010101"/>
<path d="M61.1395 66.7618C60.5946 67.8691 59.7159 68.7303 58.6965 69.1697H28.9231C28.8265 69.1697 28.7386 69.1433 28.6507 69.1082C27.684 68.66 26.8492 67.8252 26.3307 66.7618C26.0407 66.173 25.8386 65.5139 25.7507 64.8285C25.7068 64.5121 25.6804 64.187 25.6892 63.8618C25.6892 63.3961 26.0143 63.027 26.401 63.027H61.7283C61.9128 64.31 61.7019 65.6633 61.1395 66.7618Z" fill="#C7C4C4"/>
<path d="M34.4859 65.2503C34.2925 65.6018 33.8971 65.8567 33.4928 65.8391C33.1062 65.8127 32.781 65.5579 32.5086 65.2767C32.2362 65.0043 31.9989 64.6791 31.6649 64.4858C31.1904 64.2046 30.6016 64.1958 30.0655 64.3364C29.5383 64.4682 29.0374 64.723 28.5365 64.9427C28.0355 65.1536 27.4907 65.3382 26.9459 65.3118C26.5152 65.2679 26.1022 65.1009 25.7507 64.8285C25.7068 64.5121 25.6804 64.187 25.6892 63.8618C25.6892 63.3961 26.0143 63.027 26.401 63.027H34.0377C34.2837 63.3433 34.4859 63.6861 34.5913 64.0727C34.6968 64.4682 34.6792 64.8988 34.4859 65.2503Z" fill="#ABABAB"/>
<path d="M33.8615 67.5879C33.6769 67.5879 33.4924 67.5615 33.3254 67.4912C32.7894 67.2979 32.4379 66.8673 32.1039 66.4454C32.0424 66.3664 31.9809 66.296 31.9194 66.2257C31.5942 65.8391 31.1021 65.4085 30.5836 65.5051C30.3112 65.5579 30.0915 65.7424 29.8454 65.9357C29.7048 66.05 29.5642 66.1642 29.406 66.2609C28.7645 66.6564 27.8682 66.6915 27.0157 66.3664C26.6115 66.2082 26.2248 65.9885 25.7503 65.637C25.6536 65.5754 25.636 65.4436 25.7063 65.347C25.7766 65.2503 25.8997 65.2327 25.9963 65.303C26.4357 65.6282 26.796 65.8303 27.1651 65.9709C27.8945 66.2521 28.6503 66.2345 29.1775 65.9006C29.3182 65.8127 29.4412 65.7073 29.573 65.6018C29.8454 65.3821 30.1179 65.1536 30.4957 65.0833C31.0582 64.9691 31.6645 65.2679 32.2357 65.9445C32.2972 66.0236 32.3588 66.0939 32.4203 66.173C32.7366 66.5685 33.0354 66.9376 33.4572 67.087C33.9933 67.2803 34.6612 67.0518 35.0479 66.5509C35.3994 66.1115 35.5575 65.4524 35.4872 64.7582C35.4169 64.1694 35.206 63.5982 35.0039 63.106C34.96 63.0006 35.0127 62.8776 35.1182 62.8336C35.2236 62.7897 35.3466 62.8424 35.3906 62.9479C35.6015 63.4576 35.83 64.0727 35.9091 64.7142C35.9969 65.5403 35.8124 66.2873 35.3818 66.8233C35.0127 67.3067 34.4239 67.5879 33.8615 67.5879ZM61.1391 66.7618C60.5942 67.8691 59.7154 68.7303 58.696 69.1697H37.0603C37.2888 69.0642 37.4909 68.9412 37.693 68.8094C38.3433 68.37 38.9585 67.8076 39.7406 67.6582C40.8303 67.4561 41.9639 68.1327 43.0536 67.913C44.1257 67.6933 44.9694 66.6476 46.0679 66.6651C47.096 66.6915 48.01 67.6757 49.0118 67.4297C49.996 67.1836 50.4706 65.8479 51.4812 65.76C52.0788 65.7073 52.5972 66.1203 53.1509 66.3488C54.4339 66.876 56.0685 66.2697 56.6924 65.0394C57.0088 64.4242 57.0439 63.6948 56.8594 63.0357H61.7191C61.9124 64.31 61.7015 65.6633 61.1391 66.7618Z" fill="#ABABAB"/>
<path d="M58.6962 69.3806H43.1593C43.045 69.3806 42.9483 69.284 42.9483 69.1697C42.9483 69.0555 43.045 68.9588 43.1593 68.9588H58.6523C59.619 68.537 60.4362 67.7285 60.9547 66.674C61.4644 65.6633 61.6753 64.4243 61.5523 63.2467H26.4008C26.1283 63.2467 25.8999 63.5279 25.8999 63.8706C25.8911 64.5297 25.9877 65.2064 26.1811 65.8303C26.2162 65.9446 26.1547 66.0588 26.0405 66.094C25.9262 66.1291 25.812 66.0676 25.7768 65.9533C25.5659 65.2767 25.4605 64.5736 25.4693 63.8618C25.4693 63.2906 25.8823 62.8161 26.392 62.8161H61.7193C61.8247 62.8161 61.9126 62.8952 61.9302 63.0006C62.1147 64.31 61.895 65.7161 61.315 66.8585C60.7438 68.0185 59.8387 68.9061 58.7665 69.363C58.749 69.3718 58.7226 69.3806 58.6962 69.3806Z" fill="#010101"/>
<path d="M77.6431 76.5427C75.78 78.81 73.1349 79.9436 69.734 79.9524C69.2594 79.9612 68.8376 79.6624 68.6267 79.2406C68.0994 78.1685 67.2206 77.2809 66.3067 76.4812C65.217 75.5145 64.0306 74.627 63.2046 73.423C63.0728 73.2385 62.9585 73.0539 62.8355 72.8694C62.15 71.7445 61.614 70.523 60.7088 69.5564C60.7088 70.1627 60.6561 70.8042 60.3309 71.3139C60.0058 71.8236 59.3203 72.1576 58.7667 71.8851C58.4591 71.7358 58.2658 71.437 58.134 71.1118C58.0813 70.98 58.0461 70.8394 58.0109 70.7076C57.8791 70.1364 57.7825 69.4773 57.7913 68.8709C57.8 68.7039 57.8176 68.5457 57.844 68.3876C57.3606 68.6424 56.8334 68.8709 56.2885 68.8445C55.8843 68.827 55.4712 68.6424 55.2252 68.3348C55.1373 68.2206 55.0846 68.0976 55.0406 67.957C54.944 67.5703 55.0934 67.1836 55.2428 66.8145C55.4976 66.1642 55.7525 65.4788 56.0161 64.8197C56.0776 64.6703 56.1303 64.5121 56.1919 64.3715C56.1831 64.3627 56.2006 64.3627 56.2006 64.3539C55.7349 63.7476 55.0758 63.2906 54.8122 62.5612C54.5837 61.9461 54.4343 61.2957 54.1619 60.6982V60.6894C54.1179 60.5839 54.0652 60.4785 54.0125 60.3818C53.7664 59.9512 53.45 59.5909 53.1864 59.1691C52.9316 58.7561 52.7206 58.2903 52.7558 57.807C52.8085 57.1742 53.2391 56.7964 53.784 56.603C54.2937 56.4185 54.9088 56.4009 55.3746 56.4888C56.1831 56.6206 56.9388 57.0951 57.4134 57.763C57.893 56.7949 58.7128 56.0377 59.7158 55.6364C58.5646 55.7857 57.2376 55.9879 56.0776 56.1373C55.647 56.19 55.2252 56.2427 54.8122 56.1636C54.3903 56.0845 53.9773 55.8561 53.7928 55.4694C53.6697 55.2145 53.6697 54.9421 53.7488 54.6697C53.8543 54.3094 54.1003 53.9667 54.4255 53.7645C54.9791 53.3954 55.6558 53.2988 56.3149 53.1757C56.394 53.1582 56.4643 53.1494 56.5434 53.123C58.3097 52.7627 60.0234 52.13 61.5964 51.2336C62.2203 50.8821 62.8619 50.4867 63.5649 50.557C64.3119 50.6273 64.8919 51.2073 65.4279 51.7433C67.0976 53.413 69.2594 54.6345 71.2016 55.9527C71.3861 56.067 71.5355 56.2164 71.7113 56.3658C72.1243 56.7173 72.634 56.9545 73.17 57.0161C74.0928 57.1215 75.0506 57.4027 75.6746 58.0003C76.4919 58.7736 76.6237 60.0303 76.5358 61.1464C76.3249 64.143 76.2458 67.087 76.6061 69.9957C76.6852 70.6724 76.7906 71.3579 76.9312 72.0258C77.107 72.9133 77.3355 73.8009 77.6079 74.6885C77.6782 74.8994 77.7485 75.1191 77.8188 75.3388C77.9594 75.7518 77.9155 76.2088 77.6431 76.5427Z" fill="#F47948"/>
<path d="M76.931 72.0433C76.6059 72.0521 76.2807 71.9555 75.9732 71.85C75.6041 71.727 75.2262 71.5776 74.8395 71.5161C74.2683 71.4282 73.6883 71.5688 73.1083 71.6303C72.5283 71.683 71.8956 71.6567 71.4474 71.2876C71.2629 71.147 71.1222 70.9009 71.2189 70.6988C71.2892 70.5494 71.4738 70.4879 71.6407 70.4879C71.8077 70.4879 71.9747 70.5406 72.1329 70.5582C72.5019 70.6021 72.9413 70.4088 72.9765 70.0485C73.0116 69.6794 72.6513 69.4245 72.3877 69.1697C72.1416 68.9324 71.9571 68.6248 71.9395 68.2821C71.9132 67.9482 72.1065 67.5791 72.4316 67.4736C72.6601 67.3945 72.9238 67.4561 73.1347 67.5791C73.3456 67.7021 73.5213 67.8779 73.6795 68.0624C74.075 68.493 74.4529 68.9236 74.9098 69.2839C75.358 69.6442 75.8941 69.9342 76.4653 70.0045C76.5092 70.0133 76.5532 70.0133 76.5971 70.0133C76.685 70.6812 76.7992 71.3667 76.931 72.0433Z" fill="#F26735"/>
<path d="M75.7535 74.1964C74.9099 74.1964 74.0662 73.8097 73.5214 73.1506C73.4775 73.0891 73.4247 73.0276 73.3808 72.9749C73.249 72.7991 73.1259 72.6321 72.959 72.5443C72.6426 72.3597 72.2472 72.4652 71.8341 72.5794C71.6759 72.6233 71.509 72.6673 71.3508 72.6936C70.472 72.843 69.5229 72.5003 68.9341 71.8324C68.6002 71.4458 68.319 70.8043 68.6178 70.2594C68.855 69.8024 69.3735 69.6443 69.8217 69.5124C70.3841 69.3455 70.6741 69.1433 70.7444 68.8797C70.7972 68.66 70.7005 68.4315 70.595 68.1591C70.5072 67.9394 70.4105 67.7109 70.3929 67.4561C70.3402 66.7618 70.929 66.1906 71.5266 66.0412C72.0626 65.9094 72.6866 66.0324 73.2841 66.3927C73.662 66.6212 73.9959 66.9112 74.3123 67.1924C74.4178 67.2803 74.5144 67.3682 74.6199 67.4561C74.9714 67.7549 75.4372 68.1064 75.9732 68.2382C76.1402 68.2733 76.3072 68.2909 76.4566 68.2909C76.5972 68.2997 76.6675 68.3788 76.6762 68.493C76.6762 68.6073 76.5884 68.7039 76.4741 68.7127C76.2896 68.7215 76.0875 68.6952 75.8765 68.6512C75.2526 68.5018 74.7341 68.1064 74.3475 67.7812C74.242 67.6933 74.1366 67.6055 74.0311 67.5088C73.7059 67.2276 73.4072 66.9639 73.0556 66.753C72.7656 66.5773 72.1944 66.3049 71.6144 66.4543C71.1926 66.5597 70.762 66.9639 70.7972 67.4297C70.8059 67.6142 70.885 67.7988 70.9729 68.0009C71.0959 68.2997 71.2365 68.6336 71.1399 68.9939C71.0256 69.4158 70.6478 69.7233 69.9711 69.9167C69.5405 70.0485 69.1362 70.1715 68.9781 70.4703C68.7935 70.8043 68.9781 71.2612 69.2417 71.56C69.7338 72.1224 70.5335 72.4036 71.2717 72.2806C71.4211 72.2543 71.5705 72.2191 71.7199 72.1752C72.1769 72.0521 72.6953 71.9203 73.1611 72.1839C73.3984 72.3158 73.5565 72.5267 73.7147 72.7376C73.7587 72.7903 73.8026 72.8518 73.8378 72.9046C74.1158 73.2351 74.4752 73.4876 74.8804 73.637C75.2857 73.7865 75.7229 73.8278 76.149 73.757C76.5005 73.6955 76.8432 73.5549 77.1332 73.344C77.2299 73.2736 77.3617 73.3 77.432 73.3967C77.5023 73.4933 77.4759 73.6252 77.3793 73.6955C77.0366 73.9415 76.6411 74.1085 76.2193 74.1788C76.0699 74.1788 75.9117 74.1964 75.7535 74.1964Z" fill="#F26735"/>
<path d="M56.5431 53.9754C56.3849 54.2215 56.1037 54.3445 55.8225 54.4324C55.1634 54.6521 54.4604 54.7312 53.7661 54.6873C53.8716 54.327 54.1264 53.993 54.4428 53.7821C54.9964 53.413 55.6731 53.3164 56.3322 53.1933C56.4113 53.1757 56.4904 53.167 56.5694 53.1406C56.587 53.1845 56.6134 53.2373 56.6222 53.2812C56.6661 53.5097 56.6661 53.7645 56.5431 53.9754ZM56.5607 65.4964C56.5519 66.0676 56.5519 66.63 56.5431 67.2012C55.9191 67.2451 55.3743 67.7373 55.2249 68.3348C55.1458 68.2206 55.0843 68.0976 55.0491 67.957C54.9525 67.5703 55.1019 67.1748 55.2513 66.8145C55.5061 66.1642 55.761 65.4788 56.0246 64.8197C56.0598 64.8197 56.1037 64.8197 56.1388 64.8285C56.3058 64.8548 56.464 64.9954 56.5255 65.1624C56.5607 65.2679 56.5607 65.3821 56.5607 65.4964ZM58.8367 70.1803C58.5204 70.4176 58.2743 70.7515 58.1425 71.1206C58.0898 70.9888 58.0546 70.8482 58.0194 70.7164C57.8788 70.1451 57.791 69.486 57.7997 68.8797C57.9052 68.7654 58.0194 68.66 58.1513 68.5721C58.2919 68.4754 58.5116 68.3876 58.6258 68.5282C58.6785 68.5897 58.6961 68.6776 58.7049 68.7567L58.8367 70.1803Z" fill="white"/>
<path d="M77.643 76.5427C75.78 78.81 73.1348 79.9436 69.7339 79.9524C69.2594 79.9612 68.8376 79.6624 68.6267 79.2406C68.0994 78.1685 67.2206 77.2809 66.3067 76.4812C65.217 75.5146 64.0306 74.627 63.2045 73.423C63.0727 73.2385 62.9585 73.054 62.8354 72.8694C63.4682 73.2033 64.2239 73.3088 64.9006 73.0715C65.3664 72.9046 65.8233 72.5882 66.3242 72.6321C67.0009 72.6761 67.4579 73.3176 67.8533 73.8624C68.2576 74.4161 68.8639 74.9873 69.5142 74.8115C70.0239 74.6797 70.4018 74.1261 70.9203 74.1612C71.6848 74.214 71.9309 75.4443 72.6954 75.4882C73.17 75.5146 73.5391 75.0576 73.9961 74.9609C74.7079 74.8115 75.3054 75.5321 76.0261 75.6288C76.5973 75.6991 77.1509 75.3388 77.4848 74.873C77.52 74.8203 77.5639 74.7588 77.5903 74.6973C77.6606 74.9082 77.7309 75.1279 77.8012 75.3476C77.9594 75.7518 77.9154 76.2088 77.643 76.5427Z" fill="#F26735"/>
<path d="M74.7164 79.0912C74.677 79.0904 74.6386 79.0795 74.6047 79.0595C74.5708 79.0395 74.5427 79.011 74.5231 78.977C74.5107 78.9522 74.5033 78.9252 74.5015 78.8976C74.4997 78.87 74.5033 78.8422 74.5123 78.8161C74.5213 78.7899 74.5355 78.7658 74.5539 78.7451C74.5724 78.7244 74.5947 78.7077 74.6197 78.6958C75.7241 78.1471 76.698 77.3679 77.4758 76.4109C77.6867 76.1473 77.7394 75.7694 77.6164 75.4267C77.5461 75.207 77.467 74.9873 77.3967 74.7764C75.9203 70.1012 76.0258 65.2679 76.3246 61.1551C76.43 59.7754 76.1576 58.7736 75.5249 58.1761C75.0152 57.6927 74.1891 57.3676 73.1346 57.2445C72.5809 57.183 72.0361 56.937 71.5615 56.5415L71.4737 56.4624C71.3418 56.3482 71.21 56.2339 71.0782 56.1461C70.6124 55.8297 70.1379 55.5221 69.6634 55.2145C68.1343 54.2215 66.5612 53.2021 65.2694 51.9103C64.7334 51.3742 64.1973 50.8558 63.5382 50.7854C62.9406 50.7327 62.3694 51.0579 61.807 51.3742L61.6927 51.4358C60.1009 52.3428 58.3743 52.9896 56.5782 53.3515C56.5343 53.3691 56.4815 53.3779 56.42 53.3867L56.13 53.4394C55.5764 53.5448 55.0052 53.6591 54.5482 53.9579C54.2758 54.1336 54.0473 54.4324 53.9594 54.7488C53.8891 54.9861 53.8979 55.2058 53.9946 55.3991C54.1352 55.6891 54.4515 55.9 54.8646 55.9791C55.2424 56.0494 55.6467 55.9967 56.0685 55.9527C56.587 55.8824 57.1406 55.8033 57.7031 55.7242C58.3797 55.6276 59.074 55.5309 59.7067 55.4518C59.8121 55.443 59.9088 55.5045 59.9352 55.61C59.9615 55.7154 59.9088 55.8209 59.8121 55.8561C58.8455 56.2427 58.0897 56.9458 57.624 57.8773C57.5888 57.9476 57.5273 57.9915 57.4482 57.9915C57.4123 57.9958 57.3759 57.9898 57.3432 57.9742C57.3106 57.9587 57.283 57.9342 57.2637 57.9036C56.8155 57.2797 56.1212 56.8403 55.3567 56.7173C54.8734 56.6294 54.3021 56.6733 53.8627 56.8227C53.3091 57.0248 53.0103 57.3676 52.9752 57.8421C52.9488 58.2024 53.0718 58.6067 53.3706 59.0724C53.4849 59.257 53.6167 59.4327 53.7397 59.6085C53.8979 59.8282 54.0561 60.0479 54.1967 60.2939C54.2582 60.3994 54.3109 60.5136 54.3549 60.6191C54.3549 60.6279 54.3637 60.6367 54.3637 60.6454C54.5394 61.0233 54.6624 61.4188 54.7855 61.8054C54.8558 62.0339 54.9349 62.2712 55.014 62.4997C55.1721 62.9391 55.4973 63.2818 55.84 63.6333C56.0158 63.8267 56.2091 64.02 56.3673 64.2309C56.3937 64.2661 56.4112 64.31 56.4112 64.3627C56.4112 64.3891 56.4024 64.4067 56.4024 64.433C56.4024 64.4418 56.3937 64.4594 56.3937 64.4682C56.3585 64.5385 56.3321 64.6176 56.3058 64.6967C56.2794 64.767 56.253 64.8461 56.2179 64.9164C56.0509 65.3382 55.884 65.7776 55.717 66.2082L55.4446 66.9112C55.3127 67.2364 55.1721 67.6054 55.2512 67.9306C55.2864 68.0448 55.3303 68.1503 55.3918 68.2294C55.5852 68.4754 55.9455 68.6424 56.297 68.66C56.8067 68.6776 57.3164 68.4491 57.747 68.2294C57.8173 68.1942 57.9052 68.1942 57.9667 68.247C58.0282 68.2909 58.0634 68.3788 58.0458 68.4579C58.0194 68.6073 58.0106 68.7567 58.0018 68.9236C57.9931 69.4421 58.0721 70.0748 58.2127 70.6988L58.2391 70.7954C58.2655 70.8921 58.2918 70.9888 58.327 71.0767C58.4588 71.4018 58.6346 71.6215 58.8543 71.7357C59.3112 71.9554 59.8824 71.6479 60.1461 71.2348C60.4537 70.7603 60.4888 70.1364 60.4888 69.5915C60.4888 69.5036 60.5415 69.4245 60.6206 69.3982C60.6997 69.363 60.7964 69.3894 60.8491 69.4509C61.517 70.1539 61.9915 71.0064 62.4485 71.8236L62.5364 71.973C62.5891 72.0785 62.554 72.2015 62.4573 72.263C62.3518 72.3157 62.2288 72.2806 62.1673 72.1839L62.0794 72.0258C61.7015 71.3579 61.35 70.7076 60.893 70.1364C60.8579 70.5933 60.7612 71.0591 60.4976 71.4633C60.1285 72.0433 59.3464 72.4388 58.6697 72.1136C58.3534 71.9554 58.1073 71.6567 57.9315 71.2261C57.8876 71.1206 57.8612 71.0151 57.8349 70.9097L57.8085 70.8042C57.6503 70.1364 57.5712 69.4685 57.58 68.9061C57.58 68.8621 57.5888 68.827 57.5888 68.783C57.1934 68.9676 56.7452 69.1082 56.2794 69.0906C55.8049 69.073 55.3303 68.8445 55.0579 68.5018C54.9612 68.37 54.8909 68.2206 54.8382 68.0448C54.724 67.5791 54.8997 67.1309 55.0491 66.7618L55.3127 66.0676C55.4797 65.637 55.6467 65.1976 55.8137 64.767C55.84 64.6967 55.8664 64.6264 55.8927 64.5648C55.9103 64.5121 55.9279 64.4682 55.9455 64.4242C55.8137 64.2573 55.6643 64.1079 55.5149 63.9497C55.1546 63.5718 54.7943 63.1851 54.6009 62.6667C54.513 62.4382 54.4427 62.1921 54.3637 61.9548C54.2406 61.577 54.1176 61.1815 53.9506 60.8212C53.9418 60.8124 53.9418 60.8036 53.9418 60.7861C53.9067 60.6982 53.8627 60.6103 53.81 60.5224C53.6782 60.2939 53.5288 60.0918 53.3706 59.8721C53.2388 59.6876 53.107 59.503 52.984 59.3185C52.6412 58.7736 52.4918 58.2815 52.527 57.8245C52.5797 57.183 52.9927 56.6909 53.6958 56.4361C53.8979 56.3658 54.1264 56.313 54.3549 56.2867C54.0034 56.1373 53.7309 55.9 53.5815 55.5924C53.4409 55.3112 53.4234 54.9861 53.52 54.6433C53.643 54.2303 53.9243 53.8524 54.2846 53.6151C54.803 53.2724 55.4182 53.1494 56.0158 53.0351L56.3146 52.9736C56.3585 52.9648 56.4112 52.9561 56.4552 52.9385C58.2303 52.5782 59.9088 51.9454 61.4555 51.0667L61.5697 51.0051C62.1849 50.6536 62.8176 50.2933 63.547 50.3636C64.3555 50.4427 64.9706 51.0491 65.5067 51.5764C66.7985 52.8682 68.354 53.8788 69.8655 54.8542C70.34 55.1618 70.8146 55.4694 71.2803 55.7857C71.4385 55.8912 71.5791 56.0142 71.7197 56.1373L71.8076 56.2076C72.2118 56.5503 72.6776 56.7524 73.1521 56.8139C74.3121 56.9458 75.1997 57.2973 75.7797 57.8597C76.5091 58.5539 76.8167 59.67 76.7024 61.1815C76.3949 65.4612 76.307 70.0485 77.757 74.6445C77.8273 74.8554 77.8976 75.0751 77.9679 75.2861C78.1349 75.7694 78.0558 76.3054 77.7482 76.6745C76.9134 77.6939 75.9027 78.5024 74.7515 79.0736C74.7779 79.0824 74.7515 79.0912 74.7164 79.0912ZM55.8488 56.3921C56.4464 56.5767 56.9824 56.9194 57.3955 57.3939C57.7206 56.8491 58.1512 56.3745 58.6521 56.0054C58.3534 56.0494 58.0546 56.0933 57.7558 56.1285C57.1934 56.2076 56.6397 56.2867 56.1212 56.357C56.0334 56.3658 55.9367 56.3745 55.8488 56.3921Z" fill="#010101"/>
<path d="M61.104 58.5451C61.7982 57.306 63.3361 56.8051 64.2501 58.1233C64.4961 58.466 64.6367 58.8527 64.7422 59.2394C64.4873 58.923 64.2589 58.5979 63.9952 58.3342C63.0725 57.3148 62.0355 57.8421 61.104 58.5451Z" fill="#EB562C"/>
<path d="M59.7334 55.6452C60.7879 55.2936 62.0622 54.573 63.1431 55.2497C65.1204 56.4273 67.0361 58.7033 66.0958 61.1288C65.7004 62.2624 64.7601 63.1676 63.6528 63.5103C64.6898 63.0094 65.4807 62.0867 65.7882 61.0233C66.5176 58.7033 64.7513 56.77 62.9761 55.5133C61.9743 54.8543 60.7879 55.487 59.7334 55.6452Z" fill="#EB562C"/>
<path d="M62.1501 55.0388C62.1588 54.4763 62.2555 54.1512 62.5719 53.6767C62.8619 54.1688 62.6598 54.8103 62.1501 55.0388ZM65.384 57.3236C65.964 57.1918 66.2364 57.1479 66.8252 57.0864C66.6231 57.6576 65.7531 57.7982 65.384 57.3236ZM58.7492 52.6485C59.0304 53.0967 59.1182 53.29 59.2501 53.8085C58.714 53.7821 58.4064 53.0703 58.7492 52.6485ZM63.4858 50.9788C63.5034 51.427 63.5034 51.4445 63.354 51.8663C62.8882 51.7257 63.0025 50.97 63.4858 50.9788ZM72.3704 57.4994C73.1788 58.0706 73.2316 59.4854 72.4582 60.1182C72.6604 59.1691 72.634 58.4309 72.3704 57.4994ZM74.7167 58.4221C75.5604 58.8439 75.9119 60.083 75.4022 60.8827C75.3013 60.0322 75.0701 59.2023 74.7167 58.4221ZM58.0022 68.3612C57.8616 67.9042 57.9934 67.5176 58.3976 67.2539C58.5382 67.7109 58.3976 68.0888 58.0022 68.3612Z" fill="#EB562C"/>
<path d="M63.6527 63.5191C63.433 63.6158 63.2046 63.6333 62.9761 63.5982L63.6527 63.5191Z" fill="#F47948"/>
<path d="M56.2622 64.3627C58.3186 65.4436 59.7686 67.4561 60.7089 69.5388C59.2501 67.7549 57.9758 65.927 56.2622 64.3627ZM61.3768 69.0027C61.1219 68.1591 61.8513 67.1485 62.7301 67.1397C62.1149 67.7461 61.7546 68.2382 61.3768 69.0027ZM63.3189 64.143C63.9165 64.1079 64.2943 64.187 64.8216 64.4682C64.3207 64.7933 63.644 64.6352 63.3189 64.143Z" fill="#EB562C"/>
<path d="M52.4043 60.2061L49.3812 57.3676L48.1509 56.2164C48.0631 56.1373 48.0894 56.0406 48.2037 56.0143L49.557 55.7243L54.2937 54.7137C55.5855 57.4291 55.0494 59.3097 52.4043 60.2061Z" fill="#FFCE3B"/>
<path d="M77.7661 61.4363L76.193 66.9288L72.6515 65.9357L71.14 65.5051L67.9588 64.6L63.2221 63.2554L61.0867 62.6491L52.4394 60.206L51.9473 58.8615C51.877 58.7824 51.9297 58.7121 52.0439 58.6945L53.3445 58.5715C53.4676 58.5539 53.5027 58.4748 53.4324 58.3957L52.0264 57.016C51.9473 56.937 51.9912 56.8491 52.0967 56.8403L53.8015 56.6118C53.9158 56.5942 53.9509 56.5239 53.8894 56.4448L53.1161 55.4957C53.0633 55.4254 53.0809 55.3639 53.16 55.3376L54.3112 54.7048L54.7945 54.8367L56.7103 55.3815L62.9673 57.183L69.5406 59.0724L71.2718 59.5645L72.4406 59.8985L73.8818 60.3115L77.7661 61.4363Z" fill="#F05360"/>
<path d="M63.2309 63.2642L61.0955 62.6579L52.4394 60.206L51.9473 58.8615C51.877 58.7824 51.9297 58.7121 52.0439 58.6945L53.3445 58.5715C53.4676 58.5539 53.5027 58.4748 53.4324 58.3957L52.0264 57.016C51.9473 56.937 51.9912 56.8491 52.0967 56.8403L53.8015 56.6118C53.9158 56.5942 53.9509 56.5239 53.8894 56.4448L53.1161 55.4957C53.0633 55.4254 53.0809 55.3639 53.16 55.3376L54.3112 54.7048L54.7945 54.8367L56.7103 55.3815C56.6224 55.6539 56.6049 55.9527 56.6839 56.2251C56.807 56.6382 57.1321 56.9897 57.5452 57.1303C57.923 57.2709 58.3712 57.2445 58.6964 57.4994C59.0479 57.7718 59.1006 58.2903 59.1445 58.7385C59.1797 59.1867 59.2852 59.7051 59.6806 59.9248C60.1024 60.1709 60.6736 59.9512 61.1042 60.1973C61.447 60.4082 61.5612 60.8388 61.693 61.2254C61.9742 62.0515 62.5279 62.7633 63.2309 63.2642Z" fill="#EF4050"/>
<path d="M77.9153 61.4979C78.5919 61.8846 78.715 63.3961 78.1965 64.8812C77.678 66.3664 76.7113 67.2539 76.0434 66.8673C75.3668 66.4806 75.2438 64.9603 75.7622 63.4839C76.2807 62.0076 77.2386 61.12 77.9153 61.4979Z" fill="#EE273E"/>
<path d="M49.8294 55.6715L48.2125 56.0142C48.0982 56.0406 48.0719 56.1373 48.1597 56.2164L49.3549 57.3412C49.7152 56.8227 49.8734 56.2603 49.8294 55.6715Z" fill="#010101"/>
<path d="M56.2006 64.3715C56.2006 64.3627 56.2094 64.3627 56.2094 64.3539C55.7437 63.7476 55.0846 63.2906 54.8297 62.5612C54.6013 61.9461 54.4519 61.2958 54.1794 60.707V60.6982C54.1267 60.6015 54.0828 60.4873 54.0213 60.3906C53.7752 59.96 53.4588 59.5997 53.1952 59.1779C52.9403 58.7649 52.7294 58.2991 52.7646 57.8158C52.8173 57.1918 53.2479 56.8052 53.8016 56.6118C54.4528 56.3959 55.1556 56.3919 55.8093 56.6003C56.4629 56.8087 57.0337 57.2188 57.4397 57.7718C57.4485 57.763 57.4485 57.7543 57.4573 57.7455C57.5628 57.8773 57.677 58.0355 57.7649 58.1849C58.5382 59.4152 59.5488 60.5927 60.454 61.744C60.8582 62.2449 61.2713 62.7633 61.8161 63.0973C62.1588 63.317 62.5719 63.5367 62.9761 63.607L56.2006 64.3715Z" fill="#F47948"/>
<path d="M55.4273 58.8703C55.2516 59.5997 54.3816 59.9951 54.1706 60.6982C54.1179 60.6015 54.074 60.4873 54.0125 60.3906C53.7664 59.96 53.45 59.5997 53.1864 59.1779C52.9316 58.7648 52.7206 58.2991 52.7558 57.8158C52.8085 57.1918 53.2391 56.8051 53.7928 56.6118C53.8367 56.6206 53.8719 56.6206 53.9158 56.6294C54.3552 56.7612 54.7067 57.0952 54.9879 57.4642C55.2955 57.8773 55.5416 58.387 55.4273 58.8703Z" fill="white"/>
<path d="M56.2003 64.5912C56.1037 64.5912 56.0246 64.5297 55.9982 64.4418C55.8576 64.2661 55.6994 64.0991 55.5412 63.9321C55.1809 63.5542 54.8118 63.1676 54.6273 62.6403C54.5394 62.403 54.4603 62.157 54.3812 61.9109C54.267 61.5418 54.144 61.1552 53.977 60.8036C53.9682 60.7949 53.9682 60.7861 53.9682 60.7773L53.9506 60.7333C53.9155 60.6543 53.8803 60.5752 53.8364 60.5049C53.7046 60.2764 53.5552 60.0743 53.397 59.8546C53.2652 59.67 53.1334 59.4942 53.0191 59.3009C52.6764 58.7561 52.527 58.2639 52.5621 57.807C52.6149 57.1655 53.0279 56.6733 53.7309 56.4185C54.2318 56.2427 54.8646 56.19 55.427 56.2867C56.2618 56.4273 57.0264 56.8843 57.5361 57.5521C57.5537 57.5609 57.5712 57.5697 57.5888 57.5873C57.6679 57.6576 57.6855 57.7718 57.6327 57.8597C57.624 57.8773 57.6064 57.9036 57.5976 57.9124C57.5782 57.9375 57.5526 57.9572 57.5233 57.9695C57.4941 57.9818 57.4622 57.9864 57.4306 57.9827C57.3691 57.9827 57.3076 57.9476 57.2724 57.8949C56.8243 57.2709 56.13 56.8403 55.3655 56.7085C54.8821 56.6294 54.3109 56.6646 53.8803 56.8139C53.3267 57.0161 53.0279 57.3588 52.984 57.8421C52.9576 58.2024 53.0806 58.6067 53.3794 59.0724C53.4937 59.257 53.6167 59.4327 53.7485 59.5997C53.9067 59.8194 54.0737 60.0391 54.2055 60.2852C54.2494 60.3643 54.2934 60.4521 54.3373 60.54L54.3724 60.6015C54.3812 60.6103 54.3812 60.6279 54.39 60.6367C54.557 61.0058 54.68 61.3924 54.8031 61.7703C54.8821 62.0076 54.9524 62.2449 55.0403 62.4821C55.1985 62.9303 55.5237 63.2643 55.8664 63.6246C56.0421 63.8091 56.2267 64.0112 56.3937 64.2221C56.42 64.2573 56.4288 64.2924 56.4376 64.3276C56.4376 64.3627 56.4376 64.4067 56.42 64.4418C56.3937 64.5209 56.3234 64.5736 56.2355 64.5824C56.2091 64.5824 56.2003 64.5912 56.2003 64.5912Z" fill="#010101"/>
<path d="M57.4306 57.7718C58.45 58.8439 59.3815 60.0039 60.2867 61.1727C61.1215 62.2448 62.1233 63.7564 63.6524 63.5191C62.1497 64.1342 60.7524 62.4997 59.9615 61.4364C59.0652 60.25 58.1952 59.0461 57.4306 57.7718ZM55.673 63.0358C55.6379 62.2273 56.4112 61.4715 57.2197 61.5242C56.6221 62.0603 56.2267 62.447 55.673 63.0358Z" fill="#EB562C"/>
<path d="M50.2334 33.0954H36.5858C36.4716 33.0954 36.3749 32.9988 36.3749 32.8845C36.3749 32.7703 36.4716 32.6736 36.5858 32.6736H50.2334C50.3476 32.6736 50.4443 32.7703 50.4443 32.8845C50.4443 32.9988 50.3476 33.0954 50.2334 33.0954ZM52.1931 37.4367H32.9916C32.8773 37.4367 32.7807 37.34 32.7807 37.2258C32.7807 37.1115 32.8773 37.0148 32.9916 37.0148H52.1931C52.3073 37.0148 52.404 37.1115 52.404 37.2258C52.404 37.34 52.3073 37.4367 52.1931 37.4367ZM51.3758 41.7867H32.1743C32.06 41.7867 31.9634 41.69 31.9634 41.5758C31.9634 41.4615 32.06 41.3648 32.1743 41.3648H51.3758C51.49 41.3648 51.5867 41.4615 51.5867 41.5758C51.5867 41.69 51.4988 41.7867 51.3758 41.7867ZM52.7555 45.9433H33.554C33.4397 45.9433 33.3431 45.8467 33.3431 45.7324C33.3431 45.6182 33.4397 45.5215 33.554 45.5215H52.7555C52.8697 45.5215 52.9664 45.6182 52.9664 45.7324C52.9664 45.8467 52.8785 45.9433 52.7555 45.9433ZM46.1207 50.1H34.9337C34.8194 50.1 34.7228 50.0033 34.7228 49.8891C34.7228 49.7748 34.8194 49.6782 34.9337 49.6782H46.1207C46.2349 49.6782 46.3316 49.7748 46.3316 49.8891C46.3316 50.0033 46.2349 50.1 46.1207 50.1Z" fill="#010101"/>
<path d="M43.4759 58.6682C43.0716 58.6682 42.6937 58.8615 42.4301 59.1779C42.1577 59.4942 41.9995 59.9336 41.9995 60.4082C41.9995 59.4415 41.3404 58.6594 40.5319 58.6594C40.9362 58.6594 41.3053 58.4661 41.5777 58.1497C41.8413 57.8333 42.0083 57.3939 42.0083 56.9194C42.0083 57.4027 42.1753 57.8333 42.4389 58.1497C42.6937 58.4661 43.0628 58.6682 43.4759 58.6682ZM41.2174 67.7988C40.8131 67.7988 40.4353 67.9921 40.1716 68.3085C39.8992 68.6248 39.741 69.0642 39.741 69.5388C39.741 68.5721 39.0819 67.79 38.2734 67.79C38.6777 67.79 39.0468 67.5967 39.3192 67.2803C39.5828 66.9639 39.7498 66.5245 39.7498 66.05C39.7498 66.5333 39.9168 66.9639 40.1804 67.2803C40.4353 67.6055 40.8043 67.7988 41.2174 67.7988ZM71.3159 73.8097C70.9116 73.8097 70.5337 74.003 70.2701 74.3194C69.9977 74.6358 69.8395 75.0751 69.8395 75.5497C69.8395 74.583 69.1804 73.8009 68.3719 73.8009C68.7762 73.8009 69.1453 73.6076 69.4177 73.2912C69.6813 72.9748 69.8483 72.5355 69.8483 72.0609C69.8483 72.5442 70.0153 72.9748 70.2789 73.2912C70.5337 73.6164 70.9116 73.8097 71.3159 73.8097ZM45.9277 29.0003C45.5234 29.0003 45.1456 29.1936 44.8819 29.51C44.6095 29.8264 44.4513 30.2658 44.4513 30.7403C44.4513 29.7736 43.7922 28.9915 42.9837 28.9915C43.388 28.9915 43.7571 28.7982 44.0295 28.4818C44.2931 28.1654 44.4601 27.7261 44.4601 27.2515C44.4601 27.7348 44.6271 28.1654 44.8907 28.4818C45.1543 28.807 45.5234 29.0003 45.9277 29.0003ZM44.4513 56.7876C44.3549 56.7894 44.2601 56.8125 44.1735 56.855C44.087 56.8975 44.0108 56.9585 43.9504 57.0336C43.8186 57.183 43.7395 57.3939 43.7395 57.6312C43.7395 57.1655 43.4231 56.7876 43.0277 56.7876C43.221 56.7876 43.3968 56.6909 43.5286 56.5415C43.6516 56.3921 43.7395 56.1812 43.7395 55.9439C43.7395 56.1724 43.8186 56.3833 43.9504 56.5415C44.0822 56.6909 44.258 56.7876 44.4513 56.7876ZM56.0425 32.8318C55.6471 32.7791 55.5416 31.3203 56.2271 29.7209C56.9125 28.1127 58.055 27.1988 58.3625 27.4448C58.6877 27.6997 58.178 28.8861 57.5804 30.3009C56.9653 31.707 56.4468 32.9021 56.0425 32.8318ZM55.814 35.4418C55.6471 35.4506 55.4801 35.0288 55.5153 34.5103C55.5416 33.9918 55.7437 33.5964 55.9195 33.6139C56.0953 33.6403 56.1831 34.0533 56.1568 34.5455C56.1216 35.0376 55.9986 35.433 55.814 35.4418Z" fill="white"/>
<path d="M46.6745 65.2151C47.8782 65.2151 48.8539 64.8886 48.8539 64.4857C48.8539 64.0829 47.8782 63.7563 46.6745 63.7563C45.4709 63.7563 44.4951 64.0829 44.4951 64.4857C44.4951 64.8886 45.4709 65.2151 46.6745 65.2151Z" fill="white"/>
<path d="M50.119 64.8021C50.4928 64.8021 50.7957 64.6605 50.7957 64.4858C50.7957 64.311 50.4928 64.1694 50.119 64.1694C49.7453 64.1694 49.4424 64.311 49.4424 64.4858C49.4424 64.6605 49.7453 64.8021 50.119 64.8021Z" fill="white"/>
<path d="M68.9076 60.6015C69.0658 60.2324 70.2346 60.373 71.5616 60.8036C72.2207 61.0233 72.8094 61.2694 73.2137 61.5154C73.407 61.6297 73.4422 61.7088 73.5476 61.7703C73.6443 61.8318 73.7498 61.867 73.8025 61.9461C73.8552 62.0251 73.8552 62.1745 73.7058 62.3151C73.5652 62.4645 73.2137 62.5261 72.9501 62.5173C72.4491 62.5261 71.7901 62.4206 71.0958 62.1921C69.7161 61.7439 68.7495 60.9706 68.9076 60.6015ZM66.8249 59.6524C66.904 59.4942 67.2819 59.5206 67.6861 59.7051C68.0816 59.8897 68.354 60.1621 68.2837 60.3291C68.2134 60.4873 67.8267 60.4785 67.4137 60.2851C67.0007 60.1006 66.7458 59.8106 66.8249 59.6524Z" fill="white"/>
</svg>
