<svg width="105" height="100" viewBox="0 0 105 100" fill="none" xmlns="http://www.w3.org/2000/svg">
<path opacity="0.69" d="M81.8863 23.7505L66.4822 3.04803C64.1471 -0.0936296 59.8723 -0.927747 56.5711 1.11412L34.8023 14.5593M34.8023 14.5593L16.9272 25.6298L16.7868 25.722H16.8169C16.487 25.9497 16.1714 26.1985 15.872 26.4669C16.162 26.2053 16.4676 25.9624 16.7868 25.7391L5.19956 32.9348C0.740388 35.6962 -1.14911 41.3266 0.711556 46.3083C4.7688 57.1978 11.6777 75.693 15.3209 85.3593C16.0763 87.31 17.4235 88.9616 19.1645 90.071L21.7791 91.2395C22.0062 91.301 22.2365 91.3557 22.467 91.4001C24.7754 91.8565 27.167 91.4168 29.1757 90.1666L36.5221 85.5949C42.5664 81.8237 50.4203 83.356 54.6845 89.1383L59.8838 96.1598C61.3003 98.0802 63.3664 99.3893 65.6774 99.8328C65.9078 99.8808 66.1415 99.9151 66.3752 99.9454C67.3277 100.039 68.2879 100.012 69.2337 99.8632C71.2676 99.4882 73.1286 98.4503 74.5398 96.9043C81.3988 89.3023 94.4787 74.6953 102.169 66.0951C105.689 62.1625 105.956 56.2166 102.804 51.9701L94.599 40.8894L94.7158 41.0704C94.6757 41.0122 94.639 40.9509 94.5955 40.8894C94.5723 40.8518 94.5489 40.8141 94.5221 40.7766L81.8863 23.7505" fill="#CAE5F8"/>
<path d="M68.2021 42.5049C71.5402 39.8155 75.0396 37.5057 78.3672 35.3921C76.9043 34.7277 76.7155 34.0906 73.0305 33.4473C74.7264 30.2231 75.2168 27.7815 75.6398 25.9115C74.1716 26.2016 73.8373 26.3429 72.5738 26.461C73.1106 24.8589 73.0653 24.0922 73.2066 23.143C71.8629 23.143 66.9839 23.2959 63.4149 22.6388C61.353 22.2591 57.9136 22.5028 55.7325 22.6388C50.0657 22.9816 50.5224 22.7633 49.1935 22.4342C43.9622 31.2852 42.4224 31.7756 39.772 34.9344C39.3311 34.9681 39.0738 34.9924 38.6223 35.0304C33.8836 43.7684 34.2 43.22 34.1178 43.3845L34.0893 43.4383C33.255 45.1184 32.6781 46.6762 32.3691 48.0863C31.4336 52.3789 28.144 57.8158 25.6328 61.5273C26.9343 61.9544 27.5798 62.1854 29.2894 62.6526C28.5427 63.7073 28.2474 64.0459 27.5376 64.9318C28.2759 65.3252 29.2694 66.3314 32.3364 67.0053C32.02 69.0514 31.9673 69.9954 31.9082 70.7284C32.503 70.8528 33.8931 71.5721 38.1509 71.5721C43.2936 71.5721 49.8822 70.5554 54.9299 69.4986C55.259 66.4073 55.7357 62.0905 56.1249 59.0572C56.2155 58.4471 56.3824 57.8507 56.6216 57.2821C58.0128 57.5079 59.4756 57.3043 60.794 56.8223C59.4545 58.4043 58.8502 60.4652 59.8163 62.2761L60.4185 63.5154C61.5354 66.0793 65.2131 67.0591 68.8349 65.5087C70.4781 64.8063 71.8418 63.6862 72.674 62.3531C74.3235 59.7164 73.0526 57.7578 73.0442 57.7061L72.4609 56.4975C72.2084 55.9107 71.8219 55.3913 71.3324 54.9808C73.426 54.8406 75.0534 53.8481 75.7442 52.2639L76.3464 51.0247C77.1416 49.5313 76.8737 47.8406 75.9699 46.3841C74.43 43.9277 71.1721 42.3362 68.2021 42.5049Z" fill="white"/>
<path d="M53.9333 33.3144C53.9333 33.3144 72.3545 33.3882 76.2178 35.468C76.2178 35.468 66.0928 41.8805 63.0701 45.9411C60.0473 50.0016 55.5428 55.0536 55.0481 58.9137C54.5535 62.7739 53.9333 68.5947 53.9333 68.5947C53.9333 68.5947 39.1519 71.7145 33.061 69.9321C33.061 69.9321 33.9522 58.6469 39.3744 49.1336C44.7965 39.6203 53.9333 33.3144 53.9333 33.3144Z" fill="#215D53"/>
<path d="M51.8785 26.2321C51.8785 26.2321 68.5658 28.5103 74.2115 27.3216C74.2115 27.3216 72.5778 34.6507 67.7241 38.3653C62.8704 42.0799 56.5349 47.5759 54.8474 53.1172C53.1599 58.6585 50.789 65.457 50.789 65.457C50.789 65.457 34.9919 68.3247 29.1489 64.6597C29.1489 64.6597 35.2397 57.0839 36.4263 49.6557C37.6128 42.2275 43.4568 35.8889 47.124 32.8187C50.7911 29.7485 51.8785 26.2321 51.8785 26.2321Z" fill="#43AA99"/>
<path d="M49.6996 23.7072C49.6996 23.7072 45.8363 30.2684 42.8653 33.1657C39.8942 36.0629 34.6208 42.8962 33.4374 48.3184C32.254 53.7405 27.3413 60.9461 27.3413 60.9461C27.3413 60.9461 40.1874 65.1796 47.5449 63.0312C47.5449 63.0312 52.002 56.643 53.1906 51.9634C54.3793 47.2837 59.504 40.9704 62.7725 38.3705C66.041 35.7707 71.4631 28.7138 71.9831 24.2567C71.9831 24.2567 66.7096 24.3559 63.2186 23.7125C59.7276 23.0691 51.9282 24.3506 49.6996 23.7072Z" fill="#5ED4BE"/>
<path d="M52.3579 45.208C55.4711 42.31 56.1986 38.031 53.9828 35.6507C51.767 33.2704 47.447 33.6901 44.3338 36.5881C41.2205 39.4861 40.493 43.7651 42.7088 46.1454C44.9246 48.5257 49.2447 48.106 52.3579 45.208Z" fill="#43AA99"/>
<path d="M62.3625 46.8777L63.3666 37.8643C63.3666 37.8643 52.2997 34.9481 39.3007 36.0618L36.0586 42.0736C36.0586 42.0736 52.5602 41.369 57.7187 43.3603C57.8646 43.4168 57.9895 43.5171 58.0762 43.6474C58.1628 43.7777 58.2071 43.9316 58.2028 44.088L57.9602 52.7227C57.9602 52.7227 60.6645 51.2304 62.3625 46.8777Z" fill="#4C3CE3"/>
<path d="M68.4078 64.5078C65.4273 65.7829 62.2906 65.1353 61.4058 63.0597L60.6675 61.5462L61.2201 61.311C61.8646 57.5479 67.8879 54.9703 71.0583 57.1018L71.459 56.9309L72.1973 58.4433C73.0843 60.5158 71.3884 63.2337 68.4078 64.5078Z" fill="#FF5800"/>
<path d="M67.6629 63.0134C70.6435 61.7391 72.3403 59.0235 71.4529 56.9481C70.5656 54.8727 67.43 54.2234 64.4495 55.4978C61.4689 56.7721 59.7721 59.4877 60.6595 61.5631C61.5468 63.6385 64.6824 64.2878 67.6629 63.0134Z" fill="#FCC836"/>
<path d="M64.4391 61.8205L64.6089 61.3332C64.1656 61.1241 63.7865 60.7999 63.511 60.3945C63.4835 60.3535 63.4644 60.3074 63.4548 60.2589C63.4453 60.2104 63.4454 60.1605 63.4552 60.1121C63.465 60.0636 63.4843 60.0176 63.512 59.9767C63.5396 59.9357 63.5752 59.9007 63.6164 59.8735L63.685 59.8292C63.7583 59.7822 63.8471 59.766 63.9323 59.7842C64.0174 59.8024 64.0919 59.8534 64.1396 59.9263C64.321 60.2073 64.5674 60.4406 64.8578 60.6065L65.3082 59.3114C64.8757 59.0266 64.5832 58.7478 64.4307 58.475C64.0088 57.7167 64.7154 56.1821 66.2426 56.6209L66.3586 56.2865L66.7615 56.4268L66.6434 56.7675C66.9822 56.9161 67.2851 57.1359 67.5314 57.4119C67.5647 57.4503 67.5898 57.4952 67.6051 57.5437C67.6204 57.5922 67.6256 57.6434 67.6204 57.694C67.6151 57.7446 67.5996 57.7936 67.5747 57.8379C67.5498 57.8823 67.516 57.9211 67.4755 57.9519C67.465 57.9519 67.2003 58.2134 66.9682 57.9519C66.805 57.766 66.6092 57.6115 66.3903 57.4963L65.9547 58.7513C66.0137 58.7967 66.6044 59.1352 66.868 59.6141C67.2899 60.3808 66.6181 61.9491 65.0055 61.4819L64.8388 61.9629L64.4391 61.8205ZM65.2048 58.0742C65.3034 58.2399 65.4369 58.3821 65.5961 58.4908L65.9979 57.3359C65.3145 57.1661 65.0529 57.7441 65.2048 58.0742ZM66.1108 60.4209C66.1387 60.3538 66.1523 60.2816 66.1507 60.209C66.149 60.1363 66.1322 60.0648 66.1013 59.999C65.9926 59.8239 65.8468 59.6749 65.6741 59.5624L65.2575 60.7647C65.6225 60.8491 65.9895 60.7679 66.1108 60.4188V60.4209Z" fill="white"/>
<path d="M60.8458 55.6316C57.8653 56.9077 54.7286 56.2644 53.8437 54.1835L53.1055 52.6711L53.6581 52.4348C54.3025 48.6727 60.3259 46.0951 63.4962 48.2256L63.896 48.0547C63.9719 48.2097 63.6239 47.4947 64.6343 49.5682C65.5212 51.6406 63.8253 54.3586 60.8458 55.6316Z" fill="#FF5800"/>
<path d="M60.1029 54.1353C63.0834 52.861 64.7802 50.1454 63.8929 48.07C63.0055 45.9947 59.8699 45.3453 56.8894 46.6197C53.9089 47.8941 52.212 50.6096 53.0994 52.685C53.9868 54.7604 57.1223 55.4097 60.1029 54.1353Z" fill="#FCC836"/>
<path d="M56.8768 52.9453L57.0455 52.458C56.6021 52.2486 56.2229 51.9241 55.9476 51.5183C55.9202 51.4772 55.9013 51.4311 55.8918 51.3826C55.8823 51.3341 55.8824 51.2843 55.8922 51.2359C55.902 51.1875 55.9213 51.1415 55.9489 51.1006C55.9765 51.0596 56.0119 51.0245 56.053 50.9973L56.1226 50.954C56.1588 50.9305 56.1992 50.9143 56.2415 50.9065C56.2839 50.8986 56.3274 50.8992 56.3696 50.9082C56.4117 50.9172 56.4517 50.9345 56.4871 50.959C56.5226 50.9835 56.5528 51.0148 56.5762 51.0511C56.7575 51.3323 57.0043 51.5654 57.2955 51.7303L57.7448 50.4351C57.3123 50.1504 57.0202 49.8719 56.8683 49.5998C56.4464 48.8415 57.152 47.3059 58.6792 47.7446L58.7952 47.4103L59.1981 47.5506L59.08 47.8912C59.4188 48.0404 59.7219 48.2601 59.9691 48.5356C60.0024 48.5741 60.0275 48.6189 60.0428 48.6675C60.0581 48.716 60.0633 48.7671 60.058 48.8177C60.0528 48.8683 60.0372 48.9173 60.0123 48.9617C59.9874 49.006 59.9537 49.0448 59.9132 49.0756L59.8531 49.122C59.7867 49.1731 59.7032 49.1966 59.62 49.1878C59.5367 49.179 59.4601 49.1384 59.4059 49.0746C59.2427 48.8887 59.0468 48.7342 58.8279 48.6189L58.3913 49.874C58.4514 49.9204 59.042 50.259 59.3046 50.7378C59.7265 51.5046 59.0547 53.0729 57.4431 52.6046L57.2765 53.0856L56.8768 52.9453ZM57.6425 49.198C57.7411 49.3633 57.8746 49.5051 58.0337 49.6135L58.4345 48.4586C57.7521 48.292 57.4906 48.8689 57.6425 49.198ZM58.5484 51.5436C58.6824 51.1597 58.4482 50.9403 58.1118 50.6882L57.6899 51.8906C58.0591 51.9739 58.4271 51.8927 58.5484 51.5436Z" fill="white"/>
<path d="M67.7519 53.2596C70.7325 54.5347 73.8691 53.886 74.754 51.8104L75.4923 50.298L74.9375 50.0586C74.2931 46.2955 68.2698 43.7178 65.0994 45.8483L64.6997 45.6774C64.6237 45.8325 64.9718 45.1174 63.9614 47.1909C63.0744 49.2686 64.7724 51.9855 67.7519 53.2596Z" fill="#FF5800"/>
<path d="M75.4861 50.3187C76.3735 48.2433 74.6767 45.5278 71.6961 44.2534C68.7156 42.979 65.58 43.6284 64.6927 45.7038C63.8053 47.7792 65.5021 50.4947 68.4827 51.7691C71.4632 53.0435 74.5988 52.3941 75.4861 50.3187Z" fill="#FCC836"/>
<path d="M71.8174 50.1261L71.4905 49.7264C71.0813 49.9943 70.6079 50.148 70.1194 50.1714C69.6458 50.1967 69.5825 49.4099 70.0508 49.3889C70.3855 49.3812 70.7134 49.2925 71.0064 49.1305L70.1373 48.0705C69.669 48.2899 69.2788 48.3953 68.9666 48.3869C68.0986 48.351 67.1599 46.9451 68.3338 45.8725L68.1102 45.5994L68.4403 45.3294L68.6681 45.6078C68.9721 45.3959 69.3182 45.2521 69.6827 45.1859C69.733 45.1776 69.7844 45.1797 69.8337 45.192C69.8831 45.2043 69.9295 45.2266 69.9699 45.2576C70.0103 45.2885 70.044 45.3274 70.0688 45.3719C70.0936 45.4163 70.109 45.4654 70.1141 45.516L70.1215 45.5909C70.1303 45.6743 70.1068 45.7579 70.0558 45.8245C70.0048 45.891 69.9301 45.9354 69.8473 45.9485C69.6034 45.9901 69.3692 46.0763 69.1564 46.2026L70.0002 47.2299C70.0709 47.2035 70.6678 46.8766 71.2131 46.903C72.1053 46.9462 73.0662 48.3437 71.8322 49.4658L72.1549 49.8592L71.8174 50.1261ZM69.0225 47.5136C69.2154 47.5164 69.4066 47.4768 69.5825 47.3976L68.8073 46.4484C68.3074 46.9473 68.6639 47.4725 69.0225 47.5136ZM71.4957 47.9671C71.2384 47.6507 70.9294 47.7372 70.5391 47.8933L71.346 48.8773C71.6075 48.6094 71.7309 48.253 71.4957 47.9671Z" fill="white"/>
</svg>
