<svg width="105" height="100" viewBox="0 0 105 100" fill="none" xmlns="http://www.w3.org/2000/svg">
<path opacity="0.69" d="M81.8863 23.7505L66.4822 3.04803C64.1471 -0.0936296 59.8723 -0.927747 56.5711 1.11412L34.8023 14.5593M34.8023 14.5593L16.9272 25.6298L16.7868 25.722H16.8169C16.487 25.9497 16.1714 26.1985 15.872 26.4669C16.162 26.2053 16.4676 25.9624 16.7868 25.7391L5.19956 32.9348C0.740388 35.6962 -1.14911 41.3266 0.711556 46.3083C4.7688 57.1978 11.6777 75.693 15.3209 85.3593C16.0763 87.31 17.4235 88.9616 19.1645 90.071L21.7791 91.2395C22.0062 91.301 22.2365 91.3557 22.467 91.4001C24.7754 91.8565 27.167 91.4168 29.1757 90.1666L36.5221 85.5949C42.5664 81.8237 50.4203 83.356 54.6845 89.1383L59.8838 96.1598C61.3003 98.0802 63.3664 99.3893 65.6774 99.8328C65.9078 99.8808 66.1415 99.9151 66.3752 99.9454C67.3277 100.039 68.2879 100.012 69.2337 99.8632C71.2676 99.4882 73.1286 98.4503 74.5398 96.9043C81.3988 89.3023 94.4787 74.6953 102.169 66.0951C105.689 62.1625 105.956 56.2166 102.804 51.9701L94.599 40.8894L94.7158 41.0704C94.6757 41.0122 94.639 40.9509 94.5955 40.8894C94.5723 40.8518 94.5489 40.8141 94.5221 40.7766L81.8863 23.7505" fill="#CAE5F8"/>
<g clip-path="url(#clip0_363_236)">
<path d="M61.517 60.3104H42.4825C38.9784 60.3104 36.1377 63.151 36.1377 66.6552C36.1377 70.1593 38.9784 73 42.4825 73H61.517C65.0212 73 67.8618 70.1593 67.8618 66.6552C67.8618 63.151 65.0212 60.3104 61.517 60.3104Z" fill="#4FB96F"/>
<path d="M71.8276 43.6552H32.1724C30.4203 43.6552 29 45.0755 29 46.8276V53.1724C29 54.9245 30.4203 56.3448 32.1724 56.3448H71.8276C73.5797 56.3448 75 54.9245 75 53.1724V46.8276C75 45.0755 73.5797 43.6552 71.8276 43.6552Z" fill="#3B96D2"/>
<path d="M71.8276 27H32.1724C30.4203 27 29 28.4203 29 30.1724V36.5172C29 38.2693 30.4203 39.6897 32.1724 39.6897H71.8276C73.5797 39.6897 75 38.2693 75 36.5172V30.1724C75 28.4203 73.5797 27 71.8276 27Z" fill="#3B96D2"/>
<path fill-rule="evenodd" clip-rule="evenodd" d="M41.6896 48.4138V51.5862C41.6884 52.0065 41.5208 52.4092 41.2236 52.7064C40.9264 53.0036 40.5237 53.1711 40.1034 53.1724H33.7586C33.3383 53.1711 32.9355 53.0036 32.6383 52.7064C32.3411 52.4092 32.1736 52.0065 32.1724 51.5862V48.4138C32.1718 48.1896 32.2197 47.9679 32.3127 47.7639C32.4058 47.5599 32.5419 47.3785 32.7117 47.2321L35.9713 49.6827C36.5424 50.1031 37.3196 50.1031 37.8906 49.6827L41.1503 47.2321C41.4937 47.5287 41.6912 47.9601 41.6896 48.4138Z" fill="#EFC319"/>
<path fill-rule="evenodd" clip-rule="evenodd" d="M41.1505 47.2321L37.8909 49.6828C37.3198 50.1031 36.5426 50.1031 35.9716 49.6828L32.7119 47.2321C32.9975 46.9702 33.3714 46.8258 33.7588 46.8276H40.1036C40.4915 46.826 40.865 46.9704 41.1505 47.2321Z" fill="#F2D45B"/>
<path d="M36.9309 33.3448C37.807 33.3448 38.5171 32.6347 38.5171 31.7586C38.5171 30.8826 37.807 30.1724 36.9309 30.1724C36.0549 30.1724 35.3447 30.8826 35.3447 31.7586C35.3447 32.6347 36.0549 33.3448 36.9309 33.3448Z" fill="#FCD6AC"/>
<path fill-rule="evenodd" clip-rule="evenodd" d="M39.3104 35.7241C39.3104 35.9345 39.2268 36.1362 39.0781 36.2849C38.9293 36.4337 38.7276 36.5172 38.5173 36.5172H35.3449C35.1345 36.5172 34.9328 36.4337 34.7841 36.2849C34.6353 36.1362 34.5518 35.9345 34.5518 35.7241C34.5518 35.0931 34.8024 34.4879 35.2486 34.0417C35.6948 33.5955 36.3 33.3448 36.9311 33.3448C37.5621 33.3448 38.1673 33.5955 38.6135 34.0417C39.0597 34.4879 39.3104 35.0931 39.3104 35.7241Z" fill="#285680"/>
<path fill-rule="evenodd" clip-rule="evenodd" d="M49.6209 49.2069H45.6554C45.4451 49.2069 45.2433 49.1233 45.0946 48.9746C44.9459 48.8259 44.8623 48.6241 44.8623 48.4138C44.8623 48.2034 44.9459 48.0017 45.0946 47.853C45.2433 47.7042 45.4451 47.6207 45.6554 47.6207H49.6209C49.8313 47.6207 50.033 47.7042 50.1817 47.853C50.3305 48.0017 50.414 48.2034 50.414 48.4138C50.414 48.6241 50.3305 48.8259 50.1817 48.9746C50.033 49.1233 49.8313 49.2069 49.6209 49.2069ZM70.2416 52.3793H45.6554C45.4451 52.3793 45.2433 52.2958 45.0946 52.147C44.9459 51.9983 44.8623 51.7965 44.8623 51.5862C44.8623 51.3759 44.9459 51.1741 45.0946 51.0254C45.2433 50.8767 45.4451 50.7931 45.6554 50.7931H70.2416C70.452 50.7931 70.6537 50.8767 70.8024 51.0254C70.9512 51.1741 71.0347 51.3759 71.0347 51.5862C71.0347 51.7965 70.9512 51.9983 70.8024 52.147C70.6537 52.2958 70.452 52.3793 70.2416 52.3793ZM49.6209 32.5517H45.6554C45.4451 32.5517 45.2433 32.4682 45.0946 32.3194C44.9459 32.1707 44.8623 31.969 44.8623 31.7586C44.8623 31.5483 44.9459 31.3465 45.0946 31.1978C45.2433 31.0491 45.4451 30.9655 45.6554 30.9655H49.6209C49.8313 30.9655 50.033 31.0491 50.1817 31.1978C50.3305 31.3465 50.414 31.5483 50.414 31.7586C50.414 31.969 50.3305 32.1707 50.1817 32.3194C50.033 32.4682 49.8313 32.5517 49.6209 32.5517ZM70.2416 35.7241H45.6554C45.4451 35.7241 45.2433 35.6406 45.0946 35.4918C44.9459 35.3431 44.8623 35.1414 44.8623 34.931C44.8623 34.7207 44.9459 34.519 45.0946 34.3702C45.2433 34.2215 45.4451 34.1379 45.6554 34.1379H70.2416C70.452 34.1379 70.6537 34.2215 70.8024 34.3702C70.9512 34.519 71.0347 34.7207 71.0347 34.931C71.0347 35.1414 70.9512 35.3431 70.8024 35.4918C70.6537 35.6406 70.452 35.7241 70.2416 35.7241ZM49.6209 69.8276C49.4106 69.8275 49.2089 69.744 49.0602 69.5952L47.474 68.009C47.3295 67.8594 47.2496 67.6591 47.2514 67.4511C47.2532 67.2432 47.3366 67.0443 47.4837 66.8972C47.6307 66.7502 47.8296 66.6668 48.0376 66.6649C48.2455 66.6631 48.4459 66.7431 48.5954 66.8875L49.6955 67.9876L55.4899 63.6414C55.6582 63.5152 55.8697 63.461 56.0779 63.4907C56.2861 63.5205 56.474 63.6317 56.6002 63.8C56.7264 63.9683 56.7806 64.1798 56.7509 64.388C56.7211 64.5963 56.6099 64.7841 56.4416 64.9103L50.0968 69.669C49.9597 69.7723 49.7926 69.828 49.6209 69.8276Z" fill="white"/>
</g>
<defs>
<clipPath id="clip0_363_236">
<rect width="46" height="46" fill="white" transform="translate(29 27)"/>
</clipPath>
</defs>
</svg>
