<svg width="105" height="100" viewBox="0 0 105 100" fill="none" xmlns="http://www.w3.org/2000/svg">
<path opacity="0.69" d="M81.8863 23.7505L66.4822 3.04803C64.1471 -0.0936296 59.8723 -0.927747 56.5711 1.11412L34.8023 14.5593M34.8023 14.5593L16.9272 25.6298L16.7868 25.722H16.8169C16.487 25.9497 16.1714 26.1985 15.872 26.4669C16.162 26.2053 16.4676 25.9624 16.7868 25.7391L5.19956 32.9348C0.740388 35.6962 -1.14911 41.3266 0.711556 46.3083C4.7688 57.1978 11.6777 75.693 15.3209 85.3593C16.0763 87.31 17.4235 88.9616 19.1645 90.071L21.7791 91.2395C22.0062 91.301 22.2365 91.3557 22.467 91.4001C24.7754 91.8565 27.167 91.4168 29.1757 90.1666L36.5221 85.5949C42.5664 81.8237 50.4203 83.356 54.6845 89.1383L59.8838 96.1598C61.3003 98.0802 63.3664 99.3893 65.6774 99.8328C65.9078 99.8808 66.1415 99.9151 66.3752 99.9454C67.3277 100.039 68.2879 100.012 69.2337 99.8632C71.2676 99.4882 73.1286 98.4503 74.5398 96.9043C81.3988 89.3023 94.4787 74.6953 102.169 66.0951C105.689 62.1625 105.956 56.2166 102.804 51.9701L94.599 40.8894L94.7158 41.0704C94.6757 41.0122 94.639 40.9509 94.5955 40.8894C94.5723 40.8518 94.5489 40.8141 94.5221 40.7766L81.8863 23.7505" fill="#CAE5F8"/>
<path d="M55.5355 76.5136L54.1676 76.1789C54.0655 76.1587 53.9687 76.1179 53.883 76.0589C53.7972 76 53.7244 75.9243 53.669 75.8362C53.6136 75.7482 53.5766 75.6498 53.5605 75.5471C53.5444 75.4443 53.5494 75.3394 53.5752 75.2386L56.3032 65.7558C56.3716 65.5519 56.5152 65.3819 56.7048 65.2804C56.8944 65.1789 57.1156 65.1537 57.3232 65.2099L58.6912 65.5446C58.7932 65.565 58.8901 65.606 58.9758 65.665C59.0616 65.7241 59.1344 65.7999 59.1898 65.8881C59.2452 65.9762 59.2821 66.0747 59.2982 66.1775C59.3143 66.2804 59.3093 66.3854 59.2835 66.4862L56.5555 75.9677C56.4871 76.1716 56.3435 76.3417 56.1539 76.4431C55.9643 76.5446 55.7431 76.5698 55.5355 76.5136ZM71.6709 77.0329L72.93 76.8005C73.1286 76.7615 73.3038 76.6458 73.4177 76.4785C73.5316 76.3112 73.5749 76.1057 73.5383 75.9066L71.825 66.2578C71.8086 66.1593 71.7729 66.065 71.7198 65.9805C71.6668 65.8959 71.5975 65.8226 71.516 65.7649C71.4345 65.7073 71.3424 65.6663 71.245 65.6444C71.1475 65.6226 71.0468 65.6203 70.9484 65.6376L69.6894 65.87C69.491 65.9093 69.3161 66.0251 69.2025 66.1924C69.0889 66.3597 69.0457 66.565 69.0824 66.7638L70.7957 76.418C70.8125 76.5159 70.8486 76.6096 70.9017 76.6936C70.9549 76.7776 71.0241 76.8502 71.1055 76.9074C71.1868 76.9645 71.2786 77.005 71.3757 77.0266C71.4727 77.0481 71.573 77.0503 71.6709 77.0329Z" fill="#287EEF"/>
<path d="M71.2168 73.4629L55.8623 72.8878L55.9566 70.7588L71.3097 71.3339L71.2168 73.4629Z" fill="#287EEF"/>
<path d="M55.0801 70.0084L58.1786 70.3272L58.6594 68.6498H55.363L55.0801 70.0084ZM69.7917 70.7588H72.6246L72.2966 69.0097H69.4809L69.7917 70.7588ZM57.4242 72.9463H55.0801L56.9979 74.4298L57.4242 72.9463ZM70.2712 73.4629H71.9526L70.5727 75.1616L70.2712 73.4629Z" fill="#1573D8"/>
<path d="M76.6288 30.073C76.6288 30.073 79.6038 29.3625 80.3091 34.505C81.0143 39.6475 77.3341 56.0206 82.6638 59.7779H69.8102L66.4395 37.4375C66.4395 37.4375 71.6125 29.6016 76.6288 30.073Z" fill="#40C2D6"/>
<path d="M54.0176 34.505H77.4709V68.5369H54.0176V34.505Z" fill="#287EEF"/>
<path d="M73.8848 69.1797L50.1406 68.4784C52.3307 57.2933 52.8855 45.8495 51.7875 34.505H75.2422C75.8224 46.0806 75.3681 57.6849 73.8848 69.1797ZM51.7835 34.505C51.7835 34.505 49.7422 31.7266 54.0174 30.073H76.6288C76.6288 30.073 73.687 31.2405 75.2355 34.505H51.7835Z" fill="#86EBF9"/>
<path d="M75.2583 34.6378H51.7837C51.7485 34.6378 51.7147 34.6238 51.6898 34.5989C51.6649 34.574 51.6509 34.5402 51.6509 34.505C51.6509 34.4698 51.6649 34.436 51.6898 34.4111C51.7147 34.3862 51.7485 34.3722 51.7837 34.3722H75.2583C75.2935 34.3722 75.3273 34.3862 75.3522 34.4111C75.3771 34.436 75.3911 34.4698 75.3911 34.505C75.3911 34.5402 75.3771 34.574 75.3522 34.5989C75.3273 34.6238 75.2935 34.6378 75.2583 34.6378Z" fill="#40C2D6"/>
<path d="M56.6975 41.7486H54.4396C54.422 41.7486 54.4051 41.7416 54.3927 41.7291C54.3802 41.7167 54.3732 41.6998 54.3732 41.6822V39.3872C54.3732 39.3696 54.3802 39.3527 54.3927 39.3402C54.4051 39.3278 54.422 39.3208 54.4396 39.3208H56.6975C56.7151 39.3208 56.732 39.3278 56.7444 39.3402C56.7569 39.3527 56.7639 39.3696 56.7639 39.3872V41.6875C56.7625 41.7042 56.7549 41.7197 56.7426 41.731C56.7303 41.7424 56.7142 41.7486 56.6975 41.7486ZM54.51 41.6158H56.635V39.4536H54.51V41.6158ZM61.9781 40.9358C61.2954 40.9358 61.5252 40.2717 61.0285 39.941C60.5955 39.6528 58.9978 40.544 58.4187 40.9119C58.4114 40.9167 58.4031 40.92 58.3944 40.9215C58.3858 40.923 58.3769 40.9228 58.3683 40.9208C58.3598 40.9188 58.3517 40.9151 58.3446 40.9099C58.3375 40.9048 58.3316 40.8982 58.3271 40.8906C58.3176 40.8758 58.3144 40.8579 58.3181 40.8407C58.3218 40.8235 58.3322 40.8085 58.347 40.799C58.5688 40.6595 60.5185 39.4416 61.1015 39.8308C61.6846 40.2199 61.3552 40.9066 62.1468 40.7897C62.9821 40.6675 64.2492 39.2251 64.9557 39.767C65.6278 40.2837 65.6557 40.8295 66.5495 40.4723C67.4858 40.107 68.2229 39.2663 68.8618 39.6555C69.5006 40.0446 69.4156 41.0062 70.5883 40.4749C70.5961 40.4711 70.6047 40.469 70.6133 40.4685C70.622 40.4681 70.6307 40.4694 70.6389 40.4723C70.647 40.4753 70.6545 40.4799 70.6609 40.4858C70.6673 40.4917 70.6724 40.4989 70.676 40.5068C70.6832 40.523 70.6838 40.5414 70.6776 40.5581C70.6714 40.5747 70.6589 40.5883 70.6428 40.5958C69.3731 41.1722 69.3625 40.1137 68.7967 39.7683C68.2309 39.423 67.5389 40.2266 66.5986 40.5971C65.6172 40.9796 65.5122 40.362 64.8721 39.8733C64.2319 39.3845 62.9343 40.9358 61.9781 40.9358ZM56.979 46.5484H54.7212C54.7036 46.5484 54.6867 46.5414 54.6743 46.529C54.6618 46.5165 54.6548 46.4996 54.6548 46.482V44.187C54.6548 44.1694 54.6618 44.1525 54.6743 44.1401C54.6867 44.1276 54.7036 44.1206 54.7212 44.1206H56.979C56.9966 44.1206 57.0135 44.1276 57.026 44.1401C57.0384 44.1525 57.0454 44.1694 57.0454 44.187V46.482C57.0454 46.4996 57.0384 46.5165 57.026 46.529C57.0135 46.5414 56.9966 46.5484 56.979 46.5484ZM54.7916 46.4156H56.9166V44.2534H54.7889L54.7916 46.4156ZM62.2583 45.7356C61.577 45.7356 61.8068 45.0716 61.3087 44.7409C60.8757 44.4526 59.278 45.3438 58.6989 45.7117C58.6916 45.7165 58.6833 45.7198 58.6747 45.7213C58.666 45.7229 58.6572 45.7227 58.6486 45.7207C58.64 45.7187 58.6319 45.715 58.6249 45.7098C58.6178 45.7046 58.6118 45.698 58.6073 45.6905C58.5983 45.6754 58.5955 45.6574 58.5994 45.6403C58.6034 45.6233 58.6138 45.6084 58.6286 45.5988C58.849 45.466 60.8 44.2428 61.3818 44.6306C61.9861 45.0291 61.6301 45.7064 62.4283 45.5895C63.2624 45.4673 64.5294 44.0237 65.236 44.5669C65.9 45.0822 65.9359 45.6214 66.8297 45.2721C67.7714 44.9042 68.5018 44.0648 69.142 44.4553C69.7821 44.8458 69.6972 45.8047 70.8593 45.2734C70.8755 45.2662 70.8939 45.2656 70.9105 45.2718C70.9272 45.278 70.9407 45.2905 70.9482 45.3066C70.9554 45.3227 70.956 45.3409 70.9497 45.3573C70.9435 45.3737 70.931 45.387 70.915 45.3943C69.644 45.972 69.6347 44.9135 69.0689 44.5682C68.5032 44.2229 67.8139 45.0291 66.8736 45.3956C65.8921 45.7794 65.7885 45.1619 65.147 44.6718C64.5055 44.1817 63.2159 45.7356 62.2583 45.7356ZM57.2593 51.3483H55.0014C54.9838 51.3483 54.9669 51.3413 54.9545 51.3288C54.942 51.3164 54.935 51.2995 54.935 51.2819V48.9922C54.935 48.9746 54.942 48.9577 54.9545 48.9452C54.9669 48.9328 54.9838 48.9258 55.0014 48.9258H57.2593C57.2769 48.9258 57.2938 48.9328 57.3062 48.9452C57.3187 48.9577 57.3257 48.9746 57.3257 48.9922V51.2872C57.3243 51.3039 57.3167 51.3194 57.3044 51.3307C57.2921 51.3421 57.276 51.3483 57.2593 51.3483ZM55.0718 51.2155H57.1968V49.0533H55.0718V51.2155ZM62.5386 50.5355C61.8572 50.5355 62.087 49.8714 61.5889 49.5407C61.1573 49.2525 59.5596 50.1437 58.9805 50.5102C58.9732 50.5155 58.9649 50.5192 58.9561 50.5212C58.9473 50.5231 58.9382 50.5233 58.9293 50.5216C58.9205 50.5199 58.912 50.5164 58.9046 50.5114C58.8971 50.5063 58.8907 50.4998 58.8858 50.4923C58.881 50.4847 58.8777 50.4762 58.8762 50.4673C58.8747 50.4584 58.875 50.4493 58.8772 50.4405C58.8793 50.4318 58.8833 50.4235 58.8887 50.4163C58.8941 50.4091 58.901 50.4031 58.9088 50.3987C59.1293 50.2658 61.0803 49.0413 61.6633 49.4305C62.2464 49.8196 61.917 50.5062 62.7086 50.3894C63.5426 50.2672 64.8096 48.8248 65.5162 49.3667C66.1882 49.882 66.2175 50.4212 67.11 50.0719C68.0516 49.7041 68.7821 48.8647 69.4222 49.2538C70.0624 49.643 69.9761 50.6045 71.1488 50.0733C71.1646 50.0673 71.1821 50.0676 71.1977 50.074C71.2133 50.0805 71.2259 50.0927 71.2328 50.1081C71.2398 50.1235 71.2406 50.141 71.2351 50.157C71.2296 50.173 71.2182 50.1862 71.2032 50.1941C69.9322 50.7719 69.9229 49.712 69.3572 49.368C68.7914 49.0241 68.1021 49.8289 67.1618 50.1955C66.1816 50.5793 66.0767 49.9617 65.4352 49.4716C64.7937 48.9816 63.4935 50.5355 62.5386 50.5355ZM57.5408 56.1481H55.283C55.2654 56.1481 55.2485 56.1411 55.2361 56.1287C55.2236 56.1162 55.2166 56.0993 55.2166 56.0817V53.7854C55.2166 53.7678 55.2236 53.7509 55.2361 53.7384C55.2485 53.726 55.2654 53.719 55.283 53.719H57.5408C57.5583 53.7193 57.575 53.7264 57.5874 53.7388C57.5998 53.7512 57.6069 53.7679 57.6072 53.7854V56.0817C57.6069 56.0992 57.5998 56.1159 57.5874 56.1283C57.575 56.1407 57.5583 56.1478 57.5408 56.1481ZM55.3534 56.0153H57.4784V53.8518H55.3534V56.0153ZM57.5408 60.5801H55.283C55.2654 60.5801 55.2485 60.5731 55.2361 60.5606C55.2236 60.5482 55.2166 60.5313 55.2166 60.5137V58.2187C55.2166 58.201 55.2236 58.1842 55.2361 58.1717C55.2485 58.1593 55.2654 58.1523 55.283 58.1523H57.5408C57.5584 58.1523 57.5753 58.1593 57.5878 58.1717C57.6002 58.1842 57.6072 58.201 57.6072 58.2187V60.5137C57.6072 60.5313 57.6002 60.5482 57.5878 60.5606C57.5753 60.5731 57.5584 60.5801 57.5408 60.5801ZM55.3534 60.4473H57.4784V58.2891H55.3534V60.4473ZM62.8201 55.3353C62.1375 55.3353 62.3672 54.6712 61.8705 54.3405C61.4375 54.0523 59.8398 54.9435 59.2607 55.3101C59.2459 55.3196 59.228 55.3228 59.2108 55.3191C59.1936 55.3153 59.1786 55.3049 59.1691 55.2901C59.1643 55.2828 59.161 55.2745 59.1595 55.2659C59.1579 55.2572 59.1582 55.2483 59.1601 55.2398C59.1621 55.2312 59.1658 55.2231 59.171 55.2161C59.1762 55.209 59.1828 55.203 59.1904 55.1985C59.4108 55.0577 61.3618 53.8412 61.9436 54.2303C62.5253 54.6194 62.1972 55.3048 62.9901 55.1892C63.8229 55.067 65.0912 53.6233 65.7978 54.1666C66.4698 54.6819 66.499 55.2211 67.3915 54.8718C68.3279 54.5066 69.0663 53.6645 69.7038 54.0537C70.3413 54.4428 70.2576 55.4044 71.4304 54.8731C71.4464 54.8657 71.4647 54.865 71.4813 54.8711C71.4978 54.8772 71.5113 54.8896 71.5187 54.9057C71.5261 54.9217 71.5268 54.94 71.5207 54.9566C71.5146 54.9731 71.5022 54.9866 71.4861 54.994C70.2151 55.5717 70.2045 54.5119 69.6387 54.1679C69.0729 53.8239 68.385 54.6274 67.4446 54.9953C66.4632 55.3791 66.3582 54.7602 65.7181 54.2715C65.0779 53.7827 63.7764 55.3353 62.8201 55.3353ZM42.5875 39.5625C42.5875 39.5625 42.3896 43.0156 43.3352 44.4965C44.2808 45.9773 42.4493 47.4595 42.9527 48.6628C43.4561 49.8661 44.9104 50.7294 44.0457 52.3404C43.1811 53.9514 40.5607 53.9341 40.5607 53.9341L35.3213 51.8516L36.7185 43.8125L42.5875 39.5625Z" fill="#2D1929"/>
<mask id="mask0_363_244" style="mask-type:luminance" maskUnits="userSpaceOnUse" x="32" y="41" width="6" height="12">
<path d="M32.9736 41.7725H37.8611V52.1478H32.9736V41.7725Z" fill="white"/>
</mask>
<g mask="url(#mask0_363_244)">
<path d="M32.9736 41.7725H37.8611V52.1478H32.9736V41.7725Z" fill="#E39C76"/>
<path d="M33.1411 44.531C33.9021 47.081 36.0218 48.7438 38.5652 49.1104L38.4536 45.7409L33.1411 44.531Z" fill="#D48F6E"/>
</g>
<path d="M36.0044 48.9537C37.6765 48.9537 40.2996 49.2339 41.888 51.0787C43.3224 52.7468 42.8177 54.3459 45.6453 62.5364L51.2792 60.5947L52.0309 62.1287C51.8609 62.3518 51.6324 62.6533 51.3416 63.0052C48.5525 66.4584 46.4514 69.0442 44.5177 69.0469C42.0088 69.0469 40.1561 64.6959 38.8213 61.5961C37.6845 58.9638 36.2435 54.6938 36.0044 48.9537Z" fill="#917EEC"/>
<path d="M45.6451 62.5391C45.6451 62.5391 43.5984 66.5712 44.0899 68.9526C44.3677 69.0494 44.657 69.1097 44.9505 69.1319C46.859 69.1996 49.672 66.295 49.672 66.295C51.1417 64.7744 52.482 63.1338 53.6789 61.3902C54.2481 61.2357 54.7809 60.9698 55.2466 60.6081C55.7124 60.2463 56.1018 59.7957 56.3923 59.2825L53.8463 58.0314L45.6451 62.5391Z" fill="#E39C76"/>
<path d="M45.6451 62.5391L45.4326 61.9149C45.4326 61.9149 41.763 64.2285 41.5811 66.3256C41.3991 68.4227 42.613 68.3589 42.613 68.3589C42.613 68.3589 43.2612 69.7468 44.9559 69.1319C44.9505 69.1319 43.7353 66.0759 45.6451 62.5391Z" fill="#EAEAEA"/>
<path d="M55.1224 58.2426C55.5249 58.1892 55.9341 58.2601 56.2952 58.4458C56.5057 58.5569 56.6943 58.7054 56.8516 58.8841C56.9141 58.9531 57.5476 59.6544 57.3457 60.1604C57.2036 60.515 56.8782 60.2932 56.6577 59.9652C56.6909 60.3915 56.5316 60.8245 56.2155 60.5482C56.0402 60.3955 56.1331 60.1777 55.9724 60.0024C55.901 59.9285 55.808 59.8793 55.7068 59.8616C55.5562 60.0672 55.3664 60.2409 55.1482 60.3727C54.9301 60.5046 54.688 60.5918 54.4359 60.6295C54.1839 60.6672 53.9268 60.6545 53.6797 60.5922C53.4326 60.5299 53.2002 60.4193 52.9961 60.2667L55.1224 58.2426Z" fill="#E39C76"/>
<path d="M57.6116 59.6079L50.6004 59.6584C50.471 59.638 50.3545 59.5685 50.2751 59.4643C50.1957 59.3602 50.1595 59.2294 50.1741 59.0992C50.18 58.986 50.2252 58.8784 50.3017 58.7948C50.3783 58.7113 50.4815 58.6569 50.5938 58.641L57.6049 58.5905L57.6116 59.6079Z" fill="#E73F46"/>
<path d="M57.6114 59.6079L58.9223 59.0899L57.6048 58.5905C57.6048 58.5905 56.9142 59.0753 57.6114 59.6079Z" fill="#EFBD42"/>
<path d="M52.7637 58.6251C52.7637 58.6251 53.9444 57.5307 54.7094 57.6449C55.4744 57.7591 57.7508 58.1762 57.606 58.4484C57.4612 58.7207 55.3788 58.6251 55.3788 58.6251H52.7637Z" fill="#E39C76"/>
<path d="M52.5156 59.7367C54.6977 58.7844 55.2263 58.3395 55.4269 58.5321C55.6035 58.7008 55.2941 59.2958 55.2702 59.3462C55.1538 59.5597 55 59.7505 54.8159 59.9094C54.1652 60.5123 53.8398 60.8138 53.4705 60.77C52.853 60.6956 52.5316 59.8005 52.5156 59.7367Z" fill="#E39C76"/>
<path d="M54.2978 60.4459C54.2845 60.446 54.2715 60.4421 54.2605 60.4347C54.2494 60.4274 54.2409 60.4169 54.2359 60.4046C54.2309 60.3923 54.2296 60.3788 54.2324 60.3658C54.2351 60.3528 54.2417 60.3409 54.2513 60.3317L55.0548 59.5601C55.0609 59.5539 55.0681 59.549 55.0761 59.5456C55.0841 59.5423 55.0926 59.5406 55.1013 59.5406C55.1099 59.5406 55.1185 59.5423 55.1265 59.5456C55.1345 59.549 55.1417 59.5539 55.1478 59.5601C55.154 59.5663 55.1589 59.5736 55.1623 59.5817C55.1657 59.5898 55.1674 59.5985 55.1674 59.6072C55.1674 59.616 55.1657 59.6247 55.1623 59.6328C55.1589 59.6409 55.154 59.6482 55.1478 59.6544C54.2832 60.4845 54.3363 60.4459 54.2978 60.4459ZM56.6578 60.0316C56.6409 60.0316 56.6246 60.0251 56.6122 60.0135C56.5999 60.0019 56.5925 59.9861 56.5914 59.9691C56.5392 59.8761 56.4797 59.7873 56.4135 59.7035C56.4034 59.6891 56.3993 59.6714 56.402 59.6541C56.4047 59.6367 56.4141 59.6211 56.4281 59.6106C56.4351 59.6054 56.4431 59.6017 56.4516 59.5996C56.4601 59.5975 56.469 59.5972 56.4776 59.5985C56.4862 59.5999 56.4945 59.603 56.502 59.6075C56.5094 59.6121 56.5159 59.6181 56.521 59.6252C56.6098 59.725 56.6787 59.8409 56.7242 59.9665C56.7236 59.9838 56.7163 60.0001 56.704 60.0122C56.6916 60.0243 56.6751 60.0312 56.6578 60.0316ZM54.8091 58.5852C55.096 58.4139 55.5117 58.2917 55.5409 58.6238C55.5417 58.6325 55.5407 58.6413 55.5381 58.6496C55.5355 58.658 55.5313 58.6657 55.5257 58.6725C55.5201 58.6792 55.5132 58.6847 55.5054 58.6888C55.4977 58.6929 55.4892 58.6954 55.4805 58.6961C55.4717 58.6969 55.4629 58.696 55.4546 58.6934C55.4462 58.6908 55.4385 58.6865 55.4318 58.6809C55.425 58.6753 55.4195 58.6684 55.4154 58.6607C55.4114 58.6529 55.4089 58.6444 55.4081 58.6357C55.4081 58.5759 55.3775 58.5627 55.3682 58.5573C55.2739 58.5095 55.0243 58.6118 54.8782 58.6995C54.863 58.7086 54.8448 58.7114 54.8277 58.7071C54.8105 58.7029 54.7957 58.692 54.7865 58.6769C54.7774 58.6617 54.7746 58.6436 54.7788 58.6264C54.7831 58.6092 54.7939 58.5944 54.8091 58.5852Z" fill="#2D1929"/>
<path d="M41.4909 45.3372C40.8786 46.7689 40.3593 47.3798 39.9808 47.6229C38.5345 48.5526 36.5277 47.4901 35.7773 47.0916C35.1071 46.7253 34.4885 46.2715 33.9378 45.7423C32.9165 44.9122 30.5763 42.6504 30.5445 39.2823C30.5445 38.5611 30.5099 35.6552 32.7611 33.9698C34.7161 32.5088 37.6101 32.538 39.3539 33.8144C39.8329 34.1217 40.2647 34.497 40.6356 34.9287C41.8468 36.0855 41.6609 37.3791 41.8176 39.0751C41.88 39.7617 42.1324 40.4032 42.2638 41.4471C42.3953 42.491 42.2824 43.4871 41.4909 45.3372Z" fill="#E39C76"/>
<path d="M39.3537 42.8735C39.6991 42.6809 39.8757 42.4857 39.885 42.2945C39.8943 41.8548 39.0084 41.7632 38.7202 40.188C38.7171 40.1704 38.721 40.1523 38.7312 40.1376C38.7414 40.1229 38.7571 40.1129 38.7747 40.1097C38.7923 40.1065 38.8104 40.1105 38.8251 40.1207C38.8398 40.1309 38.8499 40.1465 38.853 40.1641C39.1426 41.7393 40.0324 41.7406 40.0205 42.2971C40.0205 42.5388 39.8159 42.7726 39.4268 42.9904C39.4113 43.0001 39.3926 43.0032 39.3748 42.9991C39.357 42.995 39.3415 42.984 39.3318 42.9685C39.3221 42.953 39.319 42.9343 39.3231 42.9165C39.3272 42.8986 39.3382 42.8832 39.3537 42.8735ZM40.6181 40.9384C40.3711 40.9597 40.1453 40.6728 40.1134 40.2863C40.0816 39.8998 40.2555 39.5784 40.5026 39.5585C40.7496 39.5386 40.9754 39.8241 41.0073 40.2106C41.0391 40.5971 40.8652 40.9185 40.6181 40.9384ZM36.7772 41.2598C36.5302 41.2811 36.3044 40.9942 36.2725 40.6077C36.2406 40.2212 36.4146 39.8998 36.6616 39.8799C36.9087 39.86 37.1331 40.1455 37.1663 40.532C37.1995 40.9185 37.0229 41.2399 36.7772 41.2598ZM39.1173 38.33C39.0905 38.3297 39.0644 38.3213 39.0424 38.3058C39.0205 38.2904 39.0037 38.2686 38.9943 38.2434C38.985 38.2183 38.9835 38.1909 38.99 38.1648C38.9966 38.1388 39.0109 38.1153 39.031 38.0976C39.0416 38.0883 40.0444 37.2449 41.1812 37.893C41.2119 37.9103 41.2343 37.9391 41.2438 37.9729C41.2533 38.0068 41.2489 38.043 41.2317 38.0737C41.2232 38.089 41.2116 38.1025 41.1978 38.1133C41.184 38.1242 41.1682 38.1322 41.1513 38.1369C41.1344 38.1416 41.1167 38.1429 41.0992 38.1407C41.0818 38.1385 41.065 38.1329 41.0498 38.1241C40.0736 37.5663 39.213 38.2915 39.205 38.2981C39.1806 38.319 39.1495 38.3303 39.1173 38.33ZM35.3216 38.7656C35.2956 38.7658 35.2702 38.7584 35.2485 38.7443C35.2267 38.7302 35.2096 38.7101 35.1991 38.6864C35.1887 38.6626 35.1854 38.6364 35.1897 38.6108C35.194 38.5852 35.2057 38.5615 35.2233 38.5425C36.1144 37.5836 37.3244 38.0896 37.3363 38.0949C37.3537 38.1008 37.3697 38.1102 37.3833 38.1226C37.3969 38.1349 37.4077 38.15 37.4152 38.1667C37.4227 38.1835 37.4266 38.2016 37.4267 38.22C37.4268 38.2384 37.4231 38.2565 37.4158 38.2734C37.4085 38.2903 37.3978 38.3054 37.3844 38.3179C37.371 38.3305 37.3551 38.3401 37.3378 38.3461C37.3204 38.3522 37.302 38.3546 37.2837 38.3532C37.2654 38.3518 37.2476 38.3466 37.2314 38.338C37.1876 38.3194 36.1795 37.9037 35.4185 38.7231C35.4061 38.7365 35.3911 38.7471 35.3745 38.7545C35.3578 38.7618 35.3398 38.7656 35.3216 38.7656ZM33.6162 49.0373C32.0756 49.2286 30.3716 49.4358 29.0541 50.6444C26.1615 53.2913 28.0846 57.8362 27.5427 73.1402L40.6991 73.1813C41.496 68.2035 41.9051 64.0452 42.1388 61.0356C42.7126 53.6353 42.2929 51.9141 41.0763 50.7068C38.7534 48.4038 34.5114 48.9271 33.6162 49.0373Z" fill="#2D1929"/>
<path d="M27.6771 68.0481C32.6391 68.4285 37.628 68.2566 42.5521 67.5355L43.9745 76.9997C37.9917 77.0988 31.8708 77.0293 25.6118 76.7912C26.2998 73.8773 26.9882 70.9629 27.6771 68.0481Z" fill="#2D1929"/>
<path d="M33.6162 49.0373C33.6162 49.0373 29.078 48.9789 27.4072 51.4705C23.7443 56.9344 19.9604 63.9456 22.9142 66.6709C25.3274 68.8928 31.5895 67.647 37.4386 62.8512L36.6868 59.9718L28.2413 61.7873L32.1672 53.5862C32.1672 53.5862 34.9218 53.0045 33.6162 49.0373Z" fill="#917EEC"/>
<path d="M32.9736 49.0373C32.9736 49.0373 34.157 51.2088 35.7853 51.2713C37.4136 51.3337 37.8611 49.0852 37.8611 49.0852C36.2605 48.6691 34.5821 48.6526 32.9736 49.0373Z" fill="#E39C76"/>
<path d="M37.861 49.0851C39.5182 57.0819 39.7725 65.3059 38.6127 73.3898C39.4376 73.5813 40.2984 73.5506 41.1075 73.301C41.9166 73.0513 42.6451 72.5916 43.2187 71.9687C41.7737 59.2559 44.507 54.148 41.508 50.9259C40.3725 49.6987 38.8518 49.2658 37.861 49.0851ZM26.4883 56.2158C27.0926 57.9301 27.4504 59.7215 27.5508 61.5363C27.5953 62.4217 27.5816 63.309 27.5096 64.1926C27.3768 66.0785 27.1191 68.9539 26.56 72.7789C29.2238 73.8443 32.1022 74.263 34.9591 74.0008C34.4823 66.0971 34.4544 62.2615 34.5606 60.2905C34.7534 56.9338 34.533 53.5662 33.9045 50.2632L26.4883 56.2158Z" fill="#917EEC"/>
<path d="M28.2413 61.7873L38.0548 59.6384C38.3284 60.6425 38.6016 61.6474 38.8743 62.6533C37.5275 63.6355 36.1091 64.5154 34.6309 65.2856C32.4514 66.4212 30.3278 67.5023 27.4338 67.7028C26.8148 67.7461 26.1935 67.7461 25.5744 67.7028C25.4545 66.8867 25.4797 66.0558 25.6488 65.2484C25.9011 63.9402 26.5665 62.4607 28.2413 61.7873Z" fill="#E39C76"/>
<path d="M28.2413 61.7874C28.2413 61.7874 27.9279 61.4115 27.552 61.5217C27.1762 61.632 27.8442 61.5417 28.2413 60.4592C27.9916 60.511 23.7615 61.4394 23.0444 64.4038C22.7455 65.6442 23.0298 67.5049 23.8798 67.8463C24.1553 67.9513 24.4507 67.9939 24.7447 67.9709C25.0387 67.948 25.3239 67.86 25.5798 67.7134C25.2955 65.368 26.3115 63.1739 28.2413 61.7874Z" fill="#EAEAEA"/>
<path d="M37.2845 33.9299C37.2845 33.9299 35.538 34.0362 35.797 36.0549C36.056 38.0737 34.4689 38.6966 33.5578 38.5398C32.6467 38.3831 33.1594 40.382 31.9269 40.9437C30.6944 41.5055 33.1129 43.4672 33.4529 45.5802C33.6667 46.9084 33.7982 49.0666 32.5551 49.8435C31.5683 50.4598 30.2216 49.9192 29.8377 49.7505C28.4583 50.6689 27.2591 51.8326 26.2996 53.1837C25.2278 51.2327 25.3301 50.0932 25.6608 49.4026C26.192 48.3069 27.3873 48.1302 27.5467 47.012C27.6543 46.2881 27.1788 46.1646 26.8096 44.9202C26.7698 44.7873 25.9928 42.0275 27.3993 40.4284C27.7154 40.0672 27.7977 40.196 28.1311 39.8029C28.6836 39.1495 28.997 38.1467 29.1936 36.1492C29.4685 33.3987 33.2298 29.745 37.2819 32.2977C37.2819 32.2977 40.1214 31.2763 41.8081 33.3602C43.4948 35.444 42.0737 36.9859 42.8706 38.1972C43.6675 39.4084 42.3048 41.6875 42.3048 41.6875C41.7076 40.4319 41.3539 39.0745 41.2623 37.6872C41.2264 37.059 41.2716 36.7841 41.1374 36.3723C40.6726 34.9512 38.8424 34.2792 37.2845 33.9299Z" fill="#2D1929"/>
<path d="M32.2589 42.6079C31.5005 42.9147 30.5841 42.4153 30.2122 41.4949C29.8403 40.5745 30.1538 39.5784 30.9108 39.2717C31.6678 38.9649 32.5856 39.4642 32.9588 40.3859C33.332 41.3077 33.0172 42.3011 32.2589 42.6079Z" fill="#E39C76"/>
<path d="M32.3277 41.7499C32.1831 41.7317 32.0487 41.6654 31.9463 41.5615C31.8439 41.4577 31.7794 41.3224 31.7633 41.1775C31.7341 40.876 32.09 40.7512 32.2587 40.71C32.1484 40.4842 31.7739 39.8175 31.2679 39.8401C30.7619 39.8627 30.7964 40.4178 30.7964 40.4404C30.7964 40.458 30.7894 40.4749 30.777 40.4873C30.7645 40.4998 30.7476 40.5068 30.73 40.5068C30.7124 40.5068 30.6955 40.4998 30.6831 40.4873C30.6706 40.4749 30.6636 40.458 30.6636 40.4404C30.6543 40.196 30.7672 39.7272 31.2613 39.7033C31.9625 39.6688 32.3968 40.6834 32.4154 40.7259C32.4194 40.7352 32.4212 40.7453 32.4207 40.7553C32.4202 40.7654 32.4174 40.7752 32.4125 40.7841C32.4076 40.7929 32.4008 40.8005 32.3926 40.8063C32.3843 40.8121 32.3749 40.816 32.3649 40.8176C32.3649 40.8176 31.8709 40.8986 31.8948 41.1602C31.9093 41.2748 31.9614 41.3814 32.0428 41.4633C32.1242 41.5453 32.2305 41.5979 32.345 41.6131C32.3632 41.6154 32.3796 41.6248 32.3908 41.6393C32.4021 41.6537 32.4071 41.672 32.4048 41.6902C32.4025 41.7083 32.3931 41.7248 32.3786 41.736C32.3642 41.7472 32.3459 41.7522 32.3277 41.7499Z" fill="#2D1929"/>
<path d="M37.4438 43.9241H39.946C39.946 44.2559 39.8142 44.5741 39.5796 44.8087C39.345 45.0434 39.0268 45.1752 38.6949 45.1752C38.3631 45.1752 38.0449 45.0434 37.8103 44.8087C37.5757 44.5741 37.4438 44.2559 37.4438 43.9241Z" fill="#EAEAEA"/>
<path d="M28.2411 60.4512L29.9677 56.3088C30.3818 56.0018 30.7228 55.6069 30.9662 55.1525C31.2097 54.698 31.3494 54.1953 31.3755 53.6805C31.3755 53.6805 31.8921 55.4482 30.3435 56.6541L28.2411 60.4512ZM41.5755 52.6047L42.638 55.423C43.7244 56.6687 43.8546 58.3515 43.1121 59.8058L42.7628 64.2298L42.6167 60.098C43.2688 58.5533 43.0749 56.8826 42.1997 55.4761L41.5755 52.6047ZM27.1972 67.736L26.561 72.7736C26.561 72.7736 28.5851 73.5864 30.135 73.7936C30.135 73.7936 28.4284 72.5106 28.9915 70.7641C29.5546 69.0176 34.5696 66.0639 34.5696 66.0639L34.5484 65.3294C34.5484 65.3294 30.0859 67.7692 27.1972 67.736ZM42.7642 64.2284C42.7642 64.2284 41.3032 68.3815 41.9925 69.9885C42.6818 71.5955 41.0814 73.1641 40.4306 73.4562C40.4306 73.4562 41.9407 73.5306 43.2197 71.9687L42.7642 64.2284Z" fill="#6D5FDE"/>
<path d="M44.5321 30.9881C47.1654 30.9881 49.3001 28.8534 49.3001 26.2202C49.3001 23.5869 47.1654 21.4522 44.5321 21.4522C41.8989 21.4522 39.7642 23.5869 39.7642 26.2202C39.7642 28.8534 41.8989 30.9881 44.5321 30.9881Z" fill="#D7981A"/>
<path d="M45.4564 30.9443C48.0897 30.9443 50.2244 28.8096 50.2244 26.1763C50.2244 23.543 48.0897 21.4084 45.4564 21.4084C42.8232 21.4084 40.6885 23.543 40.6885 26.1763C40.6885 28.8096 42.8232 30.9443 45.4564 30.9443Z" fill="#EFBD42"/>
<path d="M43.6115 25.1205C43.464 24.2559 44.0099 23.6184 44.8147 23.378L44.7125 22.7737C44.7073 22.7519 44.7066 22.7293 44.7105 22.7073C44.7144 22.6853 44.7227 22.6643 44.7351 22.6456C44.7474 22.6269 44.7635 22.611 44.7822 22.5988C44.801 22.5866 44.822 22.5783 44.8441 22.5746C44.8661 22.5709 44.8887 22.5717 44.9104 22.5771C44.9322 22.5824 44.9526 22.5922 44.9704 22.6057C44.9882 22.6193 45.003 22.6364 45.0139 22.6559C45.0248 22.6754 45.0316 22.697 45.0339 22.7192L45.1348 23.3102C45.4392 23.2631 45.7507 23.3022 46.034 23.4231C46.7671 23.7392 47.1947 24.9013 46.4324 25.0315C46.3704 25.0371 46.3086 25.0181 46.2604 24.9786C46.2122 24.9391 46.1815 24.8823 46.1747 24.8203C46.0419 24.0473 45.7179 23.6781 45.2039 23.7153L45.5704 25.8669C46.018 26.0342 46.3155 26.1591 46.4709 26.2334C46.8879 26.434 47.2133 26.7288 47.2997 27.2335C47.4497 28.1101 46.9012 28.7343 46.1044 28.976L46.2079 29.5803C46.2115 29.6015 46.2109 29.6232 46.2061 29.6441C46.2013 29.6651 46.1924 29.6849 46.1799 29.7024C46.1675 29.7199 46.1517 29.7348 46.1335 29.7462C46.1153 29.7576 46.095 29.7653 46.0738 29.7689C46.0526 29.7725 46.0309 29.7719 46.01 29.767C45.989 29.7622 45.9692 29.7534 45.9517 29.7409C45.9342 29.7284 45.9193 29.7127 45.9079 29.6944C45.8965 29.6762 45.8888 29.656 45.8852 29.6348L45.7856 29.0491C45.4807 29.0925 45.1698 29.0516 44.8865 28.9309C44.144 28.6108 43.7244 27.4527 44.488 27.3225C44.5505 27.317 44.6126 27.3363 44.6609 27.3764C44.7091 27.4164 44.7396 27.4739 44.7457 27.5363C44.7951 27.838 44.9193 28.1225 45.1069 28.3638C45.177 28.4594 45.2694 28.5364 45.3762 28.5881C45.4829 28.6397 45.6007 28.6644 45.7192 28.6599L45.3752 26.6425C44.6022 26.3065 43.7589 25.9652 43.6154 25.1231M45.2172 25.7115L44.8904 23.8016C44.7155 23.8902 44.574 24.0331 44.4871 24.2088C44.4002 24.3845 44.3726 24.5837 44.4083 24.7765C44.4894 25.2546 44.8068 25.5242 45.2172 25.7062M46.034 28.555C46.2014 28.4585 46.336 28.314 46.4205 28.1403C46.505 27.9665 46.5355 27.7714 46.5081 27.5802C46.447 27.2229 46.1402 26.9945 45.7351 26.8006L46.034 28.555Z" fill="#EAEAEA"/>
<path d="M40.9554 57.5852C41.4867 57.4776 43.2916 56.9596 43.346 57.3195C43.4005 57.6795 41.6407 58.3581 41.6407 58.3581C41.6407 58.3581 42.0392 58.6782 42.0299 58.9133C42.0267 59.0476 41.972 59.1755 41.8771 59.2705C41.8771 59.2705 42.241 59.329 42.2756 59.6159C42.2816 59.7044 42.2668 59.7932 42.2325 59.875C42.1981 59.9569 42.1451 60.0296 42.0777 60.0873C42.0777 60.0873 42.4761 60.3437 42.4097 60.6558C42.3433 60.9679 41.7709 61.8046 41.2542 61.6705C41.1719 61.8126 40.5995 62.7648 39.521 62.8977C39.1745 62.9562 38.8184 62.9099 38.4984 62.7648C37.2566 62.1579 37.0122 59.8934 37.0122 59.8934C37.0122 59.8934 40.4042 57.6954 40.9554 57.5852Z" fill="#E39C76"/>
<path d="M50.8077 22.4988L54.796 21.257L54.3631 20.3166L50.8077 22.4988ZM51.319 24.3674L55.2171 25.8669L55.4614 24.8615L51.319 24.3674ZM48.9536 21.0909L51.4956 17.8689L50.6722 17.2805C50.0967 18.5502 49.5238 19.8204 48.9536 21.0909Z" fill="#86EBF9"/>
</svg>
