<svg width="1918" height="900" viewBox="0 0 1918 900" fill="none" xmlns="http://www.w3.org/2000/svg">
<g clip-path="url(#clip0_3_12)">
<mask id="mask0_3_12" style="mask-type:alpha" maskUnits="userSpaceOnUse" x="0" y="0" width="1920" height="901">
<path d="M1920 900V0.00012207L0 0.00012207V900L1920 900Z" fill="url(#paint0_linear_3_12)"/>
</mask>
<g mask="url(#mask0_3_12)">
<path d="M-245.985 292.053L-40.5474 173.443L457.096 1035.39L251.659 1154L-245.985 292.053Z" fill="url(#paint1_linear_3_12)"/>
<path d="M76.395 -379.012L305.531 -317.615L77.1354 534.769L-152.001 473.373L76.395 -379.012Z" fill="url(#paint2_linear_3_12)" fill-opacity="0.1"/>
<mask id="mask1_3_12" style="mask-type:luminance" maskUnits="userSpaceOnUse" x="-166" y="-406" width="2251" height="1353">
<path d="M-165.919 -405.773H2084.57V946.295L-165.919 946.294V-405.773Z" fill="white"/>
</mask>
<g mask="url(#mask1_3_12)">
<path d="M1983.12 689.884C1910.84 724.714 1836.11 760.753 1754.59 773.402C1666.73 787.038 1580.38 767.947 1511.46 719.658C1493.88 707.355 1477.08 693.221 1460.99 677.224C1416.98 633.479 1378.27 575.69 1343.57 502.202C1322.42 457.377 1305.59 410.065 1289.32 364.325C1276.41 328.03 1263.08 290.469 1247.65 254.404C1239.3 234.858 1227.53 210.335 1210.47 193.377C1210.3 193.208 1210.13 193.04 1209.96 192.871C1201.38 184.475 1191.91 178.435 1181.78 174.921C1170.56 171.018 1158.05 170.032 1144.61 172.029C1117.65 176.017 1091.62 186.807 1066.43 197.253C1062.43 198.909 1058.28 200.629 1054.23 202.269C1020.47 216.014 982.205 231.583 943.267 243.212C859.73 268.135 784.811 259.325 692.731 213.674C606.275 170.811 504.343 63.0391 465.523 -26.5923C396.731 -185.413 409.333 -236.657 421.501 -286.207C424.973 -300.31 428.255 -313.657 429.571 -329.329C432.324 -361.803 456.704 -376.156 482.519 -391.343C492.605 -397.285 503.065 -403.43 512.607 -410.858L512.454 -411.044C502.912 -403.615 492.469 -397.488 482.383 -391.545C469.222 -383.799 456.786 -376.48 447.115 -366.917C436.243 -356.152 430.585 -344.221 429.318 -329.345C428.003 -313.704 424.717 -300.361 421.248 -286.254C415.263 -261.922 409.081 -236.773 412.978 -197.756C415.108 -176.666 419.917 -153.623 427.71 -127.274C436.495 -97.5445 448.805 -64.58 465.286 -26.4898C474.676 -4.79978 487.963 18.3662 504.766 42.3949C521.028 65.6495 539.864 88.659 560.743 110.765C581.674 132.955 603.561 153.09 625.803 170.608C648.905 188.812 671.39 203.365 692.596 213.877C738.112 236.435 777.191 249.387 815.574 254.593C857.31 260.261 899.091 256.622 943.303 243.417C982.256 231.802 1020.52 216.198 1054.3 202.471C1058.34 200.817 1062.5 199.112 1066.5 197.456C1091.67 187.027 1117.68 176.222 1144.61 172.264C1200.49 164.008 1227.05 206.918 1247.4 254.523C1262.83 290.589 1276.18 328.132 1289.09 364.427C1305.35 410.167 1322.16 457.496 1343.33 502.339C1365.32 548.904 1388.23 588.123 1413.39 622.208C1427.64 641.511 1442.78 659.288 1458.36 675.017C1475.1 691.925 1492.92 707.003 1511.29 719.896C1546.32 744.453 1585.45 761.483 1627.59 770.55C1668.55 779.367 1711.29 780.429 1754.61 773.689C1790.92 768.058 1829.26 757.157 1871.84 740.404C1910.33 725.256 1947.39 707.407 1983.2 690.138L1983.12 689.884Z" fill="url(#paint3_linear_3_12)" fill-opacity="0.6"/>
<path d="M1973.97 698.952C1895.82 728.93 1828.42 750.647 1753.57 759.159C1670.49 768.701 1585.02 748.185 1512.85 701.397C1437.67 652.658 1377.83 582.95 1334.99 494.18C1312.48 447.092 1295.37 396.804 1278.81 348.205C1267.36 314.578 1255.54 279.802 1242.01 246.369C1234.03 226.652 1222.76 201.772 1206.24 184.406C1198.1 175.842 1189.04 169.546 1179.39 165.691C1168.67 161.414 1156.74 159.955 1143.87 161.338C1119.36 163.983 1095.56 172.595 1072.52 180.92C1067.47 182.749 1062.26 184.628 1057.13 186.422C1046.72 190.047 1036.32 193.791 1025.34 197.723C999.336 207.054 972.458 216.695 945.119 225.034C859.977 250.826 784.859 243.776 693.92 201.52C608.065 161.618 507.627 57.4592 470.032 -30.6165C404.142 -185.001 416.51 -235.498 428.461 -284.317C431.827 -298.087 435.027 -311.111 436.431 -326.358C439.469 -359.157 463.574 -374.424 489.086 -390.588C498.935 -396.833 509.122 -403.283 518.443 -410.965L518.256 -411.184C508.933 -403.538 498.765 -397.069 488.917 -390.824C463.37 -374.626 439.215 -359.308 436.146 -326.372C434.74 -311.16 431.556 -298.154 428.191 -284.384C422.306 -260.356 416.225 -235.512 419.847 -197.342C421.809 -176.724 426.378 -154.222 433.816 -128.564C442.191 -99.613 453.958 -67.5259 469.779 -30.4971C489.939 16.7855 528.193 68.6524 572.558 112.752C610.951 150.916 653.934 183.278 693.804 201.81C715.821 212.049 736.195 219.946 756.069 225.995C777.066 232.384 797.057 236.524 817.178 238.7C858.841 243.182 900.707 238.818 945.19 225.34C972.545 216.984 999.423 207.344 1025.42 198.009C1036.43 194.063 1046.81 190.336 1057.22 186.711C1062.34 184.917 1067.55 183.035 1072.6 181.206C1095.61 172.882 1119.41 164.27 1143.89 161.624C1197.39 155.862 1222.55 198.999 1241.74 246.473C1255.25 279.888 1267.09 314.647 1278.54 348.274C1295.08 396.889 1312.21 447.161 1334.72 494.283C1377.59 583.086 1437.46 652.861 1512.7 701.618C1548.93 725.104 1588.13 741.999 1629.2 751.831C1670.18 761.646 1712.03 764.184 1753.61 759.43C1789.91 755.304 1826.99 747.673 1866.99 736.091C1906.61 724.627 1945.03 710.359 1974.07 699.222L1973.97 698.952Z" fill="url(#paint4_linear_3_12)" fill-opacity="0.6"/>
<path d="M1964.84 708.036C1892.29 728.147 1824.84 739.899 1752.57 744.934C1673.71 750.636 1591.3 729.247 1514.25 683.136C1427.11 630.989 1365.68 566.549 1326.39 486.141C1302.39 437.028 1285.21 383.83 1268.57 332.423C1258.54 301.347 1248.14 269.238 1236.38 238.337C1228.85 218.6 1218.2 193.701 1202.51 175.976C1201.14 174.442 1199.75 172.96 1198.34 171.559C1182.84 156.152 1164.72 149.316 1143.12 150.696C1120.81 152.116 1099.01 158.811 1077.93 165.266C1072.06 167.063 1065.99 168.931 1060.01 170.644C1040.38 176.283 1019.59 183.194 997.538 190.514C981.054 196.004 964.016 201.653 946.923 206.943C860.446 233.738 785.125 228.512 695.128 189.454C609.872 152.476 510.931 51.9656 474.556 -34.5943C411.536 -184.572 423.688 -234.34 435.417 -282.468C438.684 -295.897 441.785 -308.58 443.292 -323.388C446.646 -356.513 470.45 -372.721 495.65 -389.904C505.261 -396.453 515.195 -403.222 524.313 -411.106L524.111 -411.34C515.008 -403.441 505.074 -396.672 495.48 -390.14C470.211 -372.925 446.341 -356.681 442.97 -323.404C441.482 -308.645 438.381 -295.962 435.114 -282.532C429.314 -258.793 423.333 -234.253 426.685 -196.926C428.493 -176.764 432.824 -154.837 439.902 -129.841C447.903 -101.667 459.126 -70.4571 474.253 -34.456C483.165 -13.2416 495.89 9.09572 512.085 31.9802C527.721 54.0714 545.942 75.6944 566.191 96.2948C586.456 116.878 607.751 135.379 629.495 151.288C652.018 167.769 674.045 180.718 694.974 189.774C716.89 199.271 737.295 206.556 757.39 212.014C778.402 217.71 798.457 221.272 818.765 222.891C860.394 226.225 902.358 221.114 947.059 207.281C964.152 201.991 981.192 196.31 997.674 190.852C1019.69 183.53 1040.52 176.621 1060.11 170.983C1066.09 169.267 1072.17 167.403 1078.03 165.602C1099.1 159.132 1120.89 152.469 1143.14 151.053C1194.26 147.786 1218.01 191.149 1236.06 238.488C1247.82 269.357 1258.2 301.484 1268.25 332.543C1284.89 383.983 1302.08 437.164 1326.09 486.311C1336.41 507.439 1348.45 527.749 1361.84 546.666C1374.83 565.009 1389.52 582.619 1405.51 599.023C1420.93 614.853 1438.09 630.086 1456.46 644.298C1474.09 657.938 1493.47 671.098 1514.06 683.424C1551.67 705.925 1590.95 722.684 1630.77 733.231C1671.82 744.095 1712.79 748.124 1752.56 745.255C1824.84 740.203 1892.3 728.469 1964.87 708.341L1964.84 708.036Z" fill="url(#paint5_linear_3_12)" fill-opacity="0.6"/>
<path d="M1955.69 717.105C1892.27 727.387 1829.4 728.868 1756.6 730.572L1751.56 730.692C1677.87 732.687 1598.5 710.543 1515.64 664.876C1472.46 641.094 1426.39 612.313 1386.37 572.531C1360.07 546.385 1336.39 515.493 1317.83 478.103C1292.6 427.302 1275.54 371.583 1259.03 317.671C1250.18 288.824 1241.06 258.992 1230.79 230.318C1223.72 210.601 1213.72 185.665 1198.82 167.548C1183.33 148.708 1164.9 139.706 1142.43 140.058C1122.08 140.388 1102.11 145.316 1082.78 150.105C1076.31 151.705 1069.63 153.369 1062.97 154.849C1036.64 160.681 1006.71 170.297 975.012 180.479C966.46 183.219 957.619 186.078 948.843 188.832C861.928 216.204 784.039 212.68 696.317 177.369C611.661 143.283 514.202 46.4063 479.082 -38.5679C418.916 -184.122 430.848 -233.163 442.377 -280.578C445.561 -293.652 448.561 -306.03 450.133 -320.369C453.776 -353.814 477.307 -370.968 502.2 -389.132C511.574 -395.984 521.254 -403.04 530.151 -411.176L529.912 -411.448C521.031 -403.328 511.338 -396.252 501.982 -389.416C477.019 -371.221 453.454 -354.033 449.777 -320.418C448.206 -306.08 445.203 -293.737 442.02 -280.663C436.308 -257.208 430.424 -232.978 433.505 -196.493C435.173 -176.808 439.268 -155.419 445.993 -131.078C453.584 -103.682 464.281 -73.3673 478.727 -38.4144C495.827 2.95717 527.758 48.1335 568.676 88.8063C568.762 88.8925 568.83 88.9598 568.913 89.0422C588.842 108.819 609.844 126.521 631.368 141.604C653.583 157.204 675.388 169.359 696.165 177.725C739.943 195.347 780.554 204.928 820.37 207.034C861.893 209.216 903.925 203.396 948.929 189.221C957.704 186.466 966.545 183.608 975.098 180.867C1006.8 170.686 1036.72 161.07 1063.02 155.236C1069.68 153.756 1076.38 152.11 1082.84 150.496C1103.03 145.482 1122.1 140.777 1142.42 140.449C1191.14 139.696 1213.51 183.262 1230.4 230.474C1240.67 259.148 1249.81 288.959 1258.64 317.825C1275.15 371.736 1292.23 427.473 1317.46 478.307C1337.94 519.531 1365.43 555.232 1401.54 587.482C1431.5 614.223 1467.7 638.928 1515.42 665.232C1554.78 686.931 1594.12 703.554 1632.31 714.615C1673.54 726.561 1713.63 732.116 1751.51 731.082L1756.55 730.962C1829.35 729.258 1892.23 727.793 1955.67 717.495L1955.69 717.105Z" fill="url(#paint6_linear_3_12)" fill-opacity="0.6"/>
<path d="M1946.59 726.189C1911.1 727.504 1875.9 724.689 1838.64 721.711C1810.61 719.479 1781.66 717.165 1750.6 716.433C1683.27 714.868 1606.86 692.019 1517.07 646.581C1459.6 617.505 1407.06 588.579 1365.13 546.891C1343.4 525.297 1324.51 500.275 1309.26 470.029C1282.92 417.778 1266.12 359.655 1249.88 303.474C1242.12 276.653 1234.12 248.917 1225.19 222.253C1218.6 202.566 1209.2 177.596 1195.13 159.085C1192.37 155.46 1189.5 152.168 1186.53 149.221C1173.79 136.558 1159.06 130.048 1141.77 129.402C1123.15 128.692 1105.6 131.937 1087.05 135.371C1080.18 136.649 1073.06 137.943 1065.92 139.05C1034.7 143.803 996.73 155.985 956.511 168.873L950.728 170.72C862.174 199.062 784.088 197.401 697.542 165.285C612.044 133.569 518.082 42.2623 483.606 -42.5457C426.26 -183.643 438.005 -231.991 449.333 -278.729C452.302 -290.901 455.334 -303.484 456.976 -317.381C460.94 -351.15 484.163 -369.252 508.732 -388.446C517.87 -395.567 527.329 -402.942 536.004 -411.3L535.733 -411.57C527.054 -403.216 517.616 -395.853 508.478 -388.732C483.838 -369.506 460.55 -351.368 456.568 -317.415C454.943 -303.535 451.879 -290.951 448.927 -278.795C437.567 -231.987 425.818 -183.575 483.183 -42.3916C499.81 -1.45662 531.229 42.6375 571.639 81.7935C591.24 100.77 611.939 117.632 633.205 131.919C655.134 146.661 676.699 158.003 697.338 165.656C740.759 181.777 781.536 190.105 821.955 191.122C863.324 192.171 905.44 185.625 950.781 171.111L956.565 169.264C996.748 156.374 1034.72 144.224 1065.89 139.458C1073.03 138.383 1080.15 137.053 1087.01 135.775C1105.56 132.341 1123.07 129.115 1141.65 129.824C1162.83 130.628 1180.2 140.293 1194.73 159.393C1208.78 177.849 1218.14 202.789 1224.73 222.441C1233.66 249.105 1241.68 276.824 1249.44 303.644C1265.68 359.859 1282.5 417.999 1308.86 470.267C1319.77 491.884 1332.69 511.277 1348.33 529.492C1362.53 546.038 1378.68 561.206 1397.63 575.89C1434.76 604.635 1478.64 627.654 1516.85 647.005C1559.18 668.422 1597.49 684.423 1633.93 695.93C1654.07 702.286 1673.81 707.255 1692.59 710.723C1712.51 714.389 1732.02 716.467 1750.55 716.89C1781.59 717.605 1810.55 719.919 1838.57 722.151C1875.83 725.129 1911.05 727.927 1946.56 726.63L1946.59 726.189Z" fill="url(#paint7_linear_3_12)" fill-opacity="0.6"/>
<path d="M1937.46 735.275C1910.35 732.565 1883.81 726.606 1855.69 720.296C1822.32 712.821 1787.83 705.063 1749.6 702.208C1674.65 696.611 1594.21 663.405 1518.47 628.355C1514.15 626.357 1509.84 624.376 1505.56 622.412C1447.26 595.555 1391.23 569.738 1347.77 526.533C1329.64 508.513 1313.69 487.457 1300.67 462.058C1273.25 408.542 1256.89 348.184 1241.05 289.802C1234.29 264.854 1227.27 239.078 1219.54 214.271C1213.4 194.599 1204.63 169.609 1191.37 150.689C1187.96 145.847 1184.38 141.545 1180.63 137.822C1169.25 126.512 1156.19 120.247 1141.03 118.779C1123.9 117.117 1107.74 119.004 1090.63 121.01C1083.56 121.847 1076.24 122.704 1068.83 123.271C1037.08 125.775 995.725 138.58 952.58 152.61C862.321 181.959 784.035 182.157 698.731 153.2C653.504 137.85 606.108 105.76 566.697 66.5849C532.102 32.1965 503.651 -7.66445 488.132 -46.519C433.604 -183.127 445.148 -230.798 456.308 -276.892C459.175 -288.728 462.14 -300.972 463.835 -314.411C468.12 -348.501 491.032 -367.588 515.284 -387.773C524.199 -395.182 533.401 -402.848 541.874 -411.44L541.568 -411.743C533.112 -403.169 523.911 -395.502 515.012 -388.11C490.678 -367.872 467.714 -348.771 463.41 -314.495C461.719 -301.053 458.767 -288.83 455.902 -277.026C444.727 -230.879 433.163 -183.127 487.709 -46.4328C503.826 -6.03915 534.633 36.907 574.446 74.4558C593.71 92.6257 614.133 108.673 635.146 122.167C656.767 136.029 678.125 146.592 698.565 153.541C783.97 182.532 862.339 182.348 952.699 152.965C995.812 138.936 1037.15 126.146 1068.85 123.628C1076.28 123.043 1083.6 122.187 1090.67 121.351C1107.77 119.341 1123.91 117.455 1140.98 119.133C1161.02 121.091 1177.38 131.489 1191.02 150.879C1204.26 169.744 1213 194.703 1219.13 214.34C1226.89 239.13 1233.87 264.908 1240.63 289.856C1256.48 348.253 1272.85 408.645 1300.28 462.178C1310.95 483.017 1323.72 501.378 1339.31 518.359C1353.28 533.568 1369.29 547.35 1388.22 560.494C1423.53 585.033 1463.29 603.347 1505.37 622.735C1509.66 624.698 1513.98 626.696 1518.28 628.677C1550.68 643.667 1593.29 662.731 1635.51 677.178C1678.02 691.726 1715.35 700.032 1749.55 702.597C1787.74 705.453 1822.22 713.194 1855.57 720.652C1883.69 726.961 1910.27 732.921 1937.41 735.631L1937.46 735.275Z" fill="url(#paint8_linear_3_12)" fill-opacity="0.6"/>
<path d="M1928.36 744.36C1905.63 738.673 1883.48 730.024 1860.06 720.855C1825.36 707.294 1789.46 693.247 1748.64 687.982C1683.63 679.574 1615.16 650.503 1542.67 619.739C1535.22 616.585 1527.52 613.314 1519.9 610.093C1508.46 605.28 1496.93 600.601 1485.75 596.074C1429.02 573.102 1374.54 551.052 1332.93 509.685C1317.32 494.177 1303.54 475.988 1292.11 453.985C1263.71 399.355 1247.86 336.847 1232.54 276.417C1226.67 253.225 1220.6 229.272 1213.92 206.222C1208.22 186.582 1200.11 161.571 1187.61 142.226C1174.81 122.378 1159.33 111.216 1140.33 108.09C1124.5 105.49 1109.5 106.138 1093.63 106.805C1086.56 107.101 1079.23 107.416 1071.75 107.442C1040.46 107.49 996.885 120.457 954.434 134.468C862.381 164.868 783.883 166.915 699.903 141.064C615.587 115.114 524.536 30.9537 492.638 -50.5476C440.929 -182.598 452.292 -229.605 463.301 -275.073C466.084 -286.553 468.948 -298.425 470.692 -311.444C475.299 -345.89 497.89 -365.903 521.832 -387.104C530.509 -394.785 539.476 -402.751 547.746 -411.545L547.39 -411.866C539.137 -403.088 530.17 -395.122 521.51 -387.458C497.516 -366.206 474.859 -346.125 470.218 -311.51C468.472 -298.526 465.625 -286.672 462.842 -275.191C457.363 -252.551 451.701 -229.146 453.961 -195.166C455.19 -176.863 458.534 -157.131 464.236 -134.82C470.642 -109.75 479.792 -82.1215 492.216 -50.3939C507.84 -10.5224 538.002 31.2417 577.223 67.2236C596.143 84.579 616.278 99.8 637.07 112.5C658.384 125.517 679.501 135.267 699.803 141.504C783.865 167.37 862.45 165.342 954.604 134.907C997.003 120.911 1040.54 107.947 1071.77 107.899C1079.27 107.887 1086.59 107.576 1093.66 107.277C1109.52 106.595 1124.47 105.965 1140.26 108.564C1159.13 111.659 1174.5 122.751 1187.24 142.5C1199.69 161.793 1207.8 186.768 1213.5 206.376C1220.17 229.411 1226.24 253.379 1232.1 276.556C1247.42 337.018 1263.25 399.543 1291.7 454.223C1333.73 535.061 1407.48 564.924 1485.57 596.531C1496.73 601.042 1508.28 605.737 1519.69 610.534C1527.31 613.755 1535.02 617.026 1542.47 620.179C1614.97 650.961 1683.48 680.031 1748.57 688.456C1789.34 693.738 1825.21 707.751 1859.89 721.295C1883.34 730.464 1905.49 739.113 1928.26 744.8L1928.36 744.36Z" fill="url(#paint9_linear_3_12)" fill-opacity="0.6"/>
<path d="M1919.26 753.445C1899.36 745.177 1880.08 734.046 1859.67 722.227C1825.09 702.237 1789.34 681.557 1747.62 673.74C1698.28 664.496 1645.98 642.794 1590.62 619.835C1568.11 610.493 1544.86 600.85 1521.26 591.833C1504.92 585.582 1488.32 579.856 1472.29 574.349C1415.29 554.694 1360.65 535.86 1319.66 495.116C1305.92 481.462 1293.74 465.366 1283.49 445.963C1254.14 390.322 1238.95 325.763 1224.27 263.335C1219.21 241.832 1213.98 219.587 1208.26 198.205C1203.03 178.615 1195.52 153.602 1183.82 133.801C1171.88 113.624 1157.4 101.731 1139.57 97.4484C1124.8 93.8988 1110.77 93.3598 1095.93 92.7874C1089.05 92.5259 1081.94 92.2463 1074.61 91.6458C1042.95 89.0732 996.979 102.691 956.219 116.358C862.273 147.848 783.576 151.723 701.025 128.98C617.29 105.903 527.701 25.2902 497.078 -54.5395C448.155 -182.031 459.368 -228.412 470.207 -273.271C472.906 -284.396 475.687 -295.912 477.467 -308.456C482.427 -343.227 504.696 -364.235 528.281 -386.433C536.722 -394.381 545.45 -402.619 553.514 -411.651L553.143 -411.986C545.092 -402.975 536.366 -394.769 527.94 -386.805C504.289 -364.504 481.955 -343.46 476.976 -308.505C475.198 -295.993 472.414 -284.481 469.735 -273.369C464.321 -250.967 458.726 -227.834 460.699 -194.68C461.77 -176.836 464.879 -157.643 470.209 -136.006C476.22 -111.7 484.845 -84.9972 496.605 -54.3349C511.706 -14.984 541.29 25.5981 579.893 59.9865C598.477 76.5349 618.32 90.9262 638.871 102.813C659.881 114.954 680.764 123.93 700.892 129.489C783.529 152.284 862.327 148.374 956.374 116.85C997.082 103.199 1042.97 89.5975 1074.56 92.1707C1081.89 92.7708 1089 93.0505 1095.88 93.3123C1110.69 93.8825 1124.7 94.4423 1139.43 97.9755C1157.11 102.223 1171.49 114.014 1183.35 134.073C1195.02 153.809 1202.52 178.786 1207.74 198.36C1213.46 219.743 1218.67 241.969 1223.73 263.473C1238.41 325.936 1253.6 390.527 1283 446.219C1293.27 465.672 1305.5 481.819 1319.27 495.507C1360.33 536.318 1415.02 555.169 1472.07 574.84C1488.1 580.381 1504.68 586.091 1521.04 592.325C1544.63 601.324 1567.9 610.984 1590.4 620.326C1645.78 643.303 1698.11 665.005 1747.5 674.265C1789.12 682.082 1824.84 702.728 1859.38 722.685C1879.81 734.487 1899.09 745.651 1919.03 753.919L1919.26 753.445Z" fill="url(#paint10_linear_3_12)" fill-opacity="0.6"/>
<path d="M1910.15 762.547C1892.34 751.902 1875.15 738.362 1857 724.03C1823.27 697.421 1788.39 669.937 1746.64 659.498C1708.35 649.926 1667.73 632.581 1624.75 614.228C1592.03 600.237 1558.19 585.777 1522.67 573.556C1502.62 566.658 1482.14 560.811 1462.33 555.165C1404.19 538.594 1348.51 522.741 1307.55 482.031C1295.24 469.793 1284.26 455.333 1274.95 437.907C1244.7 381.372 1230.26 314.833 1216.31 250.458C1211.99 230.54 1207.53 209.966 1202.68 190.154C1195.59 161.13 1188.61 141.125 1180.08 125.32C1169.01 104.802 1155.55 92.1966 1138.91 86.7932C1124.94 82.2574 1111.66 80.5328 1097.59 78.7061C1091.14 77.8637 1084.49 76.994 1077.59 75.8341C1063.64 73.4822 1045.89 74.6447 1023.32 79.414C1005.49 83.169 984.784 89.151 958.105 98.2138C862.166 130.828 783.255 136.583 702.252 116.864C619.082 96.6109 530.971 19.5596 501.622 -58.5306C455.448 -181.433 466.508 -227.222 477.217 -271.469C479.832 -282.238 482.512 -293.382 484.329 -305.45C489.627 -340.56 511.568 -362.536 534.811 -385.782C543.033 -394.016 551.541 -402.507 559.386 -411.756L558.961 -412.112C551.116 -402.894 542.624 -394.389 534.404 -386.187C511.113 -362.854 489.085 -340.829 483.769 -305.535C481.954 -293.498 479.255 -282.373 476.675 -271.602C471.311 -249.455 465.782 -226.56 467.467 -194.232C468.368 -176.827 471.254 -158.194 476.244 -137.231C481.849 -113.7 489.98 -87.8943 501.098 -58.3427C515.688 -19.533 544.642 19.8823 582.687 52.6691C619.847 84.7114 662.251 107.687 702.099 117.387C744.251 127.655 785.592 130.939 828.492 127.434C868.681 124.138 911.145 114.764 958.259 98.7373C999.558 84.695 1046.02 71.058 1077.45 76.3758C1084.36 77.5358 1091.01 78.4058 1097.47 79.2308C1111.5 81.0558 1124.77 82.7654 1138.67 87.3014C1155.18 92.6737 1168.54 105.178 1179.52 125.574C1188.03 141.363 1194.98 161.303 1202.07 190.292C1206.91 210.089 1211.37 230.662 1215.68 250.576C1229.64 314.987 1244.07 381.561 1274.37 438.18C1314.82 513.761 1386.36 534.142 1462.09 555.707C1481.9 561.353 1502.39 567.2 1522.42 574.081C1557.92 586.319 1591.75 600.763 1624.45 614.737C1667.47 633.123 1708.08 650.469 1746.42 660.057C1788.05 670.446 1822.88 697.913 1856.58 724.488C1874.77 738.82 1891.94 752.377 1909.79 763.039L1910.15 762.547Z" fill="url(#paint11_linear_3_12)" fill-opacity="0.6"/>
<path d="M1901.07 771.649C1884.93 758.713 1869.46 742.866 1853.08 726.075C1847.01 719.837 1840.89 713.582 1834.68 707.413C1807.75 680.643 1779.27 655.91 1745.68 645.273C1715.72 635.789 1684.02 621.388 1650.47 606.131C1610.53 587.971 1569.22 569.189 1524.08 555.278C1501.09 548.188 1477.37 542.81 1454.44 537.598C1378.43 520.347 1306.62 504.029 1266.37 429.851C1235.24 372.508 1221.66 303.986 1208.53 237.728C1204.9 219.367 1201.11 200.38 1197.06 182.106C1190.63 153.164 1184.22 133.019 1176.3 116.806C1166.12 95.95 1153.65 82.6458 1138.22 76.1193C1124.74 70.4179 1111.91 67.4512 1098.3 64.3218C1092.59 63.0031 1086.67 61.6385 1080.54 60.0393C1066.8 56.433 1049.05 56.8194 1026.25 61.2677C1008.16 64.785 987.109 70.7683 959.993 80.1052C861.925 113.912 782.795 121.508 703.458 104.762C619.496 87.0306 534.684 15.1154 506.162 -62.525C462.744 -180.831 473.687 -226.027 484.258 -269.736C486.773 -280.133 489.388 -290.902 491.221 -302.482C496.856 -337.931 518.49 -360.887 541.376 -385.198C549.378 -393.685 557.63 -402.462 565.288 -411.899L564.847 -412.269C557.206 -402.849 548.954 -394.072 540.969 -385.602C518.016 -361.223 496.331 -338.217 490.677 -302.583C488.829 -291.018 486.231 -280.266 483.734 -269.886C478.422 -247.957 472.925 -225.299 474.338 -193.782C475.086 -176.834 477.718 -158.722 482.382 -138.456C487.613 -115.701 495.235 -90.8071 505.691 -62.3522C512.875 -42.7532 523.682 -23.3019 537.785 -4.5223C551.261 13.3967 567.321 30.1709 585.545 45.3485C621.943 75.655 663.798 96.9374 703.391 105.303C745.251 114.132 786.743 116.149 830.247 111.456C869.963 107.182 912.472 97.077 960.231 80.612C987.311 71.2734 1008.33 65.292 1026.41 61.7916C1049.12 57.3961 1066.8 56.9743 1080.43 60.5641C1086.57 62.182 1092.48 63.5283 1098.2 64.862C1111.78 67.9933 1124.57 70.9582 1138.02 76.6293C1153.33 83.1036 1165.68 96.3239 1175.79 117.045C1183.72 133.226 1190.09 153.333 1196.52 182.207C1200.57 200.485 1204.34 219.454 1207.98 237.829C1221.12 304.123 1234.73 372.679 1265.88 430.106C1275.6 448.005 1287.32 463.003 1301.72 475.961C1314.58 487.538 1329.36 497.229 1346.87 505.591C1379.46 521.139 1415.82 529.398 1454.33 538.139C1477.26 543.334 1500.95 548.73 1523.93 555.802C1569.03 569.715 1610.33 588.479 1650.25 606.623C1683.83 621.88 1715.54 636.314 1745.52 645.798C1786.7 658.81 1820.25 693.203 1852.67 726.449C1869.07 743.257 1884.56 759.121 1900.71 772.073L1901.07 771.649Z" fill="url(#paint12_linear_3_12)" fill-opacity="0.6"/>
<path d="M1797.33 667.755C1781.15 651.674 1763.88 638.489 1744.68 631.047C1721.29 621.979 1696.66 609.82 1670.56 596.938C1627.52 575.693 1578.77 551.609 1525.46 537.033C1500.01 530.072 1473.53 525.515 1447.9 521.108C1370.92 507.854 1298.23 495.346 1257.77 421.845C1225.81 363.744 1213.16 293.307 1200.93 225.216C1197.9 208.36 1194.78 190.911 1191.42 174.138C1184.03 137.147 1173.48 97.8659 1151.56 76.0726C1147.31 71.8556 1142.66 68.3054 1137.5 65.5466C1124.02 58.3212 1111.15 53.9035 1097.52 49.1991C1093 47.6391 1088.33 46.0326 1083.47 44.2744C1069.95 39.3838 1052.17 38.9918 1029.12 43.086C1010.86 46.3352 989.486 52.3346 961.829 62.0119C860.094 97.541 783.183 106.702 704.63 92.6935C621.252 77.8043 537.867 9.36634 510.672 -66.482C469.917 -180.149 480.275 -222.821 491.234 -267.967C493.663 -277.976 496.175 -288.341 498.045 -299.446C504.054 -335.233 525.331 -359.185 547.878 -384.542C555.655 -393.286 563.672 -402.331 571.128 -411.934L570.633 -412.325C563.196 -402.703 555.163 -393.673 547.403 -384.946C524.806 -359.539 503.461 -335.518 497.438 -299.543C495.566 -288.474 493.07 -278.126 490.642 -268.117C485.378 -246.41 479.934 -223.97 481.038 -193.266C481.65 -176.791 484.042 -159.221 488.353 -139.61C493.175 -117.634 500.303 -93.6682 510.112 -66.2955C517.06 -46.9329 527.594 -27.8859 541.409 -9.69749C554.581 7.61575 570.354 23.6988 588.303 38.0973C623.932 66.6604 665.229 86.2741 704.564 93.3026C746.132 100.729 787.789 101.458 831.883 95.5606C871.545 90.2554 912.905 79.7843 962.082 62.6012C989.705 52.9579 1011.06 46.9436 1029.28 43.7133C1052.21 39.6345 1069.89 39.9928 1083.28 44.8673C1088.14 46.625 1092.81 48.2317 1097.34 49.7917C1110.95 54.4773 1123.8 58.8801 1137.23 66.0891C1168.78 83.0284 1182.03 130.27 1190.83 174.259C1194.19 191.067 1197.31 208.48 1200.34 225.337C1212.57 293.496 1225.23 363.983 1257.25 422.169C1267.02 439.915 1278.82 454.591 1293.39 467.007C1306.39 478.11 1321.33 487.158 1339.07 494.69C1372.06 508.713 1408.85 515.042 1447.78 521.735C1473.37 526.142 1499.86 530.698 1525.29 537.643C1578.54 552.219 1627.28 576.269 1670.29 597.515C1696.39 610.396 1721.04 622.572 1744.46 631.64C1784.88 647.312 1816.89 688.68 1847.86 728.682C1862.74 747.898 1876.76 766.052 1891.51 781.191L1891.95 780.75C1877.23 765.611 1863.2 747.474 1848.35 728.291C1831.99 707.169 1815.36 685.674 1797.33 667.755Z" fill="url(#paint13_linear_3_12)" fill-opacity="0.6"/>
<path d="M1779.1 642.579C1768.08 631.622 1756.37 622.681 1743.71 616.822C1725.68 608.445 1706.75 598.177 1686.73 587.287C1640.14 561.977 1587.37 533.289 1526.85 518.774C1499.28 512.157 1470.34 508.676 1442.33 505.31C1363.99 495.902 1290.02 487.019 1249.21 413.807C1216.42 355.016 1204.81 282.679 1193.56 212.724C1191.09 197.337 1188.53 181.425 1185.81 166.09C1180.77 137.754 1175.34 116.692 1168.7 99.8295C1160.22 78.2731 1149.8 63.559 1136.82 54.8764C1122.43 45.2316 1109.16 39.0559 1093.78 31.9053C1091.37 30.7976 1088.91 29.6378 1086.41 28.4613C1073.13 22.218 1055.34 21.0459 1032.02 24.8384C1013.67 27.8306 991.963 33.867 963.698 43.8849C859.479 80.7597 782.354 91.7339 705.821 80.5763C623.056 68.491 541.104 3.57053 515.229 -70.4933C477.146 -179.479 487.416 -221.664 498.292 -266.319C500.639 -275.937 503.053 -285.893 504.922 -296.492C511.3 -332.621 532.24 -357.583 554.408 -383.991C561.949 -392.971 569.745 -402.269 576.998 -412.074L576.471 -412.463C569.218 -402.658 561.442 -393.373 553.898 -384.397C531.678 -357.906 510.658 -332.887 504.262 -296.574C502.41 -285.992 499.977 -276.054 497.634 -266.433C492.406 -244.927 486.993 -222.692 487.787 -192.769C488.214 -176.68 490.37 -159.649 494.339 -140.749C498.787 -119.549 505.406 -96.4956 514.57 -70.2371C521.266 -51.0893 531.511 -32.4663 545.037 -14.869C557.884 1.85166 573.367 17.2083 591.042 30.8278C625.893 57.6721 666.622 75.5733 705.702 81.2686C746.984 87.2955 788.77 86.7342 833.486 79.6C872.387 73.4027 913.813 62.2549 963.884 44.5422C992.115 34.5581 1013.79 28.5237 1032.11 25.5301C1055.28 21.7586 1072.96 22.9292 1086.1 29.1049C1088.61 30.2818 1091.07 31.4416 1093.47 32.5493C1108.82 39.6981 1122.1 45.8776 1136.43 55.47C1149.31 64.0834 1159.65 78.6794 1168.07 100.119C1174.68 116.948 1180.09 137.959 1185.13 166.264C1187.86 181.599 1190.42 197.51 1192.87 212.879C1204.12 282.902 1215.74 355.29 1248.58 414.165C1258.44 431.86 1270.41 446.265 1285.21 458.206C1298.43 468.884 1313.63 477.373 1331.65 484.142C1365.21 496.743 1402.6 501.226 1442.2 505.987C1470.19 509.337 1499.13 512.818 1526.65 519.451C1587.07 533.967 1639.82 562.638 1686.38 587.914C1706.4 598.805 1725.32 609.073 1743.38 617.467C1782.88 635.798 1813.19 684.194 1842.48 731.004C1856 752.61 1868.77 773.002 1882.26 790.328L1882.77 789.92C1869.31 772.627 1856.54 752.236 1843.02 730.663C1823.1 698.674 1802.66 665.994 1779.1 642.579Z" fill="url(#paint14_linear_3_12)" fill-opacity="0.6"/>
<path d="M1766.72 621.019C1759.14 613.484 1751.19 607.236 1742.73 602.614C1729.11 595.151 1714.97 586.625 1699.97 577.594C1650.92 548.013 1595.32 514.479 1528.27 500.529C1498.85 494.411 1467.63 492.173 1437.46 490.033C1371.24 485.318 1308.04 480.794 1264.81 437.825C1255.84 428.908 1247.73 418.347 1240.63 405.785C1207.04 346.335 1196.53 272.118 1186.38 200.315C1184.42 186.381 1182.37 171.99 1180.19 158.074C1175.79 129.801 1170.94 108.603 1164.92 91.2835C1158.25 72.0552 1150.16 57.8394 1140.34 48.0756C1138.97 46.7124 1137.56 45.4469 1136.12 44.2514C1120.18 31.0801 1105.51 22.1656 1089.35 12.6831C1076.34 5.04979 1058.53 3.05096 1034.92 6.55513C1016.52 9.2954 994.472 15.3969 965.532 25.7558C886.299 54.1476 800.137 78.9601 706.991 68.4722C635.322 60.3942 547.984 8.72098 519.705 -74.4838C484.268 -178.746 494.473 -220.489 505.282 -264.671C507.53 -273.88 509.861 -283.413 511.729 -293.507C518.478 -330.009 539.093 -355.97 560.889 -383.458C568.195 -392.669 575.751 -402.207 582.817 -412.232L582.239 -412.637C575.207 -402.647 567.651 -393.109 560.329 -383.912C538.467 -356.357 517.82 -330.326 511.037 -293.654C509.163 -283.601 506.836 -274.063 504.588 -264.854C499.144 -242.55 493.98 -221.486 494.489 -192.352C494.765 -176.684 496.662 -160.214 500.293 -141.954C504.367 -121.531 510.476 -99.3887 519.011 -74.2612C525.45 -55.3366 535.423 -37.1186 548.645 -20.127C561.184 -4.01624 576.362 10.6314 593.783 23.4587C627.869 48.5634 668.021 64.7766 706.876 69.1681C747.863 73.7884 789.817 71.9426 835.125 63.5731C873.074 56.5637 914.565 44.7387 965.721 26.4168C994.609 16.0731 1016.61 9.98672 1034.98 7.24842C1058.42 3.77895 1076.07 5.75948 1088.94 13.2936C1105.09 22.7612 1119.75 31.6569 1135.65 44.7945C1147.31 54.431 1156.65 69.7265 1164.21 91.523C1170.21 108.792 1175.05 129.975 1179.44 158.179C1181.61 172.077 1183.64 186.485 1185.62 200.402C1195.79 272.256 1206.3 346.541 1239.95 406.092C1249.94 423.787 1262.12 437.988 1277.19 449.522C1290.65 459.827 1306.13 467.79 1324.55 473.848C1358.79 485.092 1396.95 487.812 1437.34 490.693C1467.49 492.85 1498.68 495.054 1528.07 501.173C1595 515.107 1650.55 548.59 1699.55 578.154C1714.54 587.185 1728.71 595.728 1742.35 603.207C1780.78 624.233 1809.27 679.691 1836.8 733.325C1849.11 757.271 1860.74 779.9 1873.08 799.363L1873.66 798.988C1861.33 779.576 1849.72 756.964 1837.41 733.018C1815.93 691.036 1793.78 647.923 1766.72 621.019Z" fill="url(#paint15_linear_3_12)" fill-opacity="0.6"/>
<path d="M1757.53 601.189C1752.5 596.183 1747.24 591.871 1741.77 588.388C1731.87 582.097 1721.71 575.265 1710.95 568.012C1686.66 551.672 1659.14 533.162 1629.18 517.52C1594.79 499.576 1562.25 488.054 1529.68 482.286C1498.59 476.765 1465.3 475.922 1433.12 475.126C1351.3 473.056 1274.04 471.105 1232.06 397.779C1197.7 337.724 1188.38 261.589 1179.36 187.975C1177.83 175.475 1176.26 162.571 1174.58 150.108C1171.78 129.124 1168.27 103.014 1162.29 81.5117C1156.68 61.3844 1149.36 46.9461 1140.01 37.658C1138.54 36.1899 1137.03 34.859 1135.43 33.6451C1128.19 28.0708 1121.92 22.3087 1115.85 16.7489C1108.66 10.1406 1101.25 3.31513 1092.31 -3.0441C1079.6 -12.1012 1061.77 -14.931 1037.88 -11.7114C1019.18 -9.19193 997.44 -3.22489 967.418 7.67923C873.311 41.8113 793.215 63.1668 708.182 56.4228C637.007 50.794 550.982 2.65353 524.23 -78.4256C491.41 -177.959 501.568 -219.277 512.326 -263.037C514.486 -271.827 516.716 -280.92 518.589 -290.468C525.729 -327.326 545.984 -354.319 567.42 -382.907C574.504 -392.34 581.826 -402.11 588.687 -412.304L588.077 -412.708C581.25 -402.547 573.913 -392.792 566.844 -383.345C545.357 -354.706 525.049 -327.63 517.88 -290.599C516.024 -281.068 513.794 -271.975 511.65 -263.202C506.204 -241.069 501.058 -220.189 501.259 -191.801C501.379 -176.557 503.024 -160.608 506.311 -143.027C509.998 -123.36 515.647 -102.149 523.554 -78.1523C529.721 -59.4293 539.424 -41.6485 552.354 -25.2518C564.589 -9.74716 579.492 4.18903 596.628 16.2261C629.909 39.5856 669.499 54.1267 708.135 57.1861C748.832 60.4033 790.933 57.2864 836.847 47.6288C884.553 37.5924 931.804 21.3979 967.639 8.4062C1013.3 -8.15471 1063.79 -22.3819 1091.85 -2.41841C1100.73 3.90909 1108.16 10.7176 1115.33 17.3072C1121.4 22.9027 1127.67 28.6647 1134.96 34.2558C1160.96 54.2612 1167.8 105.248 1173.83 150.231C1175.5 162.694 1177.08 175.613 1178.6 188.094C1187.62 261.776 1196.93 337.979 1231.37 398.171C1241.53 415.899 1253.93 429.947 1269.32 441.125C1283.06 451.108 1298.9 458.545 1317.74 463.907C1352.76 473.863 1391.76 474.854 1433.04 475.888C1465.21 476.701 1498.45 477.544 1529.5 483.047C1602.45 495.978 1659.86 534.614 1710.49 568.673C1721.25 575.926 1731.44 582.775 1741.33 589.066C1778.61 612.786 1805.2 675.34 1830.92 735.85C1842.08 762.135 1852.63 786.968 1863.95 808.515L1864.59 808.174C1853.31 786.661 1842.76 761.828 1831.6 735.577C1809.63 683.733 1787.01 630.487 1757.53 601.189Z" fill="url(#paint16_linear_3_12)" fill-opacity="0.6"/>
<path d="M1750.37 582.418C1747.26 579.333 1744.08 576.571 1740.77 574.163C1734.08 569.264 1727.28 564.128 1720.08 558.69C1695.52 540.186 1667.72 519.206 1636.53 501.674C1600.65 481.501 1566.14 469.175 1531.04 463.991C1498.41 459.17 1463.2 459.823 1429.15 460.404C1345.32 461.912 1266.14 463.317 1223.45 389.689C1188.3 329.061 1180.25 251.011 1172.5 175.546C1171.37 164.501 1170.19 153.07 1168.93 142.026C1164.3 100.726 1156.23 49.8958 1134.77 22.99C1131.78 19.2436 1129 15.4327 1126.28 11.7531C1117.4 -0.378906 1109 -11.8358 1095.16 -18.9433C1080.22 -26.6035 1061.38 -29.5289 1039.16 -27.6202C1018.99 -25.8881 995.472 -20.1363 969.255 -10.5133C887.556 19.478 800.184 48.3873 709.356 44.2553C638.677 41.0437 553.945 -3.5151 528.752 -82.4704C498.5 -177.224 508.659 -218.204 519.402 -261.573C521.462 -269.923 523.608 -278.525 525.432 -287.548C532.975 -324.781 552.892 -352.82 573.951 -382.491C580.817 -392.141 587.88 -402.134 594.542 -412.46L593.881 -412.88C587.256 -402.553 580.173 -392.579 573.307 -382.929C552.195 -353.175 532.247 -325.066 524.669 -287.7C522.847 -278.708 520.719 -270.087 518.64 -261.756C513.191 -239.794 508.046 -219.049 507.942 -191.402C507.891 -176.566 509.282 -161.139 512.246 -144.25C515.559 -125.36 520.698 -105.06 528.01 -82.2289C533.924 -63.7249 543.32 -46.3508 555.981 -30.5581C567.89 -15.6821 582.506 -2.4365 599.365 8.78582C631.853 30.4115 670.913 43.2776 709.305 45.0149C749.694 46.846 791.949 42.4296 838.501 31.4819C883.871 20.8113 930.19 4.63539 969.494 -9.8036C1024.33 -29.9362 1066.49 -32.7624 1094.77 -18.2821C1108.45 -11.2755 1116.78 0.114297 1125.62 12.1766C1128.32 15.8731 1131.12 19.7027 1134.11 23.4491C1155.47 50.1862 1163.49 100.9 1168.1 142.078C1169.33 153.124 1170.51 164.555 1171.65 175.583C1179.42 251.13 1187.47 329.252 1222.71 390.031C1233.02 407.842 1245.69 421.755 1261.43 432.576C1275.48 442.253 1291.69 449.215 1311 453.899C1346.87 462.583 1386.8 461.895 1429.06 461.132C1463.09 460.517 1498.26 459.898 1530.84 464.702C1609.52 476.309 1670.5 522.309 1719.52 559.25C1726.72 564.689 1733.54 569.807 1740.23 574.74C1776.3 601.171 1800.91 670.839 1824.73 738.241C1834.83 766.848 1844.39 793.867 1854.7 817.482L1855.41 817.175C1845.12 793.577 1835.58 766.575 1825.46 737.985C1803.86 676.648 1781.5 613.368 1750.37 582.418Z" fill="url(#paint17_linear_3_12)" fill-opacity="0.6"/>
<path d="M1744.64 564.336C1743.06 562.768 1741.45 561.302 1739.84 559.937C1735.91 556.636 1731.96 553.283 1727.77 549.729C1678.36 507.865 1616.85 455.742 1532.47 445.696C1498.44 441.642 1461.41 443.824 1425.58 445.918C1339.59 450.952 1258.37 455.698 1214.92 381.65C1179 320.45 1172.33 240.463 1165.87 163.15C1165.07 153.546 1164.25 143.616 1163.37 133.994C1159.63 92.6739 1152.93 41.4833 1134.13 12.3683C1131.4 8.12826 1128.88 3.80719 1126.44 -0.343543C1120.73 -10.1019 1115.26 -19.4892 1107.56 -27.1444C1104.76 -29.9233 1101.68 -32.485 1098.19 -34.739C1090.68 -39.6037 1082.01 -42.9863 1072.41 -44.8654C1063.36 -46.6433 1053.15 -47.0958 1042.11 -46.2611C1022.13 -44.7159 998.949 -38.9614 971.193 -28.6411C879.995 5.20911 797.425 33.1531 710.611 32.1338C642.58 31.3522 558.1 -6.10453 533.345 -86.4804C505.59 -176.422 515.767 -217.081 526.527 -260.128C528.489 -268.002 530.533 -276.132 532.327 -284.545C540.308 -322.152 559.847 -351.242 580.537 -382.056C587.163 -391.91 593.988 -402.107 600.427 -412.585L599.735 -413.004C593.312 -402.542 586.469 -392.364 579.857 -382.495C559.12 -351.626 539.546 -322.47 531.531 -284.694C529.738 -276.281 527.711 -268.168 525.749 -260.295C514.956 -217.11 504.747 -176.35 532.536 -86.171C543.533 -50.5286 567.609 -20.2154 602.193 1.50244C633.876 21.383 672.378 32.5802 710.581 33.0154C731.851 33.2606 753.163 31.8271 775.761 28.6331C796.277 25.7327 817.381 21.426 840.242 15.4884C884.796 3.9055 929.474 -12.2474 971.429 -27.8318C1030.29 -49.6696 1070.42 -51.6437 1097.72 -33.9926C1110.69 -25.617 1117.98 -13.1068 1125.71 0.116135C1128.16 4.30217 1130.69 8.6067 1133.42 12.8783C1152.12 41.8603 1158.8 92.8969 1162.52 134.13C1163.39 143.738 1164.22 153.682 1165.01 163.271C1168.19 201.481 1171.48 240.974 1178.49 278.427C1186.37 320.729 1198.04 354.642 1214.18 382.127C1224.69 400.039 1237.63 413.849 1253.75 424.365C1268.13 433.736 1284.75 440.256 1304.54 444.261C1341.32 451.724 1384.15 449.233 1425.56 446.814C1461.36 444.721 1498.35 442.573 1532.32 446.594C1616.48 456.59 1677.87 508.628 1727.2 550.441C1731.39 553.996 1735.32 557.331 1739.27 560.65C1774.04 589.81 1796.67 666.624 1818.53 740.92C1827.62 771.832 1836.24 801.019 1845.6 826.702L1846.36 826.412C1837 800.763 1828.42 771.575 1819.31 740.681C1798.45 669.646 1776.9 596.398 1744.64 564.336Z" fill="url(#paint18_linear_3_12)" fill-opacity="0.6"/>
<path d="M1739.93 546.757C1739.57 546.403 1739.23 546.066 1738.86 545.729C1737.3 544.246 1735.74 542.763 1734.16 541.229C1709.92 518.071 1682.46 491.828 1649.62 470.157C1611.6 445.052 1573.7 431.08 1533.85 427.453C1498.51 424.231 1459.73 427.977 1422.24 431.599C1334 440.127 1250.64 448.18 1206.32 373.611C1169.64 311.856 1164.42 229.935 1159.36 150.706C1158.85 142.569 1158.3 134.128 1157.75 125.978C1154.91 84.5338 1149.56 32.968 1133.45 1.76191C1131.05 -2.88144 1128.87 -7.57803 1126.76 -12.1396C1120.91 -24.8073 1115.34 -36.867 1105.81 -46.3386C1104.35 -47.788 1102.79 -49.1714 1101.15 -50.5019C1086.91 -61.8522 1068.57 -66.5763 1045.09 -64.9316C1025.52 -63.5593 1001.95 -57.6173 973.045 -46.7511C884.248 -13.4175 800.404 18.0538 711.787 20.0694C644.199 21.585 560.963 -12.3388 537.819 -90.4389C512.616 -175.548 522.84 -215.991 533.654 -258.783C535.499 -266.132 537.425 -273.737 539.165 -281.561C547.588 -319.574 566.77 -349.76 587.082 -381.693C593.471 -391.715 600.048 -402.092 606.28 -412.709L605.551 -413.129C599.336 -402.529 592.745 -392.167 586.388 -382.147C566.027 -350.127 546.79 -319.894 538.336 -281.744C536.613 -273.937 534.686 -266.332 532.842 -258.983C521.996 -216.053 511.752 -175.53 537.025 -90.1822C547.43 -55.0598 570.931 -25.8927 604.951 -5.88393C635.819 12.2763 673.756 21.797 711.77 20.9304C733.021 20.4482 754.433 18.3038 777.198 14.3987C797.626 10.8709 818.816 5.97354 841.911 -0.575973C885.6 -12.9846 930.192 -29.729 973.315 -45.9081C1002.16 -56.7381 1025.64 -62.663 1045.13 -64.0185C1068.37 -65.6603 1086.52 -60.9879 1100.59 -49.7741C1112.93 -39.9371 1119.27 -26.2374 1125.99 -11.7289C1128.1 -7.17111 1130.27 -2.43844 1132.69 2.21952C1148.73 33.2943 1154.06 84.7418 1156.88 126.099C1157.44 134.249 1157.99 142.691 1158.5 150.828C1160.99 189.901 1163.57 230.278 1170.11 268.577C1177.5 311.877 1189.1 346.399 1205.58 374.122C1216.3 392.169 1229.56 405.893 1246.06 416.085C1260.8 425.168 1277.84 431.23 1298.17 434.59C1335.91 440.848 1379.82 436.593 1422.3 432.496C1459.75 428.873 1498.48 425.145 1533.73 428.35C1623.22 436.516 1684.38 494.951 1733.54 541.891C1735.13 543.408 1736.69 544.891 1738.24 546.391C1738.58 546.728 1738.95 547.065 1739.29 547.402C1772.1 580.021 1792.46 663.12 1812.14 743.481C1820.27 776.68 1827.94 808.003 1836.42 835.737L1837.23 835.497C1828.76 807.797 1821.09 776.474 1812.97 743.292C1793.29 662.762 1772.91 579.544 1739.93 546.757Z" fill="url(#paint19_linear_3_12)" fill-opacity="0.6"/>
<path d="M1706.18 498.289C1690.83 483.033 1673.61 467.497 1654.37 453.812C1615.99 426.492 1576.99 411.899 1535.23 409.209C1498.66 406.856 1458.24 412.214 1419.15 417.381C1375.63 423.141 1330.62 429.108 1292 424.072C1248.84 418.443 1218.02 399.319 1197.74 365.588C1160.27 303.294 1156.59 219.389 1153.02 138.224C1152.74 131.562 1152.43 124.674 1152.11 117.978C1150.76 89.4232 1148.93 67.2838 1146.35 48.3442C1143.08 24.3963 1138.63 5.70079 1132.75 -8.82781C1132.17 -10.2483 1131.59 -11.6654 1131.01 -13.0862C1123.34 -32.0891 1116.07 -50.0503 1104.1 -66.197C1102.68 -68.1221 1101.13 -69.9244 1099.49 -71.5611C1088.33 -82.6506 1072.06 -87.1457 1050.02 -85.2529C1025.49 -83.1681 996.974 -73.2658 974.862 -64.8632C969.571 -62.8639 964.316 -60.8629 959.072 -58.8506C875.231 -26.9378 796.021 3.23194 712.926 7.96743C643.584 11.9255 563.926 -18.2052 542.327 -94.4315C519.588 -174.695 529.897 -214.951 540.798 -257.59C542.523 -264.382 544.335 -271.426 545.993 -278.589C554.853 -317.011 573.693 -348.314 593.665 -381.428C599.801 -391.602 606.138 -402.114 612.137 -412.829L611.357 -413.265C605.376 -402.568 599.038 -392.056 592.903 -381.883C572.899 -348.699 554.04 -317.346 545.145 -278.79C543.487 -271.628 541.692 -264.601 539.966 -257.808C529.019 -215.048 518.692 -174.675 541.482 -94.1914C551.294 -59.5577 574.181 -31.5744 607.673 -13.2717C637.709 3.14891 675.102 11.0157 712.977 8.82812C796.224 4.07502 875.47 -26.093 959.397 -58.0548C964.656 -60.0521 969.911 -62.0532 975.187 -64.0675C997.23 -72.438 1025.68 -82.3039 1050.11 -84.3902C1075.09 -86.5273 1092.52 -80.4163 1103.41 -65.7036C1115.29 -49.6397 1122.53 -31.7478 1130.2 -12.7768C1130.78 -11.3597 1131.34 -9.95765 1131.93 -8.52183C1145.21 24.2194 1149.15 73.8112 1151.23 117.982C1151.55 124.678 1151.86 131.565 1152.14 138.228C1153.89 178.151 1155.7 219.445 1161.78 258.572C1168.65 302.909 1180.17 338.025 1196.99 365.982C1202.52 375.199 1208.92 383.414 1215.96 390.444C1215.97 390.461 1215.99 390.478 1216.01 390.495C1222.72 397.17 1230.27 402.98 1238.43 407.755C1253.54 416.565 1271.03 422.203 1291.9 424.918C1330.64 429.971 1375.72 424.004 1419.29 418.227C1458.34 413.059 1498.73 407.701 1535.2 410.055C1629.89 416.172 1691.95 483.165 1737.26 532.081C1769.33 566.699 1787.83 657.875 1805.72 746.076C1812.93 781.529 1819.7 815.004 1827.32 844.754L1828.18 844.53C1820.6 814.815 1813.79 781.34 1806.6 745.904C1788.68 657.601 1770.14 566.29 1737.91 531.486C1728.35 521.201 1717.8 509.836 1706.18 498.289Z" fill="url(#paint20_linear_3_12)" fill-opacity="0.6"/>
<path d="M1691.62 466.399C1680.64 455.476 1668.78 444.911 1655.94 435.314C1638.41 422.215 1620.23 411.91 1601.93 404.685C1581.05 396.454 1559.08 391.831 1536.62 390.948C1498.91 389.479 1456.9 396.468 1416.27 403.248C1371.62 410.686 1325.44 418.35 1285.79 414.519C1241.48 410.214 1209.87 391.583 1189.16 357.566C1150.92 294.735 1148.87 208.777 1146.88 125.678C1146.75 120.416 1146.64 115.172 1146.51 109.977C1145.35 65.2823 1142.72 14.96 1132.06 -19.3983C1131.46 -21.3431 1130.87 -23.2526 1130.29 -25.1791C1124.03 -45.5445 1118.1 -64.7758 1107.08 -81.9411C1101.58 -90.5179 1093.95 -96.6489 1084.4 -100.168C1075.66 -103.383 1065.46 -104.512 1053.16 -103.606C1028.36 -101.787 999.298 -91.6165 976.733 -82.9544C966.169 -78.9055 955.535 -74.7565 945.241 -70.7757C866.553 -40.1887 792.247 -11.2894 714.098 -4.10063C650.259 1.78228 568.135 -19.3878 546.852 -98.3731C526.526 -173.74 536.974 -213.925 548.039 -256.502C549.634 -262.681 551.31 -269.084 552.85 -275.554C562.203 -314.465 580.702 -346.918 600.297 -381.25C606.18 -391.539 612.247 -402.186 618.005 -412.937L617.194 -413.372C611.432 -402.625 605.366 -391.978 599.503 -381.702C579.872 -347.304 561.339 -314.817 551.971 -275.786C550.415 -269.299 548.752 -262.916 547.142 -256.752C536.059 -214.059 525.596 -173.753 545.956 -98.1498C550.738 -80.4669 558.961 -64.7308 570.43 -51.3718C581.101 -38.9424 594.543 -28.5851 610.38 -20.6072C639.567 -5.90868 676.43 0.283399 714.17 -3.18557C792.434 -10.3933 866.809 -39.2931 945.563 -69.9161C955.841 -73.9115 966.49 -78.0455 977.054 -82.0947C999.553 -90.7205 1028.55 -100.86 1053.21 -102.674C1078.53 -104.542 1095.89 -97.5867 1106.27 -81.4322C1117.2 -64.385 1123.12 -45.2008 1129.37 -24.9071C1129.97 -22.9938 1130.55 -21.0673 1131.15 -19.1259C1141.77 15.1308 1144.39 65.3704 1145.54 109.997C1145.67 115.192 1145.8 120.419 1145.94 125.682C1146.91 166.486 1147.92 208.678 1153.47 248.69C1159.77 294.078 1171.18 329.834 1188.34 358.028C1193.99 367.328 1200.53 375.578 1207.75 382.556C1214.65 389.214 1222.4 394.955 1230.8 399.594C1246.3 408.149 1264.25 413.329 1285.67 415.416C1325.44 419.298 1371.68 411.583 1416.39 404.144C1456.98 397.398 1498.93 390.409 1536.56 391.862C1628.25 395.402 1687.66 458.783 1736.17 517.907C1766.83 555.271 1783.24 653.679 1799.11 748.825C1805.39 786.531 1811.35 822.124 1818.09 853.873L1819 853.667C1812.24 821.935 1806.32 786.342 1800.02 748.652C1784.13 653.389 1767.71 554.862 1736.88 517.296C1723.55 501.001 1708.6 483.273 1691.62 466.399Z" fill="url(#paint21_linear_3_12)" fill-opacity="0.6"/>
<path d="M1682.83 439.327C1674.86 431.404 1666.43 423.805 1657.48 416.799C1640.26 403.293 1622.2 392.768 1603.81 385.525C1582.95 377.312 1560.81 372.993 1538.02 372.688C1499.2 372.152 1455.66 380.788 1413.57 389.148C1367.74 398.248 1320.34 407.642 1279.64 404.965C1234.12 401.985 1201.73 383.83 1180.59 349.512C1141.54 286.122 1141.21 194.137 1140.91 112.958C1140.91 109.272 1140.88 105.599 1140.87 101.945C1140.67 57.482 1139.74 6.96535 1131.36 -30.0233C1130.88 -32.1515 1130.4 -34.283 1129.92 -36.3788C1124.98 -58.439 1120.33 -79.2671 1110 -97.7057C1104.77 -107.06 1097.31 -113.799 1087.77 -117.74C1079.19 -121.312 1068.59 -122.73 1056.3 -121.957C1031.18 -120.392 1001.56 -109.963 978.585 -101.065C963.238 -95.1199 947.855 -88.9736 932.946 -83.0324C858.877 -53.4907 788.916 -25.5722 715.287 -16.1861C651.86 -8.1713 570.863 -25.8929 551.394 -102.4C533.449 -172.867 544.079 -213.108 555.334 -255.733C556.775 -261.222 558.286 -266.909 559.712 -272.616C569.548 -311.991 587.725 -345.642 606.98 -381.259C612.575 -391.597 618.37 -402.311 623.86 -413.093L623.013 -413.53C617.505 -402.766 611.726 -392.07 606.135 -381.728C586.861 -346.061 568.651 -312.376 558.779 -272.868C557.354 -267.161 555.862 -261.487 554.405 -255.981C543.117 -213.255 532.451 -172.881 550.466 -102.174C554.905 -84.697 562.825 -69.3641 574.022 -56.6132C584.389 -44.7895 597.538 -35.1622 613.119 -28.0122C627.67 -21.3471 644.159 -16.8734 662.116 -14.7887C679.192 -12.8041 697.126 -12.9712 715.408 -15.2899C748.999 -19.5741 783.699 -27.8213 824.576 -41.3037C860.671 -53.193 895.947 -67.2807 933.32 -82.188C948.229 -88.1292 963.612 -94.2754 978.959 -100.22C1001.88 -109.104 1031.39 -119.498 1056.38 -121.058C1082.08 -122.659 1099.34 -114.889 1109.19 -97.2968C1119.44 -78.9764 1124.09 -58.2158 1129.01 -36.2382C1129.47 -34.1254 1129.95 -31.9976 1130.45 -29.8827C1138.81 7.0196 1139.74 57.4686 1139.93 101.881C1139.93 105.535 1139.96 109.208 1139.97 112.894C1140.12 154.566 1140.28 197.674 1145.29 238.601C1150.98 285.073 1162.25 321.491 1179.79 349.936C1185.57 359.324 1192.25 367.588 1199.66 374.549C1206.71 381.19 1214.66 386.828 1223.28 391.348C1239.17 399.648 1257.61 404.403 1279.61 405.845C1320.44 408.521 1367.89 399.111 1413.79 390.009C1455.83 381.667 1499.33 373.049 1538.04 373.584C1629 374.842 1686.56 436.826 1735.21 503.614C1764.44 543.741 1778.75 649.382 1792.55 751.522C1797.94 791.448 1803.07 829.158 1808.99 862.89L1809.94 862.717C1804 829.003 1798.91 791.292 1793.5 751.383C1779.66 649.108 1765.35 543.365 1735.97 503.019C1720.95 482.518 1703.45 459.825 1682.83 439.327Z" fill="url(#paint22_linear_3_12)" fill-opacity="0.6"/>
<path d="M1676.92 414.512C1671.24 408.865 1665.29 403.422 1659.05 398.301C1642.11 384.371 1624.17 373.625 1605.71 366.383C1584.85 358.203 1562.54 354.19 1539.4 354.41C1499.55 354.81 1454.56 365.108 1411.01 375.063C1363.99 385.809 1315.37 396.934 1273.56 395.446C1226.81 393.772 1193.59 376.112 1171.99 341.471C1132.15 277.53 1133.74 183.303 1135.13 100.155L1135.24 93.9144C1136.05 44.1844 1136.31 -3.56059 1130.66 -40.6446C1130.33 -42.7258 1130.02 -44.8207 1129.71 -46.8832C1126.09 -70.877 1122.68 -93.5391 1112.94 -113.483C1108 -123.6 1100.7 -130.95 1091.19 -135.347C1082.61 -139.309 1071.95 -140.998 1059.47 -140.34C1033.97 -139.047 1003.83 -128.362 980.435 -119.21C960.729 -111.488 940.952 -103.363 921.835 -95.494C851.943 -66.7634 785.922 -39.6203 716.442 -28.3046C650.366 -17.5562 573.487 -32.3984 555.904 -106.356C540.304 -171.927 551.19 -212.386 562.729 -255.2C563.986 -259.893 565.311 -264.753 566.553 -269.596C576.931 -309.546 594.802 -344.48 613.716 -381.449C619.001 -391.792 624.477 -402.486 629.714 -413.18L628.8 -413.617C623.562 -402.922 618.086 -392.229 612.818 -381.903C593.886 -344.884 575.985 -309.913 565.569 -269.865C564.315 -265.001 563.006 -260.158 561.746 -255.469C550.174 -212.518 539.255 -171.957 554.923 -106.116C559.038 -88.8249 566.639 -73.91 577.493 -61.7705C587.535 -50.5395 600.401 -41.6669 615.744 -35.3619C629.95 -29.5113 646.185 -25.8976 663.987 -24.6431C680.705 -23.4522 698.398 -24.3646 716.613 -27.3241C747.871 -32.4097 781.585 -41.3315 819.724 -54.5987C853.82 -66.4508 888.571 -80.756 922.209 -94.5819C941.327 -102.451 961.103 -110.576 980.809 -118.298C1004.14 -127.418 1034.16 -138.083 1059.5 -139.359C1085.57 -140.692 1102.75 -132.09 1112.03 -113.076C1121.7 -93.2626 1125.11 -70.6723 1128.72 -46.7611C1129.04 -44.6836 1129.33 -42.6038 1129.68 -40.5035C1135.33 -3.49121 1135.07 44.19 1134.26 93.8843L1134.15 100.125C1133.44 142.695 1132.7 186.724 1137.11 228.615C1142.14 276.223 1153.28 313.318 1171.16 342.001C1177.05 351.469 1183.91 359.803 1191.49 366.729C1198.71 373.335 1206.86 378.905 1215.7 383.272C1232 391.333 1250.92 395.629 1273.53 396.461C1315.46 397.966 1364.16 386.824 1411.23 376.061C1454.69 366.123 1499.66 355.858 1539.4 355.426C1633.89 354.454 1690.86 422.633 1734.13 489.44C1761.91 532.347 1774.07 645.237 1785.84 754.406C1790.37 796.551 1794.68 836.346 1799.79 872.044L1800.79 871.887C1795.66 836.207 1791.39 796.412 1786.84 754.284C1775.08 644.996 1762.9 531.988 1734.97 488.896C1720.28 466.193 1701.08 438.533 1676.92 414.512Z" fill="url(#paint23_linear_3_12)" fill-opacity="0.6"/>
<path d="M1672.72 391.026C1639.5 358.003 1596.99 334.252 1540.79 336.149C1499.95 337.516 1453.52 349.462 1408.63 361.012C1360.39 373.421 1310.49 386.275 1267.57 385.941C1219.55 385.575 1185.48 368.39 1163.43 333.4C1122.75 268.901 1126.39 172.349 1129.59 87.1497L1129.81 81.16C1131.55 35.0147 1133.33 -12.7059 1129.96 -51.2663C1129.78 -53.1264 1129.63 -54.9714 1129.48 -56.8338C1127.24 -82.9643 1125.12 -107.657 1115.9 -129.278C1113.14 -135.734 1109.61 -140.967 1105.42 -145.128C1079.83 -170.565 1029.65 -156.07 982.322 -137.355C958.54 -127.944 934.691 -117.824 911.636 -108.029C845.583 -79.9725 783.232 -53.4696 717.65 -40.4391C691.219 -35.1818 652.583 -31.4896 618.753 -43.7476C587.271 -55.1573 567.646 -77.5683 560.461 -110.368C547.124 -171.056 558.362 -211.908 570.273 -255.163C571.296 -258.906 572.37 -262.767 573.413 -266.626C584.38 -307.274 601.975 -343.596 620.598 -382.036C625.549 -392.238 630.651 -402.797 635.585 -413.321L634.634 -413.759C629.718 -403.252 624.619 -392.69 619.668 -382.487C601.01 -343.981 583.398 -307.643 572.397 -266.893C571.357 -263.066 570.298 -259.19 569.274 -255.447C557.332 -212.055 546.058 -171.069 559.412 -110.127C563.176 -93.0175 570.417 -78.4941 580.984 -66.9775C590.703 -56.3713 603.294 -48.2101 618.381 -42.733C632.268 -37.7063 648.261 -34.9413 665.875 -34.5151C682.236 -34.118 699.729 -35.7703 717.856 -39.3572C747.35 -45.2162 779.22 -54.5204 815.312 -67.7631C847.548 -79.6058 880.336 -93.5335 912.044 -107.016C935.099 -116.811 958.949 -126.931 982.698 -136.339C1037.31 -157.943 1095.71 -173.924 1114.94 -128.82C1124.09 -107.334 1126.21 -82.7404 1128.44 -56.6929C1128.6 -54.8474 1128.75 -52.9704 1128.91 -51.1287C1132.28 -12.6322 1130.5 35.0528 1128.76 81.1621L1128.54 87.1517C1126.91 130.639 1125.21 175.6 1129 218.457C1133.31 267.27 1144.29 305.063 1162.53 333.994C1168.56 343.565 1175.57 351.916 1183.35 358.842C1190.76 365.429 1199.13 370.912 1208.19 375.161C1224.91 382.967 1244.34 386.856 1267.57 387.024C1310.63 387.358 1360.58 374.486 1408.9 362.06C1453.74 350.527 1500.11 338.582 1540.83 337.232C1638.88 333.93 1695.09 409.251 1733.1 475.249C1759.41 520.918 1769.42 641.091 1779.1 757.323C1782.79 801.637 1786.27 843.516 1790.62 881.162L1791.65 881.04C1787.32 843.411 1783.82 801.549 1780.13 757.235C1770.45 640.901 1760.42 520.61 1733.99 474.721C1717.6 446.205 1697.8 415.958 1672.72 391.026Z" fill="url(#paint24_linear_3_12)" fill-opacity="0.6"/>
<path d="M1669.45 368.299C1667.06 365.923 1664.62 363.597 1662.11 361.339C1645.75 346.56 1628.04 335.374 1609.48 328.133C1588.62 319.986 1565.97 316.55 1542.17 317.906C1500.39 320.258 1452.59 333.849 1406.36 347.012C1356.87 361.083 1305.68 375.651 1261.62 376.523C1212.32 377.481 1177.38 360.776 1154.83 325.427C1113.33 260.375 1119.25 159.212 1124 77.9132C1124.42 70.7047 1124.86 63.4117 1125.3 56.3219C1127.76 15.8598 1130.31 -25.9726 1129.25 -61.8236C1129.22 -63.2784 1129.18 -64.7331 1129.13 -66.2029C1128.35 -93.4084 1127.56 -121.541 1118.83 -145.007C1113.97 -158.036 1105.76 -167.208 1094.4 -172.226C1081.78 -177.813 1065.37 -178.534 1044.25 -174.445C1027.79 -171.257 1008.7 -165.213 984.159 -155.413C956.542 -144.38 928.855 -132.201 902.049 -120.395C842.369 -94.1391 780.662 -66.9958 718.791 -52.4378C668.722 -40.665 626.229 -43.7777 599.155 -61.2039C581.123 -72.8146 569.629 -90.6547 564.935 -114.259C553.895 -170.234 565.624 -211.813 578.055 -255.834C578.779 -258.423 579.516 -261.033 580.256 -263.639C591.881 -305.152 610.097 -344.841 627.705 -383.209C632.231 -393.091 636.912 -403.293 641.438 -413.445L640.455 -413.881C635.947 -403.746 631.249 -393.527 626.704 -383.664C609.081 -345.243 590.867 -305.518 579.206 -263.939C578.466 -261.333 577.746 -258.74 577.006 -256.134C570.73 -233.913 564.807 -212.929 561.665 -189.889C558.103 -163.789 558.805 -139.696 563.87 -114.137C568.598 -90.2279 580.281 -72.1329 598.562 -60.3747C613.066 -51.0553 631.621 -45.7435 653.723 -44.6029C673.434 -43.6113 695.407 -45.9063 719.03 -51.4575C746.844 -58.0077 776.972 -67.6244 811.119 -80.8771C841.596 -92.7134 872.543 -106.311 902.476 -119.498C929.265 -131.287 956.948 -143.47 984.553 -154.482C1020.62 -168.894 1065.68 -183.828 1093.94 -171.293C1105.02 -166.393 1113.04 -157.441 1117.79 -144.684C1126.48 -121.365 1127.27 -93.3368 1128.03 -66.2176C1128.06 -64.7628 1128.1 -63.3081 1128.16 -61.8345C1129.19 -26.038 1126.76 13.9162 1124.2 56.2076C1123.78 63.2805 1123.34 70.6092 1122.9 77.7989C1120.61 116.976 1117.76 165.731 1121.1 210.098C1124.8 259.215 1135.51 297.109 1153.9 325.954C1160.06 335.629 1167.24 344.045 1175.21 350.919C1182.8 357.49 1191.38 362.906 1200.69 367C1217.85 374.567 1237.79 378.014 1261.63 377.538C1305.83 376.683 1357.08 362.097 1406.64 347.992C1452.79 334.863 1500.54 321.289 1542.21 318.954C1642.81 313.291 1696.49 391.87 1732.03 460.956C1756.78 509.491 1764.66 637.031 1772.29 760.41C1775.17 806.825 1777.88 850.67 1781.42 890.213L1782.51 890.108C1778.95 850.581 1776.24 806.771 1773.37 760.339C1765.74 636.858 1757.84 509.199 1732.99 460.462C1719.65 434.472 1698.91 397.58 1669.45 368.299Z" fill="url(#paint25_linear_3_12)" fill-opacity="0.6"/>
<path d="M1667.18 346.229C1666.03 345.082 1664.86 343.953 1663.69 342.824C1647.6 327.605 1630.01 316.232 1611.4 309.008C1590.54 300.895 1567.7 297.747 1543.58 299.629C1500.89 302.965 1451.76 318.202 1404.25 332.927C1353.49 348.677 1301 364.959 1255.78 367.002C1205.15 369.302 1169.33 353.04 1146.3 317.322C1104 251.779 1112.35 146.615 1118.43 69.8464C1119.45 56.9871 1120.57 43.9191 1121.67 31.2778C1124.85 -5.29583 1127.83 -39.8386 1128.59 -72.4787L1128.65 -75.1854C1129.34 -104.744 1130.06 -135.32 1121.8 -160.822C1117.23 -174.916 1109 -184.816 1097.33 -190.24C1084.68 -196.132 1068.13 -197.019 1046.75 -192.914C1029.98 -189.706 1010.7 -183.579 986.064 -173.605C954.468 -160.923 922.712 -146.442 892.02 -132.423C835.944 -106.838 777.992 -80.3833 720.013 -64.6243C683.694 -54.747 633.478 -47.4078 600.422 -68.4168C583.816 -78.982 573.423 -95.7605 569.51 -118.319C560.595 -169.582 573.619 -214.364 586.238 -257.691L587.095 -260.655C599.533 -303.385 617.656 -345.158 635.193 -385.521C639.182 -394.688 643.285 -404.181 647.29 -413.568L646.276 -414.002C642.271 -404.615 638.145 -395.144 634.192 -385.975C616.64 -345.56 598.5 -303.77 586.045 -260.955L585.189 -257.991C578.862 -236.261 572.318 -213.8 568.613 -190.813C564.46 -165.031 564.384 -141.239 568.396 -118.11C572.359 -95.232 582.923 -78.1817 599.813 -67.4352C613.861 -58.5012 632.281 -53.8976 654.58 -53.7766C674.07 -53.6789 696.191 -56.9425 720.304 -63.4918C778.384 -79.2853 836.388 -105.755 892.481 -131.357C923.156 -145.36 954.896 -159.823 986.472 -172.524C1011.05 -182.462 1030.25 -188.589 1046.95 -191.779C1068.08 -195.818 1084.41 -194.981 1096.85 -189.17C1108.23 -183.867 1116.25 -174.202 1120.72 -160.412C1128.93 -135.098 1128.21 -104.621 1127.52 -75.1625L1127.45 -72.4554C1126.69 -39.8663 1123.7 -5.32734 1120.54 31.2294C1119.44 43.8744 1118.3 56.9556 1117.28 69.8186C1113.65 115.529 1110.62 160.087 1113.29 202.445C1116.38 251.565 1126.86 289.358 1145.34 317.984C1151.65 327.776 1158.98 336.207 1167.15 343.08C1174.94 349.635 1183.73 354.965 1193.28 358.921C1210.89 366.236 1231.34 369.274 1255.82 368.153C1301.19 366.092 1353.75 349.81 1404.57 334.025C1452.01 319.301 1501.09 304.081 1543.67 300.762C1648.19 292.614 1700.68 380.165 1731.05 446.748C1754.3 498.046 1760.01 632.954 1765.53 763.414C1767.59 811.98 1769.52 857.858 1772.31 899.316L1773.42 899.244C1770.62 857.803 1768.69 811.926 1766.64 763.376C1761.13 632.815 1755.43 497.788 1732.06 446.305C1722.49 425.309 1712.99 407.46 1703.02 391.746C1691.81 374.021 1679.78 358.753 1667.18 346.229Z" fill="url(#paint26_linear_3_12)" fill-opacity="0.6"/>
<path d="M1665.59 324.662C1665.47 324.544 1665.37 324.443 1665.27 324.342C1649.47 308.699 1631.98 297.123 1613.32 289.882C1592.44 281.786 1569.44 278.943 1544.96 281.35C1501.39 285.672 1450.99 302.555 1402.25 318.856C1350.23 336.253 1296.42 354.265 1250.02 357.497C1198.04 361.123 1161.32 345.351 1137.7 309.317C1097.99 248.265 1103.62 153.598 1112.78 61.8634C1114.6 43.6555 1116.72 25.0706 1118.79 7.10991C1122.24 -22.8483 1125.79 -53.8555 1127.85 -83.0661L1127.9 -83.6943C1130.16 -115.748 1132.5 -148.901 1124.71 -176.567C1120.44 -191.678 1112.23 -202.307 1100.29 -208.133C1087.6 -214.329 1070.92 -215.351 1049.25 -211.264C1032.22 -208.036 1012.73 -201.824 987.9 -191.699C952.943 -177.496 917.74 -160.837 883.701 -144.71C830.672 -119.574 775.828 -93.6088 721.171 -76.7076C696.589 -69.1059 674.384 -64.8457 655.249 -64.0501C632.967 -63.1411 614.908 -66.9472 601.572 -75.3763C586.372 -84.9826 577.117 -100.765 574.02 -122.276C567.294 -169.237 581.448 -216.203 593.957 -257.649C607.471 -302.449 625.84 -347.151 643.607 -390.391C646.737 -398.015 649.984 -405.894 653.144 -413.692L652.062 -414.126C648.88 -406.35 645.652 -398.453 642.522 -390.829C624.741 -347.568 606.371 -302.834 592.838 -257.985C585.686 -234.272 579.427 -212.844 575.385 -190.7C570.707 -165.203 569.879 -142.766 572.853 -122.119C576.002 -100.254 585.428 -84.199 600.916 -74.4077C614.452 -65.8478 632.75 -61.973 655.251 -62.8997C674.486 -63.6976 696.775 -67.975 721.459 -75.6112C776.204 -92.5254 831.078 -118.529 884.161 -143.679C918.199 -159.807 953.367 -176.467 988.306 -190.653C1013.07 -200.743 1032.49 -206.955 1049.44 -210.129C1070.83 -214.183 1087.3 -213.18 1099.73 -207.098C1111.38 -201.422 1119.39 -191.032 1123.55 -176.26C1131.3 -148.778 1128.96 -115.724 1126.7 -83.7742L1126.65 -83.1463C1124.59 -53.9714 1121.02 -22.9791 1117.59 6.96211C1115.52 24.9228 1113.39 43.5039 1111.56 61.7325C1107.43 103.135 1103.19 150.946 1105.42 194.689C1107.94 243.812 1118.15 281.503 1136.65 309.928C1143.12 319.802 1150.66 328.303 1159.03 335.14C1167.01 341.659 1176.04 346.922 1185.83 350.744C1203.9 357.802 1224.89 360.398 1250.02 358.648C1296.58 355.398 1350.46 337.386 1402.54 319.955C1451.23 303.67 1501.56 286.822 1545 282.501C1591.12 277.916 1630.7 292.102 1664.34 325.546C1689.39 350.444 1711.15 386.014 1729.92 432.489C1751.68 486.567 1755.18 628.826 1758.56 766.416C1759.82 817.118 1760.99 865.011 1763.04 908.367L1764.21 908.312C1762.14 864.973 1760.98 817.097 1759.73 766.395C1756.35 628.704 1752.83 486.326 1731 432.045C1711.89 384.522 1690.45 349.375 1665.59 324.662Z" fill="url(#paint27_linear_3_12)" fill-opacity="0.6"/>
<path d="M1664.46 303.45C1649.54 288.616 1632.98 277.628 1615.22 270.773C1594.34 262.712 1571.15 260.123 1546.34 263.107C1501.94 268.43 1450.25 286.924 1400.29 304.821C1346.96 323.915 1291.78 343.674 1244.16 348.095C1190.81 353.06 1153.18 337.735 1129.12 301.258C1088.72 240.027 1096.1 145.453 1107.18 53.8338C1109.95 30.8647 1113.35 7.33515 1116.64 -15.3838C1120.37 -41.1156 1124.22 -67.7069 1127.17 -93.6727C1130.82 -125.865 1134.99 -162.358 1127.66 -192.33C1123.72 -208.473 1115.52 -219.827 1103.27 -226.063C1096.68 -229.405 1088.76 -231.373 1079.72 -231.847C1071.52 -232.272 1062.11 -231.528 1051.78 -229.612C1034.73 -226.439 1014.45 -219.966 989.769 -209.826C951.5 -194.122 912.816 -175.084 875.419 -156.656C825.396 -132.043 773.685 -106.576 722.344 -88.7762C697.104 -80.0383 674.697 -74.7304 655.785 -73.0371C633.254 -71.0257 615.349 -74.1049 602.572 -82.2147C588.78 -90.9616 580.708 -105.771 578.53 -126.233C574.358 -165.726 587.834 -213.232 600.8 -254.662C616.267 -304.071 635.891 -354.445 654.861 -403.174C656.24 -406.732 657.638 -410.271 659.018 -413.829L657.9 -414.264C656.521 -410.706 655.123 -407.167 653.743 -403.609C634.756 -354.864 615.128 -304.493 599.647 -255.031C586.648 -213.5 573.123 -165.84 577.311 -126.129C579.526 -105.291 587.801 -90.1797 601.899 -81.2291C614.895 -72.9698 633.056 -69.8389 655.856 -71.887C674.87 -73.5788 697.358 -78.9077 722.699 -87.6796C774.125 -105.497 825.889 -130.979 875.929 -155.609C913.309 -174.02 951.976 -193.041 990.193 -208.73C1024.51 -222.829 1073.51 -239.842 1102.7 -225.012C1114.61 -218.946 1122.62 -207.875 1126.48 -192.053C1133.74 -162.287 1129.61 -125.913 1125.97 -93.8204C1123.01 -67.8904 1119.17 -41.2953 1115.44 -15.5672C1112.14 7.1837 1108.73 30.6982 1105.98 53.686C1101.03 94.7137 1095.9 142.242 1097.66 187.002C1099.57 236.163 1109.55 273.737 1128.14 301.905C1134.75 311.914 1142.43 320.43 1151.01 327.27C1159.18 333.769 1168.41 338.964 1178.47 342.685C1196.98 349.501 1218.51 351.657 1244.28 349.262C1292.05 344.824 1347.28 325.047 1400.7 305.936C1450.62 288.073 1502.23 269.596 1546.49 264.274C1628.87 254.397 1688.54 304.766 1729 418.247C1749.27 475.122 1750.57 624.783 1751.8 769.52C1752.27 822.34 1752.69 872.216 1754.01 917.452L1755.2 917.414C1753.87 872.211 1753.45 822.335 1752.99 769.516C1751.75 624.677 1750.45 474.915 1730.14 417.854C1712.44 368.193 1691.75 331.555 1666.87 305.844C1666.05 305.035 1665.26 304.243 1664.46 303.45Z" fill="url(#paint28_linear_3_12)" fill-opacity="0.6"/>
</g>
<path d="M2178.62 364.5L2065.73 299.323L1627.46 1058.43L1740.35 1123.6L2178.62 364.5Z" fill="url(#paint29_linear_3_12)"/>
<path d="M2146.15 22.177L1993.26 -66.0964L1554.99 693.006L1707.89 781.279L2146.15 22.177Z" fill="url(#paint30_linear_3_12)"/>
</g>
</g>
<defs>
<linearGradient id="paint0_linear_3_12" x1="1920" y1="450" x2="0" y2="450" gradientUnits="userSpaceOnUse">
<stop stop-color="#2987FF"/>
<stop offset="1" stop-color="#0755F0"/>
</linearGradient>
<linearGradient id="paint1_linear_3_12" x1="-143.266" y1="232.748" x2="354.378" y2="1094.69" gradientUnits="userSpaceOnUse">
<stop stop-color="#002876"/>
<stop offset="1" stop-color="#033AA7" stop-opacity="0"/>
</linearGradient>
<linearGradient id="paint2_linear_3_12" x1="190.963" y1="-348.313" x2="-37.4321" y2="504.071" gradientUnits="userSpaceOnUse">
<stop stop-color="white"/>
<stop offset="1" stop-color="white" stop-opacity="0"/>
</linearGradient>
<linearGradient id="paint3_linear_3_12" x1="915.093" y1="463.476" x2="1332.7" y2="43.355" gradientUnits="userSpaceOnUse">
<stop stop-color="white"/>
<stop offset="1" stop-color="white" stop-opacity="0"/>
</linearGradient>
<linearGradient id="paint4_linear_3_12" x1="922.45" y1="460.554" x2="1325.86" y2="54.7169" gradientUnits="userSpaceOnUse">
<stop stop-color="white"/>
<stop offset="1" stop-color="white" stop-opacity="0"/>
</linearGradient>
<linearGradient id="paint5_linear_3_12" x1="929.694" y1="457.673" x2="1318.99" y2="66.0426" gradientUnits="userSpaceOnUse">
<stop stop-color="white"/>
<stop offset="1" stop-color="white" stop-opacity="0"/>
</linearGradient>
<linearGradient id="paint6_linear_3_12" x1="936.885" y1="454.816" x2="1312.09" y2="77.3529" gradientUnits="userSpaceOnUse">
<stop stop-color="white"/>
<stop offset="1" stop-color="white" stop-opacity="0"/>
</linearGradient>
<linearGradient id="paint7_linear_3_12" x1="944.015" y1="452" x2="1305.21" y2="88.6367" gradientUnits="userSpaceOnUse">
<stop stop-color="white"/>
<stop offset="1" stop-color="white" stop-opacity="0"/>
</linearGradient>
<linearGradient id="paint8_linear_3_12" x1="951.094" y1="449.068" x2="1298.22" y2="99.8553" gradientUnits="userSpaceOnUse">
<stop stop-color="white"/>
<stop offset="1" stop-color="white" stop-opacity="0"/>
</linearGradient>
<linearGradient id="paint9_linear_3_12" x1="958.067" y1="446.253" x2="1291.26" y2="111.061" gradientUnits="userSpaceOnUse">
<stop stop-color="white"/>
<stop offset="1" stop-color="white" stop-opacity="0"/>
</linearGradient>
<linearGradient id="paint10_linear_3_12" x1="964.844" y1="443.428" x2="1284.19" y2="122.164" gradientUnits="userSpaceOnUse">
<stop stop-color="white"/>
<stop offset="1" stop-color="white" stop-opacity="0"/>
</linearGradient>
<linearGradient id="paint11_linear_3_12" x1="971.27" y1="440.15" x2="1276.7" y2="132.883" gradientUnits="userSpaceOnUse">
<stop stop-color="white"/>
<stop offset="1" stop-color="white" stop-opacity="0"/>
</linearGradient>
<linearGradient id="paint12_linear_3_12" x1="977.512" y1="436.702" x2="1269.05" y2="143.409" gradientUnits="userSpaceOnUse">
<stop stop-color="white"/>
<stop offset="1" stop-color="white" stop-opacity="0"/>
</linearGradient>
<linearGradient id="paint13_linear_3_12" x1="983.622" y1="433.369" x2="1270.85" y2="144.417" gradientUnits="userSpaceOnUse">
<stop stop-color="white"/>
<stop offset="1" stop-color="white" stop-opacity="0"/>
</linearGradient>
<linearGradient id="paint14_linear_3_12" x1="989.703" y1="430.086" x2="1275.79" y2="142.277" gradientUnits="userSpaceOnUse">
<stop stop-color="white"/>
<stop offset="1" stop-color="white" stop-opacity="0"/>
</linearGradient>
<linearGradient id="paint15_linear_3_12" x1="995.758" y1="426.758" x2="1281.8" y2="138.998" gradientUnits="userSpaceOnUse">
<stop stop-color="white"/>
<stop offset="1" stop-color="white" stop-opacity="0"/>
</linearGradient>
<linearGradient id="paint16_linear_3_12" x1="1001.86" y1="423.557" x2="1288.62" y2="135.073" gradientUnits="userSpaceOnUse">
<stop stop-color="white"/>
<stop offset="1" stop-color="white" stop-opacity="0"/>
</linearGradient>
<linearGradient id="paint17_linear_3_12" x1="1007.86" y1="420.229" x2="1295.8" y2="130.565" gradientUnits="userSpaceOnUse">
<stop stop-color="white"/>
<stop offset="1" stop-color="white" stop-opacity="0"/>
</linearGradient>
<linearGradient id="paint18_linear_3_12" x1="1013.91" y1="417.098" x2="1303.47" y2="125.799" gradientUnits="userSpaceOnUse">
<stop stop-color="white"/>
<stop offset="1" stop-color="white" stop-opacity="0"/>
</linearGradient>
<linearGradient id="paint19_linear_3_12" x1="1019.89" y1="413.894" x2="1311.32" y2="120.71" gradientUnits="userSpaceOnUse">
<stop stop-color="white"/>
<stop offset="1" stop-color="white" stop-opacity="0"/>
</linearGradient>
<linearGradient id="paint20_linear_3_12" x1="1025.82" y1="410.742" x2="1320.19" y2="114.605" gradientUnits="userSpaceOnUse">
<stop stop-color="white"/>
<stop offset="1" stop-color="white" stop-opacity="0"/>
</linearGradient>
<linearGradient id="paint21_linear_3_12" x1="1031.7" y1="407.66" x2="1330.32" y2="107.251" gradientUnits="userSpaceOnUse">
<stop stop-color="white"/>
<stop offset="1" stop-color="white" stop-opacity="0"/>
</linearGradient>
<linearGradient id="paint22_linear_3_12" x1="1037.6" y1="404.542" x2="1340.89" y2="99.4286" gradientUnits="userSpaceOnUse">
<stop stop-color="white"/>
<stop offset="1" stop-color="white" stop-opacity="0"/>
</linearGradient>
<linearGradient id="paint23_linear_3_12" x1="1043.39" y1="401.568" x2="1351.78" y2="91.3194" gradientUnits="userSpaceOnUse">
<stop stop-color="white"/>
<stop offset="1" stop-color="white" stop-opacity="0"/>
</linearGradient>
<linearGradient id="paint24_linear_3_12" x1="1049.2" y1="398.568" x2="1362.86" y2="83.021" gradientUnits="userSpaceOnUse">
<stop stop-color="white"/>
<stop offset="1" stop-color="white" stop-opacity="0"/>
</linearGradient>
<linearGradient id="paint25_linear_3_12" x1="1054.9" y1="395.633" x2="1374" y2="74.6146" gradientUnits="userSpaceOnUse">
<stop stop-color="white"/>
<stop offset="1" stop-color="white" stop-opacity="0"/>
</linearGradient>
<linearGradient id="paint26_linear_3_12" x1="1060.6" y1="392.772" x2="1385.34" y2="66.0723" gradientUnits="userSpaceOnUse">
<stop stop-color="white"/>
<stop offset="1" stop-color="white" stop-opacity="0"/>
</linearGradient>
<linearGradient id="paint27_linear_3_12" x1="1066.13" y1="389.948" x2="1396.71" y2="57.3845" gradientUnits="userSpaceOnUse">
<stop stop-color="white"/>
<stop offset="1" stop-color="white" stop-opacity="0"/>
</linearGradient>
<linearGradient id="paint28_linear_3_12" x1="1071.63" y1="387.304" x2="1408.19" y2="48.7148" gradientUnits="userSpaceOnUse">
<stop stop-color="white"/>
<stop offset="1" stop-color="white" stop-opacity="0"/>
</linearGradient>
<linearGradient id="paint29_linear_3_12" x1="2122.18" y1="331.913" x2="1683.91" y2="1091.02" gradientUnits="userSpaceOnUse">
<stop stop-color="#002876"/>
<stop offset="1" stop-color="#033AA7" stop-opacity="0"/>
</linearGradient>
<linearGradient id="paint30_linear_3_12" x1="2069.71" y1="-21.9565" x2="1631.44" y2="737.146" gradientUnits="userSpaceOnUse">
<stop stop-color="#002876"/>
<stop offset="1" stop-color="#033AA7" stop-opacity="0"/>
</linearGradient>
<clipPath id="clip0_3_12">
<rect width="1918" height="900" fill="white"/>
</clipPath>
</defs>
</svg>
