<svg xmlns="http://www.w3.org/2000/svg" width="1050" height="400" viewBox="0 0 1050 400" fill="none"><path opacity="0.2" fill-rule="evenodd" clip-rule="evenodd" d="M0.0356006 799.641L8.6014 729.323C17.1672 659.005 34.2988 518.369 133.767 460.069C233.234 401.77 415.039 425.806 504.214 357.214C593.39 288.623 589.938 127.403 658.53 38.2269C727.121 -50.949 867.757 -68.0805 938.075 -76.6464L1008.39 -85.2122L1317.15 223.549L1277.71 262.991C1238.27 302.433 1159.39 381.316 1080.5 460.2C1001.62 539.084 922.735 617.968 843.851 696.851C764.968 775.735 686.084 854.619 607.2 933.503C528.316 1012.39 449.432 1091.27 409.991 1130.71L370.549 1170.15L0.0356006 799.641Z" fill="white"></path></svg>