<svg width="283" height="38" viewBox="0 0 283 38" fill="none" xmlns="http://www.w3.org/2000/svg">
<path d="M19.2631 29.6505L16.6191 23.6699L13.9121 29.6505H19.2631Z" fill="#A9B4BC"/>
<path d="M15.8012 22.9785H10.4502L13.0942 28.8961L15.8012 22.9785Z" fill="#BFC0D1"/>
<path d="M15.8012 21.9704L13.0942 16.0527L10.4502 21.9704H15.8012Z" fill="#727591"/>
<path d="M12.3388 15.2988H6.9248L9.6318 21.2164L12.3388 15.2988Z" fill="#A9B4BC"/>
<path d="M12.3388 14.2907L9.6318 8.37305L6.9248 14.2907H12.3388Z" fill="#BFC0D1"/>
<path d="M8.81295 7.68164H3.46191L6.16891 13.5993L8.81295 7.68164Z" fill="#727591"/>
<path d="M8.81295 6.60903L6.16891 0.691406L3.46191 6.60903H8.81295Z" fill="#A9B4BC"/>
<path d="M5.35104 0H0L2.64405 5.91762L5.35104 0Z" fill="#BFC0D1"/>
<path d="M54.2656 30.6602L56.9726 36.5778L59.6796 30.6602H54.2656Z" fill="#727591"/>
<path d="M56.9726 23.6699L54.2656 29.6505H59.6796L56.9726 23.6699Z" fill="#A9B4BC"/>
<path d="M60.498 28.8961L63.1421 22.9785H57.791L60.498 28.8961Z" fill="#BFC0D1"/>
<path d="M60.498 16.0527L57.791 21.9704H63.1421L60.498 16.0527Z" fill="#727591"/>
<path d="M63.9599 21.2164L66.6669 15.2988H61.2529L63.9599 21.2164Z" fill="#A9B4BC"/>
<path d="M63.9599 8.37305L61.2529 14.2907H66.6669L63.9599 8.37305Z" fill="#BFC0D1"/>
<path d="M67.4228 13.5993L70.1298 7.68164H64.7158L67.4228 13.5993Z" fill="#727591"/>
<path d="M67.4228 0.691406L64.7158 6.60903H70.1298L67.4228 0.691406Z" fill="#A9B4BC"/>
<path d="M70.8862 5.91762L73.5932 0H68.2422L70.8862 5.91762Z" fill="#BFC0D1"/>
<path d="M26.3769 23.6699L23.6699 29.6505H29.021L26.3769 23.6699Z" fill="#89AAD1"/>
<path d="M32.5468 22.9785H27.1328L29.8398 28.8961L32.5468 22.9785Z" fill="#88A9D2"/>
<path d="M29.8398 16.0527L27.1328 21.9704H32.5468L29.8398 16.0527Z" fill="#4973A1"/>
<path d="M36.0087 15.2988H30.5947L33.3017 21.2164L36.0087 15.2988Z" fill="#89AAD1"/>
<path d="M33.3017 8.37305L30.5947 14.2907H36.0087L33.3017 8.37305Z" fill="#88A9D2"/>
<path d="M46.4599 22.9785H41.0459L43.7529 28.8961L46.4599 22.9785Z" fill="#88A9D2"/>
<path d="M47.2153 23.6699L44.5713 29.6505H49.9223L47.2153 23.6699Z" fill="#89AAD1"/>
<path d="M42.934 15.2988H37.583L40.29 21.2164L42.934 15.2988Z" fill="#89AAD1"/>
<path d="M43.7529 16.0527L41.0459 21.9704H46.4599L43.7529 16.0527Z" fill="#4973A1"/>
<path d="M42.934 14.2907L40.29 8.37305L37.583 14.2907H42.934Z" fill="#88A9D2"/>
<path d="M39.4721 7.68164H34.1211L36.7651 13.5993L39.4721 7.68164Z" fill="#4973A1"/>
<path d="M39.4721 6.60903L36.7651 0.691406L34.1211 6.60903H39.4721Z" fill="#89AAD1"/>
<path d="M47.2153 36.5778L49.9223 30.6602H44.5713L47.2153 36.5778Z" fill="#4973A1"/>
<path d="M53.3842 37.2692L50.7402 31.3516L48.0332 37.2692H53.3842Z" fill="#88A9D2"/>
<path d="M22.8525 31.3516L20.1455 37.2692H25.5595L22.8525 31.3516Z" fill="#88A9D2"/>
<path d="M26.3769 36.5778L29.021 30.6602H23.6699L26.3769 36.5778Z" fill="#4973A1"/>
<path d="M16.6191 36.5778L19.2631 30.6602H13.9121L16.6191 36.5778Z" fill="#727591"/>
<path fill-rule="evenodd" clip-rule="evenodd" d="M282.177 18.92H273.742V4.25181H275.567V17.2832H282.177V18.92ZM260.71 4.44067L265.935 18.3534L266.187 18.92H264.173L264.047 18.6052L263.102 16.0241L262.032 13.0023L261.34 11.1137L259.955 7.21062L258.318 11.3655L257.688 13.0023L257.059 14.5762L255.422 18.6681L255.296 18.92H253.408L253.659 18.3534L259.325 4.44067L259.388 4.18886H260.647L260.71 4.44067ZM246.672 17.1573L247.049 18.0386L247.238 18.4793L246.798 18.6052C246.168 18.815 245.559 18.9829 244.972 19.1088C244.384 19.1928 243.776 19.2347 243.146 19.2347C241.132 19.2347 239.684 18.4793 238.739 17.2202C237.669 15.8352 237.229 13.8207 237.229 11.5544C237.229 9.35104 237.669 7.33653 238.739 5.95155C239.747 4.75544 241.195 4 243.272 4C243.902 4 244.489 4.04197 245.035 4.1259C245.58 4.16787 246.126 4.29378 246.672 4.50362L247.049 4.62953L246.923 5.00725L246.483 5.95155L246.357 6.32927L245.979 6.14042C245.559 5.97254 245.119 5.84663 244.657 5.76269C244.237 5.63679 243.776 5.57384 243.272 5.57384C241.635 5.57384 240.565 6.26632 239.936 7.33653C239.306 8.46969 239.117 9.98057 239.117 11.5544C239.117 13.3171 239.369 15.0168 240.187 16.15C240.754 17.0314 241.761 17.5979 243.146 17.5979C243.65 17.5979 244.132 17.556 244.594 17.472C245.098 17.3461 245.601 17.1782 246.105 16.9684L246.483 16.7795L246.672 17.1573ZM229.171 18.92H227.345V4.18886H229.171V18.92ZM219.979 5.8886H215.761V18.92H213.936V5.8886H209.718V4.25181H219.979V5.8886ZM202.101 13.443C202.101 15.3946 201.723 16.8425 200.904 17.7868C200.023 18.7941 198.764 19.2977 196.938 19.2977C194.987 19.2977 193.602 18.7941 192.783 17.7868C191.902 16.7795 191.524 15.3316 191.524 13.3801V4.25181H193.35V13.1912C193.35 14.9539 193.602 16.0871 194.168 16.7795C194.672 17.4091 195.616 17.6609 196.938 17.6609C198.197 17.6609 199.016 17.4091 199.52 16.7166C200.086 16.0241 200.275 14.8909 200.275 13.1912V4.25181H202.101V13.443ZM178.493 4.50362L183.781 18.3534L183.97 18.92H181.955L181.893 18.6681L180.696 15.5205L179.815 13.0023L179.437 11.8692L177.738 7.21062L175.912 11.8692L175.471 13.0023L174.842 14.5762L173.205 18.6681L173.142 18.92H171.253L171.442 18.3534L177.108 4.44067L177.171 4.18886H178.43L178.493 4.50362ZM163.636 18.9829H161.622L161.496 18.7311L154.886 7.33653V18.9829H153.249V4.25181H155.2L155.326 4.44067L161.873 15.8352V4.25181H163.636V18.9829ZM134.237 12.2469C134.803 12.8764 135.055 13.6948 135.055 14.7021C135.055 16.4648 134.489 17.535 133.544 18.1645C132.663 18.7941 131.404 18.9829 130.082 18.9829H125.738V4.31477H129.326C130.774 4.31477 132.033 4.44067 132.915 5.00725C133.859 5.57383 134.426 6.58109 134.426 8.21788C134.426 9.03627 134.174 9.72876 133.796 10.2953C133.544 10.6731 133.23 10.9878 132.852 11.2396C133.397 11.4915 133.859 11.8272 134.237 12.2469ZM131.845 9.98057C132.285 9.66581 132.6 9.09922 132.6 8.28083C132.6 7.21062 132.348 6.64404 131.845 6.32927C131.341 5.95155 130.46 5.8886 129.326 5.8886H127.564V10.6731H129.641C130.523 10.6731 131.341 10.4842 131.845 9.98057ZM132.348 16.9054C132.915 16.5277 133.23 15.8982 133.23 14.7021C133.23 13.6319 132.852 13.0023 132.285 12.6876C131.593 12.3098 130.711 12.2469 129.704 12.2469H127.564V17.4091H129.956C130.963 17.4091 131.782 17.2832 132.348 16.9054ZM109.055 5.8886V4.31477H117.239V5.8886H109.055ZM109.055 12.1839V10.6101H116.862V12.1839H109.055ZM117.428 18.9829H109.055V17.4091H117.428V18.9829ZM101.375 4.25181L101.249 4.75544L97.472 18.6681L97.3461 18.9829H95.7093L95.6464 18.6681L92.6876 8.28083L89.6658 18.6681L89.6029 18.9829H87.9031L87.8402 18.6681L84.1259 4.75544L84 4.25181H85.8886L85.9516 4.56658L88.8474 15.5205L91.8062 5.13316L91.9321 4.81839H93.5689L93.6319 5.13316L96.5907 15.5834L99.4865 4.56658L99.6124 4.25181H101.375Z" fill="#4973A1"/>
<path d="M134.847 29.1841C134.808 28.8645 134.653 28.6163 134.382 28.4396C134.11 28.2629 133.777 28.1746 133.382 28.1746C133.093 28.1746 132.84 28.2208 132.624 28.3133C132.409 28.406 132.241 28.5331 132.121 28.6951C132.002 28.857 131.942 29.041 131.942 29.2473C131.942 29.4198 131.984 29.5679 132.066 29.6921C132.151 29.814 132.26 29.9161 132.391 29.998C132.523 30.078 132.661 30.1442 132.805 30.1969C132.95 30.2474 133.082 30.2883 133.203 30.32L133.866 30.4965C134.036 30.5407 134.225 30.6018 134.433 30.6796C134.643 30.7574 134.843 30.8636 135.034 30.9983C135.228 31.1308 135.387 31.3011 135.512 31.5093C135.637 31.7175 135.7 31.973 135.7 32.2758C135.7 32.625 135.608 32.9406 135.423 33.2224C135.24 33.5042 134.973 33.7282 134.621 33.8943C134.27 34.0606 133.844 34.1437 133.343 34.1437C132.876 34.1437 132.472 34.0689 132.13 33.9196C131.79 33.7703 131.523 33.5621 131.328 33.295C131.134 33.0279 131.025 32.7175 131 32.3643H131.815C131.836 32.6082 131.919 32.8103 132.063 32.97C132.21 33.1278 132.394 33.2456 132.617 33.3234C132.842 33.3991 133.084 33.437 133.343 33.437C133.645 33.437 133.916 33.3885 134.156 33.2917C134.395 33.193 134.585 33.0563 134.726 32.8817C134.866 32.705 134.936 32.4989 134.936 32.2633C134.936 32.0487 134.875 31.8741 134.754 31.7395C134.633 31.6049 134.474 31.4956 134.277 31.4116C134.079 31.3274 133.866 31.2538 133.636 31.1906L132.834 30.9635C132.324 30.8185 131.921 30.6112 131.624 30.342C131.327 30.0728 131.178 29.7205 131.178 29.2852C131.178 28.9234 131.277 28.6078 131.474 28.3386C131.674 28.0672 131.941 27.8569 132.277 27.7076C132.614 27.5562 132.991 27.4805 133.407 27.4805C133.827 27.4805 134.201 27.5551 134.528 27.7045C134.855 27.8517 135.114 28.0535 135.305 28.3102C135.498 28.5669 135.6 28.8581 135.611 29.1841H134.847ZM137.266 34.0301H136.438L138.833 27.5688H139.648L142.043 34.0301H141.215L139.266 28.591H139.215L137.266 34.0301ZM137.572 31.5062H140.909V32.2001H137.572V31.5062ZM143.849 27.5688V34.0301H143.059V27.5688H143.849ZM145.432 34.0301V27.5688H146.222V33.336H149.254V34.0301H145.432ZM154.184 34.0301L152.4 27.5688H153.203L154.566 32.8311H154.63L156.018 27.5688H156.91L158.298 32.8311H158.362L159.725 27.5688H160.528L158.744 34.0301H157.929L156.49 28.8813H156.438L154.999 34.0301H154.184ZM162.302 27.5688V34.0301H161.512V27.5688H162.302ZM163.528 28.2629V27.5688H168.42V28.2629H166.369V34.0301H165.579V28.2629H163.528ZM169.639 34.0301V27.5688H170.429V30.4461H173.906V27.5688H174.696V34.0301H173.906V31.1402H170.429V34.0301H169.639ZM183.08 27.5688H183.869V31.8469C183.869 32.2886 183.764 32.683 183.554 33.03C183.346 33.375 183.052 33.6473 182.672 33.847C182.292 34.0448 181.846 34.1437 181.334 34.1437C180.823 34.1437 180.377 34.0448 179.997 33.847C179.617 33.6473 179.322 33.375 179.112 33.03C178.904 32.683 178.799 32.2886 178.799 31.8469V27.5688H179.589V31.7837C179.589 32.0993 179.659 32.3799 179.799 32.6262C179.94 32.8701 180.139 33.0625 180.398 33.2035C180.659 33.3423 180.971 33.4117 181.334 33.4117C181.697 33.4117 182.01 33.3423 182.271 33.2035C182.532 33.0625 182.732 32.8701 182.87 32.6262C183.01 32.3799 183.08 32.0993 183.08 31.7837V27.5688ZM189.013 29.1841C188.975 28.8645 188.82 28.6163 188.548 28.4396C188.277 28.2629 187.943 28.1746 187.548 28.1746C187.26 28.1746 187.007 28.2208 186.79 28.3133C186.576 28.406 186.408 28.5331 186.287 28.6951C186.169 28.857 186.109 29.041 186.109 29.2473C186.109 29.4198 186.15 29.5679 186.233 29.6921C186.318 29.814 186.427 29.9161 186.558 29.998C186.69 30.078 186.828 30.1442 186.972 30.1969C187.116 30.2474 187.249 30.2883 187.37 30.32L188.033 30.4965C188.202 30.5407 188.391 30.6018 188.599 30.6796C188.81 30.7574 189.01 30.8636 189.201 30.9983C189.395 31.1308 189.554 31.3011 189.679 31.5093C189.804 31.7175 189.867 31.973 189.867 32.2758C189.867 32.625 189.775 32.9406 189.59 33.2224C189.407 33.5042 189.14 33.7282 188.787 33.8943C188.437 34.0606 188.011 34.1437 187.51 34.1437C187.043 34.1437 186.639 34.0689 186.297 33.9196C185.957 33.7703 185.69 33.5621 185.494 33.295C185.301 33.0279 185.192 32.7175 185.166 32.3643H185.982C186.003 32.6082 186.086 32.8103 186.23 32.97C186.377 33.1278 186.561 33.2456 186.784 33.3234C187.009 33.3991 187.251 33.437 187.51 33.437C187.812 33.437 188.082 33.3885 188.322 33.2917C188.562 33.193 188.752 33.0563 188.892 32.8817C189.032 32.705 189.103 32.4989 189.103 32.2633C189.103 32.0487 189.042 31.8741 188.921 31.7395C188.8 31.6049 188.641 31.4956 188.443 31.4116C188.246 31.3274 188.033 31.2538 187.803 31.1906L187.001 30.9635C186.491 30.8185 186.088 30.6112 185.791 30.342C185.493 30.0728 185.345 29.7205 185.345 29.2852C185.345 28.9234 185.444 28.6078 185.641 28.3386C185.84 28.0672 186.108 27.8569 186.443 27.7076C186.781 27.5562 187.158 27.4805 187.574 27.4805C187.994 27.4805 188.368 27.5551 188.695 27.7045C189.022 27.8517 189.281 28.0535 189.472 28.3102C189.665 28.5669 189.767 28.8581 189.778 29.1841H189.013ZM193.331 28.2629V27.5688H198.223V28.2629H196.173V34.0301H195.381V28.2629H193.331ZM204.673 30.7995C204.673 31.4809 204.55 32.0698 204.3 32.5661C204.053 33.0625 203.711 33.4453 203.279 33.7145C202.846 33.9837 202.351 34.1184 201.795 34.1184C201.237 34.1184 200.744 33.9837 200.309 33.7145C199.877 33.4453 199.536 33.0625 199.288 32.5661C199.04 32.0698 198.916 31.4809 198.916 30.7995C198.916 30.118 199.04 29.5291 199.288 29.0327C199.536 28.5364 199.877 28.1536 200.309 27.8843C200.744 27.6151 201.237 27.4805 201.795 27.4805C202.351 27.4805 202.846 27.6151 203.279 27.8843C203.711 28.1536 204.053 28.5364 204.3 29.0327C204.55 29.5291 204.673 30.118 204.673 30.7995ZM203.908 30.7995C203.908 30.24 203.815 29.7678 203.626 29.3829C203.439 28.998 203.185 28.7067 202.863 28.5089C202.546 28.3112 202.189 28.2125 201.795 28.2125C201.399 28.2125 201.043 28.3112 200.721 28.5089C200.403 28.7067 200.15 28.998 199.961 29.3829C199.773 29.7678 199.68 30.24 199.68 30.7995C199.68 31.3588 199.773 31.8311 199.961 32.216C200.15 32.6009 200.403 32.8921 200.721 33.0899C201.043 33.2877 201.399 33.3864 201.795 33.3864C202.189 33.3864 202.546 33.2877 202.863 33.0899C203.185 32.8921 203.439 32.6009 203.626 32.216C203.815 31.8311 203.908 31.3588 203.908 30.7995ZM212.982 29.588C212.911 29.3755 212.82 29.1851 212.705 29.0169C212.592 28.8465 212.457 28.7015 212.301 28.5816C212.145 28.4616 211.97 28.3701 211.771 28.3071C211.574 28.244 211.358 28.2125 211.122 28.2125C210.736 28.2125 210.385 28.3112 210.067 28.5089C209.751 28.7067 209.5 28.998 209.313 29.3829C209.125 29.7678 209.034 30.24 209.034 30.7995C209.034 31.3588 209.127 31.8311 209.316 32.216C209.506 32.6009 209.761 32.8921 210.085 33.0899C210.406 33.2877 210.769 33.3864 211.172 33.3864C211.547 33.3864 211.876 33.3076 212.161 33.1498C212.447 32.9901 212.67 32.7649 212.83 32.4748C212.989 32.1824 213.071 31.8384 213.071 31.443L213.313 31.4935H211.352V30.7995H213.836V31.4935C213.836 32.0255 213.72 32.4883 213.492 32.8817C213.264 33.2749 212.95 33.5799 212.549 33.7966C212.149 34.0112 211.691 34.1184 211.172 34.1184C210.595 34.1184 210.088 33.9837 209.65 33.7145C209.215 33.4453 208.876 33.0625 208.632 32.5661C208.39 32.0698 208.27 31.4809 208.27 30.7995C208.27 30.2883 208.338 29.8288 208.476 29.4207C208.617 29.0105 208.813 28.6615 209.069 28.3734C209.322 28.0852 209.624 27.8643 209.971 27.7107C210.32 27.5572 210.705 27.4805 211.122 27.4805C211.467 27.4805 211.787 27.5321 212.083 27.635C212.383 27.736 212.65 27.8801 212.882 28.0672C213.118 28.2525 213.315 28.4742 213.473 28.733C213.629 28.9897 213.738 29.2745 213.797 29.588H212.982ZM215.189 34.0301V27.5688H217.392C217.902 27.5688 218.319 27.6551 218.647 27.8276C218.973 27.9979 219.216 28.2324 219.372 28.5312C219.53 28.8297 219.608 29.1695 219.608 29.5501C219.608 29.9308 219.53 30.2684 219.372 30.5627C219.216 30.8573 218.975 31.0886 218.649 31.2569C218.325 31.423 217.91 31.5062 217.405 31.5062H215.621V30.7995H217.38C217.727 30.7995 218.008 30.7489 218.22 30.6479C218.435 30.5471 218.589 30.404 218.684 30.219C218.782 30.0318 218.832 29.8087 218.832 29.5501C218.832 29.2913 218.782 29.0654 218.684 28.8718C218.587 28.6783 218.431 28.529 218.216 28.4238C218.002 28.3166 217.719 28.2629 217.366 28.2629H215.978V34.0301H215.189ZM218.257 31.1275L219.864 34.0301H218.945L217.366 31.1275H218.257ZM226.428 30.7995C226.428 31.4809 226.303 32.0698 226.055 32.5661C225.806 33.0625 225.467 33.4453 225.032 33.7145C224.599 33.9837 224.104 34.1184 223.548 34.1184C222.993 34.1184 222.497 33.9837 222.065 33.7145C221.632 33.4453 221.291 33.0625 221.043 32.5661C220.793 32.0698 220.669 31.4809 220.669 30.7995C220.669 30.118 220.793 29.5291 221.043 29.0327C221.291 28.5364 221.632 28.1536 222.065 27.8843C222.497 27.6151 222.993 27.4805 223.548 27.4805C224.104 27.4805 224.599 27.6151 225.032 27.8843C225.467 28.1536 225.806 28.5364 226.055 29.0327C226.303 29.5291 226.428 30.118 226.428 30.7995ZM225.663 30.7995C225.663 30.24 225.568 29.7678 225.379 29.3829C225.194 28.998 224.938 28.7067 224.619 28.5089C224.301 28.3112 223.944 28.2125 223.548 28.2125C223.154 28.2125 222.796 28.3112 222.476 28.5089C222.156 28.7067 221.903 28.998 221.714 29.3829C221.527 29.7678 221.435 30.24 221.435 30.7995C221.435 31.3588 221.527 31.8311 221.714 32.216C221.903 32.6009 222.156 32.8921 222.476 33.0899C222.796 33.2877 223.154 33.3864 223.548 33.3864C223.944 33.3864 224.301 33.2877 224.619 33.0899C224.938 32.8921 225.194 32.6009 225.379 32.216C225.568 31.8311 225.663 31.3588 225.663 30.7995ZM228.941 34.0301L227.157 27.5688H227.96L229.323 32.8311H229.385L230.775 27.5688H231.666L233.054 32.8311H233.119L234.481 27.5688H235.285L233.501 34.0301H232.686L231.245 28.8813H231.194L229.756 34.0301H228.941Z" fill="#4973A1"/>
</svg>
