<svg width="493" height="441" viewBox="0 0 493 441" fill="none" xmlns="http://www.w3.org/2000/svg">
<path d="M32.8149 188.841H99.4534L124.964 144.647L141.589 173.455L183.956 100.067L262.871 236.778L319.813 138.145L349.083 188.841L366.853 158.051L384.623 188.841H459.267" stroke="#046BE3" stroke-width="1.5" stroke-miterlimit="10"/>
<path d="M438.233 215.617C479.002 177.248 490.211 114.096 460.839 63.5274C426.23 3.84324 350.629 -16.6267 291.048 17.5639C281.878 22.8154 273.416 29.2179 265.87 36.6157L246.05 56.4534L226.229 36.5986C218.68 29.204 210.22 22.8018 201.052 17.5468C141.479 -16.6438 65.8696 3.82617 31.2688 63.5103C1.89666 114.087 13.0971 177.223 53.8576 215.608L246.05 407.305L438.233 215.617Z" stroke="#808080" stroke-width="1.5" stroke-miterlimit="10"/>
<path d="M0 440.017H492.099" stroke="#046BE3" stroke-width="1.5" stroke-miterlimit="10"/>
</svg>
