<svg xmlns="http://www.w3.org/2000/svg" width="2187" height="1222" viewBox="0 0 2187 1222" fill="none"><path fill-rule="evenodd" clip-rule="evenodd" d="M466.5 423.547C478.876 416.402 494.124 416.402 506.5 423.547L722.411 548.203C734.787 555.348 742.41 568.553 742.41 582.844V832.156C742.41 846.447 734.787 859.652 722.41 866.797L506.5 991.453C494.124 998.598 478.876 998.598 466.5 991.453L250.589 866.797C238.213 859.652 230.589 846.447 230.589 832.156V582.844C230.589 568.553 238.213 555.348 250.589 548.203L466.5 423.547Z" fill="#1246B1"></path><path fill-rule="evenodd" clip-rule="evenodd" d="M1680.5 423.547C1692.88 416.402 1708.12 416.402 1720.5 423.547L1936.41 548.203C1948.79 555.348 1956.41 568.553 1956.41 582.844V832.156C1956.41 846.447 1948.79 859.652 1936.41 866.797L1720.5 991.453C1708.12 998.598 1692.88 998.598 1680.5 991.453L1464.59 866.797C1452.21 859.652 1444.59 846.447 1444.59 832.156V582.844C1444.59 568.553 1452.21 555.348 1464.59 548.203L1680.5 423.547Z" fill="#0C81EB"></path><mask id="mask0_1301_246256" style="mask-type:luminance" maskUnits="userSpaceOnUse" x="0" y="-862" width="2187" height="2084"><rect y="-862" width="2187" height="2084" fill="white"></rect></mask><g mask="url(#mask0_1301_246256)"><path fill-rule="evenodd" clip-rule="evenodd" d="M1061.52 -1298.64C1081.28 -1310.01 1105.6 -1310.01 1125.35 -1298.64L2154.66 -706.459C2174.51 -695.039 2186.74 -673.884 2186.74 -650.985V532.984C2186.74 555.884 2174.51 577.039 2154.66 588.459L1125.35 1180.64C1105.6 1192.01 1081.28 1192.01 1061.52 1180.64L32.2192 588.459C12.37 577.039 0.13475 555.884 0.13475 532.984V-650.984C0.13475 -673.884 12.37 -695.039 32.2193 -706.459L1061.52 -1298.64Z" fill="url(#paint0_linear_1301_246256)"></path><mask id="mask1_1301_246256" style="mask-type:luminance" maskUnits="userSpaceOnUse" x="0" y="-1302" width="2187" height="2486"><path fill-rule="evenodd" clip-rule="evenodd" d="M1043.57 -1288.31C1074.44 -1306.07 1112.43 -1306.07 1143.31 -1288.31L2136.61 -716.842C2167.63 -698.999 2186.74 -665.944 2186.74 -630.163V532.984C2186.74 555.884 2174.51 577.039 2154.66 588.459L1143.31 1170.31C1112.43 1188.07 1074.44 1188.07 1043.57 1170.31L32.2192 588.459C12.37 577.039 0.134766 555.884 0.134766 532.984V-630.163C0.134766 -665.944 19.2523 -698.999 50.2668 -716.842L1043.57 -1288.31Z" fill="white"></path></mask><g mask="url(#mask1_1301_246256)"><g style="mix-blend-mode:screen" opacity="0.123233"><path fill-rule="evenodd" clip-rule="evenodd" d="M1345.5 866.928C1352.93 862.641 1362.07 862.641 1369.5 866.928L1429.07 901.322C1436.5 905.609 1441.07 913.532 1441.07 922.106V990.894C1441.07 999.468 1436.5 1007.39 1429.07 1011.68L1369.5 1046.07C1362.07 1050.36 1352.93 1050.36 1345.5 1046.07L1285.93 1011.68C1278.5 1007.39 1273.93 999.468 1273.93 990.894V922.106C1273.93 913.532 1278.5 905.609 1285.93 901.322L1345.5 866.928Z" fill="url(#paint1_linear_1301_246256)"></path></g><g style="mix-blend-mode:screen" opacity="0.123233"><path fill-rule="evenodd" clip-rule="evenodd" d="M1077.01 821.238C1086.91 815.521 1099.11 815.521 1109.01 821.238L1329.03 948.262C1338.93 953.979 1345.03 964.543 1345.03 975.975V1230.02C1345.03 1241.46 1338.93 1252.02 1329.03 1257.74L1109.01 1384.76C1099.11 1390.48 1086.91 1390.48 1077.01 1384.76L857 1257.74C847.099 1252.02 841 1241.46 841 1230.02V975.975C841 964.543 847.099 953.979 857 948.262L1077.01 821.238Z" fill="url(#paint2_linear_1301_246256)"></path></g><g style="mix-blend-mode:screen" opacity="0.222935"><path fill-rule="evenodd" clip-rule="evenodd" d="M2074.5 -389.453C2086.88 -396.598 2102.12 -396.598 2114.5 -389.453L2379.77 -236.297C2392.15 -229.152 2399.77 -215.947 2399.77 -201.656V104.656C2399.77 118.947 2392.15 132.152 2379.77 139.297L2114.5 292.453C2102.12 299.598 2086.88 299.598 2074.5 292.453L1809.23 139.297C1796.85 132.152 1789.23 118.947 1789.23 104.656V-201.656C1789.23 -215.947 1796.85 -229.152 1809.23 -236.297L2074.5 -389.453Z" fill="url(#paint3_linear_1301_246256)"></path></g><g style="mix-blend-mode:screen" opacity="0.123233"><path fill-rule="evenodd" clip-rule="evenodd" d="M277.5 218.928C284.926 214.641 294.074 214.641 301.5 218.928L361.071 253.322C368.497 257.609 373.071 265.532 373.071 274.106V342.894C373.071 351.468 368.497 359.391 361.071 363.678L301.5 398.072C294.074 402.359 284.926 402.359 277.5 398.072L217.929 363.678C210.503 359.391 205.929 351.468 205.929 342.894V274.106C205.929 265.532 210.503 257.609 217.929 253.322L277.5 218.928Z" fill="url(#paint4_linear_1301_246256)"></path></g><g style="mix-blend-mode:screen" opacity="0.123233"><path fill-rule="evenodd" clip-rule="evenodd" d="M170 378.928C177.426 374.641 186.574 374.641 194 378.928L312.028 447.072C319.454 451.359 324.028 459.282 324.028 467.856V604.144C324.028 612.718 319.454 620.641 312.028 624.928L194 693.072C186.574 697.359 177.426 697.359 170 693.072L51.9718 624.928C44.5462 620.641 39.9718 612.718 39.9718 604.144V467.856C39.9718 459.282 44.5462 451.359 51.9718 447.072L170 378.928Z" fill="url(#paint5_linear_1301_246256)"></path></g><g style="mix-blend-mode:screen" opacity="0.123233"><path fill-rule="evenodd" clip-rule="evenodd" d="M101 114.928C108.426 110.641 117.574 110.641 125 114.928L247.358 185.572C254.784 189.859 259.358 197.782 259.358 206.356V347.644C259.358 356.218 254.784 364.141 247.358 368.428L125 439.072C117.574 443.359 108.426 443.359 101 439.072L-21.3584 368.428C-28.784 364.141 -33.3584 356.218 -33.3584 347.644V206.356C-33.3584 197.782 -28.784 189.859 -21.3584 185.572L101 114.928Z" fill="url(#paint6_linear_1301_246256)"></path></g><g style="mix-blend-mode:screen" opacity="0.226981"><path fill-rule="evenodd" clip-rule="evenodd" d="M513 -223.762C522.901 -229.479 535.099 -229.479 545 -223.762L754.621 -102.738C764.522 -97.0214 770.621 -86.4573 770.621 -75.0248V167.025C770.621 178.457 764.522 189.021 754.621 194.738L545 315.762C535.099 321.479 522.901 321.479 513 315.762L303.379 194.738C293.478 189.021 287.379 178.457 287.379 167.025V-75.0248C287.379 -86.4573 293.478 -97.0213 303.379 -102.738L513 -223.762Z" fill="url(#paint7_linear_1301_246256)"></path></g><g style="mix-blend-mode:screen" opacity="0.187198"><path fill-rule="evenodd" clip-rule="evenodd" d="M2082.51 140.223C2092.41 134.515 2104.59 134.515 2114.49 140.223L2254.99 221.265C2264.9 226.979 2271 237.547 2271 248.984V411.016C2271 422.453 2264.9 433.021 2254.99 438.735L2114.49 519.777C2104.59 525.485 2092.41 525.485 2082.51 519.777L1942.01 438.735C1932.1 433.021 1926 422.453 1926 411.016V248.984C1926 237.547 1932.1 226.979 1942.01 221.265L2082.51 140.223Z" fill="url(#paint8_linear_1301_246256)"></path></g></g></g><g style="mix-blend-mode:screen" opacity="0.226981"><path fill-rule="evenodd" clip-rule="evenodd" d="M1557 155.238C1566.9 149.521 1579.1 149.521 1589 155.238L1798.62 276.262C1808.52 281.979 1814.62 292.543 1814.62 303.975V546.025C1814.62 557.457 1808.52 568.021 1798.62 573.738L1589 694.762C1579.1 700.479 1566.9 700.479 1557 694.762L1347.38 573.738C1337.48 568.021 1331.38 557.457 1331.38 546.025V303.975C1331.38 292.543 1337.48 281.979 1347.38 276.262L1557 155.238Z" fill="url(#paint9_linear_1301_246256)"></path></g><g style="mix-blend-mode:screen" opacity="0.2"><path fill-rule="evenodd" clip-rule="evenodd" d="M1380.5 163.928C1387.93 159.641 1397.07 159.641 1404.5 163.928L1508.24 223.822C1515.66 228.109 1520.24 236.032 1520.24 244.606V364.394C1520.24 372.968 1515.66 380.891 1508.24 385.178L1404.5 445.072C1397.07 449.359 1387.93 449.359 1380.5 445.072L1276.76 385.178C1269.34 380.891 1264.76 372.968 1264.76 364.394V244.606C1264.76 236.032 1269.34 228.109 1276.76 223.822L1380.5 163.928Z" stroke="white"></path></g><g style="mix-blend-mode:screen" opacity="0.123233"><path fill-rule="evenodd" clip-rule="evenodd" d="M1794.5 439.928C1801.93 435.641 1811.07 435.641 1818.5 439.928L1878.07 474.322C1885.5 478.609 1890.07 486.532 1890.07 495.106V563.894C1890.07 572.468 1885.5 580.391 1878.07 584.678L1818.5 619.072C1811.07 623.359 1801.93 623.359 1794.5 619.072L1734.93 584.678C1727.5 580.391 1722.93 572.468 1722.93 563.894V495.106C1722.93 486.532 1727.5 478.609 1734.93 474.322L1794.5 439.928Z" fill="url(#paint10_linear_1301_246256)"></path></g><g style="mix-blend-mode:screen" opacity="0.2"><path fill-rule="evenodd" clip-rule="evenodd" d="M1506.98 416.641C1511.94 413.77 1518.06 413.77 1523.02 416.641L1564.02 440.378C1568.96 443.239 1572 448.515 1572 454.225V501.775C1572 507.485 1568.96 512.761 1564.02 515.622L1523.02 539.359C1518.06 542.23 1511.94 542.23 1506.98 539.359L1465.98 515.622C1461.04 512.761 1458 507.485 1458 501.775V454.225C1458 448.515 1461.04 443.239 1465.98 440.378L1506.98 416.641Z" stroke="white"></path></g><g style="mix-blend-mode:screen" opacity="0.2"><path fill-rule="evenodd" clip-rule="evenodd" d="M1587.98 302.641C1592.94 299.77 1599.06 299.77 1604.02 302.641L1645.02 326.378C1649.96 329.239 1653 334.515 1653 340.225V387.775C1653 393.485 1649.96 398.761 1645.02 401.622L1604.02 425.359C1599.06 428.23 1592.94 428.23 1587.98 425.359L1546.98 401.622C1542.04 398.761 1539 393.485 1539 387.775V340.225C1539 334.515 1542.04 329.239 1546.98 326.378L1587.98 302.641Z" stroke="white"></path></g><g style="mix-blend-mode:screen" opacity="0.6"><path fill-rule="evenodd" clip-rule="evenodd" d="M1393.48 470.341C1395.96 468.894 1399.04 468.894 1401.52 470.341L1421.02 481.686C1423.49 483.119 1425 485.752 1425 488.601V511.399C1425 514.248 1423.49 516.881 1421.02 518.314L1401.52 529.659C1399.04 531.106 1395.96 531.106 1393.48 529.659L1373.98 518.314C1371.51 516.881 1370 514.248 1370 511.399V488.601C1370 485.752 1371.51 483.119 1373.98 481.686L1393.48 470.341Z" stroke="white"></path></g><defs><linearGradient id="paint0_linear_1301_246256" x1="-169" y1="1199" x2="2355.88" y2="1199" gradientUnits="userSpaceOnUse"><stop stop-color="#0087F7"></stop><stop offset="1" stop-color="#1A268E"></stop></linearGradient><linearGradient id="paint1_linear_1301_246256" x1="1481.84" y1="900.72" x2="1298.23" y2="826.265" gradientUnits="userSpaceOnUse"><stop stop-color="white" stop-opacity="0.01"></stop><stop offset="1" stop-color="#1CD3FF"></stop></linearGradient><linearGradient id="paint2_linear_1301_246256" x1="1132.05" y1="1358.51" x2="954.611" y2="888.299" gradientUnits="userSpaceOnUse"><stop stop-color="white" stop-opacity="0.01"></stop><stop offset="1" stop-color="#1CD3FF"></stop></linearGradient><linearGradient id="paint3_linear_1301_246256" x1="2548.7" y1="-252.257" x2="1877.99" y2="-524.23" gradientUnits="userSpaceOnUse"><stop stop-color="white" stop-opacity="0.01"></stop><stop offset="1" stop-color="#1CD3FF"></stop></linearGradient><linearGradient id="paint4_linear_1301_246256" x1="413.841" y1="252.72" x2="230.228" y2="178.265" gradientUnits="userSpaceOnUse"><stop stop-color="white" stop-opacity="0.01"></stop><stop offset="1" stop-color="#1CD3FF"></stop></linearGradient><linearGradient id="paint5_linear_1301_246256" x1="204" y1="680" x2="104" y2="415" gradientUnits="userSpaceOnUse"><stop stop-color="white" stop-opacity="0.01"></stop><stop offset="1" stop-color="#1CD3FF"></stop></linearGradient><linearGradient id="paint6_linear_1301_246256" x1="330.758" y1="179.312" x2="9.19624" y2="48.9196" gradientUnits="userSpaceOnUse"><stop stop-color="white" stop-opacity="0.01"></stop><stop offset="1" stop-color="#1CD3FF"></stop></linearGradient><linearGradient id="paint7_linear_1301_246256" x1="888.495" y1="-115.271" x2="357.632" y2="-330.535" gradientUnits="userSpaceOnUse"><stop stop-color="white" stop-opacity="0.01"></stop><stop offset="1" stop-color="#1CD3FF"></stop></linearGradient><linearGradient id="paint8_linear_1301_246256" x1="2355.15" y1="214.971" x2="1976.26" y2="61.1856" gradientUnits="userSpaceOnUse"><stop stop-color="white" stop-opacity="0.01"></stop><stop offset="1" stop-color="#1CD3FF"></stop></linearGradient><linearGradient id="paint9_linear_1301_246256" x1="1932.49" y1="263.729" x2="1401.63" y2="48.4649" gradientUnits="userSpaceOnUse"><stop stop-color="white" stop-opacity="0.01"></stop><stop offset="1" stop-color="#1CD3FF"></stop></linearGradient><linearGradient id="paint10_linear_1301_246256" x1="1930.84" y1="473.72" x2="1747.23" y2="399.265" gradientUnits="userSpaceOnUse"><stop stop-color="white" stop-opacity="0.01"></stop><stop offset="1" stop-color="#1CD3FF"></stop></linearGradient></defs></svg>