<svg id="Layer_1" data-name="Layer 1" xmlns="http://www.w3.org/2000/svg" viewBox="0 0 36 36"><defs><style>.cls-1{fill:#fff;}</style></defs><path class="cls-1" d="M1.28,2H34.72c-.27,1.47-.52,2.86-.79,4.24Q32.34,14.61,30.75,23q-.29,1.45-.48,2.91a2.79,2.79,0,0,1-1.52,2.22C25.29,30,21.85,32,18.39,33.92a1.13,1.13,0,0,1-.93-.05c-2.72-1.53-5.43-3.1-8.14-4.66-.9-.51-1.82-1-2.69-1.57A1.43,1.43,0,0,1,6,26.83q-2.34-12-4.6-23.95C1.35,2.63,1.33,2.37,1.28,2ZM17.69,5.9a9.79,9.79,0,1,0,9.69,10A9.84,9.84,0,0,0,17.69,5.9Z"/><path class="cls-1" d="M17.6,7.36a8.37,8.37,0,1,1-.69,16.71,8.45,8.45,0,0,1-7.68-8.4A8.32,8.32,0,0,1,17.6,7.36Zm-3,7.58V11.07c0-.5-.1-1-.7-1s-.77.49-.76,1v9c0,.2,0,.45,0,.59s.45.57.66.55a1.08,1.08,0,0,0,.71-.58,2.65,2.65,0,0,0,.05-1v-3.2h6v1.28a25.53,25.53,0,0,0,0,2.77c0,.29.47.53.72.79.23-.26.46-.5.67-.77.05-.08,0-.23,0-.34v-9c0-.2,0-.45-.06-.59s-.4-.48-.62-.49a.87.87,0,0,0-.65.43,1.93,1.93,0,0,0-.11.84c0,1.18,0,2.35,0,3.57Z"/></svg>