<svg width="253" height="246" viewBox="0 0 253 246" fill="none" xmlns="http://www.w3.org/2000/svg">
<g clip-path="url(#clip0_172_2770)">
<path d="M210.594 199.797C210.593 200.302 210.416 200.79 210.094 201.177C209.783 201.536 209.426 201.852 209.033 202.117C207.034 203.496 203.412 204.374 199.227 204.374C192.982 204.374 187.861 202.305 187.861 199.797C187.861 197.603 191.608 195.785 196.604 195.346C197.291 195.284 197.978 195.221 198.665 195.221H199.227C205.473 195.158 210.594 197.227 210.594 199.797Z" fill="#6ECB6B"/>
<path d="M163.879 195.284C163.887 197.007 163.48 198.706 162.692 200.236C162.222 201.209 161.657 202.133 161.006 202.995C159.349 205.079 157.367 206.878 155.135 208.323C144.018 216.034 123.284 221.175 99.6136 221.175C64.1399 221.175 35.3488 209.577 35.3488 195.221C35.3488 189.892 39.3458 184.94 46.1532 180.865C40.0328 178.608 36.2231 175.348 36.2231 171.712C36.2231 165.82 46.3406 160.93 59.9555 159.613C61.8225 159.412 63.6986 159.307 65.5763 159.3H67.0128C82.0017 159.3 94.4924 163.625 97.2404 169.33H99.6136C135.087 169.33 163.879 180.928 163.879 195.284Z" fill="#EEF6FA"/>
<path d="M103.298 205.251C103.298 205.251 101.799 205.314 99.2389 205.251" stroke="#D6E9EA" stroke-width="1.963" stroke-linecap="round" stroke-linejoin="round"/>
<path d="M90.8701 204.875C70.6976 203.308 33.2254 195.848 32.9755 162.121C32.6008 115.981 76.256 97.1112 135.587 85.0748C185.612 74.9817 185.175 50.3446 178.93 35.2363" stroke="#D6E9EA" stroke-width="1.963" stroke-linecap="round" stroke-linejoin="round" stroke-dasharray="13.41 13.41"/>
<path d="M177.119 31.4752C176.432 30.1587 175.745 28.9676 175.058 27.9019" stroke="#D6E9EA" stroke-width="1.963" stroke-linecap="round" stroke-linejoin="round"/>
<path d="M217.589 224.058C217.593 225.518 217.25 226.958 216.59 228.258C216.194 229.08 215.712 229.858 215.153 230.578C213.75 232.328 212.086 233.851 210.219 235.092C200.789 241.611 183.302 246 163.192 246C133.151 246 108.794 236.157 108.794 224.058C108.794 213.652 126.656 205 150.701 202.681C153.948 202.367 157.258 202.179 160.631 202.117H163.192C193.232 202.117 217.589 211.896 217.589 224.058Z" fill="#EEF6FA"/>
<path opacity="0.44" d="M181.303 234.716C181.303 234.716 188.235 238.164 189.11 238.791C189.11 238.791 216.027 229.575 219.088 229.763L164.128 219.921L181.303 234.716Z" fill="#68C18C"/>
<path opacity="0.49" d="M116.039 210.517C116.039 210.517 99.5512 201.929 70.6351 194.782C70.6351 194.782 75.6314 191.585 79.3162 193.09C79.3162 193.09 85.9988 199.609 93.8679 199.108C105.921 198.356 114.228 209.514 116.039 210.517Z" fill="#68C18C"/>
<path d="M71.6344 189.579C71.6344 189.579 106.858 203.245 116.039 210.517C116.039 210.517 127.281 136.167 112.167 113.223C112.167 113.223 76.256 92.5978 67.7623 92.9113C67.8247 92.8486 80.8775 137.421 71.6344 189.579Z" fill="#EFF7F9"/>
<path opacity="0.34" d="M75.4441 163.813C75.4441 163.813 74.5073 165.193 73.8203 173.718C73.8203 173.718 81.0025 167.261 118.35 177.543C118.35 177.543 95.3668 166.509 75.4441 163.813Z" fill="#8BA3A5"/>
<path opacity="0.34" d="M96.9906 109.774C96.9906 109.774 101.55 113.975 109.294 121.497C109.294 121.497 96.8657 113.661 84.0002 113.536L96.9906 109.774Z" fill="#8BA3A5"/>
<path d="M116.039 210.517C116.039 210.517 141.645 201.866 158.882 197.102C158.882 197.102 165.315 144.756 158.882 102.628C158.882 102.628 116.851 112.972 111.417 113.097C111.417 113.097 121.472 122.626 116.039 210.517Z" fill="#D6E8EA"/>
<path d="M80.1906 120.119C80.1906 120.119 96.4285 123.692 107.358 130.525C98.9854 125.297 89.8041 121.505 80.1906 119.304V120.119Z" fill="#D9E6E8"/>
<path d="M153.823 141.558L160.319 139.866L153.823 142.373V141.558Z" fill="#C3DADB"/>
<path d="M110.168 120.871C110.168 120.871 97.2404 112.596 84.4374 112.47C71.6344 112.345 83.6255 112.47 83.6255 112.47L82.6887 110.088L87.6226 106.515L97.4278 108.709C97.4278 108.709 113.291 112.533 110.168 120.871Z" fill="#FAFEFF"/>
<path opacity="0.34" d="M87.4977 105.01C87.4977 105.01 111.542 119.805 112.479 126.575C115.009 124.119 117.7 121.836 120.536 119.742C124.658 116.733 144.455 105.261 144.455 105.261L90.4955 102.816L87.4977 105.01Z" fill="#8BA3A5"/>
<path d="M87.6226 104.195C87.6226 104.195 111.542 118.175 112.479 124.945C112.479 124.945 115.977 123.441 120.536 118.112C123.846 114.226 144.455 103.631 144.455 103.631L90.4954 101.186L87.6226 104.195Z" fill="#FAFEFF"/>
<path opacity="0.34" d="M133.464 114.602C133.464 114.602 144.705 116.608 146.579 123.817C148.479 118.737 148.996 113.241 148.078 107.894C148.078 107.894 134.9 113.85 133.464 114.602Z" fill="#8BA3A5"/>
<path d="M134.276 114.163C134.276 114.163 145.517 116.169 147.391 123.378C149.291 118.298 149.808 112.802 148.89 107.455C148.89 107.518 135.712 113.473 134.276 114.163Z" fill="#F5FCFF"/>
<path opacity="0.23" d="M67.8247 93.6634C67.8247 93.6634 98.9891 105.951 114.103 119.868C115.727 121.372 117.538 123.566 117.288 125.698C117.288 125.698 153.511 104.195 158.945 102.628C158.945 102.628 138.46 88.4602 112.042 87.269C111.979 87.269 79.0039 88.2721 67.8247 93.6634Z" fill="#8BA3A5"/>
<path d="M65.0768 92.7857C65.0768 92.7857 106.921 106.201 118.974 121.686C118.974 121.686 153.511 104.258 158.882 102.691C158.882 102.691 139.834 86.3286 113.416 85.1375C113.416 85.0748 76.256 87.3316 65.0768 92.7857Z" fill="#EFF7F9"/>
<path opacity="0.23" d="M84.5623 159.299C84.5623 159.299 89.3713 161.807 89.059 155.475C88.6843 149.144 85.3742 125.76 95.1795 110.777C96.9906 108.019 107.42 103.631 105.797 101.75C103.423 99.0544 92.8687 107.956 92.8687 107.956C92.8687 107.956 84.1252 111.216 83.3757 113.787C82.6263 116.357 78.3794 149.206 84.5623 159.299Z" fill="#8BA3A5"/>
<path d="M116.976 206.63C116.976 206.63 103.923 197.854 82.7512 190.206C82.7512 190.206 107.233 198.418 116.976 205.69V206.63Z" fill="#D9E6E8"/>
<path d="M117.85 175.035C117.85 175.035 105.859 168.39 83.6255 163.061C83.6255 163.061 108.357 167.825 117.85 174.157V175.035Z" fill="#D9E6E8"/>
<path d="M72.6337 183.247C72.6337 183.247 84.6872 186.57 94.5549 191.271C94.5549 191.271 79.0039 183.874 72.6961 182.432L72.6337 183.247Z" fill="#D9E6E8"/>
<path d="M74.7571 157.419C74.7571 157.419 84.8121 159.927 97.4278 163.249C97.4278 163.249 81.1898 158.046 74.882 156.604L74.7571 157.419Z" fill="#D9E6E8"/>
<path d="M74.6322 162.999C74.6322 162.999 70.6976 165.82 69.3236 173.718C69.3236 173.718 80.1906 166.446 117.538 176.728C117.538 176.728 94.5549 165.694 74.6322 162.999Z" fill="#FAFEFF"/>
<path d="M117.663 151.589C117.663 151.589 147.391 145.132 153.574 151.589C153.574 151.589 157.571 145.759 156.134 141.809L117.663 151.589Z" fill="#C5D6D8"/>
<path d="M117.663 150.774C117.663 150.774 147.391 144.317 153.574 150.774C153.574 150.774 157.571 144.944 156.134 140.994L117.663 150.774Z" fill="#F0FDFF"/>
<path d="M116.976 140.744C109.596 136.478 101.676 133.23 93.4308 131.089C93.4308 131.089 103.548 132.907 116.851 139.302L116.976 140.744Z" fill="#D9E6E8"/>
<path d="M107.358 204.875C107.358 204.875 80.1905 195.785 69.8857 193.967C69.8857 193.967 74.882 190.77 78.5668 192.275C78.5668 192.275 85.8738 195.158 93.1185 198.293C99.3638 200.989 105.484 203.872 107.358 204.875Z" fill="#F0F7F7"/>
<path d="M117.663 155.664C117.663 155.664 104.485 151.276 102.424 150.586L117.538 154.849L117.663 155.664Z" fill="#D9E6E8"/>
<path d="M161.131 124.945C161.131 124.945 146.954 130.399 144.455 131.904L161.131 125.76V124.945Z" fill="#C3DADB"/>
<path d="M116.414 134.224C116.414 134.224 136.461 127.955 142.207 125.698C142.207 125.698 122.659 133.91 116.539 135.164L116.414 134.224Z" fill="#C3DADB"/>
<path d="M116.539 202.744L137.835 196.161L116.414 201.929L116.539 202.744Z" fill="#C3DADB"/>
<path d="M116.601 199.045L116.664 198.355L130.403 195.722L116.601 199.045Z" fill="#C3DADB"/>
<path d="M160.881 173.969L126.344 181.742L160.943 172.778L160.881 173.969Z" fill="#C3DADB"/>
<path d="M160.256 183.059L152.2 185.253L160.319 182.683L160.256 183.059Z" fill="#C3DADB"/>
<path d="M124.096 207.822C124.096 207.822 149.764 201.678 153.012 202.117C150.839 201.063 148.419 200.629 146.017 200.863L124.096 207.822Z" fill="#F0F7F7"/>
<path opacity="0.23" d="M77.2552 173.154C77.2552 173.154 78.5043 174.345 79.5036 174.095C80.5028 173.844 82.4389 173.342 84.375 168.954C85.8145 165.742 86.8024 162.346 87.3103 158.861C87.4681 157.657 87.3397 156.432 86.9356 155.288C86.9356 155.288 80.94 170.584 77.2552 173.154Z" fill="#8BA3A5"/>
<path opacity="0.44" d="M198.103 206.63C198.103 206.63 178.93 214.341 167.376 218.103C167.251 208.135 165.315 196.851 159.132 187.447C159.132 187.447 149.202 213.777 140.708 214.09C133.4 216.322 125.952 218.06 118.412 219.294C118.412 219.294 154.885 236.972 164.128 244.244C164.128 244.244 191.171 232.459 208.346 227.757C208.283 227.757 195.23 228.321 198.103 206.63Z" fill="#D9EEFD"/>
<path d="M182.989 234.151C182.989 234.151 189.047 237.599 189.984 238.164C189.984 238.164 216.09 228.76 219.15 228.948L164.628 218.667L182.989 234.151Z" fill="#EFF7F9"/>
<path d="M118.35 217.539C118.35 217.539 153.261 233.587 162.505 240.859C162.505 240.859 172.622 207.069 157.571 184.062C157.571 184.062 121.66 163.437 113.166 163.751C113.166 163.751 119.099 183.999 118.35 217.539Z" fill="#EFF7F9"/>
<path opacity="0.34" d="M118.662 204.938C118.662 204.938 121.348 206.819 120.661 215.407C120.661 215.407 128.78 207.884 161.568 218.667C161.63 218.667 138.647 207.571 118.662 204.938Z" fill="#8BA3A5"/>
<path d="M162.505 240.859C162.505 240.859 188.111 232.208 205.348 227.444C205.348 227.444 201.788 204.311 204.224 173.53C204.224 173.53 162.192 183.874 156.759 183.999C156.696 183.999 165.877 191.773 162.505 240.859Z" fill="#D6E8EA"/>
<path d="M116.539 183.247C116.539 183.247 132.777 186.82 143.706 193.654C135.333 188.425 126.152 184.633 116.539 182.432V183.247Z" fill="#D9E6E8"/>
<path d="M195.23 213.275L203.786 211.332L195.23 214.09V213.275Z" fill="#C3DADB"/>
<path opacity="0.23" d="M114.915 171.712C128.467 175.411 155.01 189.892 161.568 197.854C161.568 197.854 161.693 195.973 166.314 190.645C169.624 186.758 190.234 176.163 190.234 176.163C190.234 176.163 134.525 160.365 116.851 165.882C115.102 166.384 114.915 171.712 114.915 171.712Z" fill="#8BA3A5"/>
<path d="M111.168 169.017C124.72 172.715 154.573 188.263 161.131 196.161C161.131 196.161 161.255 194.281 165.877 188.952C169.187 185.065 189.797 174.471 189.797 174.471C189.797 174.471 134.088 158.673 116.414 164.19C114.727 164.754 111.168 169.017 111.168 169.017Z" fill="#FAFEFF"/>
<path opacity="0.23" d="M113.166 164.566C113.166 164.566 145.205 180.176 153.886 194.72C153.886 194.72 178.805 176.79 204.286 173.53C204.286 173.53 183.801 159.362 157.383 158.171C157.321 158.171 124.345 159.112 113.166 164.566Z" fill="#8BA3A5"/>
<path d="M110.418 163.625C110.418 163.625 142.457 177.229 154.51 192.713C154.51 192.713 164.503 183.247 204.286 173.53C204.286 173.53 185.238 157.168 158.82 155.977C158.757 155.977 121.597 158.234 110.418 163.625Z" fill="#EFF7F9"/>
<path d="M117.975 198.543C117.975 198.543 128.03 201.051 140.646 204.374C140.646 204.374 124.408 199.17 118.1 197.729L117.975 198.543Z" fill="#D9E6E8"/>
<path d="M118.287 204.123C118.287 204.123 121.785 206.944 120.411 214.843C120.411 214.843 123.471 207.634 160.756 217.852C160.818 217.852 138.21 206.756 118.287 204.123Z" fill="#FAFEFF"/>
<path d="M163.004 222.428C163.004 222.428 192.732 215.971 198.915 222.428C198.876 219.447 198.392 216.489 197.479 213.652L163.004 222.428Z" fill="#C5D6D8"/>
<path d="M163.004 221.613C163.004 221.613 192.732 215.156 198.915 221.613C198.915 221.613 201.788 214.028 195.98 213.213L163.004 221.613Z" fill="#F0FDFF"/>
<path d="M162.317 211.645C154.937 207.38 147.017 204.132 138.772 201.991C138.772 201.991 148.89 203.809 162.192 210.204L162.317 211.645Z" fill="#D9E6E8"/>
<path d="M163.004 226.566C163.004 226.566 149.826 222.177 147.765 221.488L162.879 225.751L163.004 226.566Z" fill="#D9E6E8"/>
<path d="M203.349 197.039C203.349 197.039 192.295 201.239 189.797 202.744L203.349 197.791V197.039Z" fill="#C3DADB"/>
<path d="M162.629 204.436C162.629 204.436 181.803 198.857 187.486 196.6C187.486 196.6 168.812 204.186 162.692 205.377L162.629 204.436Z" fill="#C3DADB"/>
<path d="M163.067 234.339L184.426 227.757L162.942 233.524L163.067 234.339Z" fill="#C3DADB"/>
<path d="M163.192 230.64L163.254 229.951L176.931 227.318L163.192 230.64Z" fill="#C3DADB"/>
<path d="M179.617 185.065L203.849 178.357V179.611L179.617 185.065Z" fill="#C3DADB"/>
<path d="M114.415 223.871C114.415 223.871 112.979 230.014 115.852 230.578C118.725 231.143 121.972 227.569 122.659 216.849C123.034 211.458 114.415 223.871 114.415 223.871Z" fill="white"/>
<path d="M116.851 214.906C116.851 214.906 111.667 229.387 115.477 229.763C121.41 230.327 121.66 214.279 121.66 214.279C121.491 214.763 121.179 215.184 120.767 215.486C120.354 215.788 119.86 215.958 119.349 215.971C118.88 215.993 118.412 215.908 117.979 215.724C117.547 215.539 117.161 215.26 116.851 214.906Z" fill="#243956"/>
<path d="M177.244 169.832C177.244 169.832 176.432 172.778 178.992 173.969C184.114 176.289 186.986 175.536 189.235 175.411C191.483 175.223 192.482 173.656 191.733 173.342C190.734 172.966 184.551 169.957 182.365 169.894C180.491 169.894 177.244 169.832 177.244 169.832Z" fill="#FFD1B2"/>
<path d="M177.618 172.778C177.618 172.778 179.742 177.041 181.428 177.292C183.989 177.605 180.304 173.467 180.304 173.467L177.618 172.778Z" fill="#FFD1B2"/>
<path d="M128.28 167.136C128.28 167.136 117.163 177.292 114.228 182.432C111.293 187.573 116.539 216.159 116.539 216.159C116.539 216.159 118.662 218.98 121.91 216.285C123.284 215.156 120.723 194.782 123.471 188.074C124.22 186.256 128.592 179.799 134.213 175.223C135.4 174.283 139.147 177.354 140.333 176.477C144.093 173.676 147.027 169.907 148.827 165.569C148.827 165.569 137.023 157.231 128.28 167.136Z" fill="#F39C33"/>
<path d="M145.517 167.387C145.517 167.387 129.591 182.746 127.843 190.143C127.031 193.654 129.154 200.173 131.09 206.631C133.651 215.407 136.461 223.933 136.461 223.933C136.461 223.933 139.334 225.751 140.521 223.118C141.583 220.673 138.21 197.666 137.835 196.161C136.336 190.206 146.454 184.438 150.513 178.357C153.199 174.22 153.761 171.524 145.517 167.387Z" fill="#F39C33"/>
<path d="M86.7482 96.8604C86.7482 96.8604 72.8835 108.082 72.8835 114.664L79.9407 145.884C79.9407 145.884 77.2552 149.645 75.5065 147.012C72.8835 143.063 65.5764 126.325 62.4537 119.303C59.4559 112.533 59.5808 109.022 63.9526 102.001C65.7637 99.1173 76.5058 94.729 78.3169 94.1648C80.1905 93.6006 81.4396 86.1405 86.7482 96.8604Z" fill="#F39C33"/>
<path d="M79.3162 145.257C79.3162 145.257 77.8798 149.081 75.2567 146.511C75.2567 146.511 76.8181 150.022 76.7556 151.589C76.6931 153.156 78.0671 159.613 81.2523 161.118L82.1891 151.965L79.3162 145.257Z" fill="#243956"/>
<path d="M103.548 103.067C103.548 103.067 89.2464 109.085 86.6233 121.561L85.3742 155.037C85.3742 155.037 81.0025 158.046 80.3779 154.786C79.566 150.774 76.5683 131.09 75.2567 122.752C74.0077 114.727 73.5705 108.647 79.566 102.378C82.0642 99.8073 85.9363 93.9144 87.8099 93.7891C89.6835 93.6637 101.05 90.2784 103.548 103.067Z" fill="#F39C33"/>
<path d="M126.406 98.616C126.406 98.616 125.782 101.625 128.467 102.628C133.713 104.634 137.148 102.879 139.397 102.628C139.981 102.604 140.537 102.369 140.961 101.965C141.386 101.562 141.651 101.018 141.707 100.434C141.707 100.434 132.777 99.8698 131.59 98.3652C130.341 96.8606 126.406 98.616 126.406 98.616Z" fill="#FFD1B2"/>
<path d="M126.968 101.562C126.968 101.562 129.529 105.324 132.402 105.01C135.275 104.697 129.654 102.064 129.654 102.064L126.968 101.562Z" fill="#FFD1B2"/>
<path d="M78.3794 83.9466C78.3794 83.9466 83.6255 82.6301 83.3132 77.7403C82.5013 64.1993 80.94 51.5359 85.1244 47.5865C85.1244 47.5865 86.8731 46.2073 91.3073 47.0223C95.804 47.7745 99.8635 48.5895 99.8635 48.5895C99.8635 48.5895 108.482 49.091 112.854 54.9839C117.226 60.8767 130.841 87.3318 131.527 98.3653C131.527 98.3653 131.09 100.434 126.406 98.616C126.406 98.616 117.788 74.4804 109.356 68.1487C109.356 68.1487 110.606 103.506 102.799 104.133C102.799 104.133 102.611 98.9295 98.1772 96.1711C92.4315 92.5978 81.9393 91.9082 80.5653 100.371C79.8158 104.446 78.3794 83.9466 78.3794 83.9466Z" fill="#183A6B"/>
<path d="M136.586 148.893C137.586 135.415 135.587 121.686 140.271 118.363C140.271 118.363 142.145 117.235 146.516 118.614C150.826 119.993 154.823 121.31 154.823 121.31C154.823 121.31 163.254 123.002 166.814 129.397C170.374 135.791 183.239 158.861 182.427 169.895C182.427 169.895 178.805 173.154 176.994 170.083C176.994 170.083 169.062 149.332 161.568 141.935C161.568 141.935 159.195 177.605 151.325 177.229C151.325 177.229 148.577 171.838 144.518 168.453C139.272 164.127 136.961 163.437 129.404 166.008C129.342 166.008 136.212 153.846 136.586 148.893Z" fill="#183A6B"/>
<path d="M109.107 69.9039C109.107 69.9039 110.106 65.2021 112.229 65.641C114.353 66.0798 113.104 65.8917 113.104 65.8917C113.104 65.8917 115.977 62.7572 118.287 63.1334C120.598 63.5095 117.788 64.9514 117.788 64.9514C117.788 64.9514 119.412 65.829 119.162 66.5813C118.912 67.3336 119.162 69.5904 119.162 69.5904C119.162 69.5904 119.099 73.7907 109.981 74.6683C100.925 75.4833 109.107 69.9039 109.107 69.9039Z" fill="#FFD1B2"/>
<path d="M126.968 142.687C126.968 142.687 130.403 146.01 128.967 147.64C127.53 149.269 128.342 148.266 128.342 148.266C128.11 149.272 127.797 150.258 127.406 151.213C126.281 153.658 121.972 151.464 121.972 151.464C121.972 151.464 120.661 150.022 121.91 145.132C122.222 143.941 120.598 140.744 121.348 139.176C125.407 130.901 126.968 142.687 126.968 142.687Z" fill="#FFD1B2"/>
<path d="M82.2516 58.3691C82.2516 58.3691 81.4397 69.2771 90.3705 78.9313C96.1787 85.2003 110.668 75.358 110.918 74.6057C112.479 69.089 108.42 69.2144 108.42 69.2144C108.42 69.2144 99.6137 73.6027 95.6166 72.0355C90.6204 70.1548 93.8679 48.0252 86.311 47.461C81.4397 47.1476 81.3772 56.8645 82.2516 58.3691Z" fill="#183A6B"/>
<path d="M102.924 48.4642C102.924 48.4642 106.796 53.2914 108.545 52.4764C114.665 49.5927 116.976 36.8039 115.29 33.8575C113.541 30.9111 112.354 29.0931 105.484 30.4096C99.1141 31.6007 95.6166 40.3773 99.926 45.1417L102.924 48.4642Z" fill="#FFD1B2"/>
<path d="M95.1794 49.3416C95.5542 47.0848 96.4285 48.9028 98.1148 41.8188C98.1148 41.8188 100.738 40.0635 103.298 43.5115C105.859 46.9594 103.111 50.2193 103.611 52.6015C104.11 55.0464 94.3051 54.7329 95.1794 49.3416Z" fill="#FFD1B2"/>
<path d="M80.3779 92.7231L103.736 96.798C105.984 97.1741 106.609 98.0517 105.11 98.7413L93.0561 104.258C91.5572 104.948 88.5594 105.136 86.3111 104.76L62.9534 100.685C60.705 100.309 60.0805 99.4309 61.5794 98.7413L73.6329 93.2246C75.0694 92.5977 78.1296 92.347 80.3779 92.7231Z" fill="#E0E0E0"/>
<path d="M97.7401 43.4487C97.7401 43.4487 96.4285 39.0604 97.7401 36.0513C99.0516 33.0422 99.0516 30.033 102.861 28.9046C106.671 27.7762 113.853 28.0897 115.914 32.7914C117.975 37.5558 116.913 39.3738 115.539 40.6903C115.539 40.6903 112.604 36.2393 107.795 37.4931C103.049 38.7469 105.047 35.1736 105.047 35.1736C105.047 35.1736 102.362 37.8066 103.174 41.1918C103.985 44.5771 101.425 34.7975 99.801 38.3081C98.9869 39.9675 98.298 41.6858 97.7401 43.4487Z" fill="#2E4B5B"/>
<path d="M150.763 117.799C150.763 117.799 147.578 117.172 147.141 116.483C143.956 111.468 147.641 100.121 150.951 99.3057C154.261 98.4908 158.008 97.4877 161.942 103.381C165.502 108.772 161.755 117.423 155.322 117.674L150.763 117.799Z" fill="#FFD1B2"/>
<path d="M155.572 124.068C156.884 122.25 155.01 122.877 158.882 116.733C158.882 116.733 158.32 113.787 154.073 114.163C148.89 114.665 148.952 118.426 147.953 121.56C147.141 123.88 152.325 128.394 155.572 124.068Z" fill="#FFD1B2"/>
<path d="M158.008 118.05C158.008 118.05 162.067 115.918 163.316 112.909C164.566 109.838 166.689 107.769 164.815 104.258C162.942 100.748 157.758 95.795 152.949 97.613C148.14 99.431 147.578 101.5 147.578 103.443C147.578 103.443 149.264 100.936 151.575 100.685C154.51 100.371 158.32 102.691 159.944 106.578C160.568 108.02 161.63 109.461 160.256 113.097C159.65 114.81 158.898 116.467 158.008 118.05Z" fill="#2E4B5B"/>
<path d="M44.5919 83.9465C44.5919 83.9465 34.0997 98.3025 9.99255 83.2569C9.99255 83.2569 19.4231 79.3702 18.4238 76.1103C17.3621 72.9758 26.1056 90.5916 44.5919 83.9465Z" fill="#EAF5F9"/>
<path d="M9.99258 83.3197L9.36804 79.8091C9.36804 79.8091 27.7919 96.798 44.5919 84.0093C44.5919 83.9466 33.2254 99.3683 9.99258 83.3197Z" fill="#FAFEFF"/>
<path d="M23.9822 120.369C23.9822 120.369 30.6647 123.88 32.1012 128.08C32.1012 128.08 37.9094 123.817 39.2833 117.611C39.2833 117.611 29.2283 121.748 23.9822 120.369Z" fill="#D6E8EA"/>
<path d="M23.9822 120.369C23.9822 120.369 44.5294 124.946 51.7741 107.894C51.7741 107.894 48.6514 104.133 37.9094 102.252C37.9718 102.189 44.5919 122.062 23.9822 120.369Z" fill="#EFF7F9"/>
<path d="M210.594 61.8169C210.594 61.8169 203.911 65.4529 202.475 66.8948C201.038 68.3366 193.294 75.4833 192.67 84.3225C192.67 84.3225 198.041 96.359 217.464 90.9677C214.132 86.9835 211.776 82.2722 210.583 77.2105C209.39 72.1487 209.394 66.877 210.594 61.8169Z" fill="#EAF5F9"/>
<path d="M202.6 110.088C201.039 108.333 193.981 106.515 193.981 106.515C193.981 106.515 200.164 117.987 198.291 120.557L200.539 120.933C200.539 120.933 207.034 115.166 202.6 110.088Z" fill="#D6E8EA"/>
<path d="M191.858 123.88C191.858 123.88 200.851 122.313 202.6 110.088C202.6 110.088 206.472 113.975 206.097 124.507C206.097 124.507 200.601 126.952 191.858 123.88Z" fill="#EAF5F9"/>
<path opacity="0.34" d="M178.805 185.441C178.805 185.441 191.421 182.934 193.294 190.143C194.96 189.154 196.295 187.69 197.129 185.938C197.963 184.185 198.258 182.223 197.978 180.301C197.978 180.363 180.241 184.752 178.805 185.441Z" fill="#8BA3A5"/>
<path d="M179.617 185.065C179.617 185.065 192.295 182.934 194.231 190.206C194.231 190.206 201.476 183.31 202.1 178.859C202.038 178.859 181.053 184.313 179.617 185.065Z" fill="#F5FCFF"/>
<path d="M77.2552 171.9C77.2552 171.9 78.5043 173.091 79.5036 172.841C80.5028 172.59 82.4389 172.088 84.375 167.7C85.8145 164.488 86.8024 161.092 87.3103 157.607C87.4681 156.403 87.3397 155.178 86.9356 154.034C86.9356 154.034 80.94 169.267 77.2552 171.9Z" fill="white"/>
<path d="M79.7534 152.529C79.7534 152.529 79.5036 156.04 79.0664 158.36C78.3169 162.434 76.5682 166.76 76.7556 169.205C76.818 170.145 76.6931 172.277 78.192 172.277C81.6894 172.277 84.1876 168.515 86.9355 156.103C86.9355 156.103 86.8106 151.84 85.4991 151.025C84.6248 150.523 84.6248 154.097 81.8768 154.034C80.4404 154.034 80.5028 152.404 79.7534 152.529Z" fill="#243956"/>
<path d="M160.631 15.5518L181.178 20.5669" stroke="#95989A" stroke-width="3.926" stroke-miterlimit="10" stroke-linecap="round" stroke-linejoin="round"/>
<path d="M167.251 27.9018L174.058 7.59033" stroke="#95989A" stroke-width="3.926" stroke-miterlimit="10" stroke-linecap="round" stroke-linejoin="round"/>
<path d="M99.1765 22.3853L103.111 21.5703" stroke="#DBDBDB" stroke-width="1.208" stroke-miterlimit="10" stroke-linecap="round" stroke-linejoin="round"/>
<path d="M99.801 23.8268L103.111 23.1372" stroke="#DBDBDB" stroke-width="1.208" stroke-miterlimit="10" stroke-linecap="round" stroke-linejoin="round"/>
<path d="M101.487 25.0809L102.112 24.9556" stroke="#DBDBDB" stroke-width="1.208" stroke-miterlimit="10" stroke-linecap="round" stroke-linejoin="round"/>
<path d="M105.609 10.7876C105.877 12.0937 105.746 13.4505 105.234 14.6808C104.721 15.9111 103.851 16.9575 102.736 17.6834L103.174 19.6895L98.552 20.6299L98.1148 18.6238C96.7966 18.3965 95.5758 17.7801 94.608 16.8534C93.6403 15.9267 92.9695 14.7316 92.6813 13.4205C92.3281 11.7 92.6688 9.90905 93.6288 8.44019C94.5887 6.97134 96.0896 5.94436 97.8025 5.5843C99.523 5.25587 101.303 5.61645 102.762 6.5889C104.221 7.56135 105.243 9.06841 105.609 10.7876Z" stroke="#95989A" stroke-width="1.208" stroke-miterlimit="10" stroke-linecap="round" stroke-linejoin="round"/>
<path d="M90.5579 12.6055L87.685 12.7308" stroke="#95989A" stroke-width="1.208" stroke-miterlimit="10" stroke-linecap="round" stroke-linejoin="round"/>
<path d="M92.0568 7.15142L91.4947 6.6499" stroke="#95989A" stroke-width="1.208" stroke-miterlimit="10" stroke-linecap="round" stroke-linejoin="round"/>
<path d="M95.4293 4.33043L93.5557 0.506348" stroke="#95989A" stroke-width="1.208" stroke-miterlimit="10" stroke-linecap="round" stroke-linejoin="round"/>
<path d="M98.9266 3.57802L99.4263 1.1958" stroke="#95989A" stroke-width="1.208" stroke-miterlimit="10" stroke-linecap="round" stroke-linejoin="round"/>
<path d="M103.486 4.456L103.736 3.8291" stroke="#95989A" stroke-width="1.208" stroke-miterlimit="10" stroke-linecap="round" stroke-linejoin="round"/>
<path d="M107.295 7.96642L108.919 6.96338" stroke="#95989A" stroke-width="1.208" stroke-miterlimit="10" stroke-linecap="round" stroke-linejoin="round"/>
<path d="M98.8642 18.0593L101.487 17.4951" stroke="#95989A" stroke-width="1.208" stroke-miterlimit="10" stroke-linecap="round" stroke-linejoin="round"/>
<path d="M96.3036 13.5457L96.6783 12.7934L97.8649 13.2323L98.3021 11.6023L99.3638 13.3576L100.363 11.8531L101.3 12.5427L101.924 11.3516" stroke="#95989A" stroke-width="1.208" stroke-miterlimit="10" stroke-linecap="round" stroke-linejoin="round"/>
<path d="M31.1019 185.253C31.0947 185.67 30.9876 186.078 30.7897 186.444C30.6665 186.688 30.5201 186.919 30.3525 187.134C29.9328 187.634 29.4499 188.076 28.9161 188.45C26.2306 190.331 21.2343 191.585 15.4885 191.585C6.93236 191.585 0 188.764 0 185.316C0 182.369 5.12121 179.862 11.9287 179.235L14.7391 179.047H15.4885C24.1696 179.047 31.1019 181.805 31.1019 185.253Z" fill="#EEF6FA"/>
<path d="M146.454 118.614C146.454 118.614 128.217 112.784 124.345 116.984C120.473 121.184 119.287 139.74 121.722 143.439C122.472 144.568 124.595 144.129 125.907 143.502C126.357 143.318 126.731 142.987 126.968 142.562C126.968 142.562 125.47 127.704 129.279 124.758C131.403 123.128 137.273 124.507 139.584 126.011C141.895 127.516 146.454 118.614 146.454 118.614Z" fill="#183A6B"/>
<path d="M157.321 103.506L155.884 108.019L156.072 109.712C156.072 109.712 157.383 106.828 159.132 109.022C160.881 111.217 158.695 112.533 158.695 112.533L159.881 115.667L162.879 112.031C162.942 112.094 164.003 103.13 157.321 103.506Z" fill="#2E4B5B"/>
<path d="M135.774 232.271C135.774 232.271 135.649 238.728 138.522 238.602C141.395 238.477 142.394 235.029 142.02 229.889C141.583 224.685 135.774 232.271 135.774 232.271Z" fill="white"/>
<path d="M136.087 223.306C136.087 223.306 134.213 237.913 138.522 237.599C144.268 237.223 140.708 221.551 140.708 221.551C140.599 222.029 140.374 222.473 140.052 222.843C139.731 223.213 139.323 223.498 138.866 223.671C138.409 223.845 137.916 223.903 137.431 223.839C136.946 223.775 136.484 223.592 136.087 223.306Z" fill="#243956"/>
<path d="M92.1817 102.628L102.736 97.8012L87.4977 94.9175L92.1817 102.628Z" fill="#CECECE"/>
<path d="M89.3713 104.948L63.0158 101.876C61.6772 101.631 60.4255 101.04 59.3848 100.16C58.3441 99.2806 57.5505 98.1432 57.0827 96.8607L51.0871 76.6746C50.3377 74.2297 51.8366 72.4117 54.3347 72.7251L80.6902 75.7969C82.0288 76.0414 83.2805 76.6329 84.3212 77.5126C85.3619 78.3923 86.1555 79.5297 86.6233 80.8121L92.6189 100.998C93.3683 103.506 91.9319 105.261 89.3713 104.948Z" fill="#EAEAEA"/>
<path d="M87.3103 103.443L63.5779 100.685C62.3724 100.476 61.2445 99.9472 60.3111 99.1536C59.3777 98.36 58.6727 97.3302 58.2693 96.171L52.8358 77.9283C52.1488 75.6714 53.4604 74.1042 55.7711 74.3549L79.5035 77.1133C80.709 77.3221 81.8369 77.8507 82.7703 78.6444C83.7037 79.438 84.4087 80.4678 84.8121 81.627L90.2456 99.8697C90.8701 102.127 89.5586 103.756 87.3103 103.443Z" fill="#F7F7F7"/>
<g opacity="0.39">
<path d="M82.2515 58.3691C82.3126 60.2496 82.5637 62.119 83.001 63.9485C83.4233 65.7739 84.0086 67.5573 84.7497 69.2772C85.4618 70.9897 86.3404 72.6276 87.3727 74.167C87.8724 74.9819 88.4345 75.6715 88.9965 76.4238C89.5586 77.1761 90.1832 77.8657 90.8077 78.5553C91.4227 79.1683 92.1544 79.6508 92.9591 79.9739C93.7639 80.2971 94.6252 80.4542 95.4917 80.436C97.319 80.4559 99.1361 80.159 100.863 79.5583C102.636 78.9886 104.368 78.2974 106.046 77.4895C106.91 77.1134 107.745 76.6733 108.545 76.1731C108.982 75.9223 109.356 75.6715 109.731 75.4208C110.146 75.184 110.525 74.8884 110.855 74.5431C110.228 75.2626 109.49 75.8764 108.669 76.3611C107.92 76.9253 107.108 77.4269 106.296 77.9284C104.649 78.9061 102.914 79.7247 101.113 80.3733C99.2994 81.0757 97.3728 81.4369 95.4293 81.439C94.4304 81.4304 93.4394 81.2611 92.4939 80.9375C91.5269 80.5689 90.6527 79.991 89.9333 79.2449C87.3152 76.4233 85.2589 73.125 83.8753 69.5279C83.1946 67.7435 82.6925 65.8955 82.3764 64.0112C82.1469 62.1395 82.1051 60.2493 82.2515 58.3691Z" fill="#22B77E"/>
</g>
<g opacity="0.13">
<path d="M108.357 66.0799C105.297 67.5844 102.112 68.9009 98.6769 69.3397C97.8057 69.4756 96.9175 69.4544 96.0538 69.277C95.8664 69.2143 95.6166 69.1517 95.4293 69.089C95.2419 68.9636 94.9921 68.9009 94.8672 68.7128L94.6174 68.4621L94.43 68.2113L94.0553 67.6471C93.2759 66.0995 92.7889 64.4203 92.6188 62.6946C92.0568 59.3093 91.8069 55.8614 91.2449 52.5388C90.9997 50.8427 90.5596 49.1808 89.9333 47.5863C89.6176 46.8075 89.1743 46.087 88.6218 45.4549C88.0374 44.8217 87.2318 44.4399 86.3735 44.3892C87.2332 44.4573 88.046 44.8101 88.6843 45.3922C89.2746 46.0201 89.7597 46.74 90.1207 47.5237C90.7874 49.1136 91.2694 50.7754 91.5571 52.4761C92.1817 55.8614 92.4315 59.3094 92.9936 62.6319C93.2139 64.2997 93.6769 65.9261 94.3675 67.459C94.5431 67.8316 94.8047 68.1568 95.1305 68.4075C95.4564 68.6583 95.8371 68.8274 96.2412 68.9009C97.0628 69.0691 97.9051 69.1114 98.7393 69.0263C100.426 68.8671 102.084 68.4878 103.673 67.8979C105.269 67.3847 106.833 66.7777 108.357 66.0799Z" fill="#68B587"/>
</g>
<path d="M219.15 172.903C219.15 172.903 227.144 189.203 253 185.817L251.876 175.912C251.876 175.85 235.888 187.134 219.15 172.903Z" fill="#EAF5F9"/>
</g>
<defs>
<clipPath id="clip0_172_2770">
<rect width="253" height="246" fill="white"/>
</clipPath>
</defs>
</svg>
