<svg width="740" height="986" viewBox="0 0 740 986" fill="none" xmlns="http://www.w3.org/2000/svg">
<path d="M453.582 4.97096C453.792 4.97096 453.932 4.83093 453.932 4.62089C454.002 3.22062 454.002 1.75034 454.002 0.350067C454.002 0.140027 453.862 0 453.652 0C453.442 0 453.302 0.140027 453.302 0.350067C453.302 1.75034 453.302 3.22062 453.232 4.62089C453.232 4.83093 453.372 4.97096 453.582 4.97096Z" fill="#1377EC"/>
<path d="M141.425 348.737C138.558 348.177 135.76 347.547 133.032 346.917C132.822 346.847 132.682 346.987 132.612 347.197C132.542 347.407 132.682 347.547 132.892 347.617C135.62 348.247 138.488 348.807 141.285 349.437H141.355C141.495 349.437 141.705 349.297 141.705 349.157C141.775 348.947 141.635 348.807 141.425 348.737Z" fill="#1377EC"/>
<path d="M114.148 103.76C111.35 104.39 108.482 105.09 105.754 105.86C105.545 105.93 105.475 106.07 105.475 106.28C105.545 106.42 105.684 106.56 105.824 106.56H105.894C108.622 105.86 111.42 105.16 114.218 104.46C114.427 104.39 114.567 104.25 114.497 104.04C114.567 103.83 114.357 103.69 114.148 103.76Z" fill="#1377EC"/>
<path d="M124.639 344.957C121.841 344.256 119.044 343.556 116.316 342.786C116.106 342.716 115.966 342.856 115.896 342.996C115.826 343.206 115.966 343.346 116.176 343.416C118.904 344.116 121.701 344.817 124.499 345.587H124.569C124.779 345.587 124.919 345.447 124.919 345.237C124.919 345.167 124.779 345.027 124.639 344.957Z" fill="#1377EC"/>
<path d="M131.074 100.399C128.206 100.889 125.338 101.38 122.61 101.94C122.401 102.01 122.261 102.15 122.331 102.36C122.331 102.5 122.541 102.64 122.68 102.64H122.75C125.548 102.08 128.346 101.59 131.214 101.099C131.423 101.099 131.563 100.889 131.493 100.679C131.493 100.469 131.283 100.329 131.074 100.399Z" fill="#1377EC"/>
<path d="M175.348 354.408C172.48 354.058 169.612 353.638 166.815 353.218C166.605 353.218 166.465 353.358 166.395 353.498C166.395 353.708 166.465 353.848 166.675 353.918C169.473 354.338 172.34 354.759 175.208 355.109H175.278C175.488 355.109 175.628 354.969 175.697 354.759C175.767 354.619 175.628 354.408 175.348 354.408C175.418 354.408 175.418 354.408 175.348 354.408Z" fill="#1377EC"/>
<path d="M158.352 351.888C155.554 351.398 152.756 350.908 149.958 350.418H149.888C149.679 350.348 149.469 350.488 149.469 350.698C149.469 350.908 149.539 351.118 149.749 351.118H149.818C152.546 351.608 155.414 352.098 158.212 352.588H158.282C158.421 352.588 158.631 352.448 158.631 352.308C158.701 352.098 158.561 351.888 158.352 351.888Z" fill="#1377EC"/>
<path d="M148.14 97.949C145.272 98.299 142.404 98.6491 139.537 99.0692C139.327 99.0692 139.187 99.2092 139.187 99.4193C139.187 99.6293 139.327 99.7693 139.537 99.7693H139.607C142.404 99.3492 145.272 98.9992 148.14 98.6491C148.35 98.6491 148.489 98.4391 148.42 98.229C148.559 98.089 148.35 97.949 148.14 97.949Z" fill="#1377EC"/>
<path d="M165.346 96.4087C162.478 96.6187 159.61 96.8288 156.743 97.0388C156.533 97.0388 156.393 97.2489 156.393 97.3889C156.393 97.5989 156.533 97.739 156.743 97.739C159.61 97.4589 162.478 97.2489 165.346 97.1088C165.556 97.1088 165.696 96.8988 165.696 96.7588C165.696 96.5487 165.556 96.4087 165.346 96.4087Z" fill="#1377EC"/>
<path d="M81.2041 113.912C78.4763 114.962 75.8185 116.082 73.2306 117.273C73.0208 117.273 72.8809 117.483 72.9508 117.693C72.9508 117.903 73.1606 118.043 73.3705 117.973C73.3705 117.973 73.3705 117.973 73.4404 117.973C73.5104 117.973 73.5104 117.973 73.5803 117.973C76.1682 116.782 78.826 115.662 81.4839 114.612C81.6937 114.542 81.7637 114.332 81.6937 114.192C81.6238 114.052 81.4139 113.912 81.2041 113.912C81.2041 113.982 81.2041 113.982 81.2041 113.912Z" fill="#1377EC"/>
<path d="M75.7485 328.783C73.0907 327.593 70.4328 326.403 67.9848 325.143C67.8449 325.073 67.5652 325.143 67.4952 325.283C67.4253 325.423 67.4952 325.703 67.6351 325.773C70.1531 327.033 72.741 328.223 75.4687 329.414C75.5387 329.414 75.5387 329.414 75.6086 329.414C75.7485 329.414 75.8884 329.344 75.9584 329.203C76.0283 329.063 75.9584 328.853 75.7485 328.783Z" fill="#1377EC"/>
<path d="M65.4668 121.053C62.8789 122.384 60.3609 123.784 57.9129 125.184C57.773 125.254 57.7031 125.464 57.773 125.674C57.843 125.814 57.9829 125.884 58.1228 125.884C58.1927 125.884 58.2626 125.884 58.3326 125.814C60.7806 124.414 63.3685 123.014 65.8865 121.683C66.0264 121.613 66.0963 121.403 66.0264 121.193C65.8865 121.053 65.6766 120.983 65.4668 121.053Z" fill="#1377EC"/>
<path d="M97.5707 108.241C94.773 109.081 92.0452 109.991 89.3873 110.901C89.1775 110.901 89.0376 111.112 89.1075 111.322C89.1775 111.532 89.3174 111.672 89.5272 111.602C89.5972 111.602 89.5972 111.602 89.6671 111.602C92.3249 110.691 95.1227 109.781 97.8505 108.941C98.0603 108.871 98.2002 108.731 98.1302 108.521C97.9904 108.311 97.7805 108.241 97.5707 108.241Z" fill="#1377EC"/>
<path d="M108.062 340.546C105.265 339.705 102.537 338.865 99.879 337.955C99.6692 337.885 99.4593 338.025 99.4593 338.165C99.3894 338.375 99.4593 338.515 99.6692 338.585C102.327 339.495 105.125 340.336 107.922 341.176H107.992C108.202 341.246 108.342 341.106 108.412 340.896C108.412 340.686 108.272 340.546 108.062 340.546C108.062 340.476 108.062 340.476 108.062 340.546Z" fill="#1377EC"/>
<path d="M60.3612 321.152C57.8432 319.751 55.3252 318.281 52.9472 316.811C52.8073 316.741 52.5975 316.741 52.4576 316.951C52.3876 317.091 52.3876 317.301 52.5275 317.441C54.9056 318.911 57.4235 320.382 59.9415 321.852C60.0114 321.852 60.0814 321.922 60.1513 321.922C60.2912 321.922 60.4311 321.852 60.4311 321.712C60.6409 321.432 60.571 321.222 60.3612 321.152Z" fill="#1377EC"/>
<path d="M91.6955 335.155C88.9678 334.175 86.24 333.124 83.6521 332.074C83.4422 332.004 83.2324 332.074 83.1625 332.284C83.0925 332.494 83.1625 332.634 83.3723 332.774C85.9602 333.824 88.688 334.875 91.4158 335.855C91.6256 335.925 91.8354 335.855 91.9054 335.645C91.9753 335.435 91.9054 335.225 91.6955 335.155Z" fill="#1377EC"/>
<path d="M261.168 360.079C258.301 360.079 255.433 360.009 252.565 359.939C252.355 359.939 252.216 360.079 252.216 360.29C252.216 360.5 252.355 360.64 252.565 360.64C255.433 360.71 258.301 360.71 261.168 360.78C261.378 360.78 261.518 360.64 261.518 360.43C261.518 360.22 261.448 360.079 261.168 360.079C261.238 360.079 261.238 360.079 261.168 360.079Z" fill="#1377EC"/>
<path d="M182.622 95.7085C179.754 95.7785 176.887 95.8485 174.019 95.9886C173.809 95.9886 173.669 96.1286 173.669 96.3386C173.669 96.5487 173.809 96.6887 174.019 96.6887C176.887 96.5487 179.754 96.4786 182.622 96.4086C182.832 96.4086 182.972 96.2686 182.972 96.0586C182.902 95.8485 182.762 95.7085 182.622 95.7085Z" fill="#1377EC"/>
<path d="M268.652 96.9688H260.049C259.839 96.9688 259.699 97.1088 259.699 97.3188C259.699 97.5289 259.839 97.6689 260.049 97.6689H268.722C268.932 97.6689 269.072 97.5289 269.072 97.3188C269.072 97.1088 268.862 96.9688 268.652 96.9688Z" fill="#1377EC"/>
<path d="M243.962 359.729C241.095 359.659 238.227 359.519 235.359 359.449C235.149 359.449 235.01 359.589 235.01 359.799C235.01 360.009 235.149 360.149 235.359 360.149C238.227 360.289 241.095 360.359 243.962 360.429C244.172 360.429 244.312 360.289 244.312 360.079C244.312 359.869 244.172 359.729 243.962 359.729Z" fill="#1377EC"/>
<path d="M278.724 360.499C278.724 360.289 278.584 360.149 278.374 360.149H269.771C269.562 360.149 269.422 360.289 269.422 360.499C269.422 360.71 269.562 360.85 269.771 360.85H278.374C278.584 360.85 278.724 360.71 278.724 360.499Z" fill="#1377EC"/>
<path d="M251.446 96.9687C248.578 96.9687 245.711 96.9687 242.843 96.8987C242.633 96.8987 242.493 97.0387 242.493 97.2487C242.493 97.4588 242.633 97.5988 242.843 97.5988C245.711 97.6688 248.578 97.6688 251.446 97.6688C251.656 97.6688 251.796 97.5288 251.796 97.3188C251.796 97.1087 251.656 96.9687 251.446 96.9687Z" fill="#1377EC"/>
<path d="M199.828 95.8485H199.268C196.611 95.7785 193.883 95.7085 191.225 95.7085C191.015 95.7085 190.875 95.8485 190.875 96.0586C190.875 96.2686 191.015 96.4086 191.225 96.4086C193.883 96.4086 196.611 96.4787 199.268 96.5487H199.828C200.038 96.5487 200.178 96.4086 200.178 96.1986C200.178 95.9886 200.038 95.8485 199.828 95.8485Z" fill="#1377EC"/>
<path d="M192.484 356.438C189.616 356.158 186.749 355.808 183.881 355.528C183.671 355.528 183.531 355.668 183.461 355.808C183.461 356.018 183.531 356.158 183.741 356.228C186.539 356.579 189.476 356.859 192.344 357.139H192.414C192.624 357.139 192.764 356.999 192.764 356.789C192.764 356.579 192.624 356.438 192.484 356.438Z" fill="#1377EC"/>
<path d="M209.62 357.909C206.752 357.699 203.815 357.419 201.017 357.209C200.807 357.209 200.667 357.349 200.597 357.489C200.597 357.699 200.737 357.839 200.877 357.909C203.675 358.189 206.613 358.399 209.48 358.609C209.69 358.609 209.83 358.469 209.83 358.259C209.9 358.119 209.76 357.979 209.62 357.909C209.55 357.909 209.55 357.909 209.62 357.909Z" fill="#1377EC"/>
<path d="M217.034 96.3385L208.431 96.1284C208.221 96.1284 208.081 96.2684 208.081 96.4785C208.081 96.6885 208.221 96.8286 208.431 96.8286L217.034 97.0386C217.244 97.0386 217.384 96.8986 217.384 96.6885C217.384 96.4785 217.244 96.3385 217.034 96.3385Z" fill="#1377EC"/>
<path d="M234.24 96.6886L225.637 96.5486C225.427 96.5486 225.287 96.6886 225.287 96.8987C225.287 97.1087 225.427 97.2487 225.637 97.2487L234.24 97.3887C234.45 97.3887 234.59 97.2487 234.59 97.0387C234.59 96.8986 234.45 96.6886 234.24 96.6886Z" fill="#1377EC"/>
<path d="M226.756 359.029C223.888 358.889 221.021 358.749 218.153 358.539C217.943 358.539 217.803 358.679 217.733 358.889C217.733 359.099 217.873 359.239 218.083 359.309C220.881 359.519 223.818 359.659 226.686 359.799C226.896 359.799 227.036 359.659 227.036 359.449C227.106 359.169 226.966 359.029 226.756 359.029Z" fill="#1377EC"/>
<path d="M363.006 90.8774C365.943 90.3873 368.811 89.7572 371.539 89.1971C371.748 89.1971 371.888 88.9871 371.818 88.777C371.748 88.567 371.609 88.427 371.399 88.497C368.671 89.0571 365.873 89.6172 362.936 90.1773C362.726 90.1773 362.586 90.3873 362.586 90.5274C362.586 90.6674 362.726 90.8774 363.006 90.8774Z" fill="#1377EC"/>
<path d="M379.792 87.2369H379.862C382.73 86.5368 385.527 85.6966 388.185 84.9265C388.395 84.8564 388.465 84.6464 388.465 84.5064C388.465 84.3663 388.185 84.2263 388.045 84.2263C385.387 85.0665 382.59 85.8366 379.792 86.5368C379.582 86.6068 379.512 86.7468 379.512 86.9568C379.512 87.0969 379.652 87.2369 379.792 87.2369Z" fill="#1377EC"/>
<path d="M345.939 93.4679C348.877 93.1178 351.745 92.6978 354.542 92.2777C354.752 92.2777 354.892 92.0676 354.822 91.8576C354.822 91.6475 354.612 91.5075 354.403 91.5775C351.675 91.9976 348.807 92.4177 345.869 92.7678C345.66 92.7678 345.52 92.9078 345.52 93.1178C345.59 93.3279 345.73 93.4679 345.939 93.4679Z" fill="#1377EC"/>
<path d="M50.5691 129.735C48.1211 131.345 45.8129 133.026 43.5048 134.706C43.3649 134.846 43.3649 135.056 43.5048 135.196C43.6447 135.336 43.8545 135.336 43.9944 135.266C46.2326 133.586 48.6107 131.905 50.9888 130.295C51.1286 130.225 51.1986 130.015 51.1286 129.805C50.9887 129.595 50.7789 129.525 50.5691 129.735C50.639 129.665 50.5691 129.665 50.5691 129.735Z" fill="#1377EC"/>
<path d="M338.596 359.029L347.199 358.539C347.408 358.539 347.548 358.399 347.548 358.189C347.548 357.979 347.408 357.839 347.199 357.839C344.331 357.979 341.463 358.119 338.596 358.329C338.386 358.329 338.246 358.469 338.246 358.679C338.246 358.889 338.386 359.029 338.596 359.029Z" fill="#1377EC"/>
<path d="M396.229 82.1258H396.369C399.096 81.0756 401.824 79.9554 404.342 78.9051C404.482 78.8351 404.552 78.6251 404.482 78.4151C404.412 78.275 404.202 78.205 404.062 78.275C401.544 79.3952 398.887 80.4454 396.089 81.4956C395.879 81.5657 395.809 81.7757 395.879 81.9157C395.949 82.0558 396.089 82.1258 396.229 82.1258Z" fill="#1377EC"/>
<path d="M328.873 95.2883C331.811 95.0082 334.679 94.7982 337.476 94.4481C337.686 94.4481 337.826 94.2381 337.826 94.028C337.826 93.818 337.616 93.678 337.406 93.678C334.609 93.958 331.741 94.2381 328.803 94.5181C328.593 94.5181 328.454 94.7282 328.454 94.8682C328.454 95.2183 328.594 95.3583 328.873 95.2883Z" fill="#1377EC"/>
<path d="M294.461 97.2488C297.399 97.1787 300.267 97.0387 303.064 96.9687C303.274 96.9687 303.414 96.8287 303.414 96.6186C303.414 96.4086 303.274 96.2686 303.064 96.2686C300.267 96.4086 297.329 96.4786 294.461 96.5486C294.251 96.5486 294.112 96.7587 294.112 96.8987C294.112 97.1087 294.251 97.2488 294.461 97.2488Z" fill="#1377EC"/>
<path d="M411.896 75.1245C411.966 75.1245 412.036 75.1245 412.036 75.0545C414.624 73.6542 417.142 72.1839 419.45 70.6436C419.66 70.5736 419.73 70.3636 419.59 70.1536C419.52 69.9435 419.31 69.8735 419.1 70.0135C419.1 70.0135 419.03 70.0135 419.03 70.0835C416.722 71.6238 414.204 73.0941 411.686 74.4944C411.476 74.5644 411.476 74.7744 411.546 74.9845C411.686 75.0545 411.826 75.1245 411.896 75.1245Z" fill="#1377EC"/>
<path d="M739.021 450.327C739.021 450.537 739.161 450.677 739.37 450.677C739.58 450.677 739.72 450.467 739.72 450.327C739.58 448.156 739.37 445.916 739.161 443.745L738.951 441.785C738.951 441.575 738.741 441.435 738.531 441.505C738.321 441.505 738.181 441.715 738.251 441.925C738.321 442.555 738.391 443.255 738.461 443.886C738.671 445.916 738.881 448.156 739.021 450.327Z" fill="#1377EC"/>
<path d="M446.658 38.5074C446.728 38.5074 446.728 38.5074 446.798 38.5074C446.938 38.5074 447.078 38.4374 447.148 38.2974C448.267 35.6368 449.246 32.9063 450.085 30.1758C450.155 29.9657 450.015 29.7557 449.805 29.6857C449.596 29.6157 449.386 29.7557 449.316 29.9657C448.477 32.6963 447.497 35.3568 446.448 38.0173C446.308 38.1573 446.378 38.3674 446.658 38.5074C446.588 38.5074 446.588 38.5074 446.658 38.5074Z" fill="#1377EC"/>
<path d="M451.624 22.0543C451.834 22.0543 452.044 21.9143 452.044 21.7742C452.603 19.0437 453.023 16.1731 453.302 13.2326C453.302 13.0225 453.163 12.8825 452.953 12.8125C452.743 12.8125 452.603 12.9525 452.533 13.0926C452.253 15.9631 451.834 18.8337 451.274 21.5642C451.344 21.8442 451.484 22.0543 451.624 22.0543Z" fill="#1377EC"/>
<path d="M438.195 53.3502C438.335 53.3502 438.405 53.2802 438.475 53.2102C440.223 50.8997 441.832 48.5193 443.231 45.9988C443.301 45.8587 443.231 45.5787 443.091 45.5087C442.951 45.4387 442.671 45.4387 442.601 45.6487C441.202 48.0992 439.594 50.5496 437.845 52.7901C437.705 52.9301 437.775 53.2102 437.915 53.2802C438.055 53.3502 438.125 53.4202 438.195 53.3502Z" fill="#1377EC"/>
<path d="M426.304 65.6725C426.374 65.6725 426.444 65.6725 426.514 65.6025C428.752 63.7822 430.851 61.8218 432.879 59.7914C433.019 59.6514 433.019 59.4413 432.879 59.3013C432.739 59.1613 432.529 59.1613 432.389 59.3013C430.431 61.3317 428.263 63.2921 426.094 65.0424C425.955 65.1824 425.955 65.3925 426.024 65.5325C426.094 65.6025 426.164 65.6725 426.304 65.6725Z" fill="#1377EC"/>
<path d="M311.667 96.4785C314.605 96.3385 317.473 96.1284 320.27 95.9184C320.48 95.9184 320.62 95.7784 320.62 95.5683C320.62 95.3583 320.48 95.2183 320.27 95.2183C317.473 95.4283 314.605 95.5683 311.667 95.7784C311.458 95.7784 311.318 95.9184 311.318 96.1284C311.318 96.3385 311.458 96.4785 311.667 96.4785C311.597 96.4785 311.597 96.4785 311.667 96.4785Z" fill="#1377EC"/>
<path d="M15.3174 166.422C15.1775 166.352 14.9677 166.352 14.8278 166.562C13.4289 169.013 12.0301 171.533 10.7711 174.194C10.7011 174.404 10.7711 174.614 10.911 174.684C10.9809 174.684 10.9809 174.684 11.0509 174.754C11.1908 174.754 11.3306 174.684 11.4006 174.544C12.6596 171.953 13.9885 169.433 15.4573 166.982C15.5272 166.702 15.4573 166.492 15.3174 166.422Z" fill="#1377EC"/>
<path d="M24.76 152.419C22.9415 154.66 21.1229 156.9 19.5142 159.281C19.3744 159.421 19.4443 159.631 19.5842 159.771C19.6541 159.841 19.7241 159.841 19.794 159.841C19.9339 159.841 20.0038 159.771 20.0738 159.701C21.6825 157.39 23.501 155.15 25.3195 152.91C25.4594 152.77 25.4594 152.56 25.2496 152.419C25.1097 152.279 24.8999 152.279 24.76 152.419Z" fill="#1377EC"/>
<path d="M16.1569 281.454C16.087 281.314 15.8072 281.244 15.6673 281.314C15.5274 281.384 15.4575 281.664 15.5274 281.804C15.5274 281.804 15.5274 281.804 15.5274 281.874C17.0662 284.255 18.7448 286.635 20.4934 288.946C20.5634 289.016 20.7032 289.086 20.7732 289.086C20.983 289.086 21.1229 288.946 21.1229 288.736C21.1229 288.666 21.1229 288.595 21.053 288.525C19.3044 286.215 17.6257 283.835 16.1569 281.454Z" fill="#1377EC"/>
<path d="M26.5086 295.037C26.3687 294.897 26.1589 294.897 26.019 295.037C25.8791 295.177 25.8791 295.387 26.019 295.527C27.9074 297.627 29.9358 299.658 32.104 301.688C32.174 301.758 32.2439 301.758 32.3139 301.758C32.3838 301.758 32.5237 301.688 32.5936 301.618C32.7335 301.478 32.7335 301.268 32.5936 301.128C30.4254 299.167 28.397 297.137 26.5086 295.037Z" fill="#1377EC"/>
<path d="M39.0283 306.799C38.8884 306.659 38.6785 306.729 38.5387 306.869C38.3988 307.009 38.4687 307.219 38.6086 307.359C40.7768 309.109 43.085 310.86 45.463 312.61C45.533 312.68 45.6029 312.68 45.6729 312.68C45.8128 312.68 45.8827 312.61 45.9526 312.54C46.0925 312.4 46.0226 312.19 45.8827 312.05C43.5046 310.37 41.1965 308.619 39.0283 306.799Z" fill="#1377EC"/>
<path d="M36.8603 140.167C34.692 142.057 32.5937 144.088 30.5654 146.118C30.4255 146.258 30.4255 146.468 30.5654 146.608C30.6353 146.678 30.7052 146.678 30.8451 146.678C30.9151 146.678 31.055 146.608 31.1249 146.538C33.0833 144.508 35.1816 142.547 37.3499 140.657C37.4897 140.517 37.5597 140.307 37.4198 140.167C37.2799 140.027 37.0701 140.027 36.8603 140.167Z" fill="#1377EC"/>
<path d="M8.25314 266.261C8.1832 266.051 8.04332 265.981 7.83349 265.981C7.62366 266.051 7.55371 266.191 7.55371 266.402C7.55371 266.402 7.55371 266.472 7.62365 266.472C8.6728 269.132 9.93178 271.793 11.1908 274.313C11.2607 274.453 11.4006 274.523 11.5405 274.523C11.7503 274.523 11.8902 274.383 11.8902 274.173C11.8902 274.103 11.8902 274.033 11.8203 274.033C10.5613 271.513 9.37224 268.922 8.25314 266.261Z" fill="#1377EC"/>
<path d="M0.559677 232.585C0.349848 232.585 0.209961 232.725 0.209961 232.935C0.419791 235.806 0.699564 238.746 1.04928 241.547C1.04928 241.757 1.25911 241.827 1.399 241.827H1.46894C1.67877 241.827 1.81866 241.617 1.74871 241.407C1.399 238.606 1.11922 235.736 0.909394 232.865C0.909394 232.725 0.769507 232.585 0.559677 232.585Z" fill="#1377EC"/>
<path d="M0.349716 224.673C0.559546 224.673 0.699433 224.533 0.699433 224.323C0.699433 221.943 0.769376 219.492 0.909263 217.042C0.909263 216.622 0.979206 216.201 0.979206 215.711C0.979206 215.501 0.839319 215.361 0.629489 215.361C0.419659 215.361 0.279773 215.501 0.279773 215.711C0.279773 216.131 0.20983 216.552 0.20983 217.042C0.0699434 219.492 0 221.943 0 224.393C0 224.533 0.139887 224.673 0.349716 224.673Z" fill="#1377EC"/>
<path d="M4.89598 190.717H4.96593C5.10581 190.717 5.31564 190.647 5.31564 190.437C6.08502 187.706 6.99428 184.976 8.04343 182.315C8.11337 182.105 8.04343 181.895 7.8336 181.825C7.62377 181.755 7.41394 181.825 7.344 182.035C6.29485 184.696 5.38559 187.426 4.61621 190.227C4.61621 190.437 4.68615 190.647 4.89598 190.717Z" fill="#1377EC"/>
<path d="M277.255 97.5987C280.123 97.5987 282.991 97.5287 285.858 97.4587C286.068 97.4587 286.208 97.3187 286.208 97.1086C286.208 96.8986 286.068 96.7585 285.858 96.7585C282.991 96.8286 280.123 96.8286 277.255 96.8986C277.045 96.8986 276.906 97.0386 276.906 97.2486C276.906 97.4587 277.045 97.5987 277.255 97.5987Z" fill="#1377EC"/>
<path d="M3.28745 249.878C3.21751 249.668 3.07762 249.528 2.86779 249.598C2.65796 249.668 2.51808 249.808 2.58802 250.018C3.21751 252.819 3.91694 255.619 4.75626 258.35C4.8262 258.49 4.96609 258.63 5.10598 258.63C5.17592 258.63 5.17592 258.63 5.24586 258.63C5.45569 258.56 5.52564 258.35 5.45569 258.21C4.61637 255.479 3.847 252.679 3.28745 249.878Z" fill="#1377EC"/>
<path d="M3.00749 198.348C2.79766 198.278 2.65777 198.418 2.58783 198.628C2.02828 201.429 1.53868 204.229 1.18896 207.1C1.18896 207.31 1.32885 207.45 1.46874 207.52H1.53868C1.74851 207.52 1.8884 207.38 1.8884 207.24C2.23811 204.369 2.72772 201.499 3.28726 198.768C3.28726 198.558 3.21732 198.348 3.00749 198.348Z" fill="#1377EC"/>
<path d="M727.13 507.668C726.99 507.598 726.711 507.598 726.641 507.808C725.172 510.258 723.633 512.639 721.885 514.879C721.815 515.019 721.885 515.299 722.025 515.369C722.164 515.439 722.374 515.439 722.444 515.299C724.123 512.989 725.731 510.608 727.2 508.158C727.34 508.018 727.27 507.808 727.13 507.668Z" fill="#1377EC"/>
<path d="M626.202 568.159C623.474 568.859 620.677 569.56 617.879 570.26C617.669 570.33 617.599 570.47 617.599 570.68C617.669 570.82 617.809 570.96 617.949 570.96H618.019C620.886 570.26 623.684 569.56 626.412 568.859C626.622 568.789 626.692 568.649 626.692 568.439C626.622 568.229 626.412 568.089 626.202 568.159C626.272 568.159 626.272 568.159 626.202 568.159Z" fill="#1377EC"/>
<path d="M622.285 348.387C622.495 348.387 622.635 348.247 622.705 348.037C622.705 347.827 622.565 347.687 622.355 347.617C619.558 347.267 616.69 346.987 613.752 346.707C613.543 346.707 613.403 346.847 613.333 347.057C613.333 347.267 613.473 347.407 613.682 347.477C616.62 347.757 619.488 348.037 622.285 348.387Z" fill="#1377EC"/>
<path d="M609.486 572.15C606.758 572.781 603.89 573.341 601.093 573.971C600.883 573.971 600.743 574.181 600.743 574.321C600.743 574.531 600.953 574.671 601.093 574.671H601.163C604.03 574.111 606.898 573.481 609.626 572.851C609.836 572.781 609.905 572.64 609.905 572.43C609.905 572.29 609.696 572.15 609.486 572.15Z" fill="#1377EC"/>
<path d="M639.352 350.908C639.561 350.908 639.701 350.768 639.771 350.628C639.841 350.488 639.631 350.278 639.491 350.208C636.764 349.717 633.896 349.227 630.958 348.807C630.749 348.737 630.609 348.877 630.539 349.087C630.469 349.297 630.609 349.437 630.818 349.507C633.616 349.927 636.484 350.418 639.352 350.908Z" fill="#1377EC"/>
<path d="M605.149 346.777C605.359 346.777 605.499 346.637 605.499 346.427C605.499 346.217 605.359 346.077 605.149 346.077C602.352 345.867 599.414 345.657 596.546 345.517C596.336 345.517 596.197 345.657 596.197 345.867C596.197 346.077 596.336 346.217 596.546 346.217C599.484 346.357 602.352 346.567 605.149 346.777Z" fill="#1377EC"/>
<path d="M656.138 354.618C656.348 354.618 656.488 354.478 656.558 354.338C656.558 354.128 656.418 353.988 656.278 353.918C653.55 353.218 650.752 352.518 647.885 351.888C647.675 351.818 647.535 351.958 647.465 352.168C647.395 352.378 647.535 352.518 647.745 352.588C650.612 353.218 653.41 353.848 656.068 354.548L656.138 354.618Z" fill="#1377EC"/>
<path d="M642.779 563.398C640.121 564.239 637.323 565.079 634.525 565.849C634.316 565.849 634.176 566.059 634.176 566.269C634.176 566.479 634.386 566.619 634.595 566.619H634.665C637.463 565.849 640.261 565.009 642.919 564.169C643.129 564.099 643.198 563.889 643.129 563.678C643.129 563.468 642.989 563.398 642.779 563.398Z" fill="#1377EC"/>
<path d="M570.737 345.517C570.947 345.517 571.087 345.377 571.087 345.166C571.087 344.956 570.947 344.816 570.737 344.816H562.134C561.924 344.816 561.784 344.956 561.784 345.166C561.784 345.377 561.924 345.517 562.134 345.517H570.737Z" fill="#1377EC"/>
<path d="M592.63 575.651C589.902 576.211 587.034 576.701 584.166 577.261C583.957 577.331 583.817 577.471 583.887 577.681C583.887 577.821 584.096 577.961 584.236 577.961H584.306C587.174 577.471 590.042 576.911 592.769 576.351C592.979 576.351 593.119 576.141 593.049 575.931C593.049 575.721 592.839 575.651 592.63 575.651Z" fill="#1377EC"/>
<path d="M659.076 557.797C656.488 558.777 653.76 559.758 650.962 560.738C650.752 560.738 650.613 560.948 650.682 561.158C650.682 561.368 650.892 561.508 651.102 561.438C651.172 561.438 651.172 561.438 651.242 561.438C654.04 560.458 656.768 559.478 659.355 558.497C659.565 558.427 659.635 558.217 659.565 558.007C659.495 557.797 659.216 557.727 659.076 557.797Z" fill="#1377EC"/>
<path d="M553.881 345.236C553.881 345.026 553.741 344.886 553.531 344.886C550.663 344.956 547.796 344.956 544.928 345.096C544.718 345.096 544.578 345.236 544.578 345.446C544.578 345.656 544.718 345.796 544.928 345.796C547.796 345.726 550.663 345.656 553.531 345.586C553.741 345.586 553.881 345.446 553.881 345.236Z" fill="#1377EC"/>
<path d="M558.637 581.462C555.839 581.882 552.972 582.302 550.104 582.722C549.894 582.722 549.754 582.862 549.754 583.072C549.754 583.282 549.894 583.422 550.104 583.422H550.174C553.042 583.002 555.839 582.582 558.707 582.162C558.917 582.162 559.057 581.952 558.987 581.742C559.057 581.532 558.847 581.392 558.637 581.462Z" fill="#1377EC"/>
<path d="M587.943 345.867C588.153 345.867 588.293 345.727 588.293 345.517C588.293 345.307 588.153 345.167 587.943 345.167C585.145 345.097 582.278 344.957 579.34 344.957C579.13 344.957 578.99 345.097 578.99 345.307C578.99 345.517 579.13 345.657 579.34 345.657C582.278 345.657 585.215 345.797 587.943 345.867Z" fill="#1377EC"/>
<path d="M575.633 578.732C572.835 579.222 569.968 579.712 567.17 580.132C566.96 580.132 566.82 580.272 566.82 580.482C566.82 580.692 566.96 580.832 567.17 580.832H567.24C570.108 580.342 572.905 579.852 575.773 579.432C575.983 579.432 576.123 579.222 576.053 579.012C576.053 578.802 575.843 578.662 575.633 578.732Z" fill="#1377EC"/>
<path d="M672.574 359.729C672.714 359.729 672.854 359.659 672.924 359.519C672.994 359.309 672.924 359.099 672.714 359.029C670.057 358.049 667.329 357.139 664.531 356.229C664.321 356.159 664.181 356.299 664.111 356.439C664.041 356.649 664.181 356.789 664.321 356.859C667.119 357.699 669.847 358.679 672.435 359.659C672.505 359.729 672.505 359.729 672.574 359.729Z" fill="#1377EC"/>
<path d="M732.726 417C732.936 417 733.076 416.86 733.076 416.65C733.076 416.58 733.076 416.58 733.076 416.51C732.096 413.78 730.977 411.119 729.788 408.529C729.718 408.319 729.508 408.249 729.299 408.319C729.089 408.389 729.019 408.599 729.159 408.809C730.348 411.329 731.397 413.99 732.376 416.72C732.446 416.93 732.586 417 732.726 417Z" fill="#1377EC"/>
<path d="M734.335 492.195C734.125 492.125 733.915 492.265 733.845 492.405C732.936 495.065 731.817 497.726 730.628 500.246C730.558 500.456 730.628 500.667 730.767 500.737C730.837 500.737 730.907 500.737 730.907 500.737C731.047 500.737 731.187 500.667 731.257 500.526C732.446 497.936 733.565 495.275 734.544 492.615C734.614 492.405 734.544 492.265 734.335 492.195Z" fill="#1377EC"/>
<path d="M725.522 401.457C725.592 401.457 725.662 401.457 725.732 401.387C725.872 401.317 725.942 401.107 725.872 400.897C724.403 398.377 722.864 395.996 721.185 393.686C721.045 393.546 720.836 393.476 720.696 393.616C720.556 393.756 720.486 393.966 720.626 394.106C722.304 396.416 723.843 398.797 725.312 401.247C725.242 401.317 725.382 401.387 725.522 401.457Z" fill="#1377EC"/>
<path d="M716.569 521.53C714.681 523.631 712.722 525.661 710.554 527.621C710.414 527.762 710.414 527.972 710.554 528.112C710.624 528.182 710.694 528.252 710.834 528.252C710.904 528.252 711.043 528.182 711.043 528.182C713.212 526.221 715.17 524.121 717.059 522.02C717.198 521.88 717.129 521.6 716.989 521.53C716.849 521.39 716.709 521.39 716.569 521.53Z" fill="#1377EC"/>
<path d="M737.202 433.593C737.482 433.523 737.622 433.383 737.552 433.173C736.992 430.303 736.363 427.432 735.593 424.772C735.524 424.562 735.314 424.492 735.174 424.492C734.964 424.562 734.894 424.702 734.894 424.912C735.593 427.572 736.293 430.443 736.783 433.243C736.853 433.453 737.062 433.593 737.202 433.593Z" fill="#1377EC"/>
<path d="M739.65 458.588C739.44 458.588 739.301 458.728 739.301 458.938C739.301 461.809 739.231 464.68 739.021 467.48C739.021 467.69 739.161 467.83 739.37 467.83C739.58 467.83 739.72 467.69 739.72 467.48C739.93 464.68 740 461.809 740 458.868C740 458.728 739.86 458.588 739.65 458.588Z" fill="#1377EC"/>
<path d="M738.461 475.602C738.251 475.602 738.111 475.672 738.041 475.882C737.622 478.752 737.062 481.553 736.363 484.213C736.293 484.423 736.433 484.633 736.643 484.633H736.713C736.853 484.633 736.992 484.493 737.062 484.353C737.762 481.553 738.321 478.752 738.741 475.952C738.741 475.812 738.601 475.672 738.461 475.602Z" fill="#1377EC"/>
<path d="M689.991 542.954C687.613 544.355 685.095 545.825 682.507 547.155C682.367 547.225 682.297 547.435 682.367 547.645C682.437 547.785 682.577 547.855 682.717 547.855C682.786 547.855 682.856 547.855 682.856 547.855C685.444 546.455 687.962 545.055 690.34 543.585C690.48 543.515 690.55 543.235 690.48 543.095C690.41 542.884 690.2 542.884 689.991 542.954Z" fill="#1377EC"/>
<path d="M688.242 366.731C688.382 366.731 688.522 366.661 688.592 366.52C688.662 366.38 688.592 366.1 688.452 366.03C686.004 364.7 683.346 363.44 680.688 362.25C680.548 362.18 680.338 362.25 680.199 362.39C680.129 362.6 680.199 362.81 680.408 362.88C683.066 364.07 685.654 365.33 688.102 366.59C688.172 366.731 688.242 366.731 688.242 366.731Z" fill="#1377EC"/>
<path d="M674.883 551.076C672.365 552.266 669.707 553.457 667.049 554.577C666.839 554.577 666.699 554.787 666.769 554.997C666.769 555.207 666.979 555.347 667.189 555.277C667.259 555.277 667.259 555.277 667.329 555.277C669.987 554.157 672.645 552.967 675.163 551.776C675.372 551.706 675.442 551.496 675.303 551.286C675.233 551.146 675.023 551.006 674.883 551.076Z" fill="#1377EC"/>
<path d="M541.571 583.913C538.773 584.333 535.905 584.683 533.038 585.103C532.828 585.103 532.688 585.243 532.688 585.453C532.688 585.663 532.828 585.803 533.038 585.803H533.108C535.975 585.383 538.773 585.033 541.641 584.613C541.851 584.613 541.99 584.403 541.921 584.193C541.99 584.053 541.781 583.913 541.571 583.913Z" fill="#1377EC"/>
<path d="M704.119 533.223C701.951 534.973 699.643 536.723 697.265 538.334C697.125 538.474 697.055 538.684 697.195 538.824C697.265 538.894 697.404 538.964 697.474 538.964C697.544 538.964 697.614 538.964 697.684 538.894C700.062 537.214 702.44 535.533 704.609 533.783C704.749 533.643 704.818 533.433 704.679 533.293C704.539 533.153 704.259 533.083 704.119 533.223Z" fill="#1377EC"/>
<path d="M702.79 375.903C702.93 375.903 703 375.833 703.07 375.763C703.21 375.622 703.14 375.412 703 375.272C700.762 373.592 698.384 371.912 695.936 370.371C695.796 370.301 695.586 370.301 695.446 370.511C695.306 370.652 695.376 370.932 695.586 371.002C698.034 372.542 700.412 374.152 702.65 375.903C702.65 375.903 702.72 375.903 702.79 375.903Z" fill="#1377EC"/>
<path d="M715.17 387.455C715.24 387.525 715.31 387.595 715.45 387.595C715.52 387.595 715.59 387.595 715.66 387.525C715.8 387.385 715.8 387.175 715.66 387.035C713.771 384.864 711.743 382.834 709.575 380.874C709.435 380.734 709.225 380.734 709.085 380.874C708.945 381.014 708.945 381.224 709.085 381.364C711.183 383.254 713.212 385.284 715.17 387.455Z" fill="#1377EC"/>
<path d="M485.057 348.457C485.057 348.247 484.847 348.107 484.707 348.107C481.839 348.317 478.972 348.457 476.104 348.667C475.894 348.667 475.754 348.877 475.754 349.017C475.754 349.227 475.894 349.367 476.104 349.367L484.707 348.807C484.917 348.807 485.057 348.667 485.057 348.457Z" fill="#1377EC"/>
<path d="M364.754 357.209C364.754 356.999 364.614 356.859 364.405 356.859L355.802 357.349C355.592 357.349 355.452 357.489 355.452 357.699C355.452 357.909 355.592 358.049 355.802 358.049L364.405 357.559C364.614 357.559 364.754 357.349 364.754 357.209Z" fill="#1377EC"/>
<path d="M381.96 356.019C381.96 355.808 381.75 355.668 381.541 355.668C378.673 355.878 375.805 356.089 372.938 356.229C372.728 356.229 372.588 356.369 372.588 356.579C372.588 356.789 372.728 356.929 372.938 356.929C375.805 356.719 378.673 356.509 381.541 356.369C381.75 356.439 381.96 356.299 381.96 356.019C381.96 356.089 381.96 356.089 381.96 356.019Z" fill="#1377EC"/>
<path d="M399.166 354.828C399.166 354.618 398.956 354.478 398.817 354.478L390.213 355.108C390.004 355.108 389.864 355.248 389.864 355.458C389.864 355.668 390.004 355.808 390.213 355.808L398.817 355.178C399.026 355.178 399.166 355.038 399.166 354.828Z" fill="#1377EC"/>
<path d="M405.112 603.516C402.244 604.076 399.376 604.637 396.648 605.197C396.439 605.267 396.369 605.407 396.369 605.617C396.369 605.757 396.578 605.897 396.718 605.897H396.788C399.516 605.337 402.384 604.777 405.251 604.217C405.461 604.217 405.601 604.006 405.531 603.796C405.461 603.586 405.321 603.446 405.112 603.516C405.112 603.446 405.112 603.446 405.112 603.516Z" fill="#1377EC"/>
<path d="M536.675 345.657C536.675 345.447 536.465 345.307 536.325 345.307C533.457 345.377 530.59 345.517 527.722 345.657C527.512 345.657 527.372 345.797 527.372 346.007C527.372 346.217 527.512 346.357 527.722 346.357C530.59 346.217 533.457 346.147 536.325 346.007C536.465 346.077 536.675 345.937 536.675 345.657C536.675 345.727 536.675 345.727 536.675 345.657Z" fill="#1377EC"/>
<path d="M388.185 607.017C385.318 607.647 382.45 608.347 379.792 609.047C379.582 609.117 379.512 609.258 379.512 609.468C379.582 609.608 379.722 609.748 379.862 609.748H379.932C382.66 609.047 385.457 608.417 388.325 607.787C388.535 607.717 388.605 607.507 388.605 607.367C388.605 607.087 388.395 607.017 388.185 607.017Z" fill="#1377EC"/>
<path d="M416.372 353.498C416.372 353.288 416.162 353.148 416.023 353.148L407.42 353.778C407.21 353.778 407.07 353.988 407.07 354.128C407.07 354.338 407.21 354.478 407.42 354.478L416.023 353.848C416.232 353.918 416.442 353.708 416.372 353.498Z" fill="#1377EC"/>
<path d="M312.786 359.379C309.919 359.449 307.051 359.589 304.183 359.659C303.974 359.659 303.834 359.799 303.834 360.01C303.834 360.22 303.974 360.36 304.183 360.36C307.051 360.29 309.919 360.15 312.786 360.08C312.996 360.08 313.136 359.94 313.136 359.729C313.136 359.519 312.996 359.379 312.786 359.379Z" fill="#1377EC"/>
<path d="M329.993 358.679C327.125 358.819 324.257 358.959 321.39 359.029C321.18 359.029 321.04 359.169 321.04 359.379C321.04 359.589 321.18 359.729 321.39 359.729C324.257 359.589 327.125 359.519 329.993 359.379C330.202 359.379 330.342 359.169 330.342 359.029C330.342 358.819 330.202 358.679 329.993 358.679Z" fill="#1377EC"/>
<path d="M502.263 347.337C502.263 347.127 502.053 346.987 501.913 346.987C499.045 347.127 496.178 347.337 493.31 347.547C493.1 347.547 492.96 347.757 492.96 347.897C492.96 348.107 493.1 348.247 493.31 348.247C496.178 348.037 499.045 347.897 501.913 347.687C502.123 347.687 502.263 347.547 502.263 347.337Z" fill="#1377EC"/>
<path d="M507.439 588.463L498.836 589.584C498.626 589.584 498.486 589.724 498.486 589.934C498.486 590.144 498.626 590.284 498.836 590.284H498.905L507.508 589.164C507.718 589.164 507.858 588.953 507.788 588.743C507.788 588.603 507.578 588.463 507.439 588.463Z" fill="#1377EC"/>
<path d="M490.302 590.634L481.699 591.754C481.49 591.754 481.35 591.964 481.42 592.174C481.42 592.314 481.559 592.454 481.769 592.454H481.839L490.442 591.334C490.652 591.334 490.792 591.124 490.722 590.914C490.652 590.774 490.512 590.634 490.302 590.634Z" fill="#1377EC"/>
<path d="M422.038 600.366C419.17 600.856 416.372 601.346 413.575 601.836C413.365 601.836 413.225 602.046 413.225 602.186C413.225 602.326 413.435 602.536 413.575 602.536H413.645C416.442 602.046 419.31 601.556 422.108 601.066C422.317 601.066 422.457 600.856 422.387 600.646C422.457 600.506 422.248 600.366 422.038 600.366Z" fill="#1377EC"/>
<path d="M295.93 360.219C295.93 360.009 295.79 359.869 295.58 359.869C292.713 359.939 289.845 360.009 286.977 360.009C286.768 360.009 286.628 360.149 286.628 360.359C286.628 360.569 286.768 360.709 286.977 360.709C289.845 360.709 292.713 360.639 295.58 360.569C295.79 360.569 295.93 360.429 295.93 360.219Z" fill="#1377EC"/>
<path d="M519.469 346.427C519.469 346.217 519.329 346.077 519.119 346.077H519.049C516.181 346.217 513.314 346.357 510.446 346.497C510.236 346.497 510.096 346.707 510.096 346.847C510.096 347.057 510.236 347.197 510.446 347.197L519.049 346.777C519.329 346.777 519.469 346.637 519.469 346.427Z" fill="#1377EC"/>
<path d="M524.575 586.223L515.972 587.343C515.762 587.343 515.622 587.553 515.692 587.763C515.692 587.973 515.832 588.113 516.042 588.043H516.112C518.979 587.693 521.847 587.343 524.715 586.923C524.925 586.923 525.064 586.713 524.994 586.503C524.925 586.363 524.715 586.223 524.575 586.223Z" fill="#1377EC"/>
<path d="M439.034 597.635C436.166 598.055 433.369 598.545 430.501 598.966C430.291 598.966 430.151 599.176 430.151 599.386C430.151 599.596 430.361 599.736 430.571 599.736H430.641C433.438 599.316 436.306 598.826 439.174 598.405C439.384 598.405 439.524 598.195 439.454 597.985C439.454 597.775 439.244 597.635 439.034 597.635Z" fill="#1377EC"/>
<path d="M450.715 350.908C450.715 350.698 450.575 350.558 450.365 350.558L441.762 351.188C441.552 351.188 441.412 351.328 441.412 351.538C441.412 351.748 441.552 351.888 441.762 351.888L450.365 351.258C450.575 351.328 450.715 351.188 450.715 350.908Z" fill="#1377EC"/>
<path d="M473.236 592.874L464.703 593.994C464.493 593.994 464.354 594.204 464.423 594.414C464.423 594.624 464.563 594.764 464.773 594.694H464.843L473.376 593.574C473.586 593.574 473.726 593.364 473.656 593.154C473.586 593.014 473.446 592.874 473.236 592.874Z" fill="#1377EC"/>
<path d="M433.578 352.238C433.578 352.028 433.369 351.888 433.229 351.888L424.626 352.518C424.416 352.518 424.276 352.728 424.276 352.868C424.276 353.078 424.416 353.218 424.626 353.218L433.229 352.588C433.438 352.588 433.578 352.448 433.578 352.238Z" fill="#1377EC"/>
<path d="M456.1 595.185C453.232 595.605 450.365 596.025 447.567 596.375C447.357 596.375 447.217 596.515 447.217 596.725C447.217 596.935 447.357 597.075 447.567 597.075H447.637L456.17 595.885C456.38 595.885 456.52 595.675 456.45 595.465C456.52 595.255 456.31 595.115 456.1 595.185Z" fill="#1377EC"/>
<path d="M467.921 349.647C467.921 349.437 467.711 349.297 467.501 349.297L458.898 349.927C458.688 349.927 458.548 350.068 458.548 350.278C458.548 350.488 458.688 350.628 458.898 350.628L467.501 349.997C467.711 349.997 467.921 349.857 467.921 349.647Z" fill="#1377EC"/>
<path d="M453.792 981.379C453.862 982.78 453.862 984.25 453.862 985.65C453.862 985.86 454.002 986 454.212 986C454.422 986 454.561 985.86 454.561 985.65C454.561 984.25 454.561 982.78 454.491 981.379C454.491 981.169 454.352 981.029 454.142 981.029C454.002 981.029 453.792 981.169 453.792 981.379Z" fill="#1377EC"/>
<path d="M114.777 882.24C114.987 882.31 115.197 882.17 115.197 881.96C115.267 881.75 115.127 881.54 114.917 881.54C112.119 880.91 109.321 880.14 106.594 879.439H106.524C106.384 879.439 106.244 879.579 106.174 879.719C106.104 879.929 106.244 880.14 106.454 880.14C109.182 880.91 111.979 881.61 114.777 882.24Z" fill="#1377EC"/>
<path d="M131.703 885.671C131.913 885.671 132.053 885.601 132.123 885.391C132.123 885.181 132.053 885.04 131.843 884.97C128.975 884.48 126.177 883.92 123.38 883.43H123.31C123.17 883.43 122.96 883.57 122.96 883.71C122.89 883.92 123.03 884.06 123.24 884.13C125.968 884.62 128.835 885.18 131.703 885.671Z" fill="#1377EC"/>
<path d="M148.77 888.051C148.979 888.051 149.119 887.911 149.189 887.701C149.189 887.491 149.049 887.351 148.909 887.281C146.042 886.931 143.174 886.581 140.376 886.161H140.236C140.027 886.161 139.887 886.301 139.887 886.511C139.887 886.721 140.027 886.861 140.236 886.861C143.034 887.351 145.902 887.701 148.77 888.051Z" fill="#1377EC"/>
<path d="M166.325 889.241C166.325 889.031 166.185 888.891 165.975 888.891C163.108 888.681 160.24 888.471 157.372 888.261C157.162 888.261 157.022 888.401 157.022 888.611C157.022 888.821 157.162 888.961 157.372 888.961C160.17 889.241 163.108 889.451 165.975 889.592C166.115 889.592 166.325 889.451 166.325 889.241Z" fill="#1377EC"/>
<path d="M81.8334 872.018C82.0432 872.088 82.253 872.018 82.323 871.808C82.3929 871.598 82.253 871.388 82.1132 871.388C79.4553 870.338 76.7275 869.218 74.2096 868.027C74.1396 868.027 74.1396 868.027 74.0697 868.027C74.0697 868.027 74.0697 868.027 73.9997 868.027C73.7899 868.027 73.65 868.167 73.5801 868.307C73.5801 868.517 73.72 868.657 73.8599 868.727C76.4478 869.918 79.1056 871.038 81.8334 872.018Z" fill="#1377EC"/>
<path d="M66.0963 864.947C66.3061 865.017 66.516 864.947 66.5859 864.807C66.6559 864.597 66.5859 864.387 66.446 864.317C63.9281 862.986 61.3402 861.656 58.8922 860.186C58.8222 860.186 58.7523 860.116 58.6823 860.116C58.5424 860.116 58.4026 860.186 58.3326 860.326C58.2627 860.466 58.3326 860.746 58.4725 860.816" fill="#1377EC"/>
<path d="M98.1305 877.759C98.2004 877.759 98.2004 877.759 98.1305 877.759C98.4102 877.829 98.5501 877.689 98.6201 877.479C98.69 877.269 98.5501 877.129 98.3403 877.059C95.5426 876.219 92.8148 875.309 90.1569 874.398C90.087 874.398 90.087 874.398 90.017 874.398C89.8072 874.398 89.6673 874.538 89.5974 874.679C89.5274 874.819 89.7373 875.029 89.8772 875.099C92.6049 876.009 95.4027 876.919 98.1305 877.759Z" fill="#1377EC"/>
<path d="M183.531 889.942C183.531 889.732 183.391 889.592 183.181 889.592C180.314 889.522 177.446 889.452 174.578 889.312C174.369 889.312 174.229 889.522 174.229 889.662C174.229 889.872 174.439 890.012 174.578 890.012C177.446 890.152 180.314 890.222 183.181 890.292C183.391 890.292 183.461 890.152 183.531 889.942Z" fill="#1377EC"/>
<path d="M269.282 889.031C269.491 889.031 269.701 888.891 269.701 888.681C269.701 888.471 269.561 888.331 269.352 888.331H260.679C260.469 888.331 260.329 888.541 260.329 888.681C260.329 888.891 260.539 889.031 260.679 889.031H269.282Z" fill="#1377EC"/>
<path d="M252.076 889.102C252.285 889.102 252.425 888.891 252.425 888.751C252.425 888.541 252.215 888.401 252.076 888.401C249.278 888.401 246.41 888.471 243.473 888.471C243.263 888.471 243.123 888.611 243.123 888.821C243.123 889.031 243.263 889.171 243.473 889.171C246.34 889.101 249.208 889.102 252.076 889.102Z" fill="#1377EC"/>
<path d="M200.807 889.801C200.807 889.591 200.667 889.451 200.457 889.451H199.898C197.24 889.521 194.582 889.591 191.854 889.591C191.645 889.591 191.505 889.801 191.505 889.941C191.505 890.081 191.714 890.291 191.854 890.291C194.512 890.291 197.24 890.221 199.898 890.151H200.457C200.597 890.151 200.807 890.011 200.807 889.801Z" fill="#1377EC"/>
<path d="M217.663 889.662C217.873 889.662 218.013 889.522 218.013 889.311C218.013 889.101 217.873 888.961 217.663 888.961L209.06 889.171C208.851 889.171 208.711 889.311 208.711 889.521C208.711 889.732 208.921 889.872 209.06 889.872L217.663 889.662Z" fill="#1377EC"/>
<path d="M235.219 888.961C235.219 888.751 235.079 888.611 234.869 888.611L226.266 888.751C226.057 888.751 225.917 888.891 225.917 889.101C225.917 889.311 226.057 889.451 226.266 889.451L234.869 889.311C235.009 889.311 235.219 889.101 235.219 888.961Z" fill="#1377EC"/>
<path d="M363.565 895.123C363.355 895.123 363.146 895.263 363.146 895.473C363.146 895.683 363.285 895.823 363.495 895.823C366.363 896.313 369.231 896.943 371.958 897.503C372.168 897.503 372.378 897.433 372.378 897.223C372.378 897.013 372.308 896.803 372.098 896.803C369.37 896.243 366.503 895.613 363.565 895.123Z" fill="#1377EC"/>
<path d="M380.072 899.043C380.002 899.253 380.142 899.393 380.351 899.463C383.219 900.233 385.947 901.004 388.605 901.774C388.815 901.844 389.024 901.704 389.024 901.494C389.094 901.284 388.954 901.074 388.745 901.074C386.087 900.233 383.289 899.463 380.421 898.763H380.351C380.281 898.763 380.142 898.903 380.072 899.043Z" fill="#1377EC"/>
<path d="M346.569 892.532C346.359 892.532 346.149 892.672 346.149 892.882C346.149 893.092 346.289 893.232 346.499 893.232C349.367 893.582 352.234 894.002 355.032 894.423C355.242 894.423 355.382 894.283 355.452 894.143C355.452 893.933 355.312 893.792 355.172 893.722C352.374 893.302 349.506 892.882 346.569 892.532Z" fill="#1377EC"/>
<path d="M396.508 904.084C396.438 904.294 396.508 904.505 396.718 904.575C399.446 905.625 402.174 906.675 404.692 907.795C404.832 907.865 405.041 907.795 405.111 907.655C405.181 907.515 405.111 907.235 404.972 907.165C402.454 906.045 399.726 904.925 396.998 903.944H396.858C396.718 903.874 396.578 903.944 396.508 904.084Z" fill="#1377EC"/>
<path d="M329.433 890.712C329.223 890.712 329.083 890.852 329.083 891.062C329.083 891.272 329.223 891.412 329.433 891.412C332.37 891.692 335.238 891.972 338.036 892.252C338.246 892.252 338.385 892.112 338.455 891.902C338.525 891.692 338.316 891.552 338.106 891.482C335.238 891.202 332.37 890.922 329.433 890.712Z" fill="#1377EC"/>
<path d="M294.741 889.102C294.741 889.312 294.881 889.452 295.091 889.452C297.958 889.522 300.896 889.662 303.694 889.732C303.904 889.732 304.043 889.522 304.043 889.382C304.043 889.172 303.834 889.032 303.694 889.032C300.896 888.892 298.028 888.821 295.091 888.751C294.881 888.751 294.741 888.962 294.741 889.102Z" fill="#1377EC"/>
<path d="M412.525 910.875C412.385 910.875 412.246 910.946 412.176 911.086C412.106 911.296 412.176 911.506 412.316 911.576C414.903 912.976 417.351 914.446 419.66 915.987L419.729 916.057C419.939 916.127 420.149 916.057 420.219 915.917C420.289 915.706 420.219 915.496 420.079 915.426C417.771 913.886 415.253 912.416 412.665 911.016C412.665 910.876 412.595 910.875 412.525 910.875Z" fill="#1377EC"/>
<path d="M447.217 947.493C447.007 947.633 446.937 947.843 447.007 947.983C448.127 950.573 449.106 953.304 449.875 956.034C449.945 956.244 450.155 956.314 450.365 956.314C450.575 956.314 450.644 956.034 450.644 955.824C449.805 953.094 448.826 950.363 447.707 947.703C447.637 947.563 447.497 947.493 447.357 947.493C447.357 947.493 447.287 947.493 447.217 947.493Z" fill="#1377EC"/>
<path d="M452.253 963.946C452.043 964.016 451.904 964.156 451.974 964.366C452.533 967.097 452.953 969.967 453.232 972.838C453.232 973.048 453.442 973.188 453.652 973.118C453.862 973.118 454.002 972.908 454.002 972.698C453.722 969.757 453.232 966.887 452.743 964.156C452.743 964.016 452.533 963.876 452.393 963.876L452.253 963.946Z" fill="#1377EC"/>
<path d="M438.824 932.58C438.754 932.58 438.684 932.58 438.614 932.65C438.474 932.79 438.404 933 438.544 933.14C440.293 935.45 441.832 937.831 443.3 940.281C443.37 940.421 443.65 940.491 443.79 940.421C443.93 940.351 444 940.141 443.93 939.931C442.461 937.411 440.922 935.03 439.174 932.72C439.034 932.72 438.894 932.65 438.824 932.58Z" fill="#1377EC"/>
<path d="M426.584 920.467C426.444 920.607 426.514 920.817 426.654 920.957C428.892 922.778 430.99 924.668 432.949 926.698C433.089 926.838 433.299 926.838 433.439 926.698C433.578 926.558 433.578 926.348 433.439 926.208C431.41 924.178 429.312 922.218 427.074 920.397C427.004 920.327 426.934 920.327 426.864 920.327C426.794 920.327 426.654 920.397 426.584 920.467Z" fill="#1377EC"/>
<path d="M312.227 889.521C312.017 889.521 311.877 889.732 311.877 889.872C311.877 890.082 312.087 890.222 312.227 890.222C315.094 890.362 318.032 890.572 320.83 890.782C321.04 890.782 321.179 890.642 321.179 890.432C321.179 890.222 321.04 890.082 320.83 890.082C318.102 889.872 315.164 889.662 312.227 889.521Z" fill="#1377EC"/>
<path d="M277.815 888.401C277.605 888.401 277.465 888.611 277.465 888.751C277.465 888.961 277.675 889.102 277.815 889.102C280.682 889.172 283.55 889.172 286.418 889.242C286.627 889.242 286.767 889.032 286.767 888.892C286.767 888.681 286.557 888.541 286.418 888.541C283.62 888.471 280.752 888.401 277.815 888.401Z" fill="#1377EC"/>
<path d="M1.60861 771.619C1.60861 771.409 1.46873 771.269 1.2589 771.269C1.04907 771.269 0.90918 771.479 0.90918 771.619C1.04907 773.789 1.2589 776.029 1.46873 778.2L1.67856 780.16C1.67856 780.37 1.88839 780.51 2.09822 780.44C2.30805 780.44 2.44793 780.23 2.37799 780.02C2.30805 779.39 2.2381 778.69 2.16816 778.06C1.95833 775.959 1.7485 773.789 1.60861 771.619Z" fill="#1377EC"/>
<path d="M13.4989 714.278C13.6388 714.348 13.9185 714.348 13.9885 714.138C15.4573 711.687 16.996 709.307 18.7446 707.066C18.8146 706.926 18.7446 706.646 18.6047 706.576C18.4649 706.506 18.255 706.506 18.1851 706.646C16.5064 708.957 14.8978 711.337 13.4289 713.788C13.2191 713.928 13.2891 714.138 13.4989 714.278Z" fill="#1377EC"/>
<path d="M114.357 653.786C117.085 653.086 119.883 652.386 122.681 651.685C122.89 651.615 122.96 651.475 122.96 651.265C122.89 651.125 122.75 650.985 122.611 650.985H122.541C119.673 651.685 116.875 652.386 114.147 653.086C113.938 653.156 113.868 653.296 113.868 653.506C114.008 653.716 114.147 653.856 114.357 653.786Z" fill="#1377EC"/>
<path d="M131.144 649.795C133.872 649.165 136.739 648.605 139.537 647.975C139.747 647.975 139.887 647.765 139.887 647.625C139.887 647.415 139.677 647.275 139.537 647.275H139.467C136.599 647.835 133.732 648.465 131.004 649.095C130.794 649.165 130.724 649.305 130.724 649.515C130.724 649.655 130.934 649.795 131.144 649.795Z" fill="#1377EC"/>
<path d="M97.7807 658.547C100.439 657.707 103.236 656.866 106.034 656.096C106.244 656.096 106.384 655.886 106.384 655.676C106.384 655.466 106.174 655.326 105.964 655.326H105.894C103.096 656.096 100.299 656.936 97.6408 657.777C97.431 657.847 97.3611 658.057 97.431 658.267C97.431 658.477 97.6408 658.547 97.7807 658.547Z" fill="#1377EC"/>
<path d="M148 646.295C150.728 645.735 153.595 645.245 156.463 644.685C156.673 644.614 156.813 644.474 156.743 644.264C156.743 644.124 156.533 643.984 156.393 643.984H156.323C153.455 644.474 150.588 645.035 147.86 645.595C147.65 645.595 147.51 645.805 147.58 646.015C147.58 646.155 147.79 646.295 148 646.295Z" fill="#1377EC"/>
<path d="M81.5539 664.148C84.1418 663.168 86.8696 662.188 89.6673 661.208C89.8772 661.208 90.0171 660.998 89.9471 660.788C89.9471 660.577 89.7373 660.437 89.5275 660.507C89.4575 660.507 89.4575 660.507 89.3876 660.507C86.5898 661.488 83.862 662.468 81.2741 663.448C81.0643 663.518 80.9944 663.728 81.0643 663.938C81.1343 664.148 81.3441 664.148 81.5539 664.148Z" fill="#1377EC"/>
<path d="M181.992 640.483C184.79 640.063 187.658 639.643 190.525 639.223C190.735 639.223 190.875 639.083 190.875 638.873C190.875 638.663 190.735 638.523 190.525 638.523H190.456C187.588 638.943 184.79 639.363 181.922 639.783C181.713 639.783 181.573 639.993 181.643 640.203C181.573 640.343 181.783 640.483 181.992 640.483C181.922 640.483 181.922 640.483 181.992 640.483Z" fill="#1377EC"/>
<path d="M164.996 643.214C167.794 642.724 170.662 642.234 173.459 641.814C173.669 641.814 173.809 641.674 173.809 641.464C173.809 641.254 173.669 641.114 173.459 641.114H173.389C170.522 641.604 167.724 642.094 164.856 642.514C164.646 642.514 164.507 642.724 164.577 642.934C164.577 643.144 164.786 643.284 164.996 643.214Z" fill="#1377EC"/>
<path d="M7.90343 804.945C7.6936 804.945 7.55371 805.085 7.55371 805.295C7.55371 805.365 7.55371 805.365 7.55371 805.435C8.53292 808.166 9.65201 810.826 10.841 813.417C10.911 813.627 11.1208 813.697 11.3306 813.627C11.5405 813.557 11.6104 813.347 11.4705 813.137C10.2815 810.616 9.23235 807.956 8.25314 805.225C8.1832 805.015 8.04331 804.945 7.90343 804.945Z" fill="#1377EC"/>
<path d="M6.22497 729.751C6.4348 729.821 6.64463 729.681 6.71457 729.541C7.62383 726.88 8.74293 724.22 9.93196 721.699C10.0019 721.489 9.93196 721.279 9.79207 721.209C9.72213 721.209 9.65219 721.209 9.65219 721.209C9.5123 721.209 9.37241 721.279 9.30247 721.419C8.11343 724.009 6.99434 726.67 6.01514 729.331C6.01514 729.471 6.08508 729.681 6.22497 729.751Z" fill="#1377EC"/>
<path d="M15.1076 820.488C15.0377 820.488 14.9677 820.488 14.8978 820.558C14.7579 820.628 14.688 820.838 14.7579 821.048C16.2267 823.569 17.7655 825.949 19.4441 828.26C19.584 828.4 19.7938 828.47 19.9337 828.33C20.0736 828.19 20.1435 827.98 20.0037 827.84C18.325 825.529 16.7863 823.149 15.3175 820.698C15.3874 820.558 15.2475 820.488 15.1076 820.488Z" fill="#1377EC"/>
<path d="M24.0605 700.415C25.949 698.315 27.9074 696.284 30.0756 694.324C30.2155 694.184 30.2155 693.974 30.0756 693.834C30.0057 693.764 29.9357 693.694 29.7958 693.694C29.7259 693.694 29.586 693.764 29.586 693.764C27.4178 695.724 25.4593 697.825 23.5709 699.925C23.431 700.065 23.5009 700.345 23.6408 700.415C23.7807 700.555 23.9206 700.555 24.0605 700.415Z" fill="#1377EC"/>
<path d="M3.42711 788.352C3.14734 788.422 3.00745 788.562 3.07739 788.772C3.63694 791.643 4.26643 794.513 5.03581 797.174C5.10575 797.384 5.31558 797.454 5.45547 797.454C5.6653 797.384 5.73524 797.244 5.73524 797.034C5.03581 794.373 4.33637 791.503 3.84677 788.702C3.70688 788.492 3.567 788.352 3.42711 788.352Z" fill="#1377EC"/>
<path d="M0.909287 763.357C1.11912 763.357 1.259 763.217 1.259 763.007C1.259 760.136 1.32895 757.266 1.53878 754.465C1.53878 754.255 1.39889 754.115 1.18906 754.115C0.97923 754.115 0.839343 754.255 0.839343 754.465C0.629513 757.266 0.55957 760.136 0.55957 763.077C0.629514 763.217 0.7694 763.357 0.909287 763.357Z" fill="#1377EC"/>
<path d="M2.16809 746.344C2.37791 746.344 2.5178 746.274 2.58774 746.064C3.0074 743.193 3.56695 740.393 4.26638 737.732C4.33633 737.522 4.19644 737.312 3.98661 737.312H3.91667C3.77678 737.312 3.63689 737.452 3.56695 737.592C2.86752 740.393 2.30797 743.193 1.88831 745.994C1.81837 746.134 1.95826 746.274 2.16809 746.344Z" fill="#1377EC"/>
<path d="M50.5688 678.991C52.9469 677.591 55.4648 676.12 58.0527 674.79C58.1926 674.72 58.2626 674.51 58.1926 674.3C58.1227 674.16 57.9828 674.09 57.8429 674.09C57.773 674.09 57.703 674.09 57.703 674.09C55.1151 675.49 52.5972 676.89 50.2191 678.361C50.0792 678.431 50.0093 678.711 50.0792 678.851C50.2191 679.061 50.4289 679.061 50.5688 678.991Z" fill="#1377EC"/>
<path d="M65.7468 670.869C68.2648 669.679 70.9226 668.489 73.5805 667.369C73.7903 667.369 73.9302 667.159 73.8603 666.949C73.8603 666.739 73.6504 666.599 73.4406 666.669C73.3706 666.669 73.3707 666.669 73.3007 666.669C70.6429 667.789 67.985 668.979 65.4671 670.169C65.2572 670.239 65.1873 670.449 65.3272 670.659C65.3272 670.799 65.537 670.939 65.7468 670.869Z" fill="#1377EC"/>
<path d="M198.989 637.963C201.786 637.543 204.654 637.193 207.522 636.773C207.732 636.773 207.872 636.633 207.872 636.423C207.872 636.213 207.732 636.073 207.522 636.073H207.452C204.584 636.493 201.786 636.843 198.919 637.263C198.709 637.263 198.569 637.473 198.639 637.683C198.639 637.893 198.779 638.033 198.989 637.963Z" fill="#1377EC"/>
<path d="M36.5103 688.723C38.6785 686.973 40.9867 685.222 43.3647 683.612C43.5046 683.472 43.5746 683.262 43.4347 683.122C43.3647 683.052 43.2249 682.982 43.1549 682.982C43.085 682.982 43.015 682.982 42.9451 683.052C40.567 684.732 38.1889 686.413 36.0207 688.163C35.8808 688.303 35.8109 688.513 35.9508 688.653C36.0906 688.863 36.3704 688.863 36.5103 688.723Z" fill="#1377EC"/>
<path d="M37.8394 846.043C37.6995 846.043 37.6296 846.113 37.5596 846.183C37.4198 846.323 37.4897 846.533 37.6296 846.673C39.8678 848.353 42.2459 850.034 44.6939 851.574C44.8338 851.644 45.0436 851.644 45.1835 851.434C45.3234 851.294 45.2534 851.014 45.0436 850.944C42.5956 849.404 40.2175 847.793 37.9793 846.043C37.9793 846.043 37.9094 846.043 37.8394 846.043Z" fill="#1377EC"/>
<path d="M25.4593 834.491C25.3893 834.421 25.3194 834.351 25.1795 834.351C25.1095 834.351 25.0396 834.351 24.9697 834.421C24.8298 834.561 24.8298 834.771 24.9697 834.911C26.8581 837.082 28.8865 839.112 31.0547 841.072C31.1946 841.212 31.4044 841.212 31.5443 841.072C31.6842 840.932 31.6842 840.722 31.5443 840.582C29.3761 838.692 27.3477 836.661 25.4593 834.491Z" fill="#1377EC"/>
<path d="M335.518 618.429C338.386 617.869 341.253 617.309 343.981 616.749C344.191 616.679 344.261 616.539 344.261 616.329C344.261 616.189 344.051 616.049 343.911 616.049H343.841C341.113 616.609 338.246 617.169 335.378 617.729C335.168 617.729 335.028 617.939 335.098 618.149C335.098 618.359 335.308 618.499 335.518 618.429Z" fill="#1377EC"/>
<path d="M351.605 615.278C354.473 614.858 357.41 614.368 360.138 613.948C360.348 613.948 360.488 613.738 360.418 613.528C360.418 613.388 360.278 613.248 360.068 613.248H359.998C357.13 613.738 354.542 614.158 351.465 614.578C351.255 614.578 351.115 614.788 351.185 614.998C351.255 615.138 351.395 615.278 351.605 615.278Z" fill="#1377EC"/>
<path d="M351.605 615.278C354.473 614.858 357.41 614.368 360.138 613.948C360.348 613.948 360.488 613.738 360.418 613.528C360.418 613.388 360.278 613.248 360.068 613.248H359.998C355.732 613.948 353.214 614.368 351.465 614.578C351.255 614.578 351.115 614.788 351.185 614.998C351.255 615.138 351.395 615.278 351.605 615.278Z" fill="#1377EC"/>
<path d="M366.363 612.478C369.231 611.918 372.098 611.358 374.826 610.798C375.036 610.728 375.176 610.588 375.106 610.378C375.106 610.238 374.966 610.098 374.756 610.098H374.686C371.818 610.658 369.3 611.218 366.223 611.778C366.013 611.848 365.873 611.988 365.943 612.198C365.943 612.408 366.153 612.548 366.363 612.478Z" fill="#1377EC"/>
<path d="M366.363 612.478C369.231 611.918 372.098 611.358 374.826 610.798C375.036 610.728 375.176 610.588 375.106 610.378C375.106 610.238 374.966 610.098 374.756 610.098H374.686C371.818 610.658 369.3 611.218 366.223 611.778C366.013 611.848 365.873 611.988 365.943 612.198C365.943 612.408 366.153 612.548 366.363 612.478Z" fill="#1377EC"/>
<path d="M233.191 633.482L241.794 632.362C242.004 632.362 242.144 632.222 242.144 632.012C242.144 631.802 242.004 631.662 241.794 631.662H241.724L233.121 632.782C232.911 632.782 232.771 632.992 232.841 633.202C232.841 633.342 232.981 633.482 233.191 633.482Z" fill="#1377EC"/>
<path d="M250.327 631.242L258.93 630.122C259.14 630.122 259.28 629.911 259.21 629.701C259.21 629.561 259.07 629.421 258.86 629.421H258.79L250.187 630.542C249.977 630.542 249.837 630.752 249.907 630.962C249.907 631.172 250.117 631.312 250.327 631.242Z" fill="#1377EC"/>
<path d="M318.592 621.51C321.459 621.02 324.257 620.53 327.055 620.039C327.265 620.039 327.405 619.829 327.405 619.689C327.405 619.549 327.195 619.339 327.055 619.339H326.985C324.187 619.829 321.32 620.32 318.522 620.81C318.312 620.81 318.172 621.02 318.242 621.23C318.172 621.44 318.382 621.58 318.592 621.51Z" fill="#1377EC"/>
<path d="M216.055 635.653L224.658 634.532C224.868 634.532 225.008 634.322 224.938 634.112C224.938 633.902 224.798 633.762 224.588 633.832H224.518C221.65 634.182 218.783 634.532 215.915 634.952C215.705 634.952 215.565 635.162 215.635 635.372C215.705 635.583 215.845 635.723 216.055 635.653Z" fill="#1377EC"/>
<path d="M301.526 624.241C304.393 623.82 307.191 623.33 310.059 622.91C310.268 622.91 310.408 622.7 310.408 622.49C310.408 622.28 310.198 622.14 309.989 622.14H309.919C307.121 622.56 304.253 623.05 301.386 623.47C301.176 623.47 301.036 623.68 301.106 623.89C301.176 624.171 301.316 624.311 301.526 624.241Z" fill="#1377EC"/>
<path d="M267.393 629.071L275.926 627.951C276.136 627.951 276.276 627.741 276.206 627.531C276.206 627.321 276.066 627.181 275.856 627.251H275.786L267.253 628.371C267.043 628.371 266.904 628.581 266.974 628.791C267.043 628.931 267.183 629.071 267.393 629.071Z" fill="#1377EC"/>
<path d="M284.459 626.761C287.327 626.341 290.195 625.921 292.993 625.571C293.202 625.571 293.342 625.431 293.342 625.221C293.342 625.011 293.202 624.871 292.993 624.871H292.923L284.39 626.061C284.18 626.061 284.04 626.271 284.11 626.481C284.11 626.691 284.25 626.831 284.459 626.761Z" fill="#1377EC"/>
</svg>
