<?xml version="1.0" encoding="UTF-8"?>
<svg xmlns="http://www.w3.org/2000/svg" width="286" height="40" viewBox="0 0 286 40" fill="none">
  <path fill-rule="evenodd" clip-rule="evenodd" d="M285.904 20.397V21.6856H277.274V6.78348H279.128V19.9759H285.904V20.397ZM263.966 7.05142L269.325 21.1114L269.544 21.6728H267.508L267.405 21.4047L266.413 18.7383L265.294 15.6762L264.609 13.8135L263.167 9.84555L261.492 14.0304L260.835 15.6762L260.205 17.2711L258.556 21.4177L258.453 21.6856H256.507L256.739 21.1114L262.51 7.05142L262.613 6.79625H263.863L263.966 7.06418V7.05142ZM249.615 19.9248L250.015 20.8435L250.194 21.2518L249.769 21.392C249.126 21.6218 248.508 21.7748 247.902 21.877C247.284 21.9789 246.679 22.0299 246.034 22.0299C243.948 22.0299 242.492 21.2645 241.513 19.9887C240.443 18.5852 239.992 16.5566 239.992 14.2345C239.992 11.9124 240.417 9.98589 241.538 8.55694C242.517 7.31935 243.999 6.56659 246.163 6.56659C246.794 6.56659 247.387 6.60487 247.941 6.69417C248.508 6.78348 249.048 6.91106 249.602 7.08969L250.04 7.23005L249.861 7.65108L249.461 8.56969L249.294 8.95246L248.908 8.7866C248.469 8.5952 248.03 8.45487 247.58 8.3528C247.13 8.26349 246.652 8.1997 246.163 8.1997C244.449 8.1997 243.394 8.91418 242.763 9.98589C242.106 11.1087 241.887 12.6524 241.887 14.2218C241.887 16.0462 242.17 17.7559 242.969 18.9169C243.599 19.8228 244.58 20.397 246.022 20.397C246.512 20.397 247.001 20.333 247.49 20.2183C247.993 20.1034 248.52 19.9248 249.062 19.7079L249.448 19.5549L249.602 19.9248H249.615ZM231.672 7.19177V21.6728H229.816V6.77073H231.672V7.19177ZM222.32 7.19177V8.42935H217.978V21.6728H216.122V8.42935H211.782V6.77073H222.32V7.19177ZM204.002 7.19177V16.11C204.002 18.0749 203.602 19.5422 202.752 20.5372C201.875 21.5452 200.561 22.0299 198.732 22.0299C196.722 22.0299 195.332 21.5324 194.43 20.5244C193.541 19.5294 193.167 18.0493 193.167 16.0718V6.78348H195.022V15.8548C195.022 17.6538 195.268 18.8148 195.847 19.491C196.4 20.1546 197.34 20.397 198.732 20.397C199.995 20.397 200.857 20.1161 201.374 19.44C201.927 18.7383 202.159 17.5773 202.159 15.8548V6.78348H204.013V7.20451L204.002 7.19177ZM179.873 7.05142L185.232 21.1114L185.451 21.6728H183.416L183.313 21.4047L182.127 18.2279L181.2 15.6635L180.788 14.5407L179.074 9.84555L177.207 14.528L176.756 15.6635L176.125 17.2583L174.476 21.4047L174.372 21.6728H172.427L172.659 21.0986L178.43 7.03867L178.533 6.78348H179.783L179.886 7.05142H179.873ZM164.685 7.19177V21.6728H162.624L162.508 21.4687L155.758 9.92209V21.6856H154.045V6.78348H156.067L156.183 6.98762L162.882 18.5342V6.78348H164.685V7.20451V7.19177ZM132.7 19.5676C133.241 19.2104 133.55 18.5214 133.55 17.3221C133.55 16.2504 133.176 15.6252 132.571 15.2935C131.927 14.9235 130.986 14.8342 129.943 14.8342H127.753V20.0524H130.188C131.244 20.0524 132.12 19.9632 132.687 19.5804L132.7 19.5676ZM132.184 12.5759C132.635 12.2059 132.919 11.6318 132.919 10.8024C132.919 9.73073 132.661 9.13107 132.171 8.82486C131.63 8.49315 130.767 8.41659 129.608 8.41659H127.766V13.2138H129.917C130.832 13.2138 131.643 13.0224 132.184 12.5759ZM134.619 14.8469C135.16 15.4849 135.469 16.3014 135.469 17.3349C135.469 19.0955 134.877 20.1928 133.911 20.8562C132.983 21.4942 131.721 21.6856 130.329 21.6856H125.911V6.78348H129.595C131.077 6.78348 132.352 6.9366 133.266 7.51073C134.233 8.11037 134.799 9.1183 134.799 10.7897C134.799 11.5935 134.555 12.308 134.117 12.8949C133.859 13.2521 133.537 13.5583 133.163 13.8135C133.743 14.0686 134.22 14.4131 134.606 14.8597L134.619 14.8469ZM108.855 8.41659V6.78348H117.241V8.41659H108.855ZM108.855 14.8087V13.1755H116.778V14.8087H108.855ZM117.448 20.4607V21.6856H108.855V20.0524H117.448V20.4734V20.4607ZM99.5288 6.78348H101.023L100.881 7.30659L97.0168 21.3665L96.9396 21.6728H95.2521L95.1618 21.3665L92.1345 10.8918L89.0686 21.3793L88.9786 21.6856H87.2396L87.1622 21.3793L83.3878 7.31935L83.2461 6.79625H85.1654L85.2428 7.10246L88.2056 18.2279L91.2586 7.67659L91.3488 7.37038H93.0364L93.1264 7.67659L96.1409 18.2535L99.1295 7.08969L99.2067 6.78348H99.5288Z" fill="white"></path>
  <path d="M136.342 32.1107C136.303 31.7911 136.148 31.5429 135.877 31.3662C135.605 31.1895 135.272 31.1012 134.877 31.1012C134.588 31.1012 134.335 31.1474 134.119 31.2399C133.904 31.3326 133.736 31.4597 133.616 31.6217C133.497 31.7836 133.437 31.9676 133.437 32.1739C133.437 32.3464 133.479 32.4945 133.561 32.6187C133.646 32.7406 133.755 32.8427 133.886 32.9246C134.018 33.0046 134.156 33.0708 134.3 33.1235C134.445 33.174 134.577 33.2149 134.698 33.2466L135.361 33.4231C135.531 33.4673 135.72 33.5284 135.928 33.6062C136.138 33.684 136.338 33.7902 136.529 33.9249C136.723 34.0574 136.882 34.2277 137.007 34.4359C137.132 34.6441 137.195 34.8996 137.195 35.2024C137.195 35.5516 137.103 35.8672 136.918 36.149C136.735 36.4308 136.468 36.6548 136.116 36.8209C135.765 36.9872 135.339 37.0703 134.838 37.0703C134.371 37.0703 133.967 36.9955 133.625 36.8462C133.285 36.6969 133.018 36.4887 132.823 36.2216C132.629 35.9545 132.52 35.6441 132.495 35.2909H133.31C133.331 35.5348 133.414 35.7369 133.558 35.8966C133.705 36.0544 133.889 36.1722 134.112 36.25C134.337 36.3257 134.579 36.3636 134.838 36.3636C135.14 36.3636 135.411 36.3151 135.651 36.2183C135.89 36.1196 136.08 35.9829 136.221 35.8083C136.361 35.6316 136.431 35.4255 136.431 35.1899C136.431 34.9753 136.37 34.8007 136.249 34.6661C136.128 34.5315 135.969 34.4222 135.772 34.3382C135.574 34.254 135.361 34.1804 135.131 34.1172L134.329 33.8901C133.819 33.7451 133.416 33.5378 133.119 33.2686C132.822 32.9994 132.673 32.6471 132.673 32.2118C132.673 31.85 132.772 31.5344 132.969 31.2652C133.169 30.9938 133.436 30.7835 133.772 30.6342C134.109 30.4828 134.486 30.4071 134.902 30.4071C135.322 30.4071 135.696 30.4817 136.023 30.6311C136.35 30.7783 136.609 30.9801 136.8 31.2368C136.993 31.4935 137.095 31.7847 137.106 32.1107H136.342ZM138.761 36.9567H137.933L140.328 30.4954H141.143L143.538 36.9567H142.71L140.761 31.5176H140.71L138.761 36.9567ZM139.067 34.4328H142.404V35.1267H139.067V34.4328ZM145.344 30.4954V36.9567H144.554V30.4954H145.344ZM146.927 36.9567V30.4954H147.717V36.2626H150.749V36.9567H146.927ZM155.679 36.9567L153.895 30.4954H154.698L156.061 35.7577H156.125L157.513 30.4954H158.405L159.793 35.7577H159.857L161.22 30.4954H162.023L160.239 36.9567H159.424L157.985 31.8079H157.933L156.494 36.9567H155.679ZM163.797 30.4954V36.9567H163.007V30.4954H163.797ZM165.023 31.1895V30.4954H169.915V31.1895H167.864V36.9567H167.074V31.1895H165.023ZM171.134 36.9567V30.4954H171.924V33.3727H175.401V30.4954H176.191V36.9567H175.401V34.0668H171.924V36.9567H171.134ZM184.575 30.4954H185.364V34.7735C185.364 35.2152 185.259 35.6096 185.049 35.9566C184.841 36.3016 184.547 36.5739 184.167 36.7736C183.787 36.9714 183.341 37.0703 182.829 37.0703C182.318 37.0703 181.872 36.9714 181.492 36.7736C181.112 36.5739 180.817 36.3016 180.607 35.9566C180.399 35.6096 180.294 35.2152 180.294 34.7735V30.4954H181.084V34.7103C181.084 35.0259 181.154 35.3065 181.294 35.5528C181.435 35.7967 181.634 35.9891 181.893 36.1301C182.154 36.2689 182.466 36.3383 182.829 36.3383C183.192 36.3383 183.505 36.2689 183.766 36.1301C184.027 35.9891 184.227 35.7967 184.365 35.5528C184.505 35.3065 184.575 35.0259 184.575 34.7103V30.4954ZM190.508 32.1107C190.47 31.7911 190.315 31.5429 190.043 31.3662C189.772 31.1895 189.438 31.1012 189.043 31.1012C188.755 31.1012 188.502 31.1474 188.285 31.2399C188.071 31.3326 187.903 31.4597 187.782 31.6217C187.664 31.7836 187.604 31.9676 187.604 32.1739C187.604 32.3464 187.645 32.4945 187.728 32.6187C187.813 32.7406 187.922 32.8427 188.053 32.9246C188.185 33.0046 188.323 33.0708 188.467 33.1235C188.611 33.174 188.744 33.2149 188.865 33.2466L189.528 33.4231C189.697 33.4673 189.886 33.5284 190.094 33.6062C190.305 33.684 190.505 33.7902 190.696 33.9249C190.89 34.0574 191.049 34.2277 191.174 34.4359C191.299 34.6441 191.362 34.8996 191.362 35.2024C191.362 35.5516 191.27 35.8672 191.085 36.149C190.902 36.4308 190.635 36.6548 190.282 36.8209C189.932 36.9872 189.506 37.0703 189.005 37.0703C188.538 37.0703 188.134 36.9955 187.792 36.8462C187.452 36.6969 187.185 36.4887 186.989 36.2216C186.796 35.9545 186.687 35.6441 186.661 35.2909H187.477C187.498 35.5348 187.581 35.7369 187.725 35.8966C187.872 36.0544 188.056 36.1722 188.279 36.25C188.504 36.3257 188.746 36.3636 189.005 36.3636C189.307 36.3636 189.577 36.3151 189.817 36.2183C190.057 36.1196 190.247 35.9829 190.387 35.8083C190.527 35.6316 190.598 35.4255 190.598 35.1899C190.598 34.9753 190.537 34.8007 190.416 34.6661C190.295 34.5315 190.136 34.4222 189.938 34.3382C189.741 34.254 189.528 34.1804 189.298 34.1172L188.496 33.8901C187.986 33.7451 187.583 33.5378 187.286 33.2686C186.988 32.9994 186.84 32.6471 186.84 32.2118C186.84 31.85 186.939 31.5344 187.136 31.2652C187.335 30.9938 187.603 30.7835 187.938 30.6342C188.276 30.4828 188.653 30.4071 189.069 30.4071C189.489 30.4071 189.863 30.4817 190.19 30.6311C190.517 30.7783 190.776 30.9801 190.967 31.2368C191.16 31.4935 191.262 31.7847 191.273 32.1107H190.508ZM194.826 31.1895V30.4954H199.718V31.1895H197.668V36.9567H196.876V31.1895H194.826ZM206.168 33.7261C206.168 34.4075 206.045 34.9964 205.795 35.4927C205.548 35.9891 205.206 36.3719 204.774 36.6411C204.341 36.9103 203.846 37.045 203.29 37.045C202.732 37.045 202.239 36.9103 201.804 36.6411C201.372 36.3719 201.031 35.9891 200.783 35.4927C200.535 34.9964 200.411 34.4075 200.411 33.7261C200.411 33.0446 200.535 32.4557 200.783 31.9593C201.031 31.463 201.372 31.0802 201.804 30.8109C202.239 30.5417 202.732 30.4071 203.29 30.4071C203.846 30.4071 204.341 30.5417 204.774 30.8109C205.206 31.0802 205.548 31.463 205.795 31.9593C206.045 32.4557 206.168 33.0446 206.168 33.7261ZM205.403 33.7261C205.403 33.1666 205.31 32.6944 205.121 32.3095C204.934 31.9246 204.68 31.6333 204.358 31.4355C204.041 31.2378 203.684 31.1391 203.29 31.1391C202.894 31.1391 202.538 31.2378 202.216 31.4355C201.898 31.6333 201.645 31.9246 201.456 32.3095C201.268 32.6944 201.175 33.1666 201.175 33.7261C201.175 34.2854 201.268 34.7577 201.456 35.1426C201.645 35.5275 201.898 35.8187 202.216 36.0165C202.538 36.2143 202.894 36.313 203.29 36.313C203.684 36.313 204.041 36.2143 204.358 36.0165C204.68 35.8187 204.934 35.5275 205.121 35.1426C205.31 34.7577 205.403 34.2854 205.403 33.7261ZM214.477 32.5146C214.406 32.3021 214.315 32.1117 214.2 31.9435C214.087 31.7731 213.952 31.6281 213.796 31.5082C213.64 31.3882 213.465 31.2967 213.266 31.2337C213.069 31.1706 212.853 31.1391 212.617 31.1391C212.231 31.1391 211.88 31.2378 211.562 31.4355C211.246 31.6333 210.995 31.9246 210.808 32.3095C210.62 32.6944 210.529 33.1666 210.529 33.7261C210.529 34.2854 210.622 34.7577 210.811 35.1426C211.001 35.5275 211.256 35.8187 211.58 36.0165C211.901 36.2143 212.264 36.313 212.667 36.313C213.042 36.313 213.371 36.2342 213.656 36.0764C213.942 35.9167 214.165 35.6915 214.325 35.4014C214.484 35.109 214.566 34.765 214.566 34.3696L214.808 34.4201H212.847V33.7261H215.331V34.4201C215.331 34.9521 215.215 35.4149 214.987 35.8083C214.759 36.2015 214.445 36.5065 214.044 36.7232C213.644 36.9378 213.186 37.045 212.667 37.045C212.09 37.045 211.583 36.9103 211.145 36.6411C210.71 36.3719 210.371 35.9891 210.127 35.4927C209.885 34.9964 209.765 34.4075 209.765 33.7261C209.765 33.2149 209.833 32.7554 209.971 32.3473C210.112 31.9371 210.308 31.5881 210.564 31.3C210.817 31.0118 211.119 30.7909 211.466 30.6373C211.815 30.4838 212.2 30.4071 212.617 30.4071C212.962 30.4071 213.282 30.4587 213.578 30.5616C213.878 30.6626 214.145 30.8067 214.377 30.9938C214.613 31.1791 214.81 31.4008 214.968 31.6596C215.124 31.9163 215.233 32.2011 215.292 32.5146H214.477ZM216.684 36.9567V30.4954H218.887C219.397 30.4954 219.814 30.5817 220.142 30.7542C220.468 30.9245 220.711 31.159 220.867 31.4578C221.025 31.7563 221.103 32.0961 221.103 32.4767C221.103 32.8574 221.025 33.195 220.867 33.4893C220.711 33.7839 220.47 34.0152 220.144 34.1835C219.82 34.3496 219.405 34.4328 218.9 34.4328H217.116V33.7261H218.875C219.222 33.7261 219.503 33.6755 219.715 33.5745C219.93 33.4737 220.084 33.3306 220.179 33.1456C220.277 32.9584 220.327 32.7353 220.327 32.4767C220.327 32.2179 220.277 31.992 220.179 31.7984C220.082 31.6049 219.926 31.4556 219.711 31.3504C219.497 31.2432 219.214 31.1895 218.861 31.1895H217.473V36.9567H216.684ZM219.752 34.0541L221.359 36.9567H220.44L218.861 34.0541H219.752ZM227.923 33.7261C227.923 34.4075 227.798 34.9964 227.55 35.4927C227.301 35.9891 226.962 36.3719 226.527 36.6411C226.094 36.9103 225.599 37.045 225.043 37.045C224.488 37.045 223.992 36.9103 223.56 36.6411C223.127 36.3719 222.786 35.9891 222.538 35.4927C222.288 34.9964 222.164 34.4075 222.164 33.7261C222.164 33.0446 222.288 32.4557 222.538 31.9593C222.786 31.463 223.127 31.0802 223.56 30.8109C223.992 30.5417 224.488 30.4071 225.043 30.4071C225.599 30.4071 226.094 30.5417 226.527 30.8109C226.962 31.0802 227.301 31.463 227.55 31.9593C227.798 32.4557 227.923 33.0446 227.923 33.7261ZM227.158 33.7261C227.158 33.1666 227.063 32.6944 226.874 32.3095C226.689 31.9246 226.433 31.6333 226.114 31.4355C225.796 31.2378 225.439 31.1391 225.043 31.1391C224.649 31.1391 224.291 31.2378 223.971 31.4355C223.651 31.6333 223.398 31.9246 223.209 32.3095C223.022 32.6944 222.93 33.1666 222.93 33.7261C222.93 34.2854 223.022 34.7577 223.209 35.1426C223.398 35.5275 223.651 35.8187 223.971 36.0165C224.291 36.2143 224.649 36.313 225.043 36.313C225.439 36.313 225.796 36.2143 226.114 36.0165C226.433 35.8187 226.689 35.5275 226.874 35.1426C227.063 34.7577 227.158 34.2854 227.158 33.7261ZM230.436 36.9567L228.652 30.4954H229.455L230.818 35.7577H230.88L232.27 30.4954H233.161L234.549 35.7577H234.614L235.976 30.4954H236.78L234.996 36.9567H234.181L232.74 31.8079H232.689L231.251 36.9567H230.436Z" fill="white"></path>
  <path fill-rule="evenodd" clip-rule="evenodd" d="M19.7606 30.0338L17.0039 24.0246L14.26 30.0338H19.7606Z" fill="white"></path>
  <path fill-rule="evenodd" clip-rule="evenodd" d="M16.2053 23.298H10.6919L13.4486 29.2947L16.2053 23.298Z" fill="white"></path>
  <path fill-rule="evenodd" clip-rule="evenodd" d="M16.2053 22.264L13.4486 16.2547L10.6919 22.264H16.2053Z" fill="white"></path>
  <path fill-rule="evenodd" clip-rule="evenodd" d="M12.637 15.5284H7.12354L9.88025 21.5376L12.637 15.5284Z" fill="white"></path>
  <path fill-rule="evenodd" clip-rule="evenodd" d="M12.637 14.494L9.88025 8.49744L7.12354 14.494H12.637Z" fill="white"></path>
  <path fill-rule="evenodd" clip-rule="evenodd" d="M9.06819 7.771H3.56763L6.32434 13.7675L9.06819 7.771Z" fill="white"></path>
  <path fill-rule="evenodd" clip-rule="evenodd" d="M9.06819 6.7369L6.32434 0.7276L3.56763 6.7369H9.06819Z" fill="white"></path>
  <path fill-rule="evenodd" clip-rule="evenodd" d="M5.51344 0H0L2.75671 5.99654L5.51344 0Z" fill="white"></path>
  <path fill-rule="evenodd" clip-rule="evenodd" d="M55.5854 31.0555L58.3293 37.0647L61.0859 31.0555H55.5854Z" fill="white"></path>
  <path fill-rule="evenodd" clip-rule="evenodd" d="M58.3293 24.0246L55.5854 30.0338H61.0859L58.3293 24.0246Z" fill="white"></path>
  <path fill-rule="evenodd" clip-rule="evenodd" d="M61.8971 29.2947L64.6537 23.298H59.1404L61.8971 29.2947Z" fill="white"></path>
  <path fill-rule="evenodd" clip-rule="evenodd" d="M61.8971 16.2547L59.1404 22.264H64.6537L61.8971 16.2547Z" fill="white"></path>
  <path fill-rule="evenodd" clip-rule="evenodd" d="M65.4524 21.5376L68.2092 15.5284H62.7087L65.4524 21.5376Z" fill="white"></path>
  <path fill-rule="evenodd" clip-rule="evenodd" d="M65.4524 8.49744L62.7087 14.494H68.2092L65.4524 8.49744Z" fill="white"></path>
  <path fill-rule="evenodd" clip-rule="evenodd" d="M69.0206 13.7675L71.7775 7.771H66.2639L69.0206 13.7675Z" fill="white"></path>
  <path fill-rule="evenodd" clip-rule="evenodd" d="M69.0206 0.7276L66.2639 6.7369H71.7775L69.0206 0.7276Z" fill="white"></path>
  <path fill-rule="evenodd" clip-rule="evenodd" d="M72.5887 5.99654L75.3327 0H69.832L72.5887 5.99654Z" fill="white"></path>
  <path fill-rule="evenodd" clip-rule="evenodd" d="M26.9869 24.0246L24.2302 30.0338H29.7309L26.9869 24.0246Z" fill="white"></path>
  <path fill-rule="evenodd" clip-rule="evenodd" d="M33.2997 23.298H27.7861L30.5428 29.2947L33.2997 23.298Z" fill="white"></path>
  <path fill-rule="evenodd" clip-rule="evenodd" d="M30.5428 16.2547L27.7861 22.264H33.2997L30.5428 16.2547Z" fill="white"></path>
  <path fill-rule="evenodd" clip-rule="evenodd" d="M36.8549 15.5284H31.3542L34.1109 21.5376L36.8549 15.5284Z" fill="white"></path>
  <path fill-rule="evenodd" clip-rule="evenodd" d="M34.1109 8.49744L31.3542 14.494H36.8549L34.1109 8.49744Z" fill="white"></path>
  <path fill-rule="evenodd" clip-rule="evenodd" d="M47.5466 23.298H42.0461L44.7899 29.2947L47.5466 23.298Z" fill="white"></path>
  <path fill-rule="evenodd" clip-rule="evenodd" d="M48.3585 24.0246L45.6018 30.0338H51.1152L48.3585 24.0246Z" fill="white"></path>
  <path fill-rule="evenodd" clip-rule="evenodd" d="M43.9911 15.5284H38.4778L41.2345 21.5376L43.9911 15.5284Z" fill="white"></path>
  <path fill-rule="evenodd" clip-rule="evenodd" d="M44.7899 16.2547L42.0461 22.264H47.5466L44.7899 16.2547Z" fill="white"></path>
  <path fill-rule="evenodd" clip-rule="evenodd" d="M43.9911 14.494L41.2345 8.49744L38.4778 14.494H43.9911Z" fill="white"></path>
  <path fill-rule="evenodd" clip-rule="evenodd" d="M40.4233 7.771H34.9226L37.6664 13.7675L40.4233 7.771Z" fill="white"></path>
  <path fill-rule="evenodd" clip-rule="evenodd" d="M40.4233 6.7369L37.6664 0.7276L34.9226 6.7369H40.4233Z" fill="white"></path>
  <path fill-rule="evenodd" clip-rule="evenodd" d="M48.3585 37.0647L51.1152 31.0555H45.6018L48.3585 37.0647Z" fill="white"></path>
  <path fill-rule="evenodd" clip-rule="evenodd" d="M54.6706 37.792L51.9268 31.7956L49.1702 37.792H54.6706Z" fill="white"></path>
  <path fill-rule="evenodd" clip-rule="evenodd" d="M23.4188 31.7956L20.6621 37.792H26.1757L23.4188 31.7956Z" fill="white"></path>
  <path fill-rule="evenodd" clip-rule="evenodd" d="M26.9869 37.0647L29.7309 31.0555H24.2302L26.9869 37.0647Z" fill="white"></path>
  <path fill-rule="evenodd" clip-rule="evenodd" d="M17.0039 37.0647L19.7606 31.0555H14.26L17.0039 37.0647Z" fill="white"></path>
</svg>
