<svg width="224" height="237" viewBox="0 0 224 237" fill="none" xmlns="http://www.w3.org/2000/svg">
<g clip-path="url(#clip0_174_3075)">
<path d="M122.776 92.3514C122.776 92.3514 125.61 80.9065 135.926 74.051C135.926 74.051 136.72 73.5407 136.777 74.2776C137.06 76.2038 129.521 75.9772 125.95 96.0356L122.776 92.3514Z" fill="#6D4C3E"/>
<path d="M139.384 86.9691C140.436 85.6359 141.046 84.0073 141.127 82.3109C141.208 80.6145 140.757 78.9351 139.837 77.5075C136.663 72.182 132.979 73.2017 132.979 73.2017L134.963 77.1119L137.119 77.2822L135.248 77.5659L136.212 79.6054L137.572 79.5484L136.438 80.0586L137.343 81.9849L140.007 81.7583L137.573 82.2685L137.743 82.7218L138.934 82.7787L137.97 83.0624L139.384 86.9691Z" fill="#9AD17C"/>
<path d="M133.716 75.2403C133.716 75.2403 139.044 70.6524 145.789 74.9004C152.534 79.1485 151.117 83.7392 151.117 83.7392L146.185 81.1331L146.015 78.3567L145.618 80.7362L143.011 79.4328L143.124 77.6761L142.444 79.0928L140.01 77.9028L140.407 74.5035L139.67 77.5621L139.103 77.3355V75.8062L138.706 76.9963L133.716 75.2403Z" fill="#8BCB69"/>
<path d="M135.132 75.9774C136.185 74.6442 136.795 73.0156 136.876 71.3192C136.957 69.6228 136.506 67.9434 135.586 66.5158C132.355 61.1903 128.727 62.21 128.727 62.21L130.711 66.1195L132.867 66.2898L130.996 66.5735L131.96 68.613L133.321 68.556L132.187 69.0662L133.091 70.9925L135.756 70.7659L133.321 71.2761L133.491 71.7294L134.682 71.7864L133.718 72.07L135.132 75.9774Z" fill="#9AD17C"/>
<path d="M134.679 75.4672C134.995 73.7997 135.827 72.2735 137.058 71.1044C138.288 69.9352 139.855 69.1822 141.538 68.9516C147.658 67.8748 149.247 71.331 149.247 71.331L145.052 72.4078L143.522 70.8785L144.543 72.4648L142.332 73.0905L141.481 72.0137L141.821 73.2038L139.781 73.7703L138.251 71.6154L139.441 73.7703L138.988 73.9406L138.137 73.0369L138.534 73.9406L134.679 75.4672Z" fill="#9AD17C"/>
<path d="M135.756 75.6938C135.895 74.0032 135.499 72.3114 134.625 70.8576C133.75 69.4038 132.441 68.2615 130.881 67.5919C125.213 64.9288 122.776 67.8185 122.776 67.8185L126.573 69.9735L128.444 68.8967L127.027 70.1431L129.011 71.3332L130.145 70.54L129.519 71.5598L131.332 72.6366L133.373 70.937L131.616 72.6936L132.013 72.9772L133.033 72.3516L132.407 73.0884L135.756 75.6938Z" fill="#9AD17C"/>
<path d="M135.756 75.4659C134.424 73.7493 132.583 72.4967 130.497 71.8864C128.411 71.2761 126.185 71.3392 124.136 72.0666C116.541 74.4482 116.711 79.2634 116.711 79.2634L122.152 78.017L123.003 75.3539L122.776 77.7334L125.61 77.1669L125.95 75.4673L126.234 76.9966L128.898 76.4863L129.409 73.1434L129.295 76.316L129.921 76.2597L130.318 74.7867L130.375 76.0331L135.756 75.4659Z" fill="#8BCB69"/>
<path d="M142.104 44.4189C142.104 44.4189 152.591 33.7672 144.598 18.8097C136.606 3.8523 126.63 6.23248 126.63 6.23248L131.391 17.0538L137.229 17.7907L132.184 18.2439L134.509 23.9663L138.25 24.0233L135.19 25.2134L137.345 30.5389L144.544 30.2553L137.912 31.2751L138.309 32.5215L141.597 32.8051L138.99 33.4307L142.104 44.4189Z" fill="#8BCB69"/>
<path d="M151.741 74.8432C151.741 74.8432 162.227 64.1915 154.235 49.2341C146.242 34.2766 136.266 36.6568 136.266 36.6568L141.027 47.4781L146.866 48.215L141.821 48.6682L144.145 54.3906L147.886 54.447L144.826 55.637L146.982 60.9625L154.18 60.6789L147.548 61.6987L147.946 62.9451L151.233 63.2287L148.626 63.8543L151.741 74.8432Z" fill="#9AD17C"/>
<path d="M140.857 42.9459C140.857 42.9459 143.577 28.215 160.413 26.2318C177.248 24.1922 181.045 33.7672 181.045 33.7672L169.425 36.0903L165.457 31.7276L168.008 36.1467L161.943 37.5064L159.787 34.5033L160.581 37.733L154.969 39.0364L151.058 32.974L154.005 39.0364L152.758 39.4333L150.663 36.8835L151.683 39.3763L140.857 42.9459Z" fill="#9AD17C"/>
<path d="M143.748 43.6819C143.748 43.6819 146.582 29.0081 131.618 20.9652C116.653 12.9711 109.681 20.4529 109.681 20.4529L119.658 26.7982L124.929 24.1351L120.962 27.3078L126.12 30.764L129.238 28.7245L127.367 31.4439L132.072 34.6735L137.91 30.4241L132.979 34.9564L133.999 35.8066L136.89 34.2203L135.076 36.1465L143.748 43.6819Z" fill="#8BCB69"/>
<path d="M106.224 87.0252C106.224 87.0252 115.52 56.3735 144.429 39.2069C144.429 39.2069 146.585 37.9605 146.753 39.9437C147.206 45.2129 126.801 43.4563 114.275 97.5073L106.224 87.0252Z" fill="#6D4C3E"/>
<path d="M143.692 43.0594C143.692 43.0594 133.658 26.7986 112.629 32.1811C91.5993 37.5636 91.543 50.7116 91.543 50.7116L106.451 48.0485L109.115 41.0233L108.151 47.4256L115.974 46.2355L117.164 41.6476L117.731 45.84L124.986 44.8202L126.8 35.7548L126.063 44.31L127.707 44.1967L129.067 40.1739L129.01 43.5731L143.692 43.0594Z" fill="#7DC456"/>
<path d="M138.307 42.2091C138.307 42.2091 153.497 30.5946 171.182 43.0592C188.867 55.5239 184.333 67.8182 184.333 67.8182L171.353 60.0562V52.5208L169.992 58.8661L163.077 55.0136L163.588 50.311L161.547 53.9952L155.142 50.4827L156.672 41.361L154.292 49.6332L152.762 48.9534L152.932 44.7609L151.741 47.9906L138.307 42.2091Z" fill="#7DC456"/>
<path d="M52.4316 135.354V31.0479L59.574 27.0224L60.3112 24.5894L78.62 32.236L81.0005 34.7287V148.158L52.4316 135.354Z" fill="#849998"/>
<path d="M72.4414 56.9972L71.1375 57.3372V56.0338L72.4414 55.6938V56.9972Z" fill="#A0BABA"/>
<path d="M72.4414 59.3771L71.1375 59.7171V58.4137L72.4414 58.0737V59.3771Z" fill="#A0BABA"/>
<path d="M72.4414 61.8128L71.1375 62.0965V60.7931L72.4414 60.4531V61.8128Z" fill="#A0BABA"/>
<path d="M151.003 140.85L152.76 141.076L134.395 145.552L124.306 139.15L151.003 140.85Z" fill="#8DD8AB"/>
<path d="M115.803 104.079V134.958C115.803 134.958 125.155 139.263 135.415 144.816C135.415 144.816 148.962 140.737 151.967 139.773V107.875L132.865 99.1499L115.803 104.079Z" fill="#77C998"/>
<path d="M152.024 107.989V139.886C149.246 140.736 137.57 144.192 135.472 144.815V110.708L148.055 106.345L152.024 107.989Z" fill="#8DD8AB"/>
<path d="M135.472 113.994L141.99 112.181L135.472 113.428V113.994Z" fill="#77C998"/>
<path d="M134.678 112.691L115.803 104.192C115.463 104.021 115.463 103.795 115.86 103.681L131.508 99.1491C131.962 99.0429 132.438 99.0825 132.868 99.2624L151.744 107.761C152.084 107.932 152.084 108.158 151.687 108.271L136.039 112.804C135.583 112.879 135.116 112.84 134.678 112.691Z" fill="#8BCB69"/>
<path opacity="0.68" d="M126.686 106.912L138.022 112.181L139.099 113.767C139.099 113.767 147.829 111.334 152.023 110.878L151.796 108.951C151.796 108.951 152.363 106.288 146.071 104.192C142.222 102.9 138.517 101.21 135.018 99.1499L125.552 101.7L119.487 103.286L126.686 106.912Z" fill="#63AA7F"/>
<path d="M126.686 106.232L140.687 112.748C140.687 112.748 152.987 109.122 154.745 110.425C152.833 107.106 149.734 104.636 146.072 103.513C139.724 101.416 133.206 98.4702 133.206 98.4702L118.864 102.493L125.552 105.609L126.686 106.232Z" fill="#A8D88E"/>
<path d="M135.472 115.127L124.306 110.028L135.472 115.524V115.127Z" fill="#63AA7F"/>
<path d="M120.111 121.359L125.553 123.514L120.111 121.133V121.359Z" fill="#63AA7F"/>
<path d="M121.585 136.827L127.026 138.982L121.585 136.549V136.827Z" fill="#63AA7F"/>
<path opacity="0.68" d="M119.431 127.535L134.395 133.2C133.088 133.523 131.842 134.059 130.709 134.786C130.709 134.786 122.435 128.668 119.431 127.535Z" fill="#63AA7F"/>
<path d="M119.431 127.252L134.395 133.201C133.088 133.333 131.828 133.759 130.709 134.447C127.108 131.81 123.341 129.406 119.431 127.252Z" fill="#93E5B5"/>
<path d="M139.1 108.556C142.387 108.556 145.052 107.515 145.052 106.232C145.052 104.949 142.387 103.909 139.1 103.909C135.813 103.909 133.148 104.949 133.148 106.232C133.148 107.515 135.813 108.556 139.1 108.556Z" fill="#C5E5B4"/>
<path d="M126.459 135.523L135.472 139.603V139.149L126.459 135.523Z" fill="#6AAD82"/>
<path d="M149.813 109.462C151.034 109.462 152.024 109.081 152.024 108.611C152.024 108.142 151.034 107.761 149.813 107.761C148.592 107.761 147.602 108.142 147.602 108.611C147.602 109.081 148.592 109.462 149.813 109.462Z" fill="#77C998"/>
<path d="M105.487 95.2405L119.488 101.756C119.488 101.756 131.788 98.1302 133.545 99.4329C131.634 96.1147 128.535 93.6446 124.873 92.5211C118.525 90.4245 112.007 87.4785 112.007 87.4785L97.6644 91.5013L104.353 94.6176L105.487 95.2405Z" fill="#C5E5B4"/>
<path d="M117.9 92.8608C121.187 92.8608 123.852 93.9036 123.852 95.184C123.852 96.4645 121.187 97.5065 117.9 97.5065C114.613 97.5065 111.948 96.4666 111.948 95.184C111.948 93.9015 114.613 92.8608 117.9 92.8608Z" fill="#D3EBC6"/>
<path d="M128.614 98.4137C129.835 98.4137 130.825 98.0331 130.825 97.5635C130.825 97.094 129.835 96.7134 128.614 96.7134C127.393 96.7134 126.403 97.094 126.403 97.5635C126.403 98.0331 127.393 98.4137 128.614 98.4137Z" fill="#77C998"/>
<path d="M135.472 138.073V137.62L131.561 136.26" fill="#6AAD82"/>
<path d="M135.472 134.447L147.602 131.615L135.472 133.938V134.447Z" fill="#77C998"/>
<path d="M135.472 126.686L147.602 124.136L135.472 126.459V126.686Z" fill="#77C998"/>
<path d="M135.472 141.473L141.99 139.717L135.472 140.963V141.473Z" fill="#77C998"/>
<path d="M135.472 133.201L140.8 132.011L135.472 132.691V133.201Z" fill="#77C998"/>
<path d="M151.966 120.736L145.504 121.983L152.022 120.226L151.966 120.736Z" fill="#77C998"/>
<path opacity="0.68" d="M135.585 119.263L150.776 115.978C150.776 115.978 138.703 119.036 137.91 120.963C137.909 120.907 136.096 119.943 135.585 119.263Z" fill="#63AA7F"/>
<path d="M152.023 119.547L149.529 119.887L152.023 119.15V119.547Z" fill="#77C998"/>
<path d="M135.472 119.15L150.776 115.978C150.776 115.978 138.703 118.697 137.91 120.623C137.906 120.623 135.982 119.83 135.472 119.15Z" fill="#A0EABE"/>
<path opacity="0.68" d="M135.472 136.884L152.024 133.541C151.898 133.681 151.829 133.863 151.829 134.051C151.829 134.239 151.898 134.421 152.024 134.561C152.024 134.561 140.63 135.751 135.472 136.884Z" fill="#63AA7F"/>
<path d="M136.436 144.532L136.776 144.645C136.776 144.645 152.591 140.453 153.044 140.453C153.498 140.453 152.024 139.886 152.024 139.886L136.436 144.532Z" fill="#77C998"/>
<path d="M135.472 136.885L152.024 133.201C152.394 133.467 152.736 133.77 153.044 134.105C153.044 134.105 140.63 135.751 135.472 136.885Z" fill="#A0EABE"/>
<path d="M123.739 144.872L125.723 145.099L105.317 150.085L94.0933 143.002L123.739 144.872Z" fill="#8DD8AB"/>
<path d="M84.7407 104.079V138.356C84.7407 138.356 95.1135 143.115 106.564 149.291C106.564 149.291 121.586 144.759 124.929 143.682V108.271L103.673 98.583L84.7407 104.079Z" fill="#77C998"/>
<path d="M124.872 108.442V143.853C121.812 144.816 108.831 148.612 106.507 149.291V111.388L120.508 106.516L124.872 108.442Z" fill="#8DD8AB"/>
<path d="M106.507 115.071L113.763 113.087L106.507 114.447V115.071Z" fill="#77C998"/>
<path d="M105.657 113.597L84.7414 104.192C84.3443 104.021 84.4013 103.795 84.7977 103.625L102.2 98.5826C102.691 98.4766 103.203 98.516 103.673 98.696L124.589 108.101C124.986 108.272 124.929 108.498 124.533 108.668L107.131 113.71C106.639 113.814 106.128 113.775 105.657 113.597Z" fill="#93E5B5"/>
<path opacity="0.68" d="M96.7583 107.195L109.342 113.087L110.533 114.844C110.533 114.844 120.225 112.125 124.874 111.671L124.647 109.517C124.647 109.517 125.327 106.513 118.242 104.247C113.954 102.821 109.83 100.94 105.942 98.6382L95.455 101.473L88.709 103.23L96.7583 107.195Z" fill="#63AA7F"/>
<path d="M96.7583 106.515L112.289 113.768C112.289 113.768 125.893 109.745 127.877 111.162C125.74 107.494 122.3 104.765 118.241 103.515C111.212 101.189 103.955 97.9033 103.955 97.9033L88.0288 102.379L95.4543 105.836L96.7583 106.515Z" fill="#A8D88E"/>
<path d="M106.507 116.373L94.0933 110.651L106.507 116.768V116.373Z" fill="#63AA7F"/>
<path d="M89.5026 123.229L95.5107 125.609L89.5026 123.002V123.229Z" fill="#63AA7F"/>
<path d="M91.0896 140.396L97.1547 142.775L91.0896 140.112V140.396Z" fill="#63AA7F"/>
<path opacity="0.68" d="M88.709 130.142L105.317 136.431C103.871 136.791 102.492 137.384 101.236 138.187C101.236 138.13 92.0535 131.388 88.709 130.142Z" fill="#63AA7F"/>
<path d="M88.709 129.801L105.317 136.43C103.871 136.567 102.475 137.032 101.236 137.79C101.236 137.79 94.0939 132.578 88.709 129.801Z" fill="#93E5B5"/>
<path d="M110.531 109.008C114.162 109.008 117.106 107.867 117.106 106.458C117.106 105.05 114.162 103.909 110.531 103.909C106.9 103.909 103.956 105.05 103.956 106.458C103.956 107.867 106.9 109.008 110.531 109.008Z" fill="#63AA7F"/>
<path d="M96.5309 138.979L106.507 143.512V143.002L96.5309 138.979Z" fill="#6AAD82"/>
<path d="M122.435 110.029C123.782 110.029 124.873 109.597 124.873 109.065C124.873 108.533 123.782 108.102 122.435 108.102C121.089 108.102 119.998 108.533 119.998 109.065C119.998 109.597 121.089 110.029 122.435 110.029Z" fill="#77C998"/>
<path d="M106.507 141.813V141.303L102.2 139.83" fill="#6AAD82"/>
<path d="M106.507 137.79L119.941 134.674L106.507 137.224V137.79Z" fill="#77C998"/>
<path d="M106.507 129.178L119.941 126.345L106.507 128.895V129.178Z" fill="#77C998"/>
<path d="M106.507 145.609L113.763 143.626L106.507 145.043V145.609Z" fill="#77C998"/>
<path d="M106.507 136.431L112.459 135.071L106.507 135.808V136.431Z" fill="#77C998"/>
<path d="M124.872 122.55L117.674 123.909L124.872 122.04V122.55Z" fill="#77C998"/>
<path opacity="0.68" d="M106.621 120.908L123.512 117.224C123.512 117.224 110.135 120.623 109.228 122.719C108.283 122.233 107.406 121.623 106.621 120.908Z" fill="#63AA7F"/>
<path d="M124.872 121.246L122.152 121.643L124.872 120.792V121.246Z" fill="#77C998"/>
<path d="M106.507 120.792L123.512 117.28C123.512 117.28 110.135 120.283 109.228 122.436C109.285 122.436 107.074 121.529 106.507 120.792Z" fill="#A0EABE"/>
<path opacity="0.68" d="M106.507 140.51L124.872 136.771C124.732 136.926 124.654 137.128 124.654 137.337C124.654 137.546 124.732 137.748 124.872 137.904C124.872 137.904 112.232 139.263 106.507 140.51Z" fill="#63AA7F"/>
<path d="M107.584 149.008L107.98 149.178C107.98 149.178 125.495 144.476 126.062 144.476C126.573 144.476 124.929 143.85 124.929 143.85L107.584 149.008Z" fill="#77C998"/>
<path d="M106.507 140.509L124.872 136.43C125.294 136.719 125.675 137.062 126.006 137.45C126.063 137.45 112.232 139.263 106.507 140.509Z" fill="#A0EABE"/>
<path d="M48.1809 120.623L41.1519 60.6799V34.1073L47.5571 30.4814L48.1809 120.623Z" fill="#A0BABA"/>
<path d="M145.788 189.574L1.1906 124.702C-0.396444 123.965 -0.283084 123.002 1.41732 122.492L72.2154 102.039C74.2296 101.542 76.3483 101.68 78.2805 102.436L222.88 167.31C224.467 168.047 224.354 169.01 222.654 169.52L151.853 189.972C149.839 190.469 147.72 190.33 145.788 189.574Z" fill="#F7F7F7"/>
<path d="M145.676 192.294L1.13433 127.422C-0.452719 126.685 -0.339358 125.723 1.36105 125.212L72.1591 108.385C74.1733 107.888 76.292 108.027 78.2242 108.782L222.824 170.028C224.411 170.765 224.298 171.728 222.597 172.238L151.799 192.691C149.765 193.187 147.628 193.048 145.676 192.294Z" fill="#F7F7F7"/>
<path d="M223.954 168.782V171.161C223.954 171.615 223.501 172.011 222.594 172.238L151.796 192.691C149.782 193.188 147.663 193.05 145.731 192.294L1.1336 127.422C0.396414 127.082 0.0563324 126.742 0 126.345V123.966C0.0570279 124.306 0.39711 124.703 1.1336 125.043L6.40521 127.422L145.732 189.916C147.665 190.669 149.783 190.808 151.797 190.313L217.55 171.276L222.537 169.803C223.501 169.575 223.954 169.178 223.954 168.782Z" fill="#D5E5EF"/>
<mask id="mask0_174_3075" style="mask-type:luminance" maskUnits="userSpaceOnUse" x="12" y="105" width="194" height="77">
<path d="M137.857 181.375L13.8348 125.681C12.4745 125.055 12.5308 124.208 14.0615 123.755L74.8255 106.191C76.5574 105.762 78.3799 105.881 80.0414 106.531L204.12 162.225C205.481 162.85 205.424 163.698 203.893 164.151L143.13 181.715C141.379 182.144 139.538 182.025 137.857 181.375Z" fill="white"/>
</mask>
<g mask="url(#mask0_174_3075)">
<path d="M137.857 181.375L13.8348 125.681C12.4745 125.055 12.5308 124.208 14.0615 123.755L74.8255 106.191C76.5574 105.762 78.3799 105.881 80.0414 106.531L204.12 162.225C205.481 162.85 205.424 163.698 203.893 164.151L143.13 181.715C141.379 182.144 139.538 182.025 137.857 181.375Z" fill="url(#paint0_linear_174_3075)" fill-opacity="0.54"/>
</g>
<path opacity="0.17" d="M179.288 149.121L131.108 163.342C129.996 163.608 128.829 163.529 127.763 163.115L82.9269 143.343L141.367 128.838L179.401 147.932C180.308 148.328 180.251 148.838 179.288 149.121Z" fill="url(#paint1_linear_174_3075)"/>
<path d="M130.541 109.801V144.079C130.541 144.079 140.914 148.838 152.364 155.014C152.364 155.014 167.386 150.481 170.729 149.405V113.994L149.527 104.306L130.541 109.801Z" fill="#8BCB69"/>
<path d="M170.729 114.165V149.575C167.669 150.539 154.687 154.334 152.364 155.014V117.111L166.365 112.238L170.729 114.165Z" fill="#B7DEA1"/>
<path d="M152.364 120.793L159.62 118.81L152.364 120.17V120.793Z" fill="#77C998"/>
<path d="M151.514 119.376L130.598 109.971C130.201 109.801 130.258 109.574 130.655 109.405L148.057 104.362C148.549 104.256 149.061 104.295 149.531 104.475L170.447 113.881C170.844 114.051 170.787 114.277 170.39 114.447L152.988 119.433C152.501 119.556 151.99 119.536 151.514 119.376Z" fill="#7DC456"/>
<path opacity="0.68" d="M152.477 126.631L169.369 122.946C169.369 122.946 155.991 126.346 155.085 128.442C154.111 128.005 153.227 127.391 152.477 126.631Z" fill="#63AA7F"/>
<path d="M152.364 126.515L169.369 123.002C169.369 123.002 155.991 126.005 155.085 128.158C155.085 128.158 152.931 127.252 152.364 126.515Z" fill="#D3EBC6"/>
<path opacity="0.68" d="M147.035 112.463C150.392 113.907 153.508 115.855 156.275 118.241C157.748 119.545 158.259 121.698 159.449 123.171C159.449 123.171 167.894 117.448 172.032 117.053L171.806 114.504C171.806 114.504 172.372 111.841 166.138 109.801C162.321 108.542 158.652 106.87 155.198 104.815L145.845 107.365L139.837 108.895L147.035 112.463Z" fill="#63AA7F"/>
<path d="M147.035 111.839C147.035 111.839 156.955 116.655 159.675 121.414C159.675 121.414 170.899 115.409 172.655 116.655C172.655 116.655 172.372 111.216 166.137 109.176C159.902 107.136 153.44 104.19 153.44 104.19L139.27 108.158L145.902 111.275L147.035 111.839Z" fill="#9AD17C"/>
<path d="M152.363 122.096L139.95 116.374L152.363 122.491V122.096Z" fill="#63AA7F"/>
<path d="M135.359 129.009L141.367 131.332L135.359 128.725V129.009Z" fill="#63AA7F"/>
<path d="M136.946 146.119L143.011 148.498L136.946 145.892V146.119Z" fill="#63AA7F"/>
<path opacity="0.68" d="M134.566 135.864L151.174 142.153C149.727 142.513 148.349 143.107 147.093 143.91C147.093 143.91 137.91 137.111 134.566 135.864Z" fill="#63AA7F"/>
<path d="M134.566 135.524L151.174 142.153C149.728 142.289 148.332 142.754 147.093 143.513C147.093 143.513 139.951 138.3 134.566 135.524Z" fill="#93E5B5"/>
<path d="M157.409 113.201C160.633 113.201 163.247 112.186 163.247 110.935C163.247 109.683 160.633 108.668 157.409 108.668C154.184 108.668 151.57 109.683 151.57 110.935C151.57 112.186 154.184 113.201 157.409 113.201Z" fill="#C5E5B4"/>
<path opacity="0.8" d="M172.711 116.657C170.954 115.184 159.674 121.473 159.674 121.473C159.048 120.17 157.973 119.318 156.783 118.074L171.123 112.749L171.294 112.919C172.433 114.221 172.711 116.657 172.711 116.657Z" fill="#8BCB69"/>
<path d="M142.387 144.702L152.364 149.234V148.724L142.387 144.702Z" fill="#6AAD82"/>
<path d="M169.623 115.884C170.803 115.572 171.624 114.805 171.457 114.169C171.289 113.534 170.196 113.271 169.015 113.583C167.835 113.894 167.013 114.662 167.181 115.297C167.349 115.933 168.442 116.195 169.623 115.884Z" fill="#C5E5B4"/>
<path d="M152.364 147.535V147.025L148.056 145.552" fill="#6AAD82"/>
<path d="M152.364 143.513L165.797 140.396L152.364 142.946V143.513Z" fill="#77C998"/>
<path d="M152.364 134.901L165.797 132.068L152.364 134.618V134.901Z" fill="#77C998"/>
<path d="M152.364 151.331L159.62 149.405L152.364 150.764V151.331Z" fill="#77C998"/>
<path d="M152.364 142.153L158.316 140.793L152.364 141.53V142.153Z" fill="#77C998"/>
<path d="M170.729 128.272L163.53 129.688L170.729 127.762V128.272Z" fill="#77C998"/>
<path d="M170.729 126.969L168.008 127.366L170.729 126.516V126.969Z" fill="#77C998"/>
<path opacity="0.68" d="M152.364 146.232L170.729 142.153V142.379C170.729 142.379 160.583 145.099 157.692 147.025C157.749 146.969 155.651 145.496 152.364 146.232Z" fill="#63AA7F"/>
<path d="M153.44 154.731L153.838 154.901C153.838 154.901 171.353 150.198 171.92 150.198C172.43 150.198 170.786 149.572 170.786 149.572L153.44 154.731Z" fill="#63AA7F"/>
<path d="M152.364 146.232L170.729 142.153C170.729 142.153 157.465 145.892 157.976 146.516C157.976 146.516 158.089 144.986 152.364 146.232Z" fill="#D3EBC6"/>
<path d="M144.995 109.405C146.216 109.405 147.206 109.025 147.206 108.555C147.206 108.086 146.216 107.705 144.995 107.705C143.774 107.705 142.785 108.086 142.785 108.555C142.785 109.025 143.774 109.405 144.995 109.405Z" fill="#C5E5B4"/>
<path d="M148.339 152.52L150.323 152.747L129.918 157.733L118.694 150.594L148.339 152.52Z" fill="#8DD8AB"/>
<path d="M109.285 111.727V151.5C116.787 154.214 124.08 157.471 131.108 161.246C131.108 161.246 146.13 152.464 149.473 151.387V115.976L128.271 106.288L109.285 111.727Z" fill="#8BCB69"/>
<path d="M149.473 116.09V155.75C146.413 156.713 133.431 160.509 131.108 161.189V119.036L145.108 114.164L149.473 116.09Z" fill="#B7DEA1"/>
<path d="M131.108 122.72L138.363 120.736L131.108 122.096V122.72Z" fill="#77C998"/>
<path d="M130.258 121.246L109.342 111.84C108.945 111.67 109.002 111.443 109.399 111.274L126.801 106.231C127.293 106.125 127.805 106.164 128.274 106.344L149.19 115.75C149.588 115.92 149.531 116.147 149.133 116.316L131.732 121.359C131.24 121.463 130.728 121.423 130.258 121.246Z" fill="#7DC456"/>
<path opacity="0.68" d="M121.359 114.843L133.942 120.735L135.133 122.492C135.133 122.492 144.826 119.773 149.473 119.319L149.247 117.164C149.247 117.164 149.927 114.161 142.842 111.895C138.537 110.512 134.409 108.629 130.542 106.286L120.055 109.121L113.309 110.876L121.359 114.843Z" fill="#63AA7F"/>
<path d="M121.359 114.107L136.89 121.359C136.89 121.359 150.494 117.336 152.478 118.753C150.34 115.085 146.9 112.356 142.842 111.106C135.813 108.781 128.555 105.495 128.555 105.495L112.629 109.971L120.055 113.427L121.359 114.107Z" fill="#9AD17C"/>
<path d="M131.107 124.022L118.694 118.3L131.107 124.417V124.022Z" fill="#63AA7F"/>
<path d="M114.103 130.878L120.111 133.257L114.103 130.594V130.878Z" fill="#63AA7F"/>
<path d="M115.69 148.045L121.755 150.424L115.69 147.761V148.045Z" fill="#63AA7F"/>
<path opacity="0.68" d="M113.309 137.79L129.918 144.079C128.471 144.438 127.093 145.032 125.837 145.835C125.836 145.778 116.654 139.036 113.309 137.79Z" fill="#63AA7F"/>
<path d="M113.309 137.45L129.918 144.079C128.472 144.215 127.076 144.68 125.837 145.438C125.837 145.438 118.694 140.226 113.309 137.45Z" fill="#C5E5B4"/>
<path d="M135.132 116.657C138.763 116.657 141.707 115.516 141.707 114.107C141.707 112.699 138.763 111.558 135.132 111.558C131.5 111.558 128.557 112.699 128.557 114.107C128.557 115.516 131.5 116.657 135.132 116.657Z" fill="#C5E5B4"/>
<path d="M121.131 146.628L131.108 151.161V150.651L121.131 146.628Z" fill="#6AAD82"/>
<path d="M147.036 117.677C148.382 117.677 149.474 117.246 149.474 116.713C149.474 116.181 148.382 115.75 147.036 115.75C145.69 115.75 144.598 116.181 144.598 116.713C144.598 117.246 145.69 117.677 147.036 117.677Z" fill="#D3EBC6"/>
<path d="M131.108 149.461V148.894L126.8 147.478" fill="#6AAD82"/>
<path d="M131.108 145.438L144.541 142.266L131.108 144.815V145.438Z" fill="#77C998"/>
<path d="M131.108 136.827L144.541 133.994L131.108 136.544V136.827Z" fill="#77C998"/>
<path d="M131.108 153.257L138.363 151.274L131.108 152.691V153.257Z" fill="#77C998"/>
<path d="M131.108 144.078L137.06 142.719L131.108 143.456V144.078Z" fill="#77C998"/>
<path d="M149.473 130.198L142.274 131.557L149.473 129.688V130.198Z" fill="#77C998"/>
<path opacity="0.68" d="M131.221 128.556L148.113 124.872C148.113 124.872 134.735 128.271 133.828 130.367C132.867 129.909 131.987 129.297 131.221 128.556Z" fill="#63AA7F"/>
<path d="M149.473 128.894L146.752 129.291L149.473 128.44V128.894Z" fill="#77C998"/>
<path d="M131.108 128.441L148.113 124.929C148.113 124.929 134.735 127.932 133.828 130.085C133.828 130.085 131.675 129.178 131.108 128.441Z" fill="#D3EBC6"/>
<path opacity="0.68" d="M131.108 148.158L149.473 144.418C149.332 144.574 149.254 144.776 149.254 144.985C149.254 145.194 149.332 145.396 149.473 145.552C149.473 145.552 136.833 146.911 131.108 148.158Z" fill="#63AA7F"/>
<path d="M132.184 160.566L132.581 160.736C132.581 160.736 150.097 156.033 150.663 156.033C151.23 156.033 149.53 155.408 149.53 155.408L132.184 160.566Z" fill="#77C998"/>
<path d="M131.108 148.158L149.473 144.079C149.894 144.367 150.275 144.71 150.606 145.098C150.606 145.042 136.833 146.911 131.108 148.158Z" fill="#D3EBC6"/>
<path d="M30.382 133.711L30.1553 62.9455L34.0666 60.6793V57.563L37.2406 58.9797V57.2808L45.0632 60.737V59.264L56.3429 64.1933V65.6663L58.7235 66.6861V146.516L30.382 133.711Z" fill="#A0BABA"/>
<path d="M145.902 93.371C145.902 93.371 152.307 94.7877 154.121 98.0736C154.121 98.0736 163.7 88.0455 164.891 80.6255C165.231 78.3572 158.542 94.7877 145.902 93.371Z" fill="#8DD8AB"/>
<path d="M154.121 98.074C154.121 98.074 161.943 90.5386 158.939 82.0968C158.939 82.0968 160.526 79.9418 165.004 80.0572C164.947 80.0579 162.566 93.9949 154.121 98.074Z" fill="#77C998"/>
<path d="M152.421 94.5608C153.266 94.5608 153.952 94.3072 153.952 93.9943C153.952 93.6814 153.266 93.4277 152.421 93.4277C151.576 93.4277 150.89 93.6814 150.89 93.9943C150.89 94.3072 151.576 94.5608 152.421 94.5608Z" fill="#77C998"/>
<path d="M15.0212 62.3794L34.0665 57.5635L35.4838 58.3003L18.139 63.7391L15.0212 62.3794Z" fill="#A0BABA"/>
<path d="M162.081 83.2901C162.772 82.9965 163.193 82.4317 163.022 82.0287C162.851 81.6257 162.151 81.537 161.46 81.8307C160.769 82.1243 160.348 82.689 160.519 83.092C160.69 83.495 161.39 83.5837 162.081 83.2901Z" fill="#63AA7F"/>
<path d="M167.158 97.0535C167.158 97.0535 177.021 96.9965 180.762 108.101C180.762 108.101 180.989 103.059 184.73 102.606C184.674 102.606 177.078 90.6512 167.158 97.0535Z" fill="#8DD8AB"/>
<path d="M41.0948 138.413V34.1081L48.1802 30.1423V27.3652L66.8881 35.1842L69.6658 37.8473V151.219L41.0948 138.413Z" fill="#A0BABA"/>
<path opacity="0.43" d="M60.5372 146.345V66.1187L57.247 64.7055L57.0203 62.7222L43.2487 57.3369L41.1512 57.6205L38.2609 137.224L60.5372 146.345Z" fill="#849998"/>
<path d="M25.9616 65.496L18.139 62.0967L37.2413 57.2808L45.0639 60.737L25.9616 65.496Z" fill="#8CA8A7"/>
<path d="M177.406 99.2589C178.155 98.9408 178.613 98.3327 178.429 97.9008C178.246 97.4688 177.49 97.3765 176.741 97.6946C175.992 98.0126 175.534 98.6207 175.718 99.0527C175.901 99.4846 176.657 99.5769 177.406 99.2589Z" fill="#63AA7F"/>
<path d="M11.053 124.985V67.7611L15.0206 65.495V62.3786L18.1383 63.7383V62.0957L25.9609 65.495V64.0782L37.2406 68.9505V70.4235L39.6212 71.4433V137.846L11.053 124.985Z" fill="#C3DADB"/>
<path d="M39.6212 71.444L58.7235 66.6851V147.025L39.6212 137.846V71.444Z" fill="#DFEAEA"/>
<path d="M69.6637 37.8464L80.9997 34.9004V143.512L69.6637 145.609V37.8464Z" fill="#DFEAEA"/>
<path d="M80.9997 36.6577L69.6637 39.6607V38.301L80.9997 35.355V36.6577Z" fill="#A0BABA"/>
<path d="M80.9997 39.0936L69.6637 42.0396V40.7369L80.9997 37.7339V39.0936Z" fill="#A0BABA"/>
<path d="M80.9997 41.4731L69.6637 44.4761V43.1164L80.9997 40.1704V41.4731Z" fill="#A0BABA"/>
<path d="M80.9997 43.8532L69.6637 46.8562V45.5528L80.9997 42.5498V43.8532Z" fill="#A0BABA"/>
<path d="M80.9997 46.289L69.6637 49.2921V47.9324L80.9997 44.9863V46.289Z" fill="#A0BABA"/>
<path d="M80.9997 48.6686L69.6637 51.6717V50.3683L80.9997 47.3652V48.6686Z" fill="#A0BABA"/>
<path d="M80.9997 51.1048L69.6637 54.1078V52.7481L80.9997 49.7451V51.1048Z" fill="#A0BABA"/>
<path d="M80.9997 53.4843L69.6637 56.4874V55.1277L80.9997 52.1816V53.4843Z" fill="#A0BABA"/>
<path d="M80.9997 55.9207L69.6637 58.8668V57.5641L80.9997 54.561V55.9207Z" fill="#A0BABA"/>
<path d="M80.9997 58.3003L69.6637 61.3033V59.9436L80.9997 56.9976V58.3003Z" fill="#A0BABA"/>
<path d="M80.9997 60.6799L69.6637 63.6829V62.3795L80.9997 59.3765V60.6799Z" fill="#A0BABA"/>
<path d="M80.9997 63.1162L69.6637 66.1192V64.7595L80.9997 61.8135V63.1162Z" fill="#A0BABA"/>
<path d="M80.9997 65.4958L69.6637 68.4988V67.1954L80.9997 64.1924V65.4958Z" fill="#A0BABA"/>
<path d="M80.9997 67.9315L69.6637 70.9345V69.5748L80.9997 66.5718V67.9315Z" fill="#A0BABA"/>
<path d="M80.9997 70.3117L69.6637 73.3147V71.955L80.9997 69.0083V70.3117Z" fill="#A0BABA"/>
<path d="M80.9997 72.7474L69.6637 75.6934V74.3907L80.9997 71.3877V72.7474Z" fill="#A0BABA"/>
<path d="M80.9997 75.1279L69.6637 78.1309V76.7712L80.9997 73.8252V75.1279Z" fill="#A0BABA"/>
<path d="M80.9997 77.5075L69.6637 80.5105V79.2071L80.9997 76.2041V77.5075Z" fill="#A0BABA"/>
<path d="M80.9997 79.9435L69.6637 82.9466V81.5869L80.9997 78.6401V79.9435Z" fill="#A0BABA"/>
<path d="M80.9997 82.3234L69.6637 85.3264V84.0231L80.9997 81.02V82.3234Z" fill="#A0BABA"/>
<path d="M80.9997 84.7591L69.6637 87.7621V86.4024L80.9997 83.3994V84.7591Z" fill="#A0BABA"/>
<path d="M80.9997 87.1391L69.6637 90.1422V88.7824L80.9997 85.8364V87.1391Z" fill="#A0BABA"/>
<path d="M80.9997 89.575L69.6637 92.5211V91.2184L80.9997 88.2153V89.575Z" fill="#A0BABA"/>
<path d="M80.9997 91.955L69.6637 94.9581V93.5984L80.9997 90.6523V91.955Z" fill="#A0BABA"/>
<path d="M80.9997 94.3346L69.6637 97.3377V96.0343L80.9997 93.0312V94.3346Z" fill="#A0BABA"/>
<path d="M80.9997 96.7705L69.6637 99.7735V98.4138L80.9997 95.4678V96.7705Z" fill="#A0BABA"/>
<path d="M80.9997 99.1501L69.6637 102.153V100.85L80.9997 97.8467V99.1501Z" fill="#A0BABA"/>
<path d="M80.9997 101.586L69.6637 104.589V103.23L80.9997 100.227V101.586Z" fill="#A0BABA"/>
<path d="M80.9997 103.966L69.6637 106.969V105.609L80.9997 102.663V103.966Z" fill="#A0BABA"/>
<path d="M80.9997 106.402L69.6637 109.348V108.046L80.9997 105.042V106.402Z" fill="#A0BABA"/>
<path d="M80.9997 108.782L69.6637 111.785V110.425L80.9997 107.479V108.782Z" fill="#A0BABA"/>
<path d="M80.9997 111.161L69.6637 114.164V112.861L80.9997 109.858V111.161Z" fill="#A0BABA"/>
<path d="M80.9997 113.598L69.6637 116.601V115.241L80.9997 112.295V113.598Z" fill="#A0BABA"/>
<path d="M80.9997 115.977L69.6637 118.98V117.677L80.9997 114.674V115.977Z" fill="#A0BABA"/>
<path d="M80.9997 118.413L69.6637 121.416V120.056L80.9997 117.053V118.413Z" fill="#A0BABA"/>
<path d="M80.9997 120.793L69.6637 123.796V122.437L80.9997 119.491V120.793Z" fill="#A0BABA"/>
<path d="M80.9997 123.229L69.6637 126.175V124.872L80.9997 121.869V123.229Z" fill="#A0BABA"/>
<path d="M80.9997 125.609L69.6637 128.612V127.253L80.9997 124.307V125.609Z" fill="#A0BABA"/>
<path d="M80.9997 127.989L69.6637 130.992V129.689L80.9997 126.686V127.989Z" fill="#A0BABA"/>
<path d="M80.9997 130.425L69.6637 133.428V132.069L80.9997 129.123V130.425Z" fill="#A0BABA"/>
<path d="M80.9997 132.805L69.6637 135.808V134.504L80.9997 131.501V132.805Z" fill="#A0BABA"/>
<path d="M80.9997 135.241L69.6637 138.244V136.884L80.9997 133.881V135.241Z" fill="#A0BABA"/>
<path d="M80.9997 137.621L69.6637 140.624V139.264L80.9997 136.318V137.621Z" fill="#A0BABA"/>
<path d="M80.9997 140.056L69.6637 143.003V141.7L80.9997 138.697V140.056Z" fill="#A0BABA"/>
<path d="M80.9997 142.436L69.6637 145.44V144.08L80.9997 141.134V142.436Z" fill="#A0BABA"/>
<path d="M37.2406 70.4245L56.3429 65.6655L58.7234 66.6853L39.6212 71.4443L37.2406 70.4245Z" fill="#A0BABA"/>
<path d="M33.7835 60C29.4758 60 25.9609 61.0198 25.9609 62.3232C25.9609 63.6266 29.4751 64.6463 33.7835 64.6463C38.0919 64.6463 41.6061 63.6266 41.6061 62.3232C41.6624 61.0198 38.1475 60 33.7835 60ZM33.7835 64.1361C30.439 64.1361 27.7184 63.3429 27.7184 62.3232C27.7184 61.3034 30.439 60.5102 33.7835 60.5102C37.128 60.5102 39.8486 61.3034 39.8486 62.3232C39.905 63.3429 37.1843 64.1361 33.7835 64.1361Z" fill="white"/>
<path d="M28.0585 61.4166L35.1438 64.4196H36.6175L28.6253 60.9634L28.0585 61.4166Z" fill="white"/>
<path d="M32.0824 60.3967L39.1678 63.3997H40.6978L32.6485 60.0005L32.0824 60.3967Z" fill="white"/>
<path d="M31.3459 62.4929L35.936 61.6997L36.6162 62.0966L32.4218 63.0003L31.3459 62.4929Z" fill="white"/>
<path d="M37.2406 70.4244V68.9513L56.3429 64.1924V65.6654L37.2406 70.4244Z" fill="#DFEAEA"/>
<path d="M25.9609 64.0791L45.0632 59.2632L56.3429 64.1925L37.2406 68.9514L25.9609 64.0791Z" fill="#A0BABA"/>
<path d="M35.3705 63.0024L42.6262 61.1895L46.8776 63.0594L39.6782 64.8737L35.3705 63.0024Z" fill="#8CA8A7"/>
<path d="M35.3705 63.0024V64.1925L39.6218 66.0625V64.8724L35.3705 63.0024Z" fill="#C3DADB"/>
<path d="M39.6212 66.0626V64.8725L46.877 63.0596V64.1363L39.6212 66.0626Z" fill="#DFEAEA"/>
<path d="M25.9616 64.0791V131.954L24.771 131.161V64.9828L25.9616 64.0791Z" fill="#DFEAEA"/>
<path d="M15.0206 65.8359V126.742L11.053 125.043V68.1021L15.0206 65.8359Z" fill="#BDD1D1"/>
<path d="M39.6212 71.444L58.7235 66.6851V147.025L39.6212 137.846V71.444Z" fill="#DFEAEA"/>
<path d="M42.3988 73.9377L41.0948 74.2776V72.9179L42.3988 72.6343V73.9377Z" fill="#A0BABA"/>
<path d="M42.3988 76.3171L41.0948 76.657V75.2973L42.3988 75.0137V76.3171Z" fill="#A0BABA"/>
<path d="M42.3988 78.6965L41.0948 79.0364V77.6767L42.3988 77.3931V78.6965Z" fill="#A0BABA"/>
<path d="M42.3988 81.0768L41.0948 81.4168V80.1134L42.3988 79.7734V81.0768Z" fill="#A0BABA"/>
<path d="M42.3988 83.4562L41.0948 83.7962V82.4928L42.3988 82.1528V83.4562Z" fill="#A0BABA"/>
<path d="M42.3988 85.8919L41.0948 86.1756V84.8722L42.3988 84.5322V85.8919Z" fill="#A0BABA"/>
<path d="M42.3988 88.2718L41.0948 88.6117V87.252L42.3988 86.9121V88.2718Z" fill="#A0BABA"/>
<path d="M42.3988 90.652L41.0948 90.992V89.6323L42.3988 89.3486V90.652Z" fill="#A0BABA"/>
<path d="M42.3988 93.0314L41.0948 93.3713V92.0116L42.3988 91.728V93.0314Z" fill="#A0BABA"/>
<path d="M42.3988 95.4108L41.0948 95.7507V94.391L42.3988 94.1074V95.4108Z" fill="#A0BABA"/>
<path d="M42.3988 97.7902L41.0948 98.1301V96.8267L42.3988 96.4868V97.7902Z" fill="#A0BABA"/>
<path d="M42.3988 100.171L41.0948 100.511V99.2071L42.3988 98.8672V100.171Z" fill="#A0BABA"/>
<path d="M42.3988 102.606L41.0948 102.89V101.587L42.3988 101.247V102.606Z" fill="#A0BABA"/>
<path d="M42.3988 104.986L41.0948 105.326V103.966L42.3988 103.626V104.986Z" fill="#A0BABA"/>
<path d="M42.3988 107.366L41.0948 107.706V106.346L42.3988 106.062V107.366Z" fill="#A0BABA"/>
<path d="M42.3988 109.745L41.0948 110.085V108.726L42.3988 108.442V109.745Z" fill="#A0BABA"/>
<path d="M42.3988 112.125L41.0948 112.465V111.105L42.3988 110.821V112.125Z" fill="#A0BABA"/>
<path d="M42.3988 114.504L41.0948 114.844V113.541L42.3988 113.201V114.504Z" fill="#A0BABA"/>
<path d="M42.3988 116.884L41.0948 117.224V115.92L42.3988 115.581V116.884Z" fill="#A0BABA"/>
<path d="M42.3988 119.32L41.0948 119.603V118.3L42.3988 117.96V119.32Z" fill="#A0BABA"/>
<path d="M42.3988 121.7L41.0948 122.039V120.68L42.3988 120.34V121.7Z" fill="#A0BABA"/>
<path d="M42.3988 124.079L41.0948 124.419V123.06L42.3988 122.776V124.079Z" fill="#A0BABA"/>
<path d="M42.3988 126.459L41.0948 126.799V125.439L42.3988 125.156V126.459Z" fill="#A0BABA"/>
<path d="M42.3988 128.839L41.0948 129.179V127.819L42.3988 127.536V128.839Z" fill="#A0BABA"/>
<path d="M42.3988 131.218L41.0948 131.558V130.255L42.3988 129.915V131.218Z" fill="#A0BABA"/>
<path d="M42.3988 133.598L41.0948 133.938V132.634L42.3988 132.294V133.598Z" fill="#A0BABA"/>
<path d="M42.3988 136.034L41.0948 136.317V135.014L42.3988 134.674V136.034Z" fill="#A0BABA"/>
<path d="M42.3988 138.413L41.0948 138.753V137.393L42.3988 137.053V138.413Z" fill="#A0BABA"/>
<path d="M48.1802 27.3658L60.3104 24.5894L78.6192 32.236L66.8881 35.1841L48.1802 27.3658Z" fill="#DFEAEA"/>
<path d="M48.1802 27.3658L60.3104 24.5894L78.6192 32.236L66.8881 35.1841L48.1802 27.3658Z" fill="#DFEAEA"/>
<path d="M50.5608 27.7618L60.7639 25.3823L76.2386 31.8979L66.3193 34.3309L50.5608 27.7618Z" fill="#BACECC"/>
<path d="M59.3473 28.5551C59.3241 28.5584 59.3005 28.5564 59.2783 28.549C59.256 28.5417 59.2358 28.5292 59.2193 28.5127C59.2027 28.4961 59.1903 28.4759 59.1829 28.4537C59.1756 28.4315 59.1735 28.4079 59.1769 28.3847V1.18997C59.1754 1.16674 59.1787 1.14345 59.1866 1.12154C59.1944 1.09963 59.2067 1.07956 59.2226 1.06258C59.2386 1.0456 59.2578 1.03207 59.2792 1.02281C59.3006 1.01356 59.3236 1.00879 59.3469 1.00879C59.3702 1.00879 59.3933 1.01356 59.4146 1.02281C59.436 1.03207 59.4553 1.0456 59.4712 1.06258C59.4871 1.07956 59.4994 1.09963 59.5073 1.12154C59.5151 1.14345 59.5184 1.16674 59.517 1.18997V28.3847C59.5048 28.4249 59.483 28.4614 59.4534 28.4911C59.4238 28.5208 59.3874 28.5428 59.3473 28.5551Z" fill="#A0BABA"/>
<path d="M59.3445 29.2338C59.2254 29.235 59.1073 29.2125 58.997 29.1675C58.8868 29.1225 58.7867 29.056 58.7025 28.9718C58.6183 28.8877 58.5517 28.7876 58.5067 28.6774C58.4617 28.5672 58.4391 28.4491 58.4404 28.3301V24.0202C58.4404 23.7798 58.5359 23.5493 58.706 23.3793C58.8761 23.2093 59.1067 23.1138 59.3472 23.1138C59.5878 23.1138 59.8184 23.2093 59.9885 23.3793C60.1586 23.5493 60.2541 23.7798 60.2541 24.0202V28.3301C60.2377 28.5654 60.1365 28.7866 59.9692 28.9528C59.8019 29.1191 59.5799 29.2189 59.3445 29.2338Z" fill="#A0BABA"/>
<path d="M114.159 137.111L116.144 137.394L95.738 142.38L84.5139 135.241L114.159 137.111Z" fill="#8DD8AB"/>
<path d="M75.105 96.3171V142.266C75.105 142.266 85.4778 139.603 96.9279 145.779C96.9279 145.779 111.95 136.997 115.293 135.92V100.51L94.0911 90.8213L75.105 96.3171Z" fill="#77C998"/>
<path d="M115.293 100.68V140.34C112.233 141.304 99.2515 145.099 96.928 145.779V103.626L110.929 98.7539L115.293 100.68Z" fill="#8DD8AB"/>
<path d="M96.928 107.309L104.184 105.326L96.928 106.685V107.309Z" fill="#77C998"/>
<path d="M96.0781 105.835L75.162 96.43C74.7656 96.2597 74.822 96.0331 75.2191 95.8635L92.6209 90.8209C93.1127 90.7149 93.6248 90.7543 94.0946 90.9342L115.011 100.34C115.407 100.51 115.351 100.736 114.954 100.906L97.5518 105.949C97.0623 106.083 96.5412 106.043 96.0781 105.835Z" fill="#93E5B5"/>
<path opacity="0.68" d="M87.1789 99.4337L99.7626 105.326L100.953 107.082C100.953 107.082 110.645 104.364 115.294 103.91L115.067 101.755C115.067 101.755 115.747 98.7518 108.662 96.4856C104.374 95.0591 100.25 93.1788 96.3618 90.8765L85.8756 93.7113L79.1296 95.4679L87.1789 99.4337Z" fill="#63AA7F"/>
<path d="M87.1789 98.7537L102.71 106.006C102.71 106.006 116.314 101.983 118.298 103.4C116.16 99.7325 112.72 97.0029 108.662 95.7535C101.633 93.4276 94.3755 90.1416 94.3755 90.1416L78.4495 94.6176L85.8749 98.0739L87.1789 98.7537Z" fill="#93E5B5"/>
<path d="M96.9272 108.612L84.5139 102.889L96.9272 109.006V108.612Z" fill="#63AA7F"/>
<path d="M79.8662 115.524L85.9313 117.848L79.8662 115.241V115.524Z" fill="#63AA7F"/>
<path d="M81.5103 132.634L87.5184 135.014L81.5103 132.408V132.634Z" fill="#63AA7F"/>
<path opacity="0.68" d="M79.1296 122.38L95.738 128.669C94.2912 129.029 92.9128 129.622 91.657 130.425C91.6563 130.368 82.4741 123.626 79.1296 122.38Z" fill="#63AA7F"/>
<path d="M79.1296 122.04L95.738 128.668C94.2917 128.805 92.8958 129.27 91.657 130.028C91.657 130.028 84.5146 124.816 79.1296 122.04Z" fill="#93E5B5"/>
<path d="M100.952 101.247C104.583 101.247 107.527 100.105 107.527 98.6968C107.527 97.2886 104.583 96.147 100.952 96.147C97.3206 96.147 94.377 97.2886 94.377 98.6968C94.377 100.105 97.3206 101.247 100.952 101.247Z" fill="#63AA7F"/>
<path d="M86.9515 131.218L96.9279 135.75V135.24L86.9515 131.218Z" fill="#6AAD82"/>
<path d="M112.799 102.323C114.145 102.323 115.237 101.892 115.237 101.36C115.237 100.828 114.145 100.396 112.799 100.396C111.453 100.396 110.361 100.828 110.361 101.36C110.361 101.892 111.453 102.323 112.799 102.323Z" fill="#77C998"/>
<path d="M96.9279 134.051V133.541L92.6202 132.068" fill="#6AAD82"/>
<path d="M96.928 130.028L110.362 126.912L96.928 129.462V130.028Z" fill="#77C998"/>
<path d="M96.928 121.416L110.362 118.583L96.928 121.133V121.416Z" fill="#77C998"/>
<path d="M96.928 137.848L104.184 135.864L96.928 137.281V137.848Z" fill="#77C998"/>
<path d="M96.928 128.669L102.823 127.309L96.928 128.046V128.669Z" fill="#77C998"/>
<path d="M115.237 114.788L108.094 116.205L115.293 114.278L115.237 114.788Z" fill="#77C998"/>
<path opacity="0.68" d="M97.0413 113.146L113.933 109.462C113.933 109.462 100.555 112.861 99.6485 114.958C98.6871 114.499 97.8066 113.887 97.0413 113.146Z" fill="#63AA7F"/>
<path d="M115.293 113.484L112.572 113.881L115.293 113.031V113.484Z" fill="#77C998"/>
<path d="M96.928 113.031L113.933 109.518C113.933 109.518 100.556 112.521 99.6486 114.674C99.6486 114.674 97.4948 113.767 96.928 113.031Z" fill="#A0EABE"/>
<path opacity="0.68" d="M96.928 132.748L115.293 129.009C115.152 129.164 115.075 129.366 115.075 129.575C115.075 129.785 115.152 129.987 115.293 130.142C115.293 130.142 102.653 131.502 96.928 132.748Z" fill="#63AA7F"/>
<path d="M97.9481 145.156L98.3452 145.326C98.3452 145.326 115.86 140.624 116.427 140.624C116.938 140.624 115.294 139.998 115.294 139.998L97.9481 145.156Z" fill="#77C998"/>
<path d="M96.928 132.748L115.293 128.668C115.714 128.957 116.095 129.3 116.427 129.688C116.427 129.688 102.653 131.501 96.928 132.748Z" fill="#A0EABE"/>
<path d="M67.1698 132.748L73.6884 135.806C73.9063 135.959 74.1686 136.037 74.4348 136.026C74.7011 136.016 74.9566 135.919 75.162 135.749C75.788 135.124 78.6762 129.177 78.6762 129.177C78.7286 128.863 78.6576 128.54 78.4781 128.276C78.2986 128.012 78.0244 127.828 77.7123 127.761C76.5794 127.365 67.1698 132.748 67.1698 132.748Z" fill="#A0BABA"/>
<path d="M75.2183 126.855L73.2342 126.118C73.1779 125.835 73.1208 125.778 72.8941 126.005C72.7429 126.201 72.61 126.41 72.497 126.631C72.3266 127.028 72.0999 127.424 71.9302 127.877C71.527 128.811 71.0334 129.703 70.4565 130.54C69.9141 131.263 69.1906 131.83 68.359 132.183C68.1889 132.244 68.0341 132.341 67.9056 132.467C66.6016 133.431 66.3755 135.243 63.5979 134.393C62.9719 134.224 62.7473 132.07 62.2375 131.561C60.7639 129.974 66.0355 115.526 66.0355 115.526C66.0355 115.526 70.7403 116.037 73.2342 119.096C74.6515 120.85 75.3317 124.193 75.2183 126.855Z" fill="#FFD1B2"/>
<path d="M75.2184 126.856C75.1051 129.065 74.4813 130.821 73.2913 130.992C72.1577 131.162 73.3483 129.745 73.2913 127.989C73.2343 127.195 73.2913 126.516 73.2343 126.119L75.2184 126.856Z" fill="#FFD1B2"/>
<path d="M78.3924 128.838C77.9953 129.858 75.105 135.014 75.105 135.014C75.105 135.014 74.8212 135.751 73.7447 135.184C72.8941 134.73 69.2666 133.144 67.9062 132.52C68.0439 132.406 68.1965 132.311 68.3597 132.237C70.967 131.047 71.6471 128.384 72.4977 126.685C72.6107 126.465 72.7436 126.255 72.8948 126.059L73.1786 126.172L75.1627 126.909L77.2602 127.702C77.3159 127.648 78.7895 127.818 78.3924 128.838Z" fill="#F7F7F7"/>
<path d="M120.905 125.269C120.905 125.269 119.658 134.108 120.225 138.3C120.225 138.3 119.771 140.623 121.018 140.733C122.322 140.846 122.605 138.75 122.605 138.75C124.343 138.476 126.004 137.839 127.48 136.88C129.52 135.463 131.051 134.274 129.237 127.361C127.366 120.453 120.905 125.269 120.905 125.269Z" fill="#FFD1B2"/>
<path d="M59.2902 1.13309C59.6032 1.13309 59.857 0.879436 59.857 0.566543C59.857 0.25365 59.6032 0 59.2902 0C58.9772 0 58.7234 0.25365 58.7234 0.566543C58.7234 0.879436 58.9772 1.13309 59.2902 1.13309Z" fill="#93E5B5"/>
<path d="M37.5807 48.2161C37.7263 48.0369 37.859 47.8475 37.9778 47.6496C38.0348 47.5363 37.9778 47.366 38.0348 47.1963C37.9215 47.1963 37.8081 47.2527 37.6377 47.2527C37.6377 47.0823 37.6948 46.9127 37.6948 46.6861C37.0689 46.8564 37.1843 47.5363 36.8442 47.8192C36.6712 47.5968 36.4817 47.3877 36.2774 47.1936C36.2236 47.2545 36.1835 47.3263 36.1598 47.4041C36.1361 47.4819 36.1294 47.5639 36.1401 47.6445C36.1509 47.7251 36.1788 47.8024 36.2221 47.8713C36.2653 47.9402 36.3228 47.999 36.3908 48.0437C36.6745 48.2704 36.6745 48.4407 36.3337 48.6694C36.2774 48.7264 34.0095 49.3492 32.9329 49.6328C32.8665 49.6515 32.7968 49.6561 32.7285 49.6464C32.6601 49.6367 32.5945 49.6129 32.5358 49.5765C31.7986 49.1796 31.0621 48.7834 30.2686 48.3864C30.403 48.3563 30.5356 48.3184 30.6657 48.2731C32.0261 48.0465 33.33 47.8199 34.6333 47.5363C34.8601 47.4793 35.2593 47.2527 35.2001 47.1963C35.0868 46.8564 34.7467 46.9127 34.463 46.9697C32.9893 47.2534 31.5156 47.5363 30.0982 47.8734C29.7194 47.9773 29.3154 47.9369 28.9646 47.7601C27.774 47.1345 26.5841 46.4567 25.3371 45.8339C25.2782 45.7942 25.2119 45.7671 25.1421 45.7542C25.0723 45.7413 25.0006 45.7429 24.9315 45.7589C24.8623 45.7749 24.7972 45.8049 24.7402 45.8471C24.6831 45.8893 24.6354 45.9428 24.5999 46.0042C26.0173 46.7973 27.3776 47.5335 28.7942 48.2703C26.9805 48.6673 25.223 49.0072 23.4663 49.4034C23.6367 49.8004 23.7501 50.0291 24.2035 49.9137C25.1076 49.6301 26.0173 49.4034 26.9812 49.1768C27.7747 49.0065 28.5112 48.8369 29.3054 48.6666C29.3509 48.8004 29.3675 48.9424 29.3543 49.0831C29.3411 49.2238 29.2983 49.3601 29.2287 49.4832C29.1591 49.6062 29.0643 49.7132 28.9504 49.7971C28.8366 49.881 28.7064 49.9399 28.5682 49.97C26.9812 50.3669 26.0743 51.5563 25.3371 52.916C25.0534 53.4262 25.2801 53.8197 25.7905 54.1061L26.1306 54.2764C26.035 54.2898 25.9403 54.3088 25.8469 54.3334C25.8659 54.3955 25.898 54.4529 25.9409 54.5016C25.9838 54.5504 26.0366 54.5895 26.0958 54.6163C26.155 54.6432 26.2192 54.6571 26.2842 54.6572C26.3492 54.6573 26.4135 54.6436 26.4728 54.617C26.9833 54.5607 27.4367 54.4467 28.0028 54.3334C28.0236 54.5056 28.0041 54.6803 27.9458 54.8436C27.9458 54.8436 27.4353 54.9569 27.0952 55.0703C27.2656 55.4672 27.6057 55.4672 27.9458 55.3539C29.0231 54.957 30.0433 54.5607 31.0635 54.1638C31.2665 53.9683 31.4558 53.7593 31.6303 53.5382L30.6101 53.8781C30.7805 53.5945 30.8368 53.0849 31.0072 52.9744C31.6173 52.6029 32.0936 52.0475 32.3675 51.3881C32.4809 51.1615 32.6513 50.9348 32.821 50.6512C33.2885 50.9417 33.7818 51.1883 34.2947 51.3881C34.4612 51.3484 34.6164 51.2709 34.7481 51.1615C34.6347 51.0481 33.9546 50.5358 33.6708 50.3113C34.3849 50.2097 35.1083 50.1906 35.8268 50.2543V50.141C35.6805 50.0233 35.5474 49.8902 35.4296 49.7441C35.7877 49.518 36.1675 49.3282 36.5633 49.1775C36.7336 49.6308 36.847 50.1973 37.3568 49.9144C37.3568 49.6878 37.2997 49.4611 37.2997 49.1212C37.4942 49.3785 37.7032 49.6245 37.9257 49.8581C38.4313 49.2359 37.411 48.4427 37.5807 48.2161ZM28.3415 54.7317C28.2281 54.2215 28.3985 54.1652 29.3617 53.9386C29.3617 54.6149 28.7949 54.6156 28.3415 54.7317ZM29.5885 54.2785C29.5712 54.125 29.5908 53.9697 29.6455 53.8253C30.0095 53.6831 30.3526 53.4925 30.6657 53.2587C30.5524 53.8246 30.439 54.1082 29.5871 54.2778L29.5885 54.2785ZM30.1553 49.6905C29.9849 49.6342 29.8152 49.3506 29.7018 49.124C29.6448 49.0107 29.7018 48.8404 29.7018 48.6138C30.382 49.0107 31.0058 49.4069 31.686 49.8038C31.173 49.8265 30.6591 49.788 30.1553 49.6891V49.6905Z" fill="#9AD17C"/>
<path d="M90.4658 73.0311C90.4658 73.0311 85.478 68.8387 79.7557 76.7154C75.2776 82.8327 75.391 96.885 74.2574 101.305C73.5772 103.968 62.5242 118.188 66.3215 116.946C70.6862 115.473 73.9715 120.345 73.9715 120.345C73.9715 120.345 86.1581 109.014 85.8751 103.857C85.7047 100.458 86.1588 85.9539 86.1588 85.9539L90.4658 73.0311Z" fill="#F3F9FF"/>
<path d="M114.5 150.878C114.5 150.878 116.087 157.336 110.532 159.886C104.297 162.776 93.1872 173.427 93.1872 173.427C93.1872 173.427 95.9078 183.228 96.9851 207.419C96.9851 207.419 98.4024 213.198 92.3373 213.198C86.2722 213.198 77.7695 171.498 77.1463 170.705C76.6358 170.08 78.3933 161.64 82.5313 156.144C85.9891 151.556 82.9847 142.886 90.8073 138.467C90.7495 138.527 109.625 140.51 114.5 150.878Z" fill="#0C2D54"/>
<path d="M98.7411 153.315C98.7411 153.315 88.1979 156.544 82.4728 158.81C80.7724 159.49 80.7154 156.94 70.9094 157.564C63.3706 158.074 54.8678 161.587 54.8678 161.587C54.8678 161.587 54.1307 170.708 56.2282 188.159C56.2282 188.159 56.2282 194.108 50.3334 192.691C44.4387 191.274 37.523 156.883 37.2963 155.864C35.7093 148.442 75.5008 138.3 84.2866 138.13C86.8939 138.073 90.8052 137.677 93.1294 139.546C96.9273 142.607 98.0609 150.142 98.7411 153.315Z" fill="#0C2D54"/>
<path d="M84.9674 235.638C84.9674 235.638 86.7248 237.337 88.1415 236.941C89.5581 236.545 92.2795 235.864 94.9431 229.746C96.9301 225.282 98.3214 220.577 99.0811 215.751C99.3137 214.091 99.1385 212.399 98.5706 210.822C98.5706 210.822 90.0686 232.011 84.9674 235.638Z" fill="#2D1006"/>
<path d="M88.4253 208.781C88.4253 208.781 88.0282 213.654 87.4614 216.94C86.4411 222.606 84.0035 228.612 84.2303 231.956C84.2873 233.202 84.1739 236.261 86.2707 236.261C91.2023 236.261 94.6601 231.048 98.4573 213.768C98.4573 213.768 98.684 206.629 96.8703 205.553C95.6233 204.816 95.1699 211.049 91.429 210.936C89.3892 210.821 89.4462 208.555 88.4253 208.781Z" fill="#3D1B0F"/>
<path d="M44.4393 216.204C44.4393 216.204 46.1968 217.904 47.6134 217.508C49.0308 217.168 51.7514 216.431 54.415 210.312C55.2086 208.442 55.0952 206.006 55.6057 204.476C56.7963 200.907 57.8729 201.984 58.553 196.318C58.6387 194.511 58.309 192.708 57.5891 191.048C57.5891 191.048 49.4842 212.578 44.4393 216.204Z" fill="#2D1006"/>
<path d="M47.5001 189.802C47.4595 192.362 47.2504 194.916 46.8742 197.449C45.854 203.114 43.4164 209.12 43.6431 212.464C43.7001 213.71 43.5868 216.769 45.6836 216.769C49.3111 216.769 52.5422 214.56 54.2997 204.702C54.8665 201.643 58.0405 199.263 58.2109 193.03C58.101 191.638 57.8919 190.256 57.585 188.894C57.1034 187.895 56.5541 186.929 55.941 186.004C54.1272 186.515 55.7142 190.82 50.8397 191.443C47.4438 191.842 48.5176 189.575 47.5001 189.802Z" fill="#3D1B0F"/>
<path d="M77.825 102.096C75.8979 82.9462 74.0841 82.2664 81.3962 76.147C81.3962 76.147 85.8173 69.8017 93.2427 71.5013C100.668 73.201 107.98 70.0283 107.98 70.0283C107.98 70.0283 122.321 71.6146 129.122 81.8131C132.92 87.4785 147.487 101.36 135.527 117.11C133.245 120.2 131.199 123.458 129.407 126.856C127.251 130.425 120.677 127.536 120.791 124.533C120.904 121.076 123.285 117.677 127.989 110.538C133.148 102.663 123.738 97.2238 121.755 92.9174C119.064 103.02 117.225 113.329 116.256 123.739C115.352 134.166 119.204 156.317 114.045 156.486C114.045 156.486 116.086 148.158 105.996 145.381C103.049 144.588 96.9266 146.345 92.1091 146.345C80.7731 146.345 88.878 138.299 80.4323 138.47C80.376 138.527 79.0727 114.674 77.825 102.096Z" fill="#F3F9FF"/>
<path d="M25.394 52.9174C25.5613 53.0921 25.7645 53.2282 25.9897 53.3163C26.2149 53.4044 26.4566 53.4424 26.698 53.4276C27.5486 53.4846 28.7385 51.728 28.4555 51.3881C28.3622 51.2403 28.2373 51.115 28.0897 51.0213C27.9422 50.9276 27.7757 50.8677 27.6022 50.846C27.4287 50.8244 27.2526 50.8414 27.0865 50.896C26.9204 50.9505 26.7685 51.0412 26.6417 51.1615C26.1251 51.6683 25.7026 52.2629 25.394 52.9174Z" fill="#8CA8A7"/>
<path opacity="0.22" d="M29.5321 52.181C32.9444 52.181 35.7106 50.5576 35.7106 48.5551C35.7106 46.5526 32.9444 44.9292 29.5321 44.9292C26.1198 44.9292 23.3536 46.5526 23.3536 48.5551C23.3536 50.5576 26.1198 52.181 29.5321 52.181Z" fill="#BACECC"/>
<path d="M95.7944 71.445C95.7944 71.445 92.0535 71.2747 91.26 70.3682C85.1399 63.683 85.875 44.6479 90.6932 42.6062C95.5113 40.5646 103.277 36.6009 110.645 44.4762C117.391 51.6716 112.006 65.6086 102.426 70.2549L95.7944 71.445Z" fill="#FFD1B2"/>
<path d="M104.183 75.9773C106.167 72.9187 103.279 75.1842 107.811 64.3628C107.811 64.3628 106.11 59.8305 99.4211 61.5864C91.3155 63.7414 92.8462 69.6883 92.8462 74.9575C92.7899 83.1728 102.142 79.0937 104.183 75.9773Z" fill="#FFD1B2"/>
<path d="M115.01 53.7672C116.484 37.393 105.657 37.393 99.7619 37.45C95.5106 37.507 87.405 38.1299 86.6114 44.9854C86.441 46.4021 86.8952 48.2714 88.4822 49.0082C90.9761 50.1983 92.3935 48.8949 94.3769 48.1045C101.179 45.4414 109.341 44.7053 108.434 51.2209C108.037 54.2795 107.584 58.5296 107.584 58.5296C107.584 58.5296 108.888 53.2041 111.608 53.7706C115.123 54.5075 110.758 62.3828 110.588 62.7227C110.192 63.6257 114.499 59.4333 115.01 53.7672Z" fill="#2E4B5B"/>
<path d="M86.4417 46.1187C86.4417 46.1187 85.6482 54.5042 86.8952 59.4328C86.8952 59.4328 86.7818 51.2175 87.2352 48.8944C87.745 46.5156 86.4417 46.1187 86.4417 46.1187Z" fill="#2E4B5B"/>
<path d="M94.8311 86.6858L89.4462 119.149L93.9806 125.665L99.4219 119.319L96.3618 85.9482L94.8311 86.6858Z" fill="#BCD0E2"/>
<path d="M94.434 81.1333L92.5632 85.04L94.8304 88.9495H96.4745L99.4789 85.3236L96.928 81.0742C96.1117 81.2814 95.2592 81.3016 94.434 81.1333Z" fill="#BCD0E2"/>
<path d="M28.6246 51.5581C28.5124 52.1334 28.237 52.6644 27.8311 53.0874C27.8311 53.0874 29.9286 52.9748 28.6246 51.5581Z" fill="#8CA8A7"/>
<path d="M94.0939 86.3456L88.709 118.809L93.2434 125.324L98.7417 118.979L95.6817 85.5518L94.0939 86.3456Z" fill="url(#paint2_linear_174_3075)"/>
<path d="M93.6976 80.7935L91.8268 84.7029L94.094 88.6124H95.7381L98.7425 84.9866L96.9287 81.0771C95.8474 81.0396 94.7688 80.945 93.6976 80.7935Z" fill="#34BE8F"/>
<path d="M73.3476 130.141C73.2681 130.344 73.1486 130.529 72.9963 130.685C72.844 130.841 72.6619 130.965 72.4609 131.049C72.2598 131.133 72.0439 131.177 71.8258 131.176C71.6078 131.175 71.3922 131.131 71.1916 131.045C70.926 130.963 70.6899 130.805 70.5115 130.592C71.131 129.782 71.6282 128.886 71.9873 127.932C72.0829 127.945 72.1776 127.964 72.271 127.988C72.6939 128.139 73.0421 128.447 73.2428 128.848C73.4434 129.25 73.481 129.713 73.3476 130.141Z" fill="#ECECEC"/>
<mask id="mask1_174_3075" style="mask-type:luminance" maskUnits="userSpaceOnUse" x="173" y="171" width="17" height="8">
<path d="M188.811 173.371C190.568 174.957 188.755 176.883 184.843 177.677C180.932 178.47 176.284 177.847 174.584 176.26C172.827 174.674 174.64 172.747 178.552 171.954C182.463 171.161 187.054 171.784 188.811 173.371Z" fill="white"/>
</mask>
<g mask="url(#mask1_174_3075)">
<path d="M188.811 173.371C190.568 174.957 188.755 176.883 184.843 177.677C180.932 178.47 176.284 177.847 174.584 176.26C172.827 174.674 174.64 172.747 178.552 171.954C182.463 171.161 187.054 171.784 188.811 173.371Z" fill="#DFEBF4"/>
</g>
</g>
<defs>
<linearGradient id="paint0_linear_174_3075" x1="266.416" y1="226.065" x2="207.706" y2="32.1199" gradientUnits="userSpaceOnUse">
<stop offset="0.225" stop-color="#0459BB"/>
<stop offset="0.975" stop-color="#6FAAED"/>
</linearGradient>
<linearGradient id="paint1_linear_174_3075" x1="86.5203" y1="158.159" x2="115.136" y2="103.697" gradientUnits="userSpaceOnUse">
<stop stop-color="#0072D4" stop-opacity="0.4"/>
<stop offset="1" stop-color="#09007F"/>
</linearGradient>
<linearGradient id="paint2_linear_174_3075" x1="93.7254" y1="85.5518" x2="93.7254" y2="125.324" gradientUnits="userSpaceOnUse">
<stop stop-color="#19B786"/>
<stop offset="1" stop-color="#D3EBC6"/>
</linearGradient>
<clipPath id="clip0_174_3075">
<rect width="224" height="237" fill="white"/>
</clipPath>
</defs>
</svg>
