<svg width="298" height="200" viewBox="0 0 298 200" fill="none" xmlns="http://www.w3.org/2000/svg">
<g clip-path="url(#clip0_174_2933)">
<path d="M174.041 196.828L50.722 141.803C49.3788 141.166 49.4427 140.339 50.9139 139.894L111.294 122.528C113.015 122.12 114.818 122.231 116.475 122.846L239.794 177.935C241.138 178.571 241.074 179.398 239.602 179.843L179.222 197.146C177.505 197.585 175.691 197.474 174.041 196.828Z" fill="#F7F7F7"/>
<path d="M174.041 199.373L50.722 144.347C49.3788 143.711 49.4427 142.884 50.9139 142.439L111.294 127.617C113.015 127.21 114.818 127.32 116.475 127.935L239.794 180.416C241.138 181.052 241.074 181.879 239.602 182.325L179.222 199.691C177.505 200.13 175.691 200.019 174.041 199.373Z" fill="#F7F7F7"/>
<path d="M240.818 178.889V181.434C240.818 181.816 240.434 182.134 239.666 182.388L179.286 199.755C177.566 200.162 175.762 200.051 174.105 199.436L50.722 144.347C50.0824 144.093 49.8265 143.775 49.7626 143.457V140.912C49.8265 141.23 50.1463 141.548 50.722 141.803L55.1994 143.775L174.041 196.828C175.691 197.474 177.505 197.586 179.222 197.146L235.317 180.989L239.602 179.78C240.37 179.589 240.818 179.207 240.818 178.889Z" fill="#D5E5EF"/>
<mask id="mask0_174_2933" style="mask-type:luminance" maskUnits="userSpaceOnUse" x="58" y="125" width="165" height="65">
<path d="M165.023 189.004L59.1651 141.739C58.0138 141.23 58.0777 140.467 59.357 140.149L111.166 125.263C112.655 124.889 114.224 125.001 115.644 125.581L221.501 172.846C222.653 173.355 222.589 174.118 221.309 174.436L169.5 189.322C168.007 189.636 166.455 189.526 165.023 189.004Z" fill="white"/>
</mask>
<g mask="url(#mask0_174_2933)">
<path d="M165.023 189.004L59.1651 141.739C58.0138 141.23 58.0777 140.467 59.357 140.149L111.166 125.263C112.655 124.889 114.224 125.001 115.644 125.581L221.501 172.846C222.653 173.355 222.589 174.118 221.309 174.436L169.5 189.322C168.007 189.636 166.455 189.526 165.023 189.004Z" fill="url(#paint0_linear_174_2933)" fill-opacity="0.21"/>
</g>
<path d="M60.5722 142.82L0 27.4893L109.631 3.88867L298 28.0618L217.216 175.454L166.43 190.085L60.5722 142.82Z" fill="url(#paint1_linear_174_2933)"/>
<path d="M52.1931 122.718L11.3853 104.461C10.6177 104.143 10.6817 103.634 11.5132 103.38L55.3273 91.2298C56.3056 91.005 57.3289 91.0713 58.2696 91.4207L99.0775 109.678C99.845 109.996 99.781 110.505 98.9495 110.759L55.1354 122.909C54.1573 123.136 53.1334 123.07 52.1931 122.718Z" fill="#C0D2E2"/>
<path d="M98.8856 109.551L55.0714 121.701C54.0931 121.926 53.0699 121.859 52.1292 121.51L11.3213 103.253C10.5537 102.935 10.6177 102.426 11.4492 102.172L22.7705 99.0544L51.6175 91.0391L55.1994 90.0213C56.1777 89.7965 57.201 89.8628 58.1416 90.2122L98.9495 108.469C99.7811 108.851 99.7171 109.296 98.8856 109.551Z" fill="white"/>
<path d="M103.363 77.1713L62.5551 58.9142C61.7875 58.5962 61.8515 58.0873 62.683 57.8328L96.583 48.0999C97.5613 47.8751 98.5845 47.9414 99.5252 48.2908L140.333 66.5478C141.101 66.8659 141.037 67.3748 140.205 67.6293L106.305 77.3621C105.327 77.5892 104.303 77.5228 103.363 77.1713Z" fill="#C0D2E2"/>
<path d="M103.363 75.6444L62.5551 57.3874C61.7875 57.0693 61.8515 56.5604 62.683 56.3059L96.583 46.5731C97.5613 46.3482 98.5845 46.4146 99.5252 46.7639L140.333 65.021C141.101 65.339 141.037 65.848 140.205 66.1024L106.305 75.8353C105.327 76.0624 104.303 75.996 103.363 75.6444Z" fill="#F7F7F7"/>
<path d="M159.586 168.648L99.0135 141.548C97.8622 141.04 97.9261 140.34 99.2054 139.958L149.544 125.454C150.985 125.091 152.504 125.18 153.893 125.709L214.465 152.808C215.617 153.317 215.553 154.017 214.273 154.398L163.935 168.902C162.494 169.267 160.974 169.178 159.586 168.648Z" fill="#C0D2E2"/>
<path d="M141.868 155.289L139.885 155.797L122.296 147.719L124.215 147.146L141.868 155.289Z" fill="#D9E7F6"/>
<path d="M146.985 153.762L145.002 154.271L127.413 146.192L129.332 145.683L146.985 153.762Z" fill="#D9E7F6"/>
<path d="M149.544 153.062L147.625 153.508L129.971 145.429L131.89 144.92L149.544 153.062Z" fill="#D9E7F6"/>
<path d="M214.593 74.0544L163.871 51.3444C162.912 50.8991 162.976 50.3265 163.999 50.0085L206.15 37.8583C207.362 37.559 208.638 37.6481 209.796 38.1128L260.518 60.8228C261.478 61.2681 261.414 61.8406 260.39 62.1586L218.239 74.3088C217.027 74.6081 215.751 74.5191 214.593 74.0544Z" fill="#C0D2E2"/>
<path d="M152.102 152.299L150.183 152.744L132.53 144.729L134.449 144.156L152.102 152.299Z" fill="#D9E7F6"/>
<path d="M214.593 72.0187L163.871 49.3087C162.912 48.8634 162.976 48.2909 163.999 47.9728L206.15 35.8227C207.362 35.5234 208.638 35.6124 209.796 36.0771L260.518 58.7871C261.478 59.2324 261.414 59.8049 260.39 60.123L218.239 72.2732C217.025 72.5405 215.758 72.4522 214.593 72.0187Z" fill="#F7F7F7"/>
<path d="M159.586 167.184L99.0135 140.085C97.8622 139.576 97.9261 138.876 99.2054 138.495L149.544 123.991C150.985 123.628 152.504 123.717 153.893 124.245L214.465 151.345C215.617 151.854 215.553 152.553 214.273 152.935L163.935 167.439C162.494 167.804 160.974 167.715 159.586 167.184Z" fill="#F7F7F7"/>
<path d="M92.1696 108.533L54.3679 118.711L33.3883 108.787L71.126 98.6089L92.1696 108.533Z" fill="#EDF6FF"/>
<path d="M32.4289 99.1816L21.7472 102.553L20.9156 102.171L31.5973 98.7363L32.4289 99.1816Z" fill="#EDF6FF"/>
<path d="M34.8594 100.263L24.1777 103.698L23.3462 103.316L34.0279 99.8813L34.8594 100.263Z" fill="#EDF6FF"/>
<path d="M147.817 140.021L121.272 147.21L103.619 139.131L130.227 131.879L147.817 140.021Z" fill="#D9E7F6"/>
<path d="M163.999 148.927L139.949 155.161L132.594 151.917L156.579 145.556L163.999 148.927Z" fill="#D9E7F6"/>
<path d="M168.604 140.976L144.619 147.21L137.199 143.966L161.185 137.668L168.604 140.976Z" fill="#D9E7F6"/>
<path d="M53.5364 106.688L22.131 92.6293C21.5553 92.3748 21.5553 91.9931 22.1949 91.8023L48.2915 84.2959C49.0336 84.1136 49.8138 84.1579 50.5302 84.4231L81.9356 98.4817C82.5113 98.7362 82.5113 99.1178 81.8717 99.3087L55.8391 106.815C55.0755 106.997 54.275 106.953 53.5364 106.688Z" fill="#C0D2E2"/>
<path d="M81.9356 105.416L55.839 112.922C55.0969 113.104 54.3167 113.06 53.6003 112.795L22.8345 99.0543L51.6814 91.0391L81.9995 104.589C82.5752 104.907 82.5752 105.225 81.9356 105.416Z" fill="url(#paint2_linear_174_2933)"/>
<path d="M206.662 146.701L162.4 159.042C161.124 159.341 159.787 159.253 158.562 158.788L107.073 136.205L154.533 122.464L206.79 145.302C207.813 145.81 207.749 146.447 206.662 146.701Z" fill="url(#paint3_linear_174_2933)"/>
<path d="M168.349 154.589L95.6874 122.082C94.3442 121.446 94.4082 120.619 95.8793 120.174L156.26 102.807C157.98 102.4 159.784 102.511 161.441 103.125L234.102 135.632C235.445 136.268 235.381 137.095 233.91 137.54L173.593 154.97C171.845 155.357 170.022 155.224 168.349 154.589Z" fill="#C0D2E2"/>
<path d="M53.5364 105.479L22.131 91.4208C21.5553 91.1663 21.5553 90.7846 22.1949 90.5938L48.2915 83.0874C49.0336 82.9051 49.8138 82.9494 50.5302 83.2146L81.9356 97.2732C82.5113 97.5277 82.5113 97.9093 81.8717 98.1002L55.7751 105.607C55.0328 105.787 54.2532 105.743 53.5364 105.479Z" fill="white"/>
<path d="M168.349 153.126L95.6874 120.619C94.3442 119.983 94.4082 119.156 95.8793 118.711L156.26 101.345C157.98 100.937 159.784 101.048 161.441 101.663L234.166 134.169C235.509 134.805 235.445 135.632 233.974 136.077L173.593 153.444C171.852 153.851 170.028 153.741 168.349 153.126Z" fill="#F7F7F7"/>
<path d="M161.697 106.179L106.561 121.128L102.595 119.347L157.731 104.334L161.697 106.179Z" fill="#D9E7F6"/>
<path d="M166.75 108.724L111.614 123.673L107.648 121.892L162.784 106.879L166.75 108.724Z" fill="#D9E7F6"/>
<path d="M172.122 110.95L116.923 125.899L112.957 124.182L168.093 109.169L172.122 110.95Z" fill="#D9E7F6"/>
<path d="M177.751 113.495L135.152 124.881L131.123 123.164L173.785 111.713L177.751 113.495Z" fill="#D9E7F6"/>
<path d="M192.079 127.872L165.47 135.06L147.817 127.045L174.425 119.729L192.079 127.872Z" fill="#D9E7F6"/>
<path d="M183.124 116.039L140.461 127.426L136.495 125.708L179.094 114.258L183.124 116.039Z" fill="#D9E7F6"/>
<path d="M193.358 119.602L160.481 128.762C159.546 128.989 158.563 128.923 157.667 128.571L119.417 111.841L154.661 101.663L193.486 118.647C194.253 118.965 194.189 119.411 193.358 119.602Z" fill="url(#paint4_linear_174_2933)"/>
<path d="M158.179 117.502L127.541 103.825C126.965 103.571 127.029 103.189 127.605 102.998L153.062 95.6827C153.782 95.5003 154.542 95.5447 155.236 95.8099L185.874 109.487C186.45 109.741 186.386 110.123 185.81 110.314L160.353 117.629C159.633 117.812 158.873 117.767 158.179 117.502Z" fill="#C0D2E2"/>
<path d="M158.179 116.612L127.541 102.871C126.965 102.617 127.029 102.235 127.605 102.044L153.062 94.7286C153.782 94.5462 154.542 94.5906 155.236 94.8558L185.874 108.533C186.45 108.787 186.386 109.169 185.81 109.36L160.353 116.675C159.643 116.91 158.873 116.887 158.179 116.612Z" fill="#F7F7F7"/>
<path d="M151.846 102.808L139.821 106.116L131.826 102.426L143.851 99.1816L151.846 102.808Z" fill="#D9E7F6"/>
<path d="M181.845 108.724L169.884 112.032L161.888 108.342L173.913 105.098L181.845 108.724Z" fill="#D9E7F6"/>
<path d="M227.514 66.4845L215.489 69.7288L207.493 66.1028L219.518 62.7949L227.514 66.4845Z" fill="#D9E7F6"/>
<path d="M215.233 41.4204L177.687 51.5985L169.756 47.9726L207.302 37.7944L215.233 41.4204Z" fill="#D9E7F6"/>
<path d="M155.62 95.683C155.62 95.683 157.475 97.7186 159.138 98.2911C159.138 98.2911 160.609 103.762 161.185 105.034C161.425 105.55 161.56 106.108 161.582 106.675C161.604 107.243 161.513 107.81 161.313 108.342C160.993 108.978 160.673 110.314 162.848 110.505C165.534 110.759 166.622 109.805 165.918 108.597C165.598 108.088 164.063 105.416 164.575 103.825C165.214 101.917 168.157 100.963 169.756 99.8815C170.069 101.085 170.177 102.332 170.076 103.571C169.82 105.034 169.244 108.278 169.82 108.978C170.459 109.678 173.593 110.123 174.809 109.233C176.088 108.406 173.785 107.897 173.466 107.324C173.039 106.437 172.829 105.462 172.851 104.478C172.873 103.495 173.127 102.53 173.593 101.663C175.001 99.0545 176.983 92.5659 172.698 85.3776C172.08 84.7295 171.678 83.9076 171.547 83.0239C171.227 78.3801 169.308 76.7262 169.116 76.4717C168.505 75.7526 167.74 75.1791 166.876 74.7938C166.013 74.4084 165.073 74.2209 164.127 74.2453C163.338 74.2403 162.557 74.3957 161.831 74.702C161.105 75.0083 160.45 75.459 159.906 76.0264V76.8534C159.906 76.8534 158.626 77.2351 158.562 77.6804C158.498 78.1257 157.795 78.889 157.667 80.9247C157.685 82.7377 158.054 84.5304 158.754 86.2046C158.882 86.2682 146.793 93.3929 150.247 103.126C150.247 103.126 150.887 107.96 153.126 108.533C154.277 108.851 157.539 109.742 158.498 109.169C160.161 108.215 156.324 107.642 157.987 106.815C159.65 105.988 161.377 105.161 161.632 104.144C161.952 103.126 160.289 95.683 160.289 95.683H155.62Z" fill="#6D4C3E"/>
<path d="M169.18 82.4514C169.18 82.4514 168.988 83.0875 167.389 82.8331C165.79 82.5786 165.598 82.4514 165.406 81.8789C165.214 81.37 164.767 80.543 164.319 80.4158C163.871 80.2885 164.191 79.3343 164.511 79.2707C165.214 79.2071 165.278 78.889 165.47 78.8254C165.662 78.7618 168.221 78.571 168.988 79.9069C169.692 81.2427 169.5 82.1333 169.18 82.4514Z" fill="white"/>
<path d="M165.79 83.7239C165.854 83.5966 165.023 81.1793 164.319 81.1157C163.965 81.1152 163.62 81.2256 163.333 81.4312C163.046 81.6367 162.832 81.927 162.72 82.2608C162.464 82.8969 163.487 83.6603 163.04 84.2328C162.4 85.187 163.551 86.0139 163.551 87.6043C163.551 89.131 164.063 91.7392 164.959 92.757C165.854 93.7748 163.743 95.556 165.79 96.9555C166.75 97.5916 167.389 99.2455 167.645 100.454C168.497 100.291 169.271 99.8535 169.849 99.2099C170.426 98.5664 170.776 97.752 170.843 96.8918C171.163 93.9656 169.564 93.0114 169.564 91.93C169.564 90.8486 168.924 90.8486 168.54 90.0852C168.093 89.3219 168.604 89.4491 168.924 89.4491C169.244 89.4491 169.308 88.8129 167.965 88.2404C166.622 87.5407 165.726 83.8511 165.79 83.7239Z" fill="white"/>
<path d="M158.307 86.3318C158.307 86.3318 159.458 89.9578 165.534 89.1308C171.547 88.3039 173.466 85.9502 173.466 85.9502L172.762 85.0596C170.235 86.8182 167.211 87.7316 164.127 87.6677C159.01 87.5405 158.69 86.2046 158.69 86.2046L158.307 86.3318Z" fill="#7DC456"/>
<path d="M163.423 88.4947C163.36 88.113 163.359 87.8586 163.296 87.6041L163.232 87.286L164.383 87.0952C164.511 86.968 164.639 86.968 164.767 86.9044H164.895C165.101 86.9092 165.302 86.9756 165.47 87.0952C165.47 87.0316 165.534 87.0316 165.534 86.968C165.696 86.8148 165.894 86.7053 166.11 86.6499H166.302C166.622 86.6499 167.325 86.7771 167.453 88.1766L167.645 90.3395L163.615 90.7212L163.423 88.4947Z" fill="white"/>
<path d="M163.743 88.4309C163.679 88.0492 163.679 87.7947 163.615 87.5403L164.191 87.4766L164.255 87.8583C164.3 87.7146 164.383 87.5857 164.496 87.4849C164.608 87.3842 164.746 87.3154 164.895 87.2858C165.038 87.261 165.186 87.2852 165.313 87.3546C165.441 87.4239 165.542 87.5342 165.598 87.6675C165.642 87.499 165.73 87.3452 165.854 87.2222C165.978 87.0991 166.132 87.0113 166.302 86.9677C166.75 86.9041 167.197 87.2858 167.261 88.1764L167.453 90.0212L166.686 90.0848L166.494 88.4309C166.43 87.9856 166.302 87.7311 166.046 87.7947C165.854 87.7947 165.79 87.9856 165.726 88.1764V88.4309L165.918 90.1484L165.278 90.2756L165.086 88.6217C165.023 88.24 164.895 87.9856 164.703 88.0492C164.511 88.0492 164.447 88.24 164.447 88.4309V88.6853L164.639 90.3393L163.999 90.4029L163.743 88.4309Z" fill="#22B77E"/>
<path d="M158.818 82.4514C158.818 82.4514 159.01 83.0875 160.609 82.8331C162.208 82.5786 162.4 82.4514 162.592 81.8789C162.784 81.37 163.232 80.6066 163.679 80.4794C164.127 80.3522 163.871 79.3343 163.615 79.3343C163.04 79.2707 162.784 78.889 162.592 78.8254C162.4 78.7618 159.842 78.571 159.074 79.9069C158.306 81.2427 158.498 82.1333 158.818 82.4514Z" fill="white"/>
<path d="M40.2322 97.3366L27.6316 91.7386C27.3758 91.6114 27.4397 91.4842 27.6956 91.4206L38.1214 88.4307C38.4191 88.3564 38.7329 88.3787 39.0169 88.4944L51.6175 94.0923C51.8733 94.2196 51.8093 94.3468 51.5535 94.4104L41.1277 97.4002C40.8302 97.4768 40.5157 97.4545 40.2322 97.3366Z" fill="#D2E8F7"/>
<path d="M53.7923 95.4286L43.0466 98.8637L42.2151 98.482L52.9607 95.0469L53.7923 95.4286Z" fill="#EDF6FF"/>
<path d="M54.9435 96.1917L44.2618 99.6269L43.3663 99.1816L54.112 95.8101L54.9435 96.1917Z" fill="#EDF6FF"/>
<path d="M68.2477 92.8837L57.2462 96.0644L39.5927 87.9855L50.5942 84.7412L68.2477 92.8837Z" fill="#EDF6FF"/>
<path d="M58.0137 97.5913L47.332 100.963L46.5005 100.581L57.1822 97.146L58.0137 97.5913Z" fill="#EDF6FF"/>
<path d="M69.6548 93.9018L58.9731 97.2733L58.1416 96.8917L68.8233 93.4565L69.6548 93.9018Z" fill="#EDF6FF"/>
<path d="M59.5488 98.2274L48.8672 101.663L48.0356 101.281L58.7173 97.8457L59.5488 98.2274Z" fill="#EDF6FF"/>
<path d="M61.0839 98.9272L50.4022 102.362L49.5707 101.917L60.2524 98.4819L61.0839 98.9272Z" fill="#EDF6FF"/>
<path d="M62.619 99.6269L51.9373 103.062L51.1058 102.617L61.7875 99.1816L62.619 99.6269Z" fill="#EDF6FF"/>
<path d="M64.1541 100.263L53.4724 103.698L52.6409 103.316L63.3226 99.8813L64.1541 100.263Z" fill="#EDF6FF"/>
<path d="M150.183 102.744C150.183 102.744 148.584 105.734 151.59 106.306C154.661 106.815 150.183 102.744 150.183 102.744Z" fill="#6D4C3E"/>
<path d="M163.615 103.825C163.615 103.825 166.622 105.67 165.534 106.688C165.133 107.047 164.641 107.29 164.111 107.391C163.582 107.492 163.034 107.447 162.528 107.26C161.306 106.82 160.11 106.31 158.946 105.734L163.615 103.825Z" fill="#6D4C3E"/>
<mask id="mask1_174_2933" style="mask-type:luminance" maskUnits="userSpaceOnUse" x="198" y="181" width="14" height="6">
<path d="M210.819 182.77C212.291 184.105 210.755 185.759 207.429 186.396C204.103 187.095 200.138 186.523 198.667 185.187C197.195 183.851 198.731 182.197 202.057 181.561C205.383 180.925 209.348 181.434 210.819 182.77Z" fill="white"/>
</mask>
<g mask="url(#mask1_174_2933)">
<path d="M210.819 182.77C212.291 184.105 210.755 185.759 207.429 186.396C204.103 187.095 200.138 186.523 198.667 185.187C197.195 183.851 198.731 182.197 202.057 181.561C205.383 180.925 209.348 181.434 210.819 182.77Z" fill="#DFEBF4"/>
</g>
<path d="M141.548 96.4465C141.548 96.4465 142.7 101.345 140.397 101.79C138.094 102.235 135.536 99.3727 134.96 90.9121C134.704 86.65 141.548 96.4465 141.548 96.4465Z" fill="white"/>
<path d="M139.629 89.3852C139.629 89.3852 143.787 100.836 140.717 101.154C135.984 101.599 135.792 88.9399 135.792 88.9399C135.917 89.3302 136.165 89.6704 136.499 89.9108C136.832 90.1511 137.235 90.279 137.647 90.2758C138.022 90.2755 138.392 90.196 138.734 90.0424C139.076 89.8889 139.381 89.6649 139.629 89.3852Z" fill="#243956"/>
<path d="M142.06 63.6218C144.427 67.6931 140.205 90.3395 140.205 90.3395C140.205 90.3395 138.478 92.5659 135.92 90.4667C134.832 89.5761 136.176 74.6269 134.001 69.347C133.425 67.8839 123.767 70.8737 116.091 70.6193C114.876 70.5557 114.62 70.6193 113.661 69.9832C108.8 66.548 106.881 58.978 106.881 58.978C106.881 58.978 139.693 59.5506 142.06 63.6218Z" fill="#F39C33"/>
<path d="M103.875 52.8712L91.8498 56.1155L83.8545 52.4895L95.8794 49.1816L103.875 52.8712Z" fill="#D9E7F6"/>
<path d="M110.527 67.6295L98.5019 70.8738L90.5706 67.2478L102.531 63.9399L110.527 67.6295Z" fill="#D9E7F6"/>
<path d="M103.427 60.7591L91.402 64.0669L90.1868 63.4944L102.148 60.1865L103.427 60.7591Z" fill="#D9E7F6"/>
<path d="M105.538 61.968L93.5128 65.2123L92.2975 64.6398L104.322 61.3955L105.538 61.968Z" fill="#D9E7F6"/>
<path d="M101.444 73.7363C101.444 73.7363 101.316 76.4717 101.7 76.6626C102.084 76.8534 102.851 77.744 103.171 77.8076C103.576 77.9732 104.015 78.0387 104.45 77.9984C104.939 77.9345 105.433 77.9345 105.921 77.9984C106.428 77.9793 106.923 77.8428 107.367 77.5998C107.811 77.3569 108.192 77.0141 108.48 76.5989C108.672 76.3445 107.329 76.4717 106.881 75.3903C106.435 74.8011 105.943 74.2481 105.41 73.7363H101.444Z" fill="#FFD1B2"/>
<path d="M109.503 62.7949C109.503 62.7949 124.151 70.6194 125.494 76.4718C126.133 79.2072 122.552 88.7492 121.016 93.8383C118.97 100.772 118.906 100.899 118.906 100.899C118.906 100.899 116.603 102.362 115.644 100.263C114.748 98.2912 116.987 83.0876 117.307 81.879C118.522 77.1716 108.736 76.281 105.538 71.51C103.363 68.2021 102.915 66.0392 109.503 62.7949Z" fill="#F39C33"/>
<path d="M114.876 48.7361C112.893 38.3671 113.405 31.5604 110.527 28.7615L107.201 27.2983C107.201 27.2983 95.1118 28.2525 92.2974 33.278C83.8544 48.2908 99.2054 70.6827 101.124 73.2272C101.124 73.2272 101.764 74.9448 105.41 73.7362C105.41 73.7362 99.5891 54.7157 94.2803 44.474C94.2803 44.474 98.6297 70.8735 104.898 70.5555C104.898 70.5555 106.305 64.8939 110.335 63.6216C117.243 61.3951 115.58 58.9778 120.761 59.5504C120.761 59.5504 115.644 52.5529 114.876 48.7361Z" fill="#183A6B"/>
<path d="M96.7748 31.1155C96.0073 29.5251 97.0307 29.6524 94.856 24.3088C94.856 24.3088 95.7514 22.0824 99.0135 23.0366C102.979 24.118 102.467 27.1078 102.787 29.6523C103.107 31.5607 98.7577 34.9959 96.7748 31.1155Z" fill="#FFD1B2"/>
<path d="M119.29 107.706C119.29 107.706 119.354 112.795 117.115 112.731C114.812 112.668 114.045 109.932 114.364 105.798C114.684 101.726 119.29 107.706 119.29 107.706Z" fill="white"/>
<path d="M119.034 100.581C119.034 100.581 120.505 112.159 117.115 111.904C112.51 111.586 115.388 99.2451 115.388 99.2451C115.485 99.6532 115.691 100.028 115.983 100.33C116.276 100.632 116.645 100.85 117.051 100.963C117.389 101.054 117.743 101.068 118.087 101.002C118.431 100.935 118.755 100.791 119.034 100.581Z" fill="#243956"/>
<path d="M103.235 30.6701C107.776 29.3343 109.439 19.2833 107.457 17.3749C105.474 15.4665 103.299 13.3037 98.246 15.7846C93.6407 18.0747 93.5128 24.6269 97.1586 28.1892C97.1586 28.1892 99.5252 31.8152 103.235 30.6701Z" fill="#FFD1B2"/>
<path d="M95.3037 25.3898C95.3037 25.3898 94.2803 24.4356 94.2163 21.3186C94.2163 17.9471 95.1757 16.4839 97.7342 15.2117C100.229 13.9394 103.555 13.4941 105.346 14.7028C107.073 15.975 109.631 18.9649 108.352 22.7817C107.009 26.7257 107.712 25.3898 107.52 25.3898L107.904 21.3186C107.309 21.772 106.602 22.0576 105.857 22.1455C104.898 22.1455 99.3972 19.9827 98.054 21.7002C97.7982 21.9547 97.6063 20.9369 97.6703 19.8555C97.7815 18.9078 97.9741 17.9714 98.2459 17.0565C98.2459 17.0565 97.0946 19.8554 97.3505 21.3822C97.4336 22.0041 97.3855 22.6364 97.2093 23.2387C97.0331 23.8411 96.7326 24.4004 96.3271 24.8809C96.3271 24.8809 94.9199 21.8911 95.0478 22.4C95.0478 22.7817 94.3442 23.7359 95.3037 25.3898Z" fill="#2E4B5B"/>
<path d="M105.538 74.1182C106.655 74.1505 107.768 74.2782 108.864 74.4998C109.375 74.7543 107.137 75.2632 106.241 75.1996C105.346 75.136 105.538 74.1182 105.538 74.1182Z" fill="#FFD1B2"/>
<path d="M95.6236 24.881C95.6236 24.881 94.1524 24.6266 94.6002 22.2093C94.92 20.6189 95.6236 22.2093 95.6236 22.2093L96.3911 25.9624L95.6236 24.881Z" fill="#FFD1B2"/>
<g opacity="0.39">
<path d="M95.4316 40.2119C95.8154 42.8201 96.3911 45.4282 96.9667 47.9728C97.6064 50.5173 98.246 53.1254 99.0135 55.6064C99.7811 58.1509 100.613 60.6318 101.508 63.1128C102.404 65.5937 103.363 68.0746 104.386 70.4919C103.747 69.3469 103.107 68.1382 102.531 66.9932C101.956 65.7845 101.38 64.5759 100.868 63.3672C99.8118 60.9251 98.9144 58.4177 98.182 55.8608C97.4057 53.3138 96.7863 50.722 96.3271 48.1C95.8081 45.5 95.5086 42.8615 95.4316 40.2119Z" fill="#22B77E"/>
</g>
<path d="M195.532 142.185L168.988 149.373L151.335 141.358L177.943 134.042L195.532 142.185Z" fill="#D9E7F6"/>
<path d="M199.818 133.851L187.793 137.095L179.798 133.47L191.823 130.162L199.818 133.851Z" fill="#D9E7F6"/>
<path d="M209.476 138.113L197.451 141.357L189.456 137.731L201.481 134.423L209.476 138.113Z" fill="#D9E7F6"/>
<path d="M213.058 130.098L201.033 133.342L193.102 129.716L205.127 126.408L213.058 130.098Z" fill="#D9E7F6"/>
<path d="M222.716 134.423L210.692 137.668L202.76 134.042L214.785 130.734L222.716 134.423Z" fill="#D9E7F6"/>
<path d="M83.4067 53.698L71.3818 57.0059L70.1665 56.4334L82.1914 53.1255L83.4067 53.698Z" fill="#D9E7F6"/>
<path d="M85.5175 54.7795L73.4926 58.0238L72.2773 57.5149L84.3022 54.207L85.5175 54.7795Z" fill="#D9E7F6"/>
<path d="M87.6282 55.9246L75.6033 59.2325L74.3881 58.6599L86.413 55.3521L87.6282 55.9246Z" fill="#D9E7F6"/>
<path d="M165.982 74.6905C165.982 74.6905 168.54 68.9653 170.459 68.9653C173.657 68.9653 171.675 73.1638 172.058 73.8636C172.442 74.5633 172.314 75.9628 171.227 77.744L170.843 79.0799L165.662 75.1358" fill="#6D4C3E"/>
<path d="M162.848 74.6906C162.848 74.6906 160.545 68.5837 158.371 68.9654C155.62 69.4107 157.219 73.2275 156.771 73.8636C156.324 74.4362 156.707 76.599 157.603 77.7441L157.987 79.2072L163.104 75.1359" fill="#6D4C3E"/>
<path d="M170.203 76.9168C170.523 76.9168 170.715 76.7896 171.035 75.7717C171.547 74.1178 171.099 74.7539 170.651 74.6903C170.587 74.6903 170.715 72.4639 170.395 71.7005C170.076 71.0007 169.244 71.7641 168.988 72.273C168.285 73.4817 167.389 75.1356 167.517 75.1356C169.18 75.1356 169.756 76.9168 170.203 76.9168Z" fill="#EFCEC7"/>
<path d="M159.394 77.1715C159.074 77.2351 158.882 77.1715 158.37 76.2173C157.539 74.6906 158.115 75.1995 158.562 75.0723C158.626 75.0723 158.051 72.9094 158.243 72.0824C158.434 71.3191 159.394 71.9552 159.714 72.3369C160.446 73.1049 161.109 73.935 161.696 74.8178C160.033 75.2631 159.842 77.1079 159.394 77.1715Z" fill="#EFCEC7"/>
<path d="M223.356 54.7158C223.356 54.7158 224.891 59.4868 227.002 58.5962C227.105 58.3082 227.105 57.9936 227.002 57.7056C226.846 57.4619 226.675 57.2282 226.49 57.0059C226.49 57.0059 233.142 58.7235 234.358 56.6878L223.356 54.7158Z" fill="url(#paint5_linear_174_2933)"/>
<path d="M239.986 53.1254L213.378 60.3137L195.788 52.2985L222.333 44.9829L239.986 53.1254Z" fill="#D9E7F6"/>
<path d="M188.433 19.9194C188.433 19.9194 183.188 22.3367 184.403 26.9805C185.618 31.6243 190.671 49.0544 190.671 49.0544C190.983 50.071 191.197 51.1147 191.311 52.1715C191.311 53.1257 192.206 54.3343 193.038 54.2071C193.869 54.0799 194.893 52.9984 194.893 52.9984C194.893 52.9984 191.951 35.8228 191.631 33.2783C191.311 30.7973 187.601 26.6625 187.601 26.6625L188.433 19.9194Z" fill="#183A6B"/>
<path d="M223.036 52.4258C223.007 52.9839 223.072 53.5428 223.228 54.0797C223.293 54.4202 223.437 54.7411 223.648 55.017C223.859 55.293 224.131 55.5165 224.443 55.6701C228.537 57.5149 230.84 57.4512 232.631 57.324C234.421 57.1968 235.189 55.9245 234.613 55.6701C233.782 55.352 228.857 52.4258 227.13 52.4258H223.036Z" fill="#FFD1B2"/>
<path d="M223.42 54.6523C223.42 54.6523 225.083 58.1511 226.426 58.3419C228.473 58.5964 225.531 55.3521 225.531 55.3521L223.42 54.6523Z" fill="#FFD1B2"/>
<path d="M189.328 62.7947L190.224 63.1763V62.2221C190.224 62.2221 197.963 58.9779 202.632 60.6954L207.11 70.8736L209.796 71.8914L209.22 68.2018C209.22 68.2018 213.89 61.0135 214.465 58.9142C215.105 56.8786 215.809 57.0695 215.809 57.0695C215.809 57.0695 216.96 54.9066 216.704 54.2068C216.448 53.5071 188.625 60.8226 188.625 60.8226L189.328 62.7947Z" fill="url(#paint6_linear_174_2933)"/>
<path d="M216.256 55.0976C216.256 55.0976 215.425 55.9246 214.145 58.66C212.61 61.9679 208.261 67.6295 208.261 67.6295C208.261 67.6295 209.604 72.4641 210.116 84.2962C210.116 84.2962 210.819 87.1588 207.813 87.1588C204.807 87.1588 200.649 66.6753 200.33 66.2936C200.074 65.9755 200.969 61.8406 203.016 59.1689C204.743 56.9424 201.481 54.2706 205.319 52.1078C205.255 52.0442 213.826 50.0085 216.256 55.0976Z" fill="#F39C33"/>
<path d="M211.011 57.7059C211.011 57.7059 205.83 59.2962 203.016 60.3777C202.185 60.6957 202.185 59.4871 197.324 59.7415C194.603 60.0418 191.935 60.7051 189.392 61.7135C189.392 61.7135 189.008 66.2301 190.032 74.7543C190.032 74.7543 190.032 77.6805 187.09 76.9808C184.211 76.281 180.757 59.4234 180.693 58.9145C179.926 55.2886 182.996 54.0799 195.788 51.5354C195.788 51.5354 199.626 49.4361 203.656 50.5176C206.918 51.4718 210.5 55.225 211.011 57.7059Z" fill="#F39C33"/>
<path d="M194.253 41.7387C189.84 31.9423 184.147 27.4893 186.194 23.4181C186.194 23.4181 186.898 19.7921 190.48 19.156C192.809 18.6054 194.937 17.4152 196.62 15.7209C196.62 15.7209 203.208 13.6852 208.133 16.8023C213.058 19.9193 223.484 44.4741 227.066 52.4894C227.066 52.4894 227.322 54.1434 223.292 54.1434C223.292 54.1434 213.442 32.9601 208.837 28.7616C208.837 28.7616 220.99 54.0798 215.297 56.7515C215.297 56.7515 215.105 52.4258 205.767 54.0798C200.458 55.034 199.498 49.8813 195.852 51.5988C195.788 51.5988 195.852 45.3011 194.253 41.7387Z" fill="#183A6B"/>
<path d="M139.374 15.7207C139.374 15.7207 146.218 12.4128 145.898 11.9039C145.706 11.5859 144.683 12.222 143.851 12.4764C143.275 12.6673 142.7 12.6673 142.7 12.2856C142.7 11.9039 146.346 10.4408 146.154 10.1227C145.834 9.55022 142.508 11.5222 142.252 11.395C142.252 11.395 142.06 11.1406 142.188 11.0133C143.083 10.4408 145.386 8.9777 145.386 8.9777C145.386 8.9777 145.642 8.59602 145.13 8.72325C144.491 8.78686 141.932 10.568 141.548 10.4408C141.165 10.3772 144.299 8.46879 143.915 8.15072C143.659 7.89627 138.606 11.4586 138.414 11.0769C138.172 10.5116 138.149 9.87687 138.35 9.29576C138.542 8.59602 137.903 8.72324 137.775 9.29576C137.647 9.80467 137.071 11.8403 136.623 13.6215C136.176 15.4027 139.374 15.7207 139.374 15.7207Z" fill="#FFD1B2"/>
<path d="M107.201 27.235C107.201 27.235 115.836 22.782 124.79 18.6471C133.745 14.5123 135.472 12.7311 136.751 13.9398C138.67 15.6573 139.374 15.7209 139.374 15.7209C139.374 15.7209 114.556 31.9424 112.701 33.151C110.847 34.2961 107.201 27.235 107.201 27.235Z" fill="#183A6B"/>
<path d="M204.231 98.1003C204.231 98.1003 205.063 98.9273 205.83 98.7365C206.598 98.5456 207.877 98.2276 209.22 95.2377C210.212 93.0501 210.9 90.739 211.267 88.3675C211.365 87.5528 211.278 86.7267 211.011 85.9502C211.011 85.9502 206.726 96.3828 204.231 98.1003Z" fill="white"/>
<path d="M205.894 84.9324C205.894 84.9324 205.703 87.3498 205.447 88.9401C204.935 91.7391 203.72 94.6653 203.848 96.3193C203.912 96.9554 203.848 98.4185 204.871 98.4185C207.302 98.4185 209.029 95.874 210.883 87.3498C210.883 87.3498 211.011 83.851 210.116 83.3421C209.54 82.9604 209.284 86.0139 207.43 85.9503C206.406 85.9503 206.406 84.8052 205.894 84.9324Z" fill="#243956"/>
<path d="M184.211 88.5583C184.211 88.5583 185.043 89.3853 185.81 89.1944C186.578 89.0036 187.857 88.6855 189.2 85.6957C189.584 84.8051 189.52 83.5964 189.776 82.8331C190.352 81.1155 190.927 81.6244 191.247 78.8254C191.275 77.9289 191.1 77.0375 190.735 76.2173C190.735 76.2173 186.706 86.7771 184.211 88.5583Z" fill="white"/>
<path d="M185.746 75.6446C185.742 76.9022 185.635 78.1574 185.427 79.3978C184.915 82.1968 183.7 85.123 183.827 86.7769C183.891 87.4131 183.827 88.8762 184.851 88.8762C186.642 88.8762 188.241 87.7948 189.072 82.9601C189.328 81.4334 190.927 80.2884 190.991 77.2349C190.942 76.5487 190.835 75.8678 190.671 75.1993C190.433 74.7113 190.155 74.2433 189.84 73.7998C188.944 74.0543 189.712 76.1535 187.345 76.4716C185.682 76.5988 186.258 75.5174 185.746 75.6446Z" fill="#243956"/>
<path d="M253.93 59.0418L228.985 65.5939L227.706 65.085L252.715 58.4692L253.93 59.0418Z" fill="#D9E7F6"/>
<path d="M250.924 57.324L225.915 63.9398L224.699 63.3673L249.645 56.7515L250.924 57.324Z" fill="#D9E7F6"/>
<path d="M191.759 16.166C191.759 16.166 189.264 17.5019 188.689 17.3111C184.403 16.0388 179.798 7.8963 181.333 5.79705C182.868 3.69781 185.874 0.262684 190.991 1.66218C195.66 2.93445 196.236 9.99554 193.358 14.3849L191.759 16.166Z" fill="#FFD1B2"/>
<path d="M195.98 16.6751C195.852 14.8939 195.021 16.2298 194.125 10.5682C194.125 10.5682 192.27 9.10505 189.904 11.5224C187.025 14.5122 189.008 16.7387 190.032 19.156C190.799 20.9372 196.3 21.0008 195.98 16.6751Z" fill="#FFD1B2"/>
<path d="M190.799 5.47886L192.782 9.80457C192.876 9.62885 192.921 9.43091 192.91 9.23206C192.782 8.08701 191.823 6.30583 193.422 6.6239C195.533 7.00558 194.445 12.2855 194.445 12.2855C194.445 12.2855 194.829 10.6315 194.957 10.059C195.277 9.04121 194.957 6.17861 194.957 6.17861C194.957 6.17861 194.701 3.06155 192.59 2.29818C189.968 1.34398 190.735 4.90634 190.799 5.47886Z" fill="#476570"/>
<path d="M35.6909 54.9702L36.5224 62.2858L37.8656 59.8684L39.1449 62.0949L40.3602 61.5224L39.017 59.4232L41.9592 59.8684L35.6909 54.9702Z" fill="#C0D2E2"/>
<path d="M181.077 8.85061C181.077 8.85061 182.42 12.4766 184.531 14.1305C184.531 14.1305 181.845 10.9499 181.589 7.70557C181.398 7.8238 181.248 7.99604 181.156 8.20012C181.065 8.4042 181.038 8.63075 181.077 8.85061Z" fill="#2E4B5B"/>
<path d="M35.9468 54.0796L36.8422 61.3951L38.1855 58.9778L39.4007 61.2043L40.68 60.5682L39.3368 58.4689L42.2151 58.9142L35.9468 54.0796Z" fill="white"/>
<path d="M194.957 6.75149C194.957 3.9525 193.997 2.17132 191.183 1.08989C190.479 0.835441 189.456 0.0720766 188.433 0.00846313C185.426 -0.118764 180.885 1.28073 179.798 3.88888C178.455 7.00594 180.885 9.42326 181.845 10.5047C181.845 10.5047 180.949 7.13317 185.043 5.16115C186.386 4.52502 186.77 3.82527 189.776 4.84308C190.415 5.03392 189.456 -0.309601 193.869 3.31637C194.765 4.14334 194.957 6.75149 194.957 6.75149Z" fill="#2E4B5B"/>
<path d="M236.724 97.3365C236.613 97.5146 236.527 97.7073 236.468 97.909C235.701 99.8174 234.997 101.662 234.294 103.571C234.166 103.825 229.624 104.779 229.624 104.779C228.921 104.016 228.281 103.189 227.578 102.426C227.77 102.171 228.025 101.917 228.281 101.599C228.744 100.915 229.03 100.128 229.113 99.3085C229.177 98.9904 229.177 98.6724 229.241 98.2907C229.237 98.2564 229.242 98.2219 229.253 98.1895C229.265 98.1571 229.284 98.1276 229.308 98.1033C229.333 98.079 229.362 98.0603 229.395 98.0487C229.427 98.0371 229.462 98.0329 229.497 98.0362C231.671 97.7182 233.782 97.2092 235.893 96.7003C235.957 96.7003 236.021 96.6367 236.149 96.6367H236.34C235.125 97.6545 233.91 98.736 232.631 99.7538C232.556 99.8044 232.465 99.8269 232.375 99.8174C232.278 99.8037 232.179 99.8093 232.085 99.834C231.99 99.8587 231.902 99.902 231.824 99.9613C231.747 100.021 231.682 100.095 231.634 100.179C231.586 100.264 231.555 100.357 231.543 100.454C231.53 100.546 231.537 100.641 231.563 100.731C231.589 100.821 231.633 100.904 231.693 100.976C231.753 101.048 231.828 101.106 231.912 101.148C231.997 101.189 232.089 101.213 232.183 101.217C232.376 101.219 232.563 101.147 232.705 101.017C232.848 100.888 232.935 100.709 232.95 100.517C232.966 100.421 233.011 100.333 233.078 100.263C234.294 99.2449 235.573 98.1634 236.788 97.1456C236.764 97.1707 236.746 97.2008 236.734 97.2339C236.723 97.2669 236.72 97.3019 236.724 97.3365Z" fill="#C0D2E2"/>
<path d="M224.699 104.016C226.17 102.998 225.147 103.698 226.554 102.68C227.386 103.698 228.281 104.716 229.113 105.734L227.386 107.197C226.362 105.924 225.787 105.225 224.699 104.016Z" fill="#C0D2E2"/>
<path d="M236.724 96.5733C236.613 96.7514 236.527 96.9441 236.468 97.1458C235.701 99.0542 234.997 100.899 234.294 102.807C234.166 103.062 229.624 104.016 229.624 104.016C228.921 103.253 228.281 102.426 227.578 101.662C227.578 101.662 229.241 97.8456 229.241 97.5275C229.237 97.4932 229.242 97.4587 229.253 97.4263C229.265 97.3939 229.284 97.3644 229.308 97.3401C229.333 97.3158 229.362 97.2971 229.395 97.2855C229.427 97.2739 229.462 97.2697 229.497 97.273C231.671 96.955 233.782 96.4461 235.893 95.9372C235.957 95.9372 236.021 95.8735 236.149 95.8735H236.34C235.125 96.8914 233.91 97.9728 232.631 98.9906C232.556 99.0412 232.465 99.0637 232.375 99.0542C232.278 99.0405 232.179 99.0461 232.085 99.0708C231.99 99.0956 231.902 99.1388 231.824 99.1981C231.747 99.2574 231.682 99.3314 231.634 99.416C231.586 99.5005 231.555 99.5938 231.543 99.6903C231.53 99.783 231.537 99.8774 231.563 99.9673C231.589 100.057 231.633 100.141 231.693 100.213C231.753 100.285 231.828 100.343 231.912 100.385C231.997 100.426 232.089 100.45 232.183 100.454C232.376 100.455 232.563 100.384 232.705 100.254C232.848 100.124 232.935 99.9456 232.95 99.754C232.966 99.6583 233.011 99.5696 233.078 99.4995C234.294 98.4817 235.573 97.4003 236.788 96.3825C236.764 96.4075 236.746 96.4376 236.734 96.4707C236.723 96.5037 236.72 96.5387 236.724 96.5733Z" fill="white"/>
<path d="M224.763 103.253C226.234 102.235 225.211 102.935 226.618 101.917C227.45 102.935 228.345 103.953 229.177 104.97L227.45 106.434C226.426 105.161 225.787 104.462 224.763 103.253Z" fill="white"/>
</g>
<defs>
<linearGradient id="paint0_linear_174_2933" x1="58.347" y1="157.272" x2="222.319" y2="157.272" gradientUnits="userSpaceOnUse">
<stop stop-color="#0F77F0"/>
<stop offset="1" stop-color="#0D488C"/>
</linearGradient>
<linearGradient id="paint1_linear_174_2933" x1="156.152" y1="336.436" x2="156.85" y2="32.3743" gradientUnits="userSpaceOnUse">
<stop stop-color="#0076FF"/>
<stop offset="1" stop-color="#0F77F0" stop-opacity="0"/>
</linearGradient>
<linearGradient id="paint2_linear_174_2933" x1="70.5654" y1="113.714" x2="64.2913" y2="83.5492" gradientUnits="userSpaceOnUse">
<stop stop-color="white" stop-opacity="0.251"/>
<stop offset="1" stop-color="#0071E9" stop-opacity="0.251"/>
</linearGradient>
<linearGradient id="paint3_linear_174_2933" x1="183.111" y1="152.16" x2="170.615" y2="111.741" gradientUnits="userSpaceOnUse">
<stop stop-color="white" stop-opacity="0.251"/>
<stop offset="1" stop-color="#0071E9" stop-opacity="0.251"/>
</linearGradient>
<linearGradient id="paint4_linear_174_2933" x1="184.623" y1="127.451" x2="175.4" y2="97.4603" gradientUnits="userSpaceOnUse">
<stop stop-color="white" stop-opacity="0.251"/>
<stop offset="1" stop-color="#0071E9" stop-opacity="0.251"/>
</linearGradient>
<linearGradient id="paint5_linear_174_2933" x1="222.586" y1="54.5043" x2="225.11" y2="62.5545" gradientUnits="userSpaceOnUse">
<stop stop-color="white" stop-opacity="0.251"/>
<stop offset="1" stop-color="#0071E9" stop-opacity="0.251"/>
</linearGradient>
<linearGradient id="paint6_linear_174_2933" x1="214.014" y1="55.0108" x2="204.423" y2="73.4102" gradientUnits="userSpaceOnUse">
<stop stop-color="white" stop-opacity="0.251"/>
<stop offset="1" stop-color="#0071E9" stop-opacity="0.251"/>
</linearGradient>
<clipPath id="clip0_174_2933">
<rect width="298" height="200" fill="white"/>
</clipPath>
</defs>
</svg>
