<svg xmlns="http://www.w3.org/2000/svg" width="37" height="34" viewBox="0 0 37 34" fill="none"><path fill-rule="evenodd" clip-rule="evenodd" d="M12.3778 1.83016C11.3575 1.50008 10.5968 1.55912 10.0547 1.87212C9.51254 2.18511 9.08106 2.81439 8.85676 3.86305C8.63248 4.91158 8.63863 6.29008 8.90067 7.92563C9.00138 8.5542 9.13883 9.21432 9.31232 9.90028C10.8343 9.55581 12.493 9.2953 14.2466 9.13317C15.2639 7.69551 16.319 6.38914 17.3784 5.24332C16.8711 4.75009 16.3682 4.30099 15.8742 3.89949C14.5887 2.85478 13.398 2.1602 12.3778 1.83016ZM18.5008 4.09086C17.96 3.56502 17.4212 3.0838 16.8888 2.6511C15.5142 1.5339 14.1483 0.712149 12.873 0.299568C11.5978 -0.112977 10.324 -0.14094 9.25032 0.478945C8.17665 1.09883 7.56398 2.21592 7.28364 3.52657C7.00328 4.83733 7.03201 6.43107 7.31223 8.18012C7.42076 8.85751 7.56808 9.56474 7.75305 10.296C7.02743 10.5014 6.34141 10.7274 5.70062 10.972C4.04578 11.6039 2.6512 12.3759 1.65623 13.2741C0.661341 14.1722 0.000244141 15.2613 0.000244141 16.5011C0.000244141 17.7408 0.661341 18.83 1.65623 19.7281C2.6512 20.6262 4.04578 21.3982 5.70062 22.0301C6.34132 22.2747 7.02723 22.5007 7.75274 22.706C7.56776 23.4373 7.42043 24.1446 7.3119 24.822C7.03167 26.571 7.00294 28.1648 7.28331 29.4756C7.56364 30.7862 8.17631 31.9033 9.24998 32.5232C10.3237 33.1431 11.5974 33.1151 12.8726 32.7026C14.148 32.29 15.5138 31.4682 16.8884 30.351C17.4209 29.9182 17.9599 29.4369 18.5008 28.9109C19.0413 29.4364 19.5798 29.9173 20.1119 30.3497C21.4865 31.4669 22.8523 32.2887 24.1277 32.7013C25.4029 33.1138 26.6766 33.1418 27.7503 32.5219C28.824 31.902 29.4367 30.7849 29.717 29.4743C29.9974 28.1635 29.9686 26.5698 29.6884 24.8207C29.5799 24.1437 29.4327 23.4368 29.2479 22.706C29.9733 22.5006 30.6592 22.2747 31.2999 22.0301C32.9547 21.3982 34.3493 20.6262 35.3443 19.7281C36.3391 18.83 37.0002 17.7408 37.0002 16.5011C37.0002 15.2613 36.3391 14.1722 35.3443 13.2741C34.3493 12.3759 32.9547 11.6039 31.2999 10.972C30.6591 10.7274 29.9731 10.5014 29.2476 10.296C29.4324 9.56522 29.5796 8.85842 29.6881 8.18141C29.9683 6.43236 29.997 4.83862 29.7167 3.52786C29.4363 2.21721 28.8237 1.10012 27.75 0.480237C26.6763 -0.139649 25.4025 -0.111686 24.1273 0.30086C22.852 0.713441 21.4861 1.53519 20.1115 2.6524C19.5796 3.08474 19.0412 3.56552 18.5008 4.09086ZM18.5007 6.3993C17.7801 7.1831 17.0575 8.04954 16.3457 8.98892C17.0529 8.95671 17.7719 8.94019 18.5002 8.94019C19.2289 8.94019 19.9482 8.95673 20.6556 8.98896C19.9439 8.04958 19.2213 7.18313 18.5007 6.3993ZM13.0721 10.8789C11.9028 11.0256 10.7913 11.2181 9.75228 11.4502C10.0708 12.466 10.4598 13.5249 10.9174 14.6108C11.243 13.9825 11.588 13.3518 11.9521 12.7213C12.3164 12.0902 12.6904 11.4755 13.0721 10.8789ZM11.7709 16.5007C12.2436 15.5194 12.7688 14.524 13.3452 13.5256C13.922 12.5267 14.5217 11.5736 15.1356 10.6731C16.2222 10.5917 17.3471 10.5489 18.5002 10.5489C19.6537 10.5489 20.7788 10.5917 21.8656 10.6731C22.4792 11.5732 23.0786 12.5259 23.6551 13.5243C24.2317 14.5231 24.7572 15.5189 25.23 16.5007C24.7571 17.4827 24.2315 18.4787 23.6547 19.4778C23.0782 20.4763 22.4788 21.4289 21.8652 22.329C20.7786 22.4104 19.6535 22.4532 18.5002 22.4532C17.3472 22.4532 16.2224 22.4104 15.136 22.3291C14.5221 21.4286 13.9223 20.4755 13.3456 19.4765C12.769 18.4779 12.2437 17.4823 11.7709 16.5007ZM9.99277 16.5007C9.25643 14.9011 8.65267 13.3344 8.19002 11.8442C7.50934 12.0369 6.86906 12.2479 6.27444 12.4749C4.72699 13.0658 3.5301 13.7497 2.73418 14.4682C1.93817 15.1867 1.60894 15.8751 1.60894 16.5011C1.60894 17.127 1.93817 17.8154 2.73418 18.5339C3.5301 19.2524 4.72699 19.9364 6.27444 20.5272C6.86897 20.7542 7.50915 20.9652 8.18971 21.1578C8.65243 19.6675 9.2563 18.1005 9.99277 16.5007ZM9.75196 21.5518C10.0705 20.5358 10.4596 19.4768 10.9173 18.3906C11.2431 19.0191 11.5882 19.6501 11.9524 20.2808C12.3168 20.9119 12.6908 21.5267 13.0725 22.1233C11.9029 21.9766 10.7912 21.784 9.75196 21.5518ZM9.312 23.1018C9.1385 23.7878 9.00104 24.4479 8.90033 25.0765C8.63829 26.712 8.63214 28.0905 8.85642 29.1391C9.08072 30.1877 9.5122 30.817 10.0543 31.13C10.5965 31.443 11.3572 31.502 12.3775 31.172C13.3977 30.8419 14.5884 30.1473 15.8738 29.1026C16.3679 28.701 16.871 28.2518 17.3785 27.7585C16.3192 26.6127 15.2642 25.3065 14.247 23.869C12.4931 23.7068 10.8341 23.4463 9.312 23.1018ZM19.6231 27.7584C20.1301 28.2513 20.6328 28.7001 21.1265 29.1013C22.4119 30.1461 23.6026 30.8406 24.6228 31.1707C25.6431 31.5007 26.4038 31.4417 26.946 31.1287C27.4881 30.8157 27.9196 30.1864 28.1439 29.1378C28.3682 28.0892 28.362 26.7108 28.1 25.0752C27.9993 24.447 27.862 23.7873 27.6886 23.1017C26.1667 23.4462 24.5079 23.7068 22.7543 23.8689C21.7372 25.3064 20.6823 26.6126 19.6231 27.7584ZM20.6553 24.0132C19.9436 24.9524 19.2212 25.8187 18.5007 26.6025C17.7802 25.8188 17.0577 24.9524 16.346 24.0132C17.0531 24.0454 17.772 24.0619 18.5002 24.0619C19.2288 24.0619 19.9479 24.0454 20.6553 24.0132ZM23.9287 22.1232C25.0981 21.9765 26.2097 21.7839 27.2487 21.5518C26.9302 20.5358 26.5412 19.4768 26.0835 18.3907C25.7577 19.0197 25.4123 19.651 25.0479 20.2821C24.6838 20.9127 24.3101 21.527 23.9287 22.1232ZM27.0081 16.5007C27.7445 18.1005 28.3483 19.6674 28.811 21.1578C29.4915 20.9651 30.1316 20.7542 30.726 20.5272C32.2735 19.9364 33.4704 19.2524 34.2663 18.5339C35.0623 17.8154 35.3915 17.127 35.3915 16.5011C35.3915 15.8751 35.0623 15.1867 34.2663 14.4682C33.4704 13.7497 32.2735 13.0658 30.726 12.4749C30.1315 12.2479 29.4913 12.0369 28.8107 11.8442C28.3481 13.3344 27.7444 14.9011 27.0081 16.5007ZM27.6883 9.90031C26.1665 9.55587 24.508 9.29538 22.7546 9.13324C21.7374 7.69561 20.6824 6.38925 19.6231 5.24339C20.13 4.75064 20.6325 4.30195 21.1261 3.90078C22.4115 2.85607 23.6023 2.1615 24.6225 1.83145C25.6428 1.50137 26.4035 1.56041 26.9456 1.87341C27.4878 2.1864 27.9192 2.81568 28.1435 3.86434C28.3678 4.91288 28.3617 6.29137 28.0996 7.92692C27.999 8.55511 27.8616 9.2148 27.6883 9.90031ZM27.2484 11.4503C26.93 12.466 26.541 13.5248 26.0835 14.6107C25.7577 13.982 25.4125 13.3509 25.0482 12.72C24.6841 12.0894 24.3104 11.4751 23.9291 10.879C25.0982 11.0257 26.2096 11.2182 27.2484 11.4503ZM21.7977 16.5013C21.7977 18.3227 20.3212 19.7992 18.4999 19.7992C16.6785 19.7992 15.2021 18.3227 15.2021 16.5013C15.2021 14.68 16.6785 13.2035 18.4999 13.2035C20.3212 13.2035 21.7977 14.68 21.7977 16.5013Z" fill="#61DAFB"></path></svg>