<svg xmlns="http://www.w3.org/2000/svg" version="1.1" xmlns:xlink="http://www.w3.org/1999/xlink" width="34" height="34" x="0" y="0" viewBox="0 0 64 64" style="enable-background:new 0 0 512 512" xml:space="preserve" class=""><g><g fill="#92ba43" fill-rule="evenodd"><path d="M31.423 17.286a.936.936 0 0 0-.53-.178c-2.964 0-4.628 3.892-5.33 6.278.79-.244 1.646-.508 2.52-.78.6-3.13 2.018-4.698 3.34-5.32M29.348 22.214l3.19-.988v-.178c0-1.232-.164-2.144-.418-2.78-1.006.432-2.158 1.576-2.772 3.946M23.856 32.837c0 3.55 3.542 3.646 3.542 5.808 0 .522-.368 1.238-1.276 1.238-1.39 0-3.038-1.414-3.038-1.414l-.838 2.77s1.602 1.95 4.734 1.95c2.612 0 4.548-1.966 4.548-5.018 0-3.88-4.318-4.514-4.318-6.172 0-.302.096-1.508 2.016-1.508 1.31 0 2.378.57 2.378.57l1.22-3.626s-.824-.478-2.494-.478c-4.328 0-6.474 2.892-6.474 5.88M33.251 18.065c.228.652.368 1.472.368 2.494v.332l1.544-.478c-.392-1.194-1-2.234-1.912-2.348" fill="#92ba43" opacity="1" data-original="#92ba43" class=""></path><path d="m36.18 48-18.25-3.42s2.342-18.112 2.43-18.75c.118-.844.146-.872 1.042-1.154.144-.046 1.284-.398 2.888-.896.618-2.62 2.59-7.78 6.716-7.78.54 0 1.164.29 1.668.956.05-.002.1-.006.15-.006 1.77 0 2.778 1.51 3.348 3.152l.956-.296c.142-.042.508-.098.696.09l1.896 1.882 2.576.192c.116.01.258.1.28.26.022.162 3.492 23.63 3.492 23.63zM32 0C14.326 0 0 14.326 0 32s14.326 32 32 32c17.672 0 32-14.326 32-32S49.672 0 32 0z" fill="#92ba43" opacity="1" data-original="#92ba43" class=""></path></g></g></svg>