<svg width="260" height="275" viewBox="0 0 260 275" fill="none" xmlns="http://www.w3.org/2000/svg">
<g clip-path="url(#clip0_174_3075)">
<path d="M142.507 107.159C142.507 107.159 145.797 93.879 157.771 85.9243C157.771 85.9243 158.692 85.3322 158.758 86.1872C159.088 88.4223 150.337 88.1594 146.192 111.434L142.507 107.159Z" fill="#6D4C3E"/>
<path d="M161.785 100.913C163.006 99.3662 163.714 97.4765 163.808 95.5081C163.903 93.5397 163.379 91.591 162.311 89.9345C158.627 83.7551 154.35 84.9384 154.35 84.9384L156.653 89.4755L159.156 89.6732L156.984 90.0023L158.103 92.3688L159.682 92.3027L158.366 92.8947L159.415 95.1298L162.508 94.8669L159.683 95.4589L159.88 95.9848L161.262 96.051L160.144 96.3801L161.785 100.913Z" fill="#9AD17C"/>
<path d="M155.206 87.3043C155.206 87.3043 161.39 81.9807 169.219 86.9098C177.049 91.839 175.404 97.1658 175.404 97.1658L169.679 94.1418L169.482 90.9203L169.021 93.6813L165.994 92.1689L166.126 90.1306L165.337 91.7745L162.511 90.3936L162.972 86.4493L162.117 89.9983L161.459 89.7354V87.9608L160.998 89.3418L155.206 87.3043Z" fill="#8BCB69"/>
<path d="M156.85 88.1593C158.072 86.6123 158.779 84.7226 158.874 82.7542C158.968 80.7858 158.445 78.8371 157.376 77.1806C153.626 71.0012 149.416 72.1845 149.416 72.1845L151.719 76.7208L154.221 76.9184L152.05 77.2475L153.168 79.6141L154.747 79.548L153.431 80.14L154.481 82.3751L157.573 82.1122L154.748 82.7042L154.945 83.2301L156.327 83.2963L155.208 83.6253L156.85 88.1593Z" fill="#9AD17C"/>
<path d="M156.324 87.5672C156.69 85.6323 157.656 83.8615 159.085 82.5049C160.513 81.1483 162.332 80.2744 164.285 80.0069C171.388 78.7574 173.233 82.7679 173.233 82.7679L168.365 84.0173L166.589 82.2428L167.773 84.0834L165.207 84.8094L164.219 83.56L164.614 84.9409L162.246 85.5982L160.47 83.0978L161.852 85.5982L161.325 85.7959L160.338 84.7473L160.798 85.7959L156.324 87.5672Z" fill="#9AD17C"/>
<path d="M157.573 87.8299C157.735 85.8682 157.276 83.9052 156.261 82.2183C155.246 80.5314 153.726 79.2059 151.915 78.429C145.337 75.3389 142.507 78.6919 142.507 78.6919L146.915 81.1924L149.087 79.943L147.442 81.3892L149.745 82.7701L151.061 81.8498L150.334 83.0331L152.439 84.2825L154.808 82.3103L152.768 84.3486L153.229 84.6777L154.413 83.9518L153.687 84.8068L157.573 87.8299Z" fill="#9AD17C"/>
<path d="M157.574 87.5654C156.027 85.5737 153.891 84.1202 151.469 83.4121C149.048 82.7039 146.464 82.777 144.087 83.6211C135.27 86.3846 135.468 91.9719 135.468 91.9719L141.784 90.5257L142.771 87.4355L142.508 90.1966L145.797 89.5392L146.192 87.567L146.522 89.3416L149.614 88.7495L150.207 84.8706L150.075 88.5519L150.802 88.4866L151.262 86.7774L151.329 88.2236L157.574 87.5654Z" fill="#8BCB69"/>
<path d="M164.943 51.5409C164.943 51.5409 177.114 39.1813 167.837 21.8256C158.561 4.46997 146.981 7.23177 146.981 7.23177L152.507 19.7882L159.284 20.6432L153.428 21.1691L156.126 27.809L160.468 27.8752L156.916 29.2561L159.419 35.4355L167.774 35.1064L160.077 36.2896L160.538 37.7359L164.353 38.065L161.327 38.7909L164.943 51.5409Z" fill="#8BCB69"/>
<path d="M176.128 86.8436C176.128 86.8436 188.299 74.4841 179.022 57.1284C169.746 39.7727 158.166 42.5345 158.166 42.5345L163.692 55.0909L170.469 55.9459L164.613 56.4718L167.311 63.1118L171.653 63.1771L168.101 64.558L170.604 70.7374L178.96 70.4083L171.262 71.5916L171.723 73.0378L175.538 73.3669L172.512 74.0928L176.128 86.8436Z" fill="#9AD17C"/>
<path d="M163.495 49.8316C163.495 49.8316 166.652 32.7389 186.193 30.4377C205.734 28.0711 210.141 39.1812 210.141 39.1812L196.654 41.8769L192.049 36.8147L195.01 41.9422L187.97 43.52L185.467 40.0354L186.388 43.7829L179.875 45.2953L175.335 38.2609L178.756 45.2953L177.309 45.7559L174.876 42.7972L176.061 45.6897L163.495 49.8316Z" fill="#9AD17C"/>
<path d="M166.85 50.686C166.85 50.686 170.14 33.6594 152.77 24.327C135.401 15.0511 127.309 23.7326 127.309 23.7326L138.888 31.0952L145.007 28.0052L140.402 31.6865L146.389 35.6969L150.008 33.3303L147.837 36.4858L153.298 40.2333L160.074 35.3025L154.35 40.5615L155.534 41.548L158.89 39.7073L156.785 41.9424L166.85 50.686Z" fill="#8BCB69"/>
<path d="M123.296 100.978C123.296 100.978 134.086 65.4121 167.64 45.493C167.64 45.493 170.143 44.0468 170.338 46.348C170.865 52.462 147.179 50.4238 132.64 113.141L123.296 100.978Z" fill="#6D4C3E"/>
<path d="M166.785 49.9631C166.785 49.9631 155.139 31.0951 130.73 37.3406C106.321 43.5861 106.255 58.8422 106.255 58.8422L123.559 55.7521L126.652 47.6006L125.533 55.0294L134.613 53.6485L135.995 48.3249L136.652 53.1895L145.073 52.0063L147.179 41.4873L146.323 51.4142L148.231 51.2827L149.81 46.6149L149.744 50.5592L166.785 49.9631Z" fill="#7DC456"/>
<path d="M160.534 48.9768C160.534 48.9768 178.167 35.5 198.694 49.9632C219.221 64.4264 213.958 78.692 213.958 78.692L198.892 69.6855V60.9419L197.313 68.3046L189.286 63.8344L189.879 58.3777L187.511 62.6527L180.076 58.577L181.852 47.9927L179.089 57.5913L177.313 56.8024L177.511 51.9378L176.129 55.6853L160.534 48.9768Z" fill="#7DC456"/>
<path d="M60.8582 157.056V36.0259L69.1484 31.3548L70.0041 28.5317L91.2553 37.4044L94.0185 40.2968V171.913L60.8582 157.056Z" fill="#849998"/>
<path d="M84.0838 66.1359L82.5702 66.5303V65.018L84.0838 64.6235V66.1359Z" fill="#A0BABA"/>
<path d="M84.0838 68.8976L82.5702 69.2921V67.7797L84.0838 67.3853V68.8976Z" fill="#A0BABA"/>
<path d="M84.0838 71.7237L82.5702 72.0528V70.5404L84.0838 70.146V71.7237Z" fill="#A0BABA"/>
<path d="M175.271 163.433L177.311 163.696L155.994 168.89L144.283 161.461L175.271 163.433Z" fill="#8DD8AB"/>
<path d="M134.414 120.767V156.596C134.414 156.596 145.27 161.592 157.178 168.036C157.178 168.036 172.902 163.302 176.39 162.184V125.172L154.218 115.047L134.414 120.767Z" fill="#77C998"/>
<path d="M176.456 125.303V162.315C173.232 163.302 159.679 167.311 157.244 168.035V128.459L171.85 123.396L176.456 125.303Z" fill="#8DD8AB"/>
<path d="M157.244 132.272L164.81 130.168L157.244 131.614V132.272Z" fill="#77C998"/>
<path d="M156.323 130.759L134.414 120.898C134.019 120.7 134.019 120.437 134.48 120.306L152.643 115.047C153.17 114.923 153.722 114.969 154.222 115.178L176.131 125.04C176.526 125.237 176.526 125.5 176.065 125.632L157.903 130.891C157.373 130.978 156.831 130.933 156.323 130.759Z" fill="#8BCB69"/>
<path opacity="0.68" d="M147.046 124.054L160.204 130.168L161.455 132.009C161.455 132.009 171.587 129.186 176.455 128.656L176.192 126.42C176.192 126.42 176.85 123.33 169.547 120.898C165.079 119.399 160.779 117.438 156.718 115.047L145.731 118.006L138.691 119.847L147.046 124.054Z" fill="#63AA7F"/>
<path d="M147.046 123.265L163.298 130.825C163.298 130.825 177.574 126.618 179.614 128.129C177.396 124.279 173.798 121.413 169.548 120.109C162.18 117.677 154.614 114.258 154.614 114.258L137.967 118.926L145.73 122.542L147.046 123.265Z" fill="#A8D88E"/>
<path d="M157.244 133.586L144.283 127.67L157.244 134.047V133.586Z" fill="#63AA7F"/>
<path d="M139.415 140.818L145.73 143.318L139.415 140.555V140.818Z" fill="#63AA7F"/>
<path d="M141.125 158.765L147.441 161.265L141.125 158.442V158.765Z" fill="#63AA7F"/>
<path opacity="0.68" d="M138.625 147.983L155.994 154.557C154.477 154.932 153.031 155.554 151.716 156.398C151.716 156.398 142.112 149.298 138.625 147.983Z" fill="#63AA7F"/>
<path d="M138.625 147.655L155.994 154.558C154.477 154.711 153.015 155.206 151.716 156.004C147.536 152.943 143.163 150.155 138.625 147.655Z" fill="#93E5B5"/>
<path d="M161.455 125.961C165.271 125.961 168.364 124.754 168.364 123.265C168.364 121.776 165.271 120.569 161.455 120.569C157.64 120.569 154.547 121.776 154.547 123.265C154.547 124.754 157.64 125.961 161.455 125.961Z" fill="#C5E5B4"/>
<path d="M146.783 157.253L157.244 161.986V161.46L146.783 157.253Z" fill="#6AAD82"/>
<path d="M173.89 127.013C175.307 127.013 176.456 126.571 176.456 126.026C176.456 125.481 175.307 125.04 173.89 125.04C172.473 125.04 171.324 125.481 171.324 126.026C171.324 126.571 172.473 127.013 173.89 127.013Z" fill="#77C998"/>
<path d="M122.44 110.511L138.691 118.071C138.691 118.071 152.968 113.864 155.008 115.376C152.79 111.525 149.192 108.659 144.942 107.355C137.573 104.923 130.008 101.504 130.008 101.504L113.36 106.172L121.124 109.788L122.44 110.511Z" fill="#C5E5B4"/>
<path d="M136.848 107.75C140.663 107.75 143.757 108.96 143.757 110.446C143.757 111.931 140.663 113.141 136.848 113.141C133.034 113.141 129.94 111.934 129.94 110.446C129.94 108.957 133.034 107.75 136.848 107.75Z" fill="#D3EBC6"/>
<path d="M149.284 114.193C150.701 114.193 151.85 113.752 151.85 113.207C151.85 112.662 150.701 112.22 149.284 112.22C147.867 112.22 146.718 112.662 146.718 113.207C146.718 113.752 147.867 114.193 149.284 114.193Z" fill="#77C998"/>
<path d="M157.244 160.212V159.686L152.704 158.108" fill="#6AAD82"/>
<path d="M157.244 156.004L171.324 152.717L157.244 155.413V156.004Z" fill="#77C998"/>
<path d="M157.244 146.998L171.324 144.039L157.244 146.735V146.998Z" fill="#77C998"/>
<path d="M157.244 164.156L164.81 162.118L157.244 163.564V164.156Z" fill="#77C998"/>
<path d="M157.244 154.558L163.428 153.177L157.244 153.966V154.558Z" fill="#77C998"/>
<path d="M176.389 140.094L168.888 141.541L176.455 139.502L176.389 140.094Z" fill="#77C998"/>
<path opacity="0.68" d="M157.376 138.386L175.008 134.573C175.008 134.573 160.994 138.122 160.074 140.358C160.073 140.292 157.968 139.174 157.376 138.386Z" fill="#63AA7F"/>
<path d="M176.455 138.714L173.561 139.109L176.455 138.254V138.714Z" fill="#77C998"/>
<path d="M157.244 138.254L175.008 134.573C175.008 134.573 160.994 137.728 160.074 139.963C160.069 139.963 157.837 139.043 157.244 138.254Z" fill="#A0EABE"/>
<path opacity="0.68" d="M157.244 158.831L176.456 154.952C176.31 155.115 176.23 155.325 176.23 155.544C176.23 155.762 176.31 155.973 176.456 156.135C176.456 156.135 163.231 157.516 157.244 158.831Z" fill="#63AA7F"/>
<path d="M158.363 167.705L158.758 167.837C158.758 167.837 177.114 162.972 177.64 162.972C178.167 162.972 176.456 162.315 176.456 162.315L158.363 167.705Z" fill="#77C998"/>
<path d="M157.244 158.833L176.456 154.558C176.886 154.867 177.282 155.218 177.64 155.607C177.64 155.607 163.231 157.517 157.244 158.833Z" fill="#A0EABE"/>
<path d="M143.625 168.101L145.928 168.364L122.243 174.149L109.215 165.931L143.625 168.101Z" fill="#8DD8AB"/>
<path d="M98.3596 120.767V160.541C98.3596 160.541 110.399 166.063 123.69 173.229C123.69 173.229 141.126 167.97 145.006 166.72V125.632L120.334 114.39L98.3596 120.767Z" fill="#77C998"/>
<path d="M144.941 125.829V166.918C141.389 168.036 126.321 172.44 123.624 173.229V129.248L139.876 123.594L144.941 125.829Z" fill="#8DD8AB"/>
<path d="M123.624 133.521L132.046 131.22L123.624 132.797V133.521Z" fill="#77C998"/>
<path d="M122.638 131.811L98.3605 120.898C97.8995 120.7 97.9657 120.437 98.4259 120.24L118.624 114.389C119.195 114.266 119.79 114.312 120.335 114.521L144.612 125.434C145.073 125.632 145.007 125.895 144.547 126.092L124.349 131.943C123.777 132.063 123.184 132.018 122.638 131.811Z" fill="#93E5B5"/>
<path opacity="0.68" d="M112.309 124.383L126.915 131.22L128.297 133.258C128.297 133.258 139.547 130.103 144.943 129.577L144.679 127.076C144.679 127.076 145.469 123.592 137.245 120.962C132.268 119.307 127.481 117.125 122.968 114.454L110.796 117.743L102.966 119.781L112.309 124.383Z" fill="#63AA7F"/>
<path d="M112.309 123.594L130.336 132.009C130.336 132.009 146.126 127.342 148.429 128.985C145.948 124.73 141.955 121.562 137.244 120.113C129.085 117.414 120.662 113.601 120.662 113.601L102.176 118.795L110.795 122.805L112.309 123.594Z" fill="#A8D88E"/>
<path d="M123.624 135.033L109.215 128.393L123.624 135.491V135.033Z" fill="#63AA7F"/>
<path d="M103.887 142.987L110.861 145.748L103.887 142.724V142.987Z" fill="#63AA7F"/>
<path d="M105.729 162.907L112.769 165.668L105.729 162.578V162.907Z" fill="#63AA7F"/>
<path opacity="0.68" d="M102.966 151.008L122.243 158.306C120.564 158.723 118.964 159.412 117.506 160.344C117.506 160.278 106.848 152.455 102.966 151.008Z" fill="#63AA7F"/>
<path d="M102.966 150.614L122.243 158.306C120.565 158.464 118.944 159.003 117.506 159.883C117.506 159.883 109.216 153.835 102.966 150.614Z" fill="#93E5B5"/>
<path d="M128.295 126.487C132.51 126.487 135.927 125.162 135.927 123.528C135.927 121.894 132.51 120.569 128.295 120.569C124.08 120.569 120.663 121.894 120.663 123.528C120.663 125.162 124.08 126.487 128.295 126.487Z" fill="#63AA7F"/>
<path d="M112.045 161.263L123.624 166.522V165.931L112.045 161.263Z" fill="#6AAD82"/>
<path d="M142.112 127.67C143.675 127.67 144.942 127.17 144.942 126.553C144.942 125.935 143.675 125.435 142.112 125.435C140.55 125.435 139.283 125.935 139.283 126.553C139.283 127.17 140.55 127.67 142.112 127.67Z" fill="#77C998"/>
<path d="M123.624 164.551V163.959L118.624 162.25" fill="#6AAD82"/>
<path d="M123.624 159.883L139.217 156.267L123.624 159.226V159.883Z" fill="#77C998"/>
<path d="M123.624 149.89L139.217 146.603L123.624 149.562V149.89Z" fill="#77C998"/>
<path d="M123.624 168.956L132.046 166.655L123.624 168.299V168.956Z" fill="#77C998"/>
<path d="M123.624 158.305L130.533 156.728L123.624 157.583V158.305Z" fill="#77C998"/>
<path d="M144.941 142.199L136.585 143.777L144.941 141.607V142.199Z" fill="#77C998"/>
<path opacity="0.68" d="M123.756 140.294L143.362 136.019C143.362 136.019 127.835 139.963 126.782 142.396C125.686 141.831 124.668 141.124 123.756 140.294Z" fill="#63AA7F"/>
<path d="M144.941 140.687L141.783 141.147L144.941 140.16V140.687Z" fill="#77C998"/>
<path d="M123.624 140.16L143.362 136.084C143.362 136.084 127.835 139.569 126.782 142.067C126.848 142.067 124.282 141.015 123.624 140.16Z" fill="#A0EABE"/>
<path opacity="0.68" d="M123.624 163.038L144.941 158.7C144.778 158.88 144.687 159.114 144.687 159.357C144.687 159.6 144.778 159.834 144.941 160.014C144.941 160.014 130.27 161.592 123.624 163.038Z" fill="#63AA7F"/>
<path d="M124.874 172.9L125.334 173.098C125.334 173.098 145.664 167.641 146.322 167.641C146.915 167.641 145.006 166.915 145.006 166.915L124.874 172.9Z" fill="#77C998"/>
<path d="M123.624 163.039L144.941 158.306C145.43 158.64 145.872 159.038 146.257 159.489C146.323 159.489 130.27 161.593 123.624 163.039Z" fill="#A0EABE"/>
<path d="M55.9243 139.963L47.7656 70.4091V39.5759L55.2002 35.3687L55.9243 139.963Z" fill="#A0BABA"/>
<path d="M169.219 219.97L1.38203 144.696C-0.46008 143.841 -0.328501 142.724 1.64518 142.132L83.8215 118.4C86.1594 117.823 88.6187 117.984 90.8614 118.86L258.7 194.136C260.542 194.991 260.411 196.109 258.437 196.701L176.259 220.432C173.921 221.008 171.461 220.847 169.219 219.97Z" fill="#F7F7F7"/>
<path d="M169.088 223.127L1.3166 147.853C-0.52551 146.998 -0.39393 145.881 1.57975 145.289L83.756 125.763C86.0939 125.187 88.5532 125.348 90.7959 126.224L258.635 197.29C260.477 198.145 260.345 199.263 258.372 199.855L176.195 223.587C173.835 224.162 171.354 224.002 169.088 223.127Z" fill="#F7F7F7"/>
<path d="M259.947 195.844V198.605C259.947 199.131 259.42 199.591 258.368 199.854L176.191 223.587C173.854 224.164 171.394 224.003 169.152 223.127L1.31579 147.853C0.460124 147.458 0.0653859 147.064 0 146.603V143.842C0.0661931 144.237 0.460931 144.697 1.31579 145.092L7.43462 147.853L169.153 220.366C171.396 221.241 173.855 221.401 176.193 220.827L252.513 198.738L258.302 197.029C259.42 196.764 259.947 196.304 259.947 195.844Z" fill="#D5E5EF"/>
<path d="M160.013 210.456L16.0583 145.832C14.4793 145.106 14.5447 144.123 16.3214 143.597L86.851 123.218C88.8612 122.719 90.9767 122.857 92.9052 123.612L236.925 188.236C238.504 188.961 238.439 189.945 236.662 190.471L166.133 210.85C164.1 211.348 161.964 211.211 160.013 210.456Z" fill="url(#paint0_linear_174_3075)"/>
<mask id="mask0_174_3075" style="mask-type:luminance" maskUnits="userSpaceOnUse" x="14" y="122" width="225" height="90">
<path d="M160.013 210.456L16.0583 145.832C14.4793 145.106 14.5447 144.123 16.3214 143.597L86.851 123.218C88.8612 122.719 90.9767 122.857 92.9052 123.612L236.925 188.236C238.504 188.961 238.439 189.945 236.662 190.471L166.133 210.85C164.1 211.348 161.964 211.211 160.013 210.456Z" fill="white"/>
</mask>
<g mask="url(#mask0_174_3075)">
<path d="M160.013 210.456L16.0583 145.832C14.4793 145.106 14.5447 144.123 16.3214 143.597L86.851 123.218C88.8612 122.719 90.9767 122.857 92.9052 123.612L236.925 188.236C238.504 188.961 238.439 189.945 236.662 190.471L166.133 210.85C164.1 211.348 161.964 211.211 160.013 210.456Z" fill="url(#paint1_linear_174_3075)"/>
</g>
<path opacity="0.17" d="M208.102 173.031L152.179 189.531C150.888 189.841 149.534 189.749 148.297 189.268L96.2544 166.325L164.087 149.496L208.234 171.651C209.286 172.11 209.22 172.702 208.102 173.031Z" fill="url(#paint2_linear_174_3075)"/>
<path d="M151.521 127.407V167.18C151.521 167.18 163.561 172.702 176.851 179.868C176.851 179.868 194.287 174.609 198.168 173.36V132.271L173.558 121.03L151.521 127.407Z" fill="#8BCB69"/>
<path d="M198.168 132.469V173.557C194.616 174.675 179.548 179.079 176.851 179.868V135.887L193.102 130.234L198.168 132.469Z" fill="#B7DEA1"/>
<path d="M176.851 140.161L185.273 137.86L176.851 139.438V140.161Z" fill="#77C998"/>
<path d="M175.864 138.517L151.587 127.604C151.126 127.406 151.192 127.143 151.653 126.946L171.852 121.095C172.423 120.972 173.017 121.018 173.562 121.227L197.84 132.14C198.301 132.338 198.235 132.601 197.774 132.798L177.575 138.583C177.01 138.725 176.417 138.703 175.864 138.517Z" fill="#7DC456"/>
<path opacity="0.68" d="M176.983 146.934L196.589 142.659C196.589 142.659 181.061 146.603 180.009 149.036C178.878 148.529 177.852 147.816 176.983 146.934Z" fill="#63AA7F"/>
<path d="M176.851 146.8L196.589 142.724C196.589 142.724 181.061 146.209 180.009 148.707C180.009 148.707 177.509 147.655 176.851 146.8Z" fill="#D3EBC6"/>
<path opacity="0.68" d="M170.666 130.495C174.562 132.17 178.179 134.431 181.39 137.2C183.101 138.712 183.693 141.21 185.074 142.919C185.074 142.919 194.877 136.279 199.68 135.821L199.417 132.863C199.417 132.863 200.075 129.773 192.838 127.406C188.408 125.945 184.15 124.005 180.14 121.621L169.285 124.58L162.311 126.354L170.666 130.495Z" fill="#63AA7F"/>
<path d="M170.666 129.771C170.666 129.771 182.179 135.359 185.337 140.881C185.337 140.881 198.364 133.913 200.404 135.359C200.404 135.359 200.074 129.048 192.837 126.681C185.601 124.314 178.1 120.896 178.1 120.896L161.652 125.5L169.35 129.116L170.666 129.771Z" fill="#9AD17C"/>
<path d="M176.85 141.673L162.442 135.033L176.85 142.131V141.673Z" fill="#63AA7F"/>
<path d="M157.113 149.693L164.087 152.389L157.113 149.364V149.693Z" fill="#63AA7F"/>
<path d="M158.955 169.547L165.995 172.308L158.955 169.284V169.547Z" fill="#63AA7F"/>
<path opacity="0.68" d="M156.192 157.648L175.47 164.945C173.79 165.363 172.191 166.051 170.733 166.984C170.733 166.984 160.074 159.094 156.192 157.648Z" fill="#63AA7F"/>
<path d="M156.192 157.253L175.47 164.945C173.791 165.103 172.171 165.643 170.733 166.523C170.733 166.523 162.443 160.475 156.192 157.253Z" fill="#93E5B5"/>
<path d="M182.707 131.351C186.449 131.351 189.483 130.174 189.483 128.722C189.483 127.27 186.449 126.092 182.707 126.092C178.964 126.092 175.93 127.27 175.93 128.722C175.93 130.174 178.964 131.351 182.707 131.351Z" fill="#C5E5B4"/>
<path opacity="0.8" d="M200.468 135.362C198.428 133.653 185.336 140.95 185.336 140.95C184.609 139.437 183.362 138.449 181.98 137.006L198.625 130.826L198.823 131.024C200.145 132.535 200.468 135.362 200.468 135.362Z" fill="#8BCB69"/>
<path d="M165.271 167.903L176.851 173.162V172.57L165.271 167.903Z" fill="#6AAD82"/>
<path d="M196.884 134.464C198.254 134.103 199.207 133.212 199.012 132.475C198.817 131.737 197.549 131.432 196.178 131.794C194.808 132.155 193.855 133.046 194.05 133.783C194.245 134.521 195.513 134.826 196.884 134.464Z" fill="#C5E5B4"/>
<path d="M176.851 171.191V170.599L171.851 168.89" fill="#6AAD82"/>
<path d="M176.851 166.523L192.443 162.907L176.851 165.866V166.523Z" fill="#77C998"/>
<path d="M176.851 156.53L192.443 153.243L176.851 156.202V156.53Z" fill="#77C998"/>
<path d="M176.851 175.595L185.273 173.36L176.851 174.938V175.595Z" fill="#77C998"/>
<path d="M176.851 164.945L183.759 163.368L176.851 164.223V164.945Z" fill="#77C998"/>
<path d="M198.168 148.839L189.812 150.482L198.168 148.247V148.839Z" fill="#77C998"/>
<path d="M198.168 147.327L195.01 147.787L198.168 146.801V147.327Z" fill="#77C998"/>
<path opacity="0.68" d="M176.851 169.678L198.168 164.945V165.208C198.168 165.208 186.391 168.364 183.035 170.599C183.101 170.533 180.667 168.824 176.851 169.678Z" fill="#63AA7F"/>
<path d="M178.101 179.54L178.562 179.737C178.562 179.737 198.892 174.28 199.55 174.28C200.142 174.28 198.234 173.554 198.234 173.554L178.101 179.54Z" fill="#63AA7F"/>
<path d="M176.851 169.678L198.168 164.945C198.168 164.945 182.772 169.284 183.365 170.008C183.365 170.008 183.496 168.232 176.851 169.678Z" fill="#D3EBC6"/>
<path d="M168.298 126.947C169.716 126.947 170.865 126.505 170.865 125.961C170.865 125.416 169.716 124.974 168.298 124.974C166.881 124.974 165.732 125.416 165.732 125.961C165.732 126.505 166.881 126.947 168.298 126.947Z" fill="#C5E5B4"/>
<path d="M172.179 176.975L174.482 177.238L150.797 183.023L137.77 174.74L172.179 176.975Z" fill="#8DD8AB"/>
<path d="M126.849 129.641V175.792C135.556 178.94 144.022 182.72 152.179 187.1C152.179 187.1 169.615 176.91 173.495 175.661V134.572L148.886 123.331L126.849 129.641Z" fill="#8BCB69"/>
<path d="M173.495 134.703V180.722C169.943 181.84 154.876 186.244 152.179 187.033V138.122L168.429 132.468L173.495 134.703Z" fill="#B7DEA1"/>
<path d="M152.179 142.396L160.6 140.095L152.179 141.672V142.396Z" fill="#77C998"/>
<path d="M151.192 140.686L126.915 129.773C126.454 129.575 126.52 129.312 126.981 129.115L147.179 123.264C147.75 123.141 148.345 123.187 148.89 123.396L173.168 134.309C173.628 134.507 173.562 134.77 173.101 134.967L152.903 140.818C152.332 140.938 151.738 140.892 151.192 140.686Z" fill="#7DC456"/>
<path opacity="0.68" d="M140.863 133.257L155.469 140.094L156.851 142.132C156.851 142.132 168.101 138.977 173.496 138.451L173.233 135.951C173.233 135.951 174.022 132.466 165.798 129.837C160.802 128.231 156.01 126.047 151.522 123.328L139.35 126.617L131.52 128.654L140.863 133.257Z" fill="#63AA7F"/>
<path d="M140.863 132.403L158.89 140.818C158.89 140.818 174.68 136.15 176.983 137.794C174.502 133.538 170.509 130.371 165.798 128.921C157.64 126.223 149.216 122.41 149.216 122.41L130.73 127.604L139.349 131.614L140.863 132.403Z" fill="#9AD17C"/>
<path d="M152.178 143.908L137.77 137.268L152.178 144.366V143.908Z" fill="#63AA7F"/>
<path d="M132.441 151.862L139.415 154.623L132.441 151.533V151.862Z" fill="#63AA7F"/>
<path d="M134.283 171.782L141.323 174.543L134.283 171.453V171.782Z" fill="#63AA7F"/>
<path opacity="0.68" d="M131.52 159.882L150.798 167.18C149.118 167.597 147.518 168.286 146.061 169.218C146.06 169.152 135.402 161.329 131.52 159.882Z" fill="#63AA7F"/>
<path d="M131.52 159.488L150.798 167.18C149.119 167.338 147.499 167.878 146.061 168.758C146.061 168.758 137.77 162.71 131.52 159.488Z" fill="#C5E5B4"/>
<path d="M156.849 135.362C161.064 135.362 164.481 134.037 164.481 132.403C164.481 130.769 161.064 129.444 156.849 129.444C152.635 129.444 149.218 130.769 149.218 132.403C149.218 134.037 152.635 135.362 156.849 135.362Z" fill="#C5E5B4"/>
<path d="M140.599 170.139L152.179 175.398V174.806L140.599 170.139Z" fill="#6AAD82"/>
<path d="M170.667 136.545C172.229 136.545 173.496 136.044 173.496 135.427C173.496 134.81 172.229 134.309 170.667 134.309C169.104 134.309 167.837 134.81 167.837 135.427C167.837 136.044 169.104 136.545 170.667 136.545Z" fill="#D3EBC6"/>
<path d="M152.179 173.425V172.768L147.179 171.124" fill="#6AAD82"/>
<path d="M152.179 168.758L167.771 165.076L152.179 168.035V168.758Z" fill="#77C998"/>
<path d="M152.179 158.765L167.771 155.479L152.179 158.437V158.765Z" fill="#77C998"/>
<path d="M152.179 177.83L160.6 175.529L152.179 177.173V177.83Z" fill="#77C998"/>
<path d="M152.179 167.18L159.087 165.602L152.179 166.457V167.18Z" fill="#77C998"/>
<path d="M173.495 151.073L165.14 152.651L173.495 150.481V151.073Z" fill="#77C998"/>
<path opacity="0.68" d="M152.31 149.169L171.916 144.894C171.916 144.894 156.389 148.838 155.337 151.271C154.221 150.738 153.199 150.028 152.31 149.169Z" fill="#63AA7F"/>
<path d="M173.495 149.561L170.337 150.021L173.495 149.035V149.561Z" fill="#77C998"/>
<path d="M152.179 149.035L171.916 144.959C171.916 144.959 156.389 148.444 155.337 150.942C155.337 150.942 152.837 149.89 152.179 149.035Z" fill="#D3EBC6"/>
<path opacity="0.68" d="M152.179 171.913L173.495 167.574C173.332 167.754 173.242 167.989 173.242 168.232C173.242 168.475 173.332 168.709 173.495 168.889C173.495 168.889 158.824 170.467 152.179 171.913Z" fill="#63AA7F"/>
<path d="M153.428 186.311L153.889 186.508C153.889 186.508 174.219 181.052 174.877 181.052C175.535 181.052 173.561 180.326 173.561 180.326L153.428 186.311Z" fill="#77C998"/>
<path d="M152.179 171.913L173.495 167.18C173.984 167.514 174.427 167.912 174.811 168.363C174.811 168.298 158.824 170.467 152.179 171.913Z" fill="#D3EBC6"/>
<path d="M35.2647 155.15L35.0016 73.0379L39.5415 70.4083V66.7923L43.2257 68.4362V66.4648L52.3054 70.4753V68.7661L65.3979 74.4857V76.1949L68.1611 77.3782V170.008L35.2647 155.15Z" fill="#A0BABA"/>
<path d="M169.35 108.342C169.35 108.342 176.785 109.986 178.89 113.799C178.89 113.799 190.009 102.163 191.391 93.5531C191.786 90.9211 184.022 109.986 169.35 108.342Z" fill="#8DD8AB"/>
<path d="M178.89 113.799C178.89 113.799 187.97 105.055 184.483 95.26C184.483 95.26 186.325 92.7595 191.522 92.8934C191.456 92.8942 188.693 109.066 178.89 113.799Z" fill="#77C998"/>
<path d="M176.917 109.722C177.898 109.722 178.694 109.428 178.694 109.065C178.694 108.702 177.898 108.407 176.917 108.407C175.936 108.407 175.14 108.702 175.14 109.065C175.14 109.428 175.936 109.722 176.917 109.722Z" fill="#77C998"/>
<path d="M17.4354 72.3811L39.5415 66.793L41.1866 67.648L21.0543 73.9588L17.4354 72.3811Z" fill="#A0BABA"/>
<path d="M188.129 96.6444C188.932 96.3037 189.421 95.6484 189.222 95.1808C189.023 94.7132 188.211 94.6103 187.409 94.951C186.607 95.2917 186.118 95.947 186.317 96.4146C186.516 96.8822 187.327 96.9851 188.129 96.6444Z" fill="#63AA7F"/>
<path d="M194.023 112.615C194.023 112.615 205.471 112.548 209.813 125.434C209.813 125.434 210.077 119.583 214.419 119.057C214.353 119.058 205.537 105.186 194.023 112.615Z" fill="#8DD8AB"/>
<path d="M47.6993 160.606V39.577L55.9234 34.9753V31.7529L77.638 40.8256L80.8621 43.9157V175.465L47.6993 160.606Z" fill="#A0BABA"/>
<path opacity="0.43" d="M70.2664 169.81V76.7201L66.4474 75.0803L66.1842 72.779L50.1994 66.5303L47.7648 66.8594L44.4099 159.226L70.2664 169.81Z" fill="#849998"/>
<path d="M30.134 75.9973L21.0542 72.053L43.2265 66.4648L52.3062 70.4753L30.134 75.9973Z" fill="#8CA8A7"/>
<path d="M205.918 115.174C206.787 114.805 207.319 114.099 207.105 113.598C206.892 113.097 206.015 112.989 205.146 113.359C204.277 113.728 203.745 114.433 203.958 114.934C204.171 115.436 205.049 115.543 205.918 115.174Z" fill="#63AA7F"/>
<path d="M12.8293 145.025V78.6261L17.4346 75.9965V72.3805L21.0534 73.9582V72.0522L30.1332 75.9965V74.3527L43.2257 80.0062V81.7153L45.9889 82.8986V159.948L12.8293 145.025Z" fill="#C3DADB"/>
<path d="M45.9889 82.8995L68.1611 77.3774V170.599L45.9889 159.949V82.8995Z" fill="#DFEAEA"/>
<path d="M80.8597 43.9145L94.0176 40.4961V166.522L80.8597 168.955V43.9145Z" fill="#DFEAEA"/>
<path d="M94.0176 42.5355L80.8597 46.02V44.4423L94.0176 41.0239V42.5355Z" fill="#A0BABA"/>
<path d="M94.0176 45.3619L80.8597 48.7803V47.2687L94.0176 43.7842V45.3619Z" fill="#A0BABA"/>
<path d="M94.0176 48.1229L80.8597 51.6074V50.0297L94.0176 46.6113V48.1229Z" fill="#A0BABA"/>
<path d="M94.0176 50.8845L80.8597 54.369V52.8566L94.0176 49.3721V50.8845Z" fill="#A0BABA"/>
<path d="M94.0176 53.7108L80.8597 57.1953V55.6176L94.0176 52.1992V53.7108Z" fill="#A0BABA"/>
<path d="M94.0176 56.4719L80.8597 59.9564V58.444L94.0176 54.9595V56.4719Z" fill="#A0BABA"/>
<path d="M94.0176 59.2989L80.8597 62.7834V61.2057L94.0176 57.7212V59.2989Z" fill="#A0BABA"/>
<path d="M94.0176 62.0599L80.8597 65.5444V63.9667L94.0176 60.5483V62.0599Z" fill="#A0BABA"/>
<path d="M94.0176 64.8873L80.8597 68.3057V66.7941L94.0176 63.3096V64.8873Z" fill="#A0BABA"/>
<path d="M94.0176 67.6483L80.8597 71.1328V69.5551L94.0176 66.1367V67.6483Z" fill="#A0BABA"/>
<path d="M94.0176 70.4094L80.8597 73.8939V72.3815L94.0176 68.897V70.4094Z" fill="#A0BABA"/>
<path d="M94.0176 73.2362L80.8597 76.7207V75.143L94.0176 71.7246V73.2362Z" fill="#A0BABA"/>
<path d="M94.0176 75.9972L80.8597 79.4818V77.9694L94.0176 74.4849V75.9972Z" fill="#A0BABA"/>
<path d="M94.0176 78.8238L80.8597 82.3083V80.7306L94.0176 77.2461V78.8238Z" fill="#A0BABA"/>
<path d="M94.0176 81.5856L80.8597 85.0702V83.4924L94.0176 80.0732V81.5856Z" fill="#A0BABA"/>
<path d="M94.0176 84.4117L80.8597 87.8301V86.3185L94.0176 82.834V84.4117Z" fill="#A0BABA"/>
<path d="M94.0176 87.1737L80.8597 90.6582V89.0805L94.0176 85.6621V87.1737Z" fill="#A0BABA"/>
<path d="M94.0176 89.9347L80.8597 93.4193V91.9069L94.0176 88.4224V89.9347Z" fill="#A0BABA"/>
<path d="M94.0176 92.7619L80.8597 96.2464V94.6687L94.0176 91.2495V92.7619Z" fill="#A0BABA"/>
<path d="M94.0176 95.5226L80.8597 99.0072V97.4948L94.0176 94.0103V95.5226Z" fill="#A0BABA"/>
<path d="M94.0176 98.3492L80.8597 101.834V100.256L94.0176 96.7715V98.3492Z" fill="#A0BABA"/>
<path d="M94.0176 101.111L80.8597 104.595V103.017L94.0176 99.5991V101.111Z" fill="#A0BABA"/>
<path d="M94.0176 103.937L80.8597 107.355V105.844L94.0176 102.359V103.937Z" fill="#A0BABA"/>
<path d="M94.0176 106.699L80.8597 110.184V108.606L94.0176 105.188V106.699Z" fill="#A0BABA"/>
<path d="M94.0176 109.46L80.8597 112.945V111.432L94.0176 107.948V109.46Z" fill="#A0BABA"/>
<path d="M94.0176 112.286L80.8597 115.771V114.193L94.0176 110.775V112.286Z" fill="#A0BABA"/>
<path d="M94.0176 115.048L80.8597 118.532V117.02L94.0176 113.535V115.048Z" fill="#A0BABA"/>
<path d="M94.0176 117.875L80.8597 121.359V119.781L94.0176 116.297V117.875Z" fill="#A0BABA"/>
<path d="M94.0176 120.636L80.8597 124.12V122.542L94.0176 119.124V120.636Z" fill="#A0BABA"/>
<path d="M94.0176 123.462L80.8597 126.881V125.369L94.0176 121.885V123.462Z" fill="#A0BABA"/>
<path d="M94.0176 126.223L80.8597 129.708V128.13L94.0176 124.712V126.223Z" fill="#A0BABA"/>
<path d="M94.0176 128.985L80.8597 132.469V130.957L94.0176 127.472V128.985Z" fill="#A0BABA"/>
<path d="M94.0176 131.812L80.8597 135.296V133.719L94.0176 130.3V131.812Z" fill="#A0BABA"/>
<path d="M94.0176 134.573L80.8597 138.057V136.545L94.0176 133.061V134.573Z" fill="#A0BABA"/>
<path d="M94.0176 137.399L80.8597 140.884V139.306L94.0176 135.821V137.399Z" fill="#A0BABA"/>
<path d="M94.0176 140.161L80.8597 143.646V142.068L94.0176 138.649V140.161Z" fill="#A0BABA"/>
<path d="M94.0176 142.987L80.8597 146.406V144.894L94.0176 141.41V142.987Z" fill="#A0BABA"/>
<path d="M94.0176 145.749L80.8597 149.234V147.656L94.0176 144.238V145.749Z" fill="#A0BABA"/>
<path d="M94.0176 148.51L80.8597 151.994V150.482L94.0176 146.998V148.51Z" fill="#A0BABA"/>
<path d="M94.0176 151.337L80.8597 154.822V153.244L94.0176 149.826V151.337Z" fill="#A0BABA"/>
<path d="M94.0176 154.098L80.8597 157.583V156.07L94.0176 152.586V154.098Z" fill="#A0BABA"/>
<path d="M94.0176 156.924L80.8597 160.409V158.831L94.0176 155.347V156.924Z" fill="#A0BABA"/>
<path d="M94.0176 159.686L80.8597 163.171V161.593L94.0176 158.175V159.686Z" fill="#A0BABA"/>
<path d="M94.0176 162.513L80.8597 165.931V164.42L94.0176 160.935V162.513Z" fill="#A0BABA"/>
<path d="M94.0176 165.275L80.8597 168.759V167.182L94.0176 163.763V165.275Z" fill="#A0BABA"/>
<path d="M43.2257 81.7163L65.398 76.1943L68.1611 77.3776L45.9889 82.8996L43.2257 81.7163Z" fill="#A0BABA"/>
<path d="M39.2129 69.6201C34.2129 69.6201 30.1332 70.8034 30.1332 72.3158C30.1332 73.8282 34.2121 75.0114 39.2129 75.0114C44.2137 75.0114 48.2927 73.8282 48.2927 72.3158C48.3581 70.8034 44.2783 69.6201 39.2129 69.6201ZM39.2129 74.4194C35.331 74.4194 32.1731 73.4991 32.1731 72.3158C32.1731 71.1325 35.331 70.2122 39.2129 70.2122C43.0949 70.2122 46.2528 71.1325 46.2528 72.3158C46.3182 73.4991 43.1603 74.4194 39.2129 74.4194Z" fill="white"/>
<path d="M32.5677 71.2642L40.7918 74.7487H42.5024L33.2256 70.7383L32.5677 71.2642Z" fill="white"/>
<path d="M37.2384 70.0809L45.4625 73.5654H47.2384L37.8955 69.6211L37.2384 70.0809Z" fill="white"/>
<path d="M36.3835 72.5126L41.7113 71.5923L42.5008 72.0529L37.6323 73.1014L36.3835 72.5126Z" fill="white"/>
<path d="M43.2257 81.7161V80.0069L65.398 74.4849V76.1941L43.2257 81.7161Z" fill="#DFEAEA"/>
<path d="M30.1332 74.3533L52.3054 68.7651L65.3979 74.4848L43.2257 80.0068L30.1332 74.3533Z" fill="#A0BABA"/>
<path d="M41.0551 73.1041L49.4769 71.0005L54.4115 73.1703L46.0551 75.2755L41.0551 73.1041Z" fill="#8CA8A7"/>
<path d="M41.0551 73.104V74.4849L45.9897 76.6547V75.2738L41.0551 73.104Z" fill="#C3DADB"/>
<path d="M45.9889 76.6549V75.274L54.4108 73.1704V74.4198L45.9889 76.6549Z" fill="#DFEAEA"/>
<path d="M30.1341 74.3535V153.112L28.7521 152.191V75.4021L30.1341 74.3535Z" fill="#DFEAEA"/>
<path d="M17.4346 76.3916V147.064L12.8293 145.092V79.0211L17.4346 76.3916Z" fill="#BDD1D1"/>
<path d="M45.9889 82.8995L68.1611 77.3774V170.599L45.9889 159.949V82.8995Z" fill="#DFEAEA"/>
<path d="M49.2129 85.7927L47.6993 86.1871V84.6094L49.2129 84.2803V85.7927Z" fill="#A0BABA"/>
<path d="M49.2129 88.5539L47.6993 88.9483V87.3706L49.2129 87.0415V88.5539Z" fill="#A0BABA"/>
<path d="M49.2129 91.3146L47.6993 91.7091V90.1313L49.2129 89.8022V91.3146Z" fill="#A0BABA"/>
<path d="M49.2129 94.0763L47.6993 94.4708V92.9584L49.2129 92.564V94.0763Z" fill="#A0BABA"/>
<path d="M49.2129 96.8376L47.6993 97.232V95.7196L49.2129 95.3252V96.8376Z" fill="#A0BABA"/>
<path d="M49.2129 99.6637L47.6993 99.9928V98.4804L49.2129 98.0859V99.6637Z" fill="#A0BABA"/>
<path d="M49.2129 102.425L47.6993 102.819V101.242L49.2129 100.847V102.425Z" fill="#A0BABA"/>
<path d="M49.2129 105.187L47.6993 105.581V104.003L49.2129 103.674V105.187Z" fill="#A0BABA"/>
<path d="M49.2129 107.947L47.6993 108.342V106.764L49.2129 106.435V107.947Z" fill="#A0BABA"/>
<path d="M49.2129 110.709L47.6993 111.103V109.525L49.2129 109.196V110.709Z" fill="#A0BABA"/>
<path d="M49.2129 113.47L47.6993 113.864V112.352L49.2129 111.958V113.47Z" fill="#A0BABA"/>
<path d="M49.2129 116.232L47.6993 116.626V115.114L49.2129 114.719V116.232Z" fill="#A0BABA"/>
<path d="M49.2129 119.058L47.6993 119.387V117.874L49.2129 117.48V119.058Z" fill="#A0BABA"/>
<path d="M49.2129 121.819L47.6993 122.213V120.636L49.2129 120.241V121.819Z" fill="#A0BABA"/>
<path d="M49.2129 124.581L47.6993 124.975V123.397L49.2129 123.068V124.581Z" fill="#A0BABA"/>
<path d="M49.2129 127.341L47.6993 127.736V126.158L49.2129 125.829V127.341Z" fill="#A0BABA"/>
<path d="M49.2129 130.103L47.6993 130.497V128.919L49.2129 128.59V130.103Z" fill="#A0BABA"/>
<path d="M49.2129 132.863L47.6993 133.258V131.746L49.2129 131.351V132.863Z" fill="#A0BABA"/>
<path d="M49.2129 135.625L47.6993 136.019V134.507L49.2129 134.112V135.625Z" fill="#A0BABA"/>
<path d="M49.2129 138.451L47.6993 138.78V137.267L49.2129 136.873V138.451Z" fill="#A0BABA"/>
<path d="M49.2129 141.213L47.6993 141.607V140.03L49.2129 139.635V141.213Z" fill="#A0BABA"/>
<path d="M49.2129 143.974L47.6993 144.368V142.791L49.2129 142.461V143.974Z" fill="#A0BABA"/>
<path d="M49.2129 146.735L47.6993 147.129V145.552L49.2129 145.223V146.735Z" fill="#A0BABA"/>
<path d="M49.2129 149.497L47.6993 149.891V148.313L49.2129 147.984V149.497Z" fill="#A0BABA"/>
<path d="M49.2129 152.257L47.6993 152.652V151.14L49.2129 150.745V152.257Z" fill="#A0BABA"/>
<path d="M49.2129 155.019L47.6993 155.413V153.901L49.2129 153.506V155.019Z" fill="#A0BABA"/>
<path d="M49.2129 157.845L47.6993 158.174V156.662L49.2129 156.267V157.845Z" fill="#A0BABA"/>
<path d="M49.2129 160.606L47.6993 161V159.423L49.2129 159.028V160.606Z" fill="#A0BABA"/>
<path d="M55.9235 31.7533L70.0032 28.5317L91.2544 37.4044L77.638 40.8252L55.9235 31.7533Z" fill="#DFEAEA"/>
<path d="M55.9235 31.7533L70.0032 28.5317L91.2544 37.4044L77.638 40.8252L55.9235 31.7533Z" fill="#DFEAEA"/>
<path d="M58.6866 32.2131L70.5295 29.4521L88.4913 37.0124L76.9777 39.8355L58.6866 32.2131Z" fill="#BACECC"/>
<path d="M68.8852 33.1339C68.8583 33.1378 68.8308 33.1354 68.8051 33.1269C68.7793 33.1183 68.7558 33.1039 68.7366 33.0847C68.7174 33.0655 68.703 33.0421 68.6944 33.0163C68.6859 32.9905 68.6834 32.9631 68.6874 32.9362V1.38113C68.6857 1.35417 68.6895 1.32715 68.6986 1.30172C68.7078 1.2763 68.722 1.25302 68.7405 1.23331C68.759 1.21361 68.7814 1.19791 68.8062 1.18717C68.831 1.17644 68.8577 1.1709 68.8848 1.1709C68.9118 1.1709 68.9385 1.17644 68.9633 1.18717C68.9882 1.19791 69.0105 1.21361 69.029 1.23331C69.0475 1.25302 69.0617 1.2763 69.0709 1.30172C69.08 1.32715 69.0838 1.35417 69.0821 1.38113V32.9362C69.0681 32.9828 69.0427 33.0252 69.0084 33.0597C68.974 33.0942 68.9317 33.1196 68.8852 33.1339Z" fill="#A0BABA"/>
<path d="M68.882 33.9207C68.7438 33.9221 68.6067 33.8959 68.4787 33.8437C68.3508 33.7915 68.2345 33.7143 68.1368 33.6167C68.0391 33.519 67.9618 33.4029 67.9096 33.275C67.8574 33.1472 67.8312 33.0102 67.8326 32.8721V27.8711C67.8326 27.5922 67.9435 27.3247 68.1409 27.1274C68.3383 26.9301 68.606 26.8193 68.8852 26.8193C69.1644 26.8193 69.4321 26.9301 69.6295 27.1274C69.8269 27.3247 69.9378 27.5922 69.9378 27.8711V32.8721C69.9188 33.145 69.8013 33.4018 69.6071 33.5946C69.4129 33.7875 69.1552 33.9034 68.882 33.9207Z" fill="#A0BABA"/>
<path d="M132.506 159.095L134.81 159.424L111.124 165.209L98.0966 156.925L132.506 159.095Z" fill="#8DD8AB"/>
<path d="M87.1755 111.761V165.077C87.1755 165.077 99.2154 161.987 112.506 169.153C112.506 169.153 129.942 158.963 133.822 157.714V116.625L109.213 105.384L87.1755 111.761Z" fill="#77C998"/>
<path d="M133.822 116.823V162.842C130.27 163.96 115.203 168.364 112.506 169.153V120.241L128.757 114.588L133.822 116.823Z" fill="#8DD8AB"/>
<path d="M112.506 124.515L120.927 122.213L112.506 123.791V124.515Z" fill="#77C998"/>
<path d="M111.519 122.805L87.2417 111.891C86.7815 111.694 86.8469 111.431 87.3079 111.234L107.506 105.383C108.077 105.26 108.672 105.306 109.217 105.514L133.494 116.428C133.955 116.625 133.889 116.888 133.428 117.085L113.23 122.936C112.662 123.092 112.057 123.046 111.519 122.805Z" fill="#93E5B5"/>
<path opacity="0.68" d="M101.19 115.377L115.796 122.213L117.178 124.252C117.178 124.252 128.427 121.098 133.823 120.57L133.56 118.07C133.56 118.07 134.349 114.585 126.125 111.956C121.148 110.301 116.362 108.119 111.849 105.447L99.6771 108.737L91.8469 110.775L101.19 115.377Z" fill="#63AA7F"/>
<path d="M101.19 114.588L119.217 123.003C119.217 123.003 135.007 118.335 137.31 119.979C134.829 115.723 130.836 112.556 126.125 111.106C117.967 108.408 109.543 104.595 109.543 104.595L91.0575 109.788L99.6763 113.799L101.19 114.588Z" fill="#93E5B5"/>
<path d="M112.505 126.026L98.0966 119.386L112.505 126.484V126.026Z" fill="#63AA7F"/>
<path d="M92.7018 134.047L99.7417 136.743L92.7018 133.718V134.047Z" fill="#63AA7F"/>
<path d="M94.6101 153.901L101.584 156.662L94.6101 153.638V153.901Z" fill="#63AA7F"/>
<path opacity="0.68" d="M91.8469 142.002L111.124 149.299C109.445 149.717 107.845 150.405 106.388 151.338C106.387 151.271 95.7289 143.448 91.8469 142.002Z" fill="#63AA7F"/>
<path d="M91.8469 141.607L111.124 149.299C109.446 149.457 107.826 149.997 106.388 150.877C106.388 150.877 98.0973 144.829 91.8469 141.607Z" fill="#93E5B5"/>
<path d="M117.176 117.48C121.391 117.48 124.808 116.156 124.808 114.522C124.808 112.888 121.391 111.563 117.176 111.563C112.961 111.563 109.545 112.888 109.545 114.522C109.545 116.156 112.961 117.48 117.176 117.48Z" fill="#63AA7F"/>
<path d="M100.926 152.257L112.506 157.516V156.924L100.926 152.257Z" fill="#6AAD82"/>
<path d="M130.927 118.73C132.49 118.73 133.757 118.229 133.757 117.612C133.757 116.994 132.49 116.494 130.927 116.494C129.365 116.494 128.098 116.994 128.098 117.612C128.098 118.229 129.365 118.73 130.927 118.73Z" fill="#77C998"/>
<path d="M112.506 155.544V154.952L107.506 153.243" fill="#6AAD82"/>
<path d="M112.506 150.877L128.098 147.261L112.506 150.219V150.877Z" fill="#77C998"/>
<path d="M112.506 140.884L128.098 137.597L112.506 140.555V140.884Z" fill="#77C998"/>
<path d="M112.506 159.95L120.927 157.648L112.506 159.292V159.95Z" fill="#77C998"/>
<path d="M112.506 149.299L119.348 147.721L112.506 148.576V149.299Z" fill="#77C998"/>
<path d="M133.757 133.193L125.467 134.837L133.822 132.602L133.757 133.193Z" fill="#77C998"/>
<path opacity="0.68" d="M112.637 131.288L132.243 127.013C132.243 127.013 116.716 130.957 115.664 133.39C114.548 132.857 113.525 132.147 112.637 131.288Z" fill="#63AA7F"/>
<path d="M133.822 131.681L130.664 132.141L133.822 131.155V131.681Z" fill="#77C998"/>
<path d="M112.506 131.154L132.243 127.078C132.243 127.078 116.716 130.563 115.663 133.061C115.663 133.061 113.164 132.009 112.506 131.154Z" fill="#A0EABE"/>
<path opacity="0.68" d="M112.506 154.032L133.822 149.693C133.659 149.873 133.569 150.108 133.569 150.351C133.569 150.594 133.659 150.828 133.822 151.008C133.822 151.008 119.151 152.586 112.506 154.032Z" fill="#63AA7F"/>
<path d="M113.69 168.43L114.151 168.628C114.151 168.628 134.481 163.171 135.139 163.171C135.731 163.171 133.823 162.445 133.823 162.445L113.69 168.43Z" fill="#77C998"/>
<path d="M112.506 154.032L133.822 149.299C134.311 149.634 134.754 150.031 135.138 150.482C135.138 150.482 119.151 152.586 112.506 154.032Z" fill="#A0EABE"/>
<path d="M77.965 154.032L85.5312 157.581C85.7842 157.759 86.0886 157.849 86.3976 157.837C86.7066 157.825 87.0032 157.712 87.2417 157.515C87.9682 156.789 91.3206 149.89 91.3206 149.89C91.3814 149.524 91.2991 149.15 91.0907 148.844C90.8824 148.538 90.564 148.324 90.2018 148.246C88.8868 147.787 77.965 154.032 77.965 154.032Z" fill="#A0BABA"/>
<path d="M87.307 147.195L85.004 146.34C84.9386 146.01 84.8724 145.945 84.6093 146.208C84.4338 146.436 84.2795 146.678 84.1483 146.934C83.9505 147.395 83.6874 147.854 83.4904 148.38C83.0224 149.464 82.4495 150.498 81.7799 151.47C81.1503 152.309 80.3105 152.966 79.3453 153.377C79.1479 153.447 78.9682 153.559 78.819 153.706C77.3054 154.824 77.0431 156.928 73.819 155.941C73.0925 155.745 72.8317 153.246 72.24 152.654C70.5295 150.814 76.6483 134.049 76.6483 134.049C76.6483 134.049 82.1092 134.641 85.004 138.191C86.6491 140.226 87.4386 144.105 87.307 147.195Z" fill="#FFD1B2"/>
<path d="M87.3071 147.195C87.1755 149.76 86.4514 151.797 85.0702 151.995C83.7544 152.192 85.1364 150.548 85.0702 148.51C85.004 147.59 85.0702 146.801 85.004 146.34L87.3071 147.195Z" fill="#FFD1B2"/>
<path d="M90.9913 149.496C90.5304 150.679 87.1755 156.662 87.1755 156.662C87.1755 156.662 86.8461 157.517 85.5965 156.858C84.6093 156.333 80.3988 154.492 78.8198 153.768C78.9796 153.635 79.1567 153.525 79.3461 153.439C82.3725 152.058 83.1619 148.969 84.1492 146.997C84.2804 146.741 84.4347 146.498 84.6101 146.271L84.9395 146.402L87.2425 147.257L89.6771 148.178C89.7417 148.115 91.4522 148.312 90.9913 149.496Z" fill="#F7F7F7"/>
<path d="M140.336 145.354C140.336 145.354 138.888 155.61 139.546 160.475C139.546 160.475 139.02 163.17 140.467 163.298C141.981 163.429 142.31 160.996 142.31 160.996C144.327 160.678 146.255 159.939 147.967 158.827C150.336 157.183 152.113 155.803 150.007 147.782C147.836 139.766 140.336 145.354 140.336 145.354Z" fill="#FFD1B2"/>
<path d="M68.819 1.31476C69.1824 1.31476 69.4769 1.02044 69.4769 0.657381C69.4769 0.29432 69.1824 0 68.819 0C68.4557 0 68.1611 0.29432 68.1611 0.657381C68.1611 1.02044 68.4557 1.31476 68.819 1.31476Z" fill="#93E5B5"/>
<path d="M43.6205 55.9467C43.7894 55.7387 43.9434 55.519 44.0814 55.2893C44.1476 55.1579 44.0814 54.9602 44.1476 54.7634C44.016 54.7634 43.8844 54.8288 43.6867 54.8288C43.6867 54.6311 43.7528 54.4343 43.7528 54.1714C43.0263 54.369 43.1603 55.1579 42.7656 55.4862C42.5648 55.2281 42.3448 54.9854 42.1077 54.7602C42.0452 54.8309 41.9986 54.9142 41.9712 55.0045C41.9437 55.0948 41.9359 55.1899 41.9484 55.2834C41.9608 55.3769 41.9933 55.4667 42.0435 55.5466C42.0936 55.6266 42.1604 55.6948 42.2393 55.7467C42.5686 56.0096 42.5686 56.2073 42.1731 56.4726C42.1077 56.5388 39.4753 57.2615 38.2257 57.5906C38.1486 57.6122 38.0677 57.6176 37.9884 57.6063C37.909 57.5951 37.8329 57.5675 37.7648 57.5252C36.9091 57.0647 36.0543 56.6049 35.1332 56.1443C35.2892 56.1093 35.4431 56.0654 35.5941 56.0129C37.1731 55.7499 38.6867 55.487 40.1994 55.1579C40.4626 55.0917 40.9259 54.8288 40.8573 54.7634C40.7257 54.369 40.331 54.4343 40.0016 54.5005C38.2911 54.8296 36.5806 55.1579 34.9354 55.5491C34.4957 55.6695 34.0268 55.6227 33.6197 55.4176C32.2377 54.6916 30.8565 53.9052 29.4091 53.1825C29.3408 53.1365 29.2638 53.105 29.1828 53.0901C29.1018 53.0751 29.0186 53.077 28.9383 53.0955C28.8581 53.114 28.7825 53.1489 28.7163 53.1978C28.6501 53.2468 28.5946 53.3088 28.5535 53.3801C30.1986 54.3004 31.7776 55.1546 33.4219 56.0096C31.3166 56.4702 29.2767 56.8646 27.2377 57.3244C27.4354 57.785 27.567 58.0503 28.0933 57.9164C29.1427 57.5873 30.1986 57.3244 31.3174 57.0614C32.2385 56.8638 33.0933 56.667 34.0152 56.4694C34.0679 56.6247 34.0873 56.7894 34.0719 56.9527C34.0566 57.116 34.0069 57.2742 33.9261 57.4169C33.8453 57.5597 33.7353 57.6838 33.6032 57.7812C33.4711 57.8785 33.3199 57.9469 33.1595 57.9818C31.3174 58.4424 30.2648 59.8224 29.4091 61.4002C29.0798 61.9922 29.3429 62.4487 29.9354 62.7811L30.3302 62.9787C30.2192 62.9942 30.1092 63.0163 30.0008 63.0448C30.0229 63.1169 30.0601 63.1834 30.11 63.24C30.1598 63.2966 30.2211 63.342 30.2898 63.3731C30.3585 63.4043 30.433 63.4204 30.5085 63.4206C30.5839 63.4207 30.6585 63.4048 30.7273 63.3739C31.3198 63.3086 31.8462 63.1763 32.5033 63.0448C32.5274 63.2446 32.5048 63.4473 32.4371 63.6369C32.4371 63.6369 31.8446 63.7683 31.4498 63.8998C31.6476 64.3604 32.0423 64.3604 32.4371 64.2289C33.6875 63.7683 34.8717 63.3086 36.0559 62.848C36.2914 62.6212 36.5112 62.3787 36.7138 62.1221L35.5296 62.5165C35.7273 62.1874 35.7927 61.5962 35.9905 61.4679C36.6986 61.0369 37.2515 60.3924 37.5694 59.6272C37.701 59.3643 37.8988 59.1013 38.0958 58.7722C38.6384 59.1093 39.211 59.3955 39.8063 59.6272C39.9996 59.5812 40.1797 59.4912 40.3326 59.3643C40.201 59.2328 39.4115 58.6384 39.0822 58.3778C39.911 58.26 40.7507 58.2378 41.5846 58.3117V58.1802C41.4149 58.0436 41.2604 57.8892 41.1237 57.7196C41.5393 57.4573 41.9801 57.2371 42.4395 57.0623C42.6373 57.5882 42.7688 58.2455 43.3605 57.9173C43.3605 57.6543 43.2943 57.3913 43.2943 56.9969C43.52 57.2955 43.7626 57.581 44.0208 57.8519C44.6077 57.13 43.4235 56.2097 43.6205 55.9467ZM32.8964 63.507C32.7648 62.915 32.9626 62.8496 34.0806 62.5867C34.0806 63.3715 33.4227 63.3723 32.8964 63.507ZM34.3437 62.9811C34.3237 62.803 34.3464 62.6228 34.4099 62.4552C34.8324 62.2902 35.2307 62.0691 35.5941 61.7978C35.4626 62.4544 35.331 62.7835 34.3421 62.9803L34.3437 62.9811ZM35.0016 57.6575C34.8039 57.5922 34.6069 57.2631 34.4753 57.0001C34.4091 56.8687 34.4753 56.671 34.4753 56.4081C35.2648 56.8687 35.9889 57.3284 36.7784 57.789C36.1829 57.8153 35.5865 57.7706 35.0016 57.6559V57.6575Z" fill="#9AD17C"/>
<path d="M105.005 84.7411C105.005 84.7411 99.2154 79.8765 92.5734 89.0161C87.3757 96.1142 87.5072 112.42 86.1915 117.548C85.402 120.638 72.5726 137.139 76.9801 135.697C82.0463 133.987 85.8597 139.641 85.8597 139.641C85.8597 139.641 100.005 126.493 99.6763 120.51C99.4785 116.566 100.006 99.7359 100.006 99.7359L105.005 84.7411Z" fill="#F3F9FF"/>
<path d="M132.901 175.069C132.901 175.069 134.743 182.563 128.296 185.522C121.059 188.875 108.164 201.234 108.164 201.234C108.164 201.234 111.322 212.607 112.572 240.677C112.572 240.677 114.217 247.382 107.177 247.382C100.137 247.382 90.2681 198.996 89.5448 198.076C88.9523 197.35 90.9921 187.557 95.7952 181.18C99.8087 175.856 96.3215 165.797 105.401 160.669C105.334 160.738 127.243 163.039 132.901 175.069Z" fill="#0C2D54"/>
<path d="M114.61 177.896C114.61 177.896 102.372 181.644 95.7273 184.273C93.7536 185.062 93.6875 182.104 82.3055 182.827C73.5551 183.419 63.6858 187.495 63.6858 187.495C63.6858 187.495 62.8302 198.079 65.2648 218.327C65.2648 218.327 65.2648 225.23 58.4227 223.586C51.5806 221.942 43.5534 182.037 43.2903 180.854C41.4482 172.242 87.6348 160.474 97.8326 160.277C100.859 160.211 105.399 159.751 108.097 161.921C112.505 165.471 113.821 174.215 114.61 177.896Z" fill="#0C2D54"/>
<path d="M98.6229 273.419C98.6229 273.419 100.663 275.391 102.307 274.931C103.951 274.472 107.11 273.682 110.202 266.582C112.508 261.403 114.123 255.943 115.005 250.344C115.275 248.417 115.071 246.454 114.412 244.624C114.412 244.624 104.544 269.211 98.6229 273.419Z" fill="#2D1006"/>
<path d="M102.636 242.257C102.636 242.257 102.175 247.91 101.518 251.724C100.333 258.297 97.504 265.267 97.7672 269.146C97.8334 270.593 97.7018 274.142 100.136 274.142C105.86 274.142 109.873 268.093 114.281 248.043C114.281 248.043 114.544 239.759 112.439 238.511C110.991 237.656 110.465 244.888 106.123 244.756C103.755 244.623 103.821 241.994 102.636 242.257Z" fill="#3D1B0F"/>
<path d="M51.5814 250.87C51.5814 250.87 53.6213 252.842 55.2656 252.382C56.9108 251.987 60.0687 251.132 63.1604 244.033C64.0814 241.863 63.9498 239.037 64.5424 237.261C65.9243 233.119 67.1739 234.369 67.9634 227.794C68.0628 225.698 67.6801 223.606 66.8446 221.68C66.8446 221.68 57.4371 246.662 51.5814 250.87Z" fill="#2D1006"/>
<path d="M55.134 220.234C55.0868 223.204 54.8441 226.168 54.4075 229.107C53.2233 235.681 50.3939 242.65 50.6571 246.529C50.7233 247.976 50.5917 251.525 53.0255 251.525C57.236 251.525 60.9864 248.961 63.0263 237.523C63.6842 233.974 67.3684 231.212 67.5662 223.98C67.4386 222.365 67.1958 220.761 66.8397 219.181C66.2806 218.021 65.643 216.901 64.9314 215.828C62.8261 216.42 64.6682 221.416 59.0103 222.139C55.0686 222.601 56.315 219.971 55.134 220.234Z" fill="#3D1B0F"/>
<path d="M90.3326 118.466C88.0958 96.2454 85.9905 95.4566 94.4778 88.3561C94.4778 88.3561 99.6093 80.9934 108.228 82.9655C116.847 84.9377 125.333 81.2563 125.333 81.2563C125.333 81.2563 141.979 83.097 149.873 94.9307C154.282 101.505 171.19 117.612 157.308 135.888C154.659 139.473 152.284 143.253 150.204 147.195C147.702 151.337 140.072 147.984 140.203 144.5C140.335 140.489 143.098 136.545 148.559 128.261C154.546 119.123 143.625 112.812 141.322 107.815C138.199 119.537 136.065 131.5 134.94 143.579C133.891 155.678 138.361 181.38 132.374 181.577C132.374 181.577 134.743 171.913 123.031 168.691C119.61 167.771 112.504 169.809 106.912 169.809C93.7545 169.809 103.162 160.474 93.3589 160.671C93.2935 160.737 91.7808 133.06 90.3326 118.466Z" fill="#F3F9FF"/>
<path d="M29.4753 61.4019C29.6694 61.6045 29.9054 61.7625 30.1668 61.8647C30.4282 61.967 30.7087 62.011 30.9889 61.9939C31.9761 62.0601 33.3573 60.0218 33.0288 59.6273C32.9205 59.4559 32.7755 59.3105 32.6043 59.2017C32.433 59.093 32.2397 59.0235 32.0384 58.9984C31.837 58.9732 31.6326 58.993 31.4398 59.0563C31.247 59.1196 31.0707 59.2248 30.9235 59.3644C30.3238 59.9525 29.8335 60.6424 29.4753 61.4019Z" fill="#8CA8A7"/>
<path opacity="0.22" d="M34.2784 60.5478C38.2391 60.5478 41.4498 58.6641 41.4498 56.3405C41.4498 54.0169 38.2391 52.1333 34.2784 52.1333C30.3177 52.1333 27.1069 54.0169 27.1069 56.3405C27.1069 58.6641 30.3177 60.5478 34.2784 60.5478Z" fill="#BACECC"/>
<path d="M111.19 82.9001C111.19 82.9001 106.848 82.7025 105.927 81.6506C98.8231 73.8935 99.6763 51.8063 105.269 49.4373C110.861 47.0683 119.875 42.4691 128.428 51.6071C136.258 59.9563 130.006 76.1278 118.888 81.5192L111.19 82.9001Z" fill="#FFD1B2"/>
<path d="M120.927 88.1591C123.23 84.6101 119.877 87.2388 125.137 74.6824C125.137 74.6824 123.164 69.4233 115.4 71.4608C105.991 73.9613 107.768 80.8618 107.768 86.9758C107.703 96.5083 118.558 91.7751 120.927 88.1591Z" fill="#FFD1B2"/>
<path d="M133.494 62.3883C135.204 43.3888 122.638 43.3888 115.795 43.4549C110.86 43.5211 101.452 44.2438 100.531 52.1985C100.333 53.8424 100.86 56.0113 102.703 56.8663C105.597 58.2472 107.242 56.7348 109.545 55.8177C117.439 52.7276 126.914 51.8734 125.861 59.4337C125.4 62.9828 124.874 67.9143 124.874 67.9143C124.874 67.9143 126.388 61.735 129.546 62.3923C133.624 63.2473 128.558 72.3854 128.361 72.7798C127.901 73.8276 132.901 68.9629 133.494 62.3883Z" fill="#2E4B5B"/>
<path d="M100.334 53.5132C100.334 53.5132 99.4131 63.2432 100.86 68.9621C100.86 68.9621 100.729 59.4296 101.255 56.734C101.847 53.9738 100.334 53.5132 100.334 53.5132Z" fill="#2E4B5B"/>
<path d="M110.072 100.585L103.821 138.253L109.085 145.813L115.4 138.451L111.849 99.729L110.072 100.585Z" fill="#BCD0E2"/>
<path d="M109.611 94.1418L107.439 98.6749L110.071 103.211H111.979L115.467 99.004L112.506 94.0732C111.558 94.3137 110.569 94.3371 109.611 94.1418Z" fill="#BCD0E2"/>
<path d="M33.2249 59.8247C33.0947 60.4923 32.775 61.1083 32.3038 61.5992C32.3038 61.5992 34.7385 61.4686 33.2249 59.8247Z" fill="#8CA8A7"/>
<path d="M109.216 100.19L102.966 137.858L108.229 145.418L114.611 138.056L111.059 99.2686L109.216 100.19Z" fill="url(#paint3_linear_174_3075)"/>
<path d="M108.756 93.7476L106.585 98.2839L109.216 102.82H111.124L114.612 98.613L112.506 94.0766C111.251 94.0332 109.999 93.9234 108.756 93.7476Z" fill="#34BE8F"/>
<path d="M85.1356 151.008C85.0434 151.243 84.9047 151.458 84.7279 151.639C84.5511 151.82 84.3398 151.963 84.1064 152.061C83.8731 152.159 83.6224 152.209 83.3694 152.208C83.1163 152.207 82.866 152.156 82.6332 152.057C82.3249 151.961 82.0508 151.778 81.8438 151.531C82.5628 150.591 83.14 149.551 83.5567 148.444C83.6677 148.459 83.7776 148.481 83.886 148.509C84.3769 148.684 84.7811 149.042 85.014 149.507C85.2469 149.973 85.2905 150.511 85.1356 151.008Z" fill="#ECECEC"/>
<mask id="mask1_174_3075" style="mask-type:luminance" maskUnits="userSpaceOnUse" x="201" y="199" width="19" height="8">
<path d="M219.156 201.168C221.196 203.009 219.09 205.244 214.55 206.164C210.011 207.085 204.616 206.362 202.642 204.52C200.602 202.68 202.707 200.445 207.247 199.524C211.787 198.604 217.117 199.328 219.156 201.168Z" fill="white"/>
</mask>
<g mask="url(#mask1_174_3075)">
<path d="M219.156 201.168C221.196 203.009 219.09 205.244 214.55 206.164C210.011 207.085 204.616 206.362 202.642 204.52C200.602 202.68 202.707 200.445 207.247 199.524C211.787 198.604 217.117 199.328 219.156 201.168Z" fill="#DFEBF4"/>
</g>
</g>
<defs>
<linearGradient id="paint0_linear_174_3075" x1="309.232" y1="262.312" x2="241.128" y2="37.2577" gradientUnits="userSpaceOnUse">
<stop stop-color="#C5E5B4"/>
<stop offset="1" stop-color="#D3EBC6"/>
</linearGradient>
<linearGradient id="paint1_linear_174_3075" x1="309.232" y1="262.312" x2="241.128" y2="37.2577" gradientUnits="userSpaceOnUse">
<stop stop-color="#4CA9EC"/>
<stop offset="1" stop-color="#D9EEFD"/>
</linearGradient>
<linearGradient id="paint2_linear_174_3075" x1="100.425" y1="183.518" x2="133.623" y2="120.314" gradientUnits="userSpaceOnUse">
<stop stop-color="#0072D4" stop-opacity="0.4"/>
<stop offset="1" stop-color="#09007F"/>
</linearGradient>
<linearGradient id="paint3_linear_174_3075" x1="108.788" y1="99.2686" x2="108.788" y2="145.418" gradientUnits="userSpaceOnUse">
<stop stop-color="#19B786"/>
<stop offset="1" stop-color="#D3EBC6"/>
</linearGradient>
<clipPath id="clip0_174_3075">
<rect width="260" height="275" fill="white"/>
</clipPath>
</defs>
</svg>
