<svg width="330" height="222" viewBox="0 0 330 222" fill="none" xmlns="http://www.w3.org/2000/svg">
<g clip-path="url(#clip0_174_2933)">
<path d="M192.73 218.479L56.1688 157.401C54.6813 156.695 54.7521 155.777 56.3812 155.283L123.245 136.006C125.151 135.554 127.148 135.677 128.983 136.359L265.544 197.508C267.032 198.214 266.961 199.132 265.332 199.626L198.468 218.832C196.566 219.32 194.558 219.196 192.73 218.479Z" fill="#F7F7F7"/>
<path d="M192.73 221.304L56.1688 160.225C54.6813 159.519 54.7521 158.601 56.3812 158.107L123.245 141.655C125.151 141.203 127.148 141.326 128.983 142.008L265.544 200.262C267.032 200.968 266.961 201.886 265.332 202.38L198.468 221.657C196.566 222.144 194.558 222.021 192.73 221.304Z" fill="#F7F7F7"/>
<path d="M266.677 198.567V201.392C266.677 201.815 266.252 202.168 265.402 202.451L198.538 221.728C196.633 222.18 194.636 222.057 192.801 221.375L56.1687 160.226C55.4604 159.943 55.177 159.59 55.1062 159.237V156.413C55.177 156.766 55.5312 157.119 56.1687 157.401L61.1268 159.59L192.73 218.48C194.558 219.197 196.565 219.32 198.467 218.833L260.586 200.897L265.332 199.556C266.182 199.344 266.677 198.92 266.677 198.567Z" fill="#D5E5EF"/>
<mask id="mask0_174_2933" style="mask-type:luminance" maskUnits="userSpaceOnUse" x="64" y="138" width="183" height="73">
<path d="M182.743 209.794L65.5183 157.33C64.2434 156.765 64.3142 155.918 65.7308 155.565L123.104 139.042C124.752 138.627 126.49 138.751 128.062 139.395L245.286 191.859C246.561 192.424 246.491 193.271 245.074 193.624L187.701 210.147C186.048 210.496 184.33 210.374 182.743 209.794Z" fill="white"/>
</mask>
<g mask="url(#mask0_174_2933)">
<path d="M182.743 209.794L65.5183 157.33C64.2434 156.765 64.3142 155.918 65.7308 155.565L123.104 139.042C124.752 138.627 126.49 138.751 128.062 139.395L245.286 191.859C246.561 192.424 246.491 193.271 245.074 193.624L187.701 210.147C186.048 210.496 184.33 210.374 182.743 209.794Z" fill="url(#paint0_linear_174_2933)"/>
</g>
<path d="M67.0766 158.531L0 30.5131L121.404 4.31641L330 31.1486L240.541 194.754L184.301 210.995L67.0766 158.531Z" fill="url(#paint1_linear_174_2933)"/>
<path d="M57.7978 136.218L12.6078 115.952C11.7578 115.599 11.8287 115.034 12.7495 114.752L61.2685 101.265C62.3519 101.016 63.485 101.089 64.5267 101.477L109.717 121.742C110.567 122.095 110.496 122.66 109.575 122.943L61.056 136.429C59.9728 136.682 58.8389 136.608 57.7978 136.218Z" fill="#C0D2E2"/>
<path d="M109.504 121.601L60.9852 135.088C59.9018 135.337 58.7687 135.264 57.727 134.876L12.537 114.61C11.687 114.257 11.7579 113.693 12.6787 113.41L25.2157 109.95L57.1603 101.053L61.1268 99.9234C62.2102 99.6738 63.3433 99.7475 64.385 100.135L109.575 120.401C110.496 120.824 110.425 121.318 109.504 121.601Z" fill="white"/>
<path d="M114.462 85.6604L69.2724 65.395C68.4224 65.042 68.4932 64.4771 69.414 64.1946L106.954 53.3912C108.038 53.1416 109.171 53.2152 110.212 53.603L155.402 73.8683C156.252 74.2214 156.182 74.7863 155.261 75.0687L117.721 85.8722C116.637 86.1243 115.503 86.0506 114.462 85.6604Z" fill="#C0D2E2"/>
<path d="M114.462 83.9655L69.2724 63.7002C68.4224 63.3472 68.4932 62.7823 69.414 62.4998L106.954 51.6963C108.038 51.4467 109.171 51.5204 110.212 51.9082L155.402 72.1735C156.252 72.5266 156.182 73.0915 155.261 73.3739L117.721 84.1774C116.637 84.4295 115.503 84.3558 114.462 83.9655Z" fill="#F7F7F7"/>
<path d="M176.723 187.199L109.646 157.118C108.371 156.553 108.442 155.777 109.858 155.353L165.602 139.254C167.198 138.851 168.881 138.95 170.419 139.536L237.495 169.616C238.77 170.181 238.699 170.958 237.283 171.382L181.539 187.481C179.943 187.886 178.26 187.787 176.723 187.199Z" fill="#C0D2E2"/>
<path d="M157.102 172.37L154.907 172.935L135.428 163.968L137.553 163.332L157.102 172.37Z" fill="#D9E7F6"/>
<path d="M162.769 170.676L160.573 171.24L141.095 162.273L143.22 161.708L162.769 170.676Z" fill="#D9E7F6"/>
<path d="M165.602 169.899L163.477 170.393L143.928 161.426L146.053 160.861L165.602 169.899Z" fill="#D9E7F6"/>
<path d="M237.637 82.2005L181.468 56.9924C180.406 56.4982 180.477 55.8627 181.61 55.5096L228.287 42.0229C229.629 41.6907 231.042 41.7895 232.325 42.3054L288.493 67.5135C289.556 68.0077 289.485 68.6432 288.352 68.9963L241.674 82.483C240.332 82.8152 238.919 82.7164 237.637 82.2005Z" fill="#C0D2E2"/>
<path d="M168.435 169.052L166.31 169.546L146.761 160.649L148.886 160.014L168.435 169.052Z" fill="#D9E7F6"/>
<path d="M237.637 79.9408L181.468 54.7327C180.406 54.2384 180.477 53.6029 181.61 53.2499L228.287 39.7632C229.629 39.4309 231.042 39.5298 232.325 40.0456L288.493 65.2537C289.556 65.748 289.485 66.3835 288.352 66.7365L241.674 80.2232C240.329 80.52 238.927 80.4219 237.637 79.9408Z" fill="#F7F7F7"/>
<path d="M176.723 185.575L109.646 155.494C108.371 154.929 108.442 154.153 109.858 153.729L165.602 137.63C167.198 137.227 168.881 137.326 170.419 137.912L237.495 167.992C238.77 168.557 238.699 169.334 237.283 169.758L181.539 185.857C179.943 186.262 178.26 186.163 176.723 185.575Z" fill="#F7F7F7"/>
<path d="M102.067 120.471L60.2061 131.769L36.9736 120.754L78.7637 109.456L102.067 120.471Z" fill="#EDF6FF"/>
<path d="M35.9111 110.091L24.0824 113.834L23.1616 113.41L34.9903 109.597L35.9111 110.091Z" fill="#EDF6FF"/>
<path d="M38.6027 111.292L26.774 115.105L25.8531 114.681L37.6819 110.868L38.6027 111.292Z" fill="#EDF6FF"/>
<path d="M163.69 155.424L134.295 163.403L114.746 154.435L144.211 146.386L163.69 155.424Z" fill="#D9E7F6"/>
<path d="M181.61 165.309L154.977 172.229L146.832 168.628L173.393 161.567L181.61 165.309Z" fill="#D9E7F6"/>
<path d="M186.71 156.483L160.148 163.403L151.932 159.802L178.493 152.811L186.71 156.483Z" fill="#D9E7F6"/>
<path d="M59.2853 118.424L24.5074 102.819C23.87 102.536 23.87 102.113 24.5783 101.901L53.4772 93.5688C54.299 93.3664 55.1629 93.4156 55.9563 93.71L90.7341 109.315C91.3716 109.597 91.3716 110.021 90.6633 110.233L61.8352 118.565C60.9896 118.767 60.1032 118.718 59.2853 118.424Z" fill="#C0D2E2"/>
<path d="M90.734 117.011L61.8351 125.343C61.0133 125.546 60.1494 125.497 59.356 125.202L25.2865 109.95L57.2311 101.053L90.8049 116.093C91.4423 116.446 91.4423 116.799 90.734 117.011Z" fill="url(#paint2_linear_174_2933)"/>
<path d="M228.854 162.838L179.839 176.536C178.426 176.868 176.946 176.77 175.589 176.254L118.571 151.187L171.127 135.935L228.996 161.284C230.129 161.849 230.058 162.555 228.854 162.838Z" fill="url(#paint3_linear_174_2933)"/>
<path d="M186.426 171.594L105.963 135.512C104.475 134.806 104.546 133.888 106.175 133.393L173.039 114.117C174.945 113.665 176.942 113.787 178.777 114.47L259.24 150.552C260.728 151.258 260.657 152.176 259.028 152.67L192.234 172.018C190.299 172.446 188.279 172.299 186.426 171.594Z" fill="#C0D2E2"/>
<path d="M59.2853 117.082L24.5074 101.477C23.87 101.195 23.87 100.771 24.5783 100.559L53.4772 92.227C54.299 92.0246 55.1629 92.0738 55.9563 92.3682L90.7341 107.973C91.3716 108.256 91.3716 108.679 90.6633 108.891L61.7644 117.223C60.9424 117.424 60.0791 117.374 59.2853 117.082Z" fill="white"/>
<path d="M186.426 169.97L105.963 133.888C104.475 133.182 104.546 132.264 106.175 131.769L173.039 112.493C174.945 112.041 176.942 112.163 178.777 112.846L259.311 148.928C260.799 149.634 260.728 150.552 259.099 151.046L192.234 170.323C190.306 170.775 188.286 170.652 186.426 169.97Z" fill="#F7F7F7"/>
<path d="M179.06 117.859L118.004 134.452L113.612 132.475L174.668 115.811L179.06 117.859Z" fill="#D9E7F6"/>
<path d="M184.656 120.683L123.6 137.277L119.208 135.3L180.264 118.636L184.656 120.683Z" fill="#D9E7F6"/>
<path d="M190.605 123.155L129.478 139.748L125.087 137.842L186.143 121.178L190.605 123.155Z" fill="#D9E7F6"/>
<path d="M196.838 125.979L149.665 138.618L145.203 136.712L192.447 124.002L196.838 125.979Z" fill="#D9E7F6"/>
<path d="M212.704 141.937L183.239 149.916L163.69 141.019L193.155 132.899L212.704 141.937Z" fill="#D9E7F6"/>
<path d="M202.788 128.803L155.544 141.443L151.153 139.536L198.326 126.826L202.788 128.803Z" fill="#D9E7F6"/>
<path d="M214.121 132.758L177.714 142.925C176.678 143.178 175.589 143.104 174.598 142.714L132.241 124.143L171.269 112.845L214.263 131.698C215.113 132.051 215.042 132.546 214.121 132.758Z" fill="url(#paint4_linear_174_2933)"/>
<path d="M175.164 130.428L141.236 115.246C140.599 114.964 140.67 114.54 141.307 114.328L169.498 106.208C170.296 106.006 171.137 106.055 171.906 106.349L205.834 121.531C206.471 121.813 206.4 122.237 205.763 122.449L177.572 130.569C176.774 130.771 175.933 130.722 175.164 130.428Z" fill="#C0D2E2"/>
<path d="M175.164 129.439L141.236 114.187C140.599 113.905 140.67 113.481 141.307 113.269L169.498 105.149C170.296 104.946 171.137 104.996 171.906 105.29L205.834 120.471C206.471 120.754 206.4 121.178 205.763 121.389L177.572 129.51C176.786 129.77 175.933 129.745 175.164 129.439Z" fill="#F7F7F7"/>
<path d="M168.152 114.117L154.836 117.788L145.982 113.693L159.298 110.092L168.152 114.117Z" fill="#D9E7F6"/>
<path d="M201.371 120.683L188.126 124.355L179.272 120.259L192.588 116.658L201.371 120.683Z" fill="#D9E7F6"/>
<path d="M251.945 73.7976L238.628 77.3987L229.775 73.3739L243.091 69.7021L251.945 73.7976Z" fill="#D9E7F6"/>
<path d="M238.345 45.977L196.767 57.2747L187.984 53.2499L229.562 41.9521L238.345 45.977Z" fill="#D9E7F6"/>
<path d="M172.331 106.208C172.331 106.208 174.385 108.467 176.227 109.103C176.227 109.103 177.856 115.175 178.493 116.588C178.759 117.16 178.909 117.779 178.933 118.409C178.958 119.04 178.856 119.669 178.635 120.259C178.281 120.966 177.927 122.448 180.335 122.66C183.31 122.943 184.514 121.883 183.735 120.542C183.381 119.977 181.681 117.011 182.247 115.246C182.956 113.128 186.214 112.069 187.985 110.868C188.331 112.204 188.451 113.588 188.339 114.964C188.055 116.588 187.418 120.189 188.055 120.966C188.764 121.742 192.234 122.237 193.58 121.248C194.997 120.33 192.447 119.765 192.093 119.13C191.62 118.144 191.387 117.062 191.412 115.971C191.437 114.879 191.718 113.808 192.234 112.845C193.793 109.95 195.988 102.748 191.243 94.7689C190.558 94.0495 190.113 93.1372 189.968 92.1563C189.614 87.0017 187.489 85.1658 187.276 84.8834C186.6 84.0851 185.752 83.4486 184.796 83.0208C183.84 82.5931 182.799 82.385 181.751 82.412C180.878 82.4065 180.013 82.579 179.209 82.919C178.405 83.259 177.679 83.7593 177.077 84.3891V85.307C177.077 85.307 175.66 85.7307 175.589 86.225C175.518 86.7193 174.739 87.5666 174.598 89.8261C174.618 91.8387 175.027 93.8285 175.802 95.6869C175.943 95.7575 162.556 103.666 166.381 114.469C166.381 114.469 167.089 119.836 169.569 120.471C170.843 120.824 174.456 121.813 175.518 121.177C177.36 120.118 173.11 119.483 174.952 118.565C176.793 117.647 178.706 116.729 178.989 115.599C179.343 114.469 177.502 106.208 177.502 106.208H172.331Z" fill="#6D4C3E"/>
<path d="M187.347 91.521C187.347 91.521 187.135 92.2271 185.364 91.9446C183.593 91.6622 183.381 91.521 183.168 90.8855C182.956 90.3206 182.46 89.4026 181.964 89.2614C181.468 89.1202 181.822 88.061 182.176 87.9904C182.956 87.9198 183.026 87.5668 183.239 87.4961C183.451 87.4255 186.285 87.2137 187.135 88.6965C187.914 90.1794 187.701 91.1679 187.347 91.521Z" fill="white"/>
<path d="M183.593 92.9331C183.664 92.7919 182.743 90.1087 181.964 90.0381C181.572 90.0375 181.19 90.16 180.872 90.3882C180.555 90.6164 180.317 90.9386 180.193 91.3091C179.91 92.0152 181.043 92.8625 180.547 93.498C179.839 94.5572 181.114 95.4751 181.114 97.2404C181.114 98.9351 181.681 101.83 182.672 102.96C183.664 104.09 181.326 106.067 183.593 107.62C184.655 108.326 185.364 110.162 185.647 111.504C186.59 111.322 187.448 110.837 188.087 110.123C188.727 109.408 189.114 108.504 189.189 107.55C189.543 104.301 187.772 103.242 187.772 102.042C187.772 100.842 187.064 100.842 186.639 99.9942C186.143 99.1469 186.71 99.2881 187.064 99.2881C187.418 99.2881 187.489 98.582 186.001 97.9465C184.514 97.1698 183.522 93.0744 183.593 92.9331Z" fill="white"/>
<path d="M175.306 95.8282C175.306 95.8282 176.581 99.8531 183.31 98.9351C189.968 98.0172 192.093 95.4046 192.093 95.4046L191.314 94.416C188.515 96.3681 185.166 97.382 181.751 97.3111C176.085 97.1698 175.731 95.687 175.731 95.687L175.306 95.8282Z" fill="#7DC456"/>
<path d="M180.972 98.2289C180.901 97.8052 180.901 97.5228 180.831 97.2403L180.76 96.8873L182.035 96.6754C182.176 96.5342 182.318 96.5342 182.46 96.4636H182.601C182.83 96.4689 183.052 96.5427 183.239 96.6754C183.239 96.6048 183.31 96.6048 183.31 96.5342C183.488 96.3642 183.708 96.2427 183.947 96.1812H184.16C184.514 96.1812 185.293 96.3224 185.435 97.8758L185.647 100.277L181.185 100.7L180.972 98.2289Z" fill="white"/>
<path d="M181.326 98.1585C181.256 97.7348 181.256 97.4524 181.185 97.1699L181.822 97.0993L181.893 97.523C181.943 97.3635 182.035 97.2203 182.16 97.1085C182.285 96.9967 182.437 96.9203 182.601 96.8874C182.76 96.8599 182.924 96.8868 183.065 96.9638C183.207 97.0407 183.318 97.1631 183.381 97.3111C183.429 97.1241 183.527 96.9534 183.664 96.8168C183.801 96.6802 183.972 96.5827 184.16 96.5344C184.656 96.4638 185.151 96.8875 185.222 97.876L185.435 99.9237L184.585 99.9943L184.372 98.1585C184.301 97.6642 184.16 97.3817 183.876 97.4523C183.664 97.4523 183.593 97.6642 183.522 97.876V98.1585L183.735 100.065L183.026 100.206L182.814 98.3703C182.743 97.9466 182.601 97.6642 182.389 97.7348C182.176 97.7348 182.106 97.9466 182.106 98.1585V98.4409L182.318 100.277L181.61 100.347L181.326 98.1585Z" fill="#22B77E"/>
<path d="M175.873 91.521C175.873 91.521 176.085 92.2271 177.856 91.9446C179.627 91.6622 179.839 91.521 180.052 90.8855C180.264 90.3206 180.76 89.4733 181.256 89.332C181.751 89.1908 181.468 88.061 181.185 88.061C180.547 87.9904 180.264 87.5668 180.052 87.4961C179.839 87.4255 177.006 87.2137 176.156 88.6965C175.306 90.1794 175.518 91.1679 175.873 91.521Z" fill="white"/>
<path d="M44.5525 108.044L30.5988 101.83C30.3155 101.689 30.3863 101.547 30.6697 101.477L42.215 98.1581C42.5447 98.0757 42.8921 98.1004 43.2067 98.2288L57.1603 104.443C57.4436 104.584 57.3728 104.725 57.0895 104.796L45.5441 108.114C45.2147 108.199 44.8664 108.175 44.5525 108.044Z" fill="#D2E8F7"/>
<path d="M59.5686 105.926L47.6691 109.739L46.7483 109.315L58.6478 105.502L59.5686 105.926Z" fill="#EDF6FF"/>
<path d="M60.8435 106.773L49.0148 110.586L48.0232 110.091L59.9227 106.349L60.8435 106.773Z" fill="#EDF6FF"/>
<path d="M75.5764 103.101L63.3935 106.632L43.8442 97.6641L56.0271 94.063L75.5764 103.101Z" fill="#EDF6FF"/>
<path d="M64.2434 108.326L52.4147 112.069L51.4939 111.645L63.3226 107.832L64.2434 108.326Z" fill="#EDF6FF"/>
<path d="M77.1345 104.231L65.3058 107.973L64.385 107.55L76.2137 103.737L77.1345 104.231Z" fill="#EDF6FF"/>
<path d="M65.9434 109.033L54.1146 112.846L53.1938 112.422L65.0226 108.609L65.9434 109.033Z" fill="#EDF6FF"/>
<path d="M67.6433 109.809L55.8146 113.622L54.8938 113.128L66.7225 109.315L67.6433 109.809Z" fill="#EDF6FF"/>
<path d="M69.3433 110.586L57.5146 114.399L56.5938 113.905L68.4225 110.092L69.3433 110.586Z" fill="#EDF6FF"/>
<path d="M71.0431 111.292L59.2144 115.105L58.2936 114.681L70.1223 110.868L71.0431 111.292Z" fill="#EDF6FF"/>
<path d="M166.31 114.046C166.31 114.046 164.54 117.365 167.869 118C171.268 118.565 166.31 114.046 166.31 114.046Z" fill="#6D4C3E"/>
<path d="M181.185 115.246C181.185 115.246 184.514 117.294 183.31 118.424C182.866 118.822 182.321 119.092 181.734 119.204C181.147 119.316 180.541 119.266 179.981 119.059C178.627 118.57 177.303 118.004 176.014 117.364L181.185 115.246Z" fill="#6D4C3E"/>
<mask id="mask1_174_2933" style="mask-type:luminance" maskUnits="userSpaceOnUse" x="219" y="201" width="16" height="7">
<path d="M233.458 202.874C235.087 204.357 233.387 206.193 229.704 206.899C226.021 207.676 221.629 207.04 220 205.558C218.371 204.075 220.071 202.239 223.754 201.533C227.437 200.827 231.829 201.391 233.458 202.874Z" fill="white"/>
</mask>
<g mask="url(#mask1_174_2933)">
<path d="M233.458 202.874C235.087 204.357 233.387 206.193 229.704 206.899C226.02 207.676 221.629 207.04 220 205.558C218.371 204.075 220.071 202.239 223.754 201.533C227.437 200.827 231.829 201.391 233.458 202.874Z" fill="#DFEBF4"/>
</g>
<path d="M156.748 107.055C156.748 107.055 158.023 112.492 155.473 112.987C152.923 113.481 150.09 110.303 149.453 100.912C149.169 96.1812 156.748 107.055 156.748 107.055Z" fill="white"/>
<path d="M154.623 99.2174C154.623 99.2174 159.227 111.927 155.827 112.28C150.586 112.775 150.373 98.7231 150.373 98.7231C150.512 99.1564 150.787 99.534 151.156 99.8008C151.526 100.068 151.971 100.21 152.428 100.206C152.843 100.206 153.253 100.117 153.632 99.9469C154.01 99.7765 154.348 99.5278 154.623 99.2174Z" fill="#243956"/>
<path d="M157.315 70.6199C159.936 75.139 155.261 100.277 155.261 100.277C155.261 100.277 153.348 102.748 150.515 100.418C149.311 99.4292 150.798 82.8356 148.39 76.9749C147.753 75.3509 137.057 78.6696 128.558 78.3871C127.212 78.3165 126.929 78.3871 125.866 77.681C120.483 73.868 118.358 65.4653 118.358 65.4653C118.358 65.4653 154.694 66.1008 157.315 70.6199Z" fill="#F39C33"/>
<path d="M115.029 58.6867L101.713 62.2879L92.859 58.2631L106.175 54.5913L115.029 58.6867Z" fill="#D9E7F6"/>
<path d="M122.395 75.0686L109.079 78.6697L100.296 74.6449L113.541 70.9731L122.395 75.0686Z" fill="#D9E7F6"/>
<path d="M114.533 67.4426L101.217 71.1144L99.8712 70.4789L113.117 66.8071L114.533 67.4426Z" fill="#D9E7F6"/>
<path d="M116.871 68.7844L103.554 72.3856L102.209 71.7501L115.525 68.1489L116.871 68.7844Z" fill="#D9E7F6"/>
<path d="M112.337 81.8472C112.337 81.8472 112.196 84.8834 112.621 85.0953C113.046 85.3071 113.896 86.2957 114.25 86.3663C114.698 86.5501 115.184 86.6228 115.666 86.5781C116.207 86.5072 116.755 86.5072 117.296 86.5781C117.856 86.5568 118.405 86.4053 118.897 86.1356C119.388 85.866 119.81 85.4855 120.129 85.0247C120.341 84.7422 118.854 84.8834 118.358 83.6831C117.865 83.0291 117.32 82.4152 116.729 81.8472H112.337Z" fill="#FFD1B2"/>
<path d="M121.262 69.7021C121.262 69.7021 137.482 78.3873 138.97 84.8835C139.678 87.9198 135.711 98.5114 134.012 104.16C131.745 111.857 131.674 111.998 131.674 111.998C131.674 111.998 129.124 113.622 128.062 111.292C127.07 109.103 129.549 92.227 129.903 90.8854C131.249 85.6602 120.412 84.6717 116.871 79.3758C114.462 75.7041 113.966 73.3033 121.262 69.7021Z" fill="#F39C33"/>
<path d="M127.212 54.0971C125.016 42.5876 125.583 35.0322 122.395 31.9253L118.712 30.3013C118.712 30.3013 105.325 31.3604 102.209 36.9387C92.859 53.6029 109.858 78.4579 111.983 81.2823C111.983 81.2823 112.692 83.1888 116.729 81.8472C116.729 81.8472 110.283 60.7346 104.404 49.3662C104.404 49.3662 109.221 78.6697 116.162 78.3167C116.162 78.3167 117.721 72.0323 122.183 70.6201C129.833 68.1487 127.991 65.4655 133.728 66.101C133.728 66.101 128.062 58.3338 127.212 54.0971Z" fill="#183A6B"/>
<path d="M107.167 34.5381C106.317 32.7728 107.45 32.9141 105.042 26.9827C105.042 26.9827 106.033 24.5114 109.646 25.5705C114.037 26.7709 113.471 30.0896 113.825 32.914C114.179 35.0324 109.363 38.8454 107.167 34.5381Z" fill="#FFD1B2"/>
<path d="M132.099 119.554C132.099 119.554 132.17 125.202 129.691 125.132C127.141 125.061 126.291 122.025 126.645 117.435C126.999 112.916 132.099 119.554 132.099 119.554Z" fill="white"/>
<path d="M131.816 111.645C131.816 111.645 133.445 124.496 129.691 124.214C124.591 123.861 127.778 110.162 127.778 110.162C127.886 110.615 128.114 111.031 128.438 111.366C128.762 111.701 129.17 111.944 129.62 112.069C129.994 112.17 130.387 112.185 130.767 112.112C131.148 112.038 131.507 111.879 131.816 111.645Z" fill="#243956"/>
<path d="M114.321 34.0436C119.35 32.5607 121.191 21.4042 118.996 19.2859C116.8 17.1675 114.392 14.7668 108.796 17.5206C103.696 20.0626 103.554 27.3355 107.592 31.2897C107.592 31.2897 110.213 35.3146 114.321 34.0436Z" fill="#FFD1B2"/>
<path d="M105.538 28.183C105.538 28.183 104.404 27.1238 104.333 23.6639C104.333 19.9215 105.396 18.2975 108.229 16.8853C110.992 15.473 114.675 14.9788 116.658 16.3204C118.57 17.7326 121.404 21.0513 119.987 25.288C118.5 29.6658 119.279 28.183 119.066 28.183L119.491 23.6639C118.832 24.1672 118.049 24.4842 117.225 24.5818C116.162 24.5818 110.071 22.1811 108.583 24.0876C108.3 24.37 108.088 23.2402 108.158 22.0399C108.282 20.988 108.495 19.9486 108.796 18.933C108.796 18.933 107.521 22.0399 107.804 23.7345C107.896 24.4248 107.843 25.1267 107.648 25.7953C107.453 26.464 107.12 27.0847 106.671 27.6181C106.671 27.6181 105.113 24.2994 105.254 24.8643C105.254 25.288 104.475 26.3471 105.538 28.183Z" fill="#2E4B5B"/>
<path d="M116.871 82.271C118.108 82.3069 119.34 82.4486 120.554 82.6947C121.12 82.9771 118.641 83.542 117.65 83.4714C116.658 83.4008 116.871 82.271 116.871 82.271Z" fill="#FFD1B2"/>
<path d="M105.892 27.6179C105.892 27.6179 104.263 27.3355 104.759 24.6522C105.113 22.887 105.892 24.6522 105.892 24.6522L106.742 28.8183L105.892 27.6179Z" fill="#FFD1B2"/>
<g opacity="0.39">
<path d="M105.679 44.6353C106.104 47.5303 106.742 50.4253 107.379 53.2498C108.088 56.0742 108.796 58.9693 109.646 61.7231C110.496 64.5475 111.417 67.3014 112.408 70.0552C113.4 72.809 114.462 75.5628 115.596 78.246C114.887 76.975 114.179 75.6334 113.542 74.3624C112.904 73.0208 112.267 71.6792 111.7 70.3376C110.53 67.6269 109.536 64.8437 108.725 62.0055C107.865 59.1783 107.179 56.3015 106.671 53.391C106.096 50.5051 105.764 47.5763 105.679 44.6353Z" fill="#22B77E"/>
</g>
<path d="M216.529 157.825L187.135 165.804L167.585 156.907L197.051 148.787L216.529 157.825Z" fill="#D9E7F6"/>
<path d="M221.275 148.574L207.959 152.176L199.105 148.151L212.421 144.479L221.275 148.574Z" fill="#D9E7F6"/>
<path d="M231.97 153.305L218.654 156.907L209.8 152.882L223.117 149.21L231.97 153.305Z" fill="#D9E7F6"/>
<path d="M235.937 144.408L222.621 148.01L213.838 143.985L227.154 140.313L235.937 144.408Z" fill="#D9E7F6"/>
<path d="M246.632 149.21L233.316 152.811L224.533 148.787L237.849 145.115L246.632 149.21Z" fill="#D9E7F6"/>
<path d="M92.3631 59.6047L79.0469 63.2765L77.7012 62.641L91.0173 58.9692L92.3631 59.6047Z" fill="#D9E7F6"/>
<path d="M94.7006 60.8054L81.3845 64.4066L80.0387 63.8417L93.3549 60.1699L94.7006 60.8054Z" fill="#D9E7F6"/>
<path d="M97.0381 62.0764L83.7219 65.7482L82.3761 65.1127L95.6923 61.4409L97.0381 62.0764Z" fill="#D9E7F6"/>
<path d="M183.806 82.9063C183.806 82.9063 186.639 76.5513 188.764 76.5513C192.305 76.5513 190.109 81.2116 190.534 81.9883C190.959 82.765 190.818 84.3185 189.614 86.2956L189.189 87.7784L183.451 83.4005" fill="#6D4C3E"/>
<path d="M180.335 82.9063C180.335 82.9063 177.785 76.1276 175.377 76.5513C172.331 77.0456 174.102 81.2822 173.606 81.9883C173.11 82.6238 173.535 85.0246 174.527 86.2956L174.952 87.9197L180.618 83.4005" fill="#6D4C3E"/>
<path d="M188.48 85.378C188.834 85.378 189.047 85.2368 189.401 84.107C189.968 82.2711 189.472 82.9772 188.976 82.9066C188.905 82.9066 189.047 80.4352 188.693 79.5879C188.339 78.8112 187.418 79.6585 187.135 80.2234C186.355 81.565 185.364 83.4009 185.505 83.4009C187.347 83.4009 187.985 85.378 188.48 85.378Z" fill="#EFCEC7"/>
<path d="M176.51 85.6604C176.156 85.731 175.943 85.6604 175.377 84.6012C174.456 82.9065 175.093 83.4714 175.589 83.3302C175.66 83.3302 175.022 80.9294 175.235 80.0115C175.447 79.1641 176.51 79.8703 176.864 80.2939C177.675 81.1464 178.41 82.0678 179.06 83.0477C177.218 83.542 177.006 85.5897 176.51 85.6604Z" fill="#EFCEC7"/>
<path d="M247.341 60.7344C247.341 60.7344 249.041 66.0302 251.378 65.0416C251.492 64.722 251.492 64.3728 251.378 64.0531C251.206 63.7825 251.016 63.5231 250.811 63.2764C250.811 63.2764 258.178 65.1829 259.523 62.9233L247.341 60.7344Z" fill="url(#paint5_linear_174_2933)"/>
<path d="M265.757 58.9694L236.291 66.9484L216.813 58.0514L246.207 49.9312L265.757 58.9694Z" fill="#D9E7F6"/>
<path d="M208.667 22.1104C208.667 22.1104 202.859 24.7936 204.205 29.9482C205.551 35.1028 211.146 54.4502 211.146 54.4502C211.491 55.5786 211.728 56.7371 211.854 57.9101C211.854 58.9693 212.846 60.3109 213.767 60.1696C214.688 60.0284 215.821 58.828 215.821 58.828C215.821 58.828 212.563 39.7631 212.209 36.9386C211.854 34.1848 207.746 29.5951 207.746 29.5951L208.667 22.1104Z" fill="#183A6B"/>
<path d="M246.987 58.1924C246.955 58.8119 247.026 59.4323 247.199 60.0283C247.271 60.4062 247.43 60.7624 247.664 61.0687C247.897 61.375 248.199 61.6231 248.545 61.7935C253.078 63.8413 255.628 63.7706 257.611 63.6294C259.594 63.4882 260.444 62.076 259.807 61.7935C258.886 61.4405 253.432 58.1924 251.52 58.1924H246.987Z" fill="#FFD1B2"/>
<path d="M247.411 60.6641C247.411 60.6641 249.253 64.5477 250.741 64.7595C253.007 65.0419 249.749 61.4408 249.749 61.4408L247.411 60.6641Z" fill="#FFD1B2"/>
<path d="M209.659 69.702L210.65 70.1257V69.0665C210.65 69.0665 219.221 65.4654 224.392 67.3719L229.35 78.6696L232.325 79.7994L231.687 75.704C231.687 75.704 236.858 67.7249 237.495 65.3948C238.204 63.1352 238.983 63.347 238.983 63.347C238.983 63.347 240.258 60.9463 239.974 60.1696C239.691 59.3928 208.88 67.5131 208.88 67.5131L209.659 69.702Z" fill="url(#paint6_linear_174_2933)"/>
<path d="M239.478 61.1582C239.478 61.1582 238.558 62.0761 237.141 65.1124C235.441 68.7842 230.625 75.0685 230.625 75.0685C230.625 75.0685 232.112 80.435 232.679 93.5686C232.679 93.5686 233.458 96.7461 230.129 96.7461C226.8 96.7461 222.196 74.0094 221.842 73.5857C221.558 73.2326 222.55 68.6429 224.816 65.6773C226.729 63.2059 223.116 60.2402 227.366 57.8395C227.296 57.7689 236.787 55.5093 239.478 61.1582Z" fill="#F39C33"/>
<path d="M233.67 64.0531C233.67 64.0531 227.933 65.8184 224.816 67.0188C223.896 67.3718 223.896 66.0302 218.513 66.3127C215.5 66.6459 212.545 67.3822 209.73 68.5016C209.73 68.5016 209.305 73.515 210.438 82.9768C210.438 82.9768 210.438 86.2249 207.18 85.4482C203.992 84.6715 200.167 65.9596 200.097 65.3947C199.247 61.3699 202.647 60.0283 216.813 57.2039C216.813 57.2039 221.062 54.8737 225.525 56.0741C229.137 57.1332 233.104 61.2993 233.67 64.0531Z" fill="#F39C33"/>
<path d="M215.113 46.3298C210.225 35.4557 203.921 30.5129 206.188 25.9938C206.188 25.9938 206.967 21.969 210.934 21.2629C213.514 20.6518 215.87 19.3306 217.733 17.4499C217.733 17.4499 225.029 15.1904 230.483 18.6503C235.937 22.1102 247.482 49.366 251.449 58.263C251.449 58.263 251.732 60.0989 247.27 60.0989C247.27 60.0989 236.362 36.5855 231.262 31.9251C231.262 31.9251 244.72 60.0283 238.416 62.9939C238.416 62.9939 238.203 58.1924 227.862 60.0283C221.983 61.0875 220.921 55.368 216.883 57.2745C216.813 57.2745 216.883 50.284 215.113 46.3298Z" fill="#183A6B"/>
<path d="M154.34 17.4499C154.34 17.4499 161.919 13.7781 161.565 13.2132C161.352 12.8602 160.219 13.5663 159.298 13.8487C158.661 14.0606 158.023 14.0605 158.023 13.6369C158.023 13.2132 162.061 11.5892 161.848 11.2361C161.494 10.6006 157.811 12.7896 157.527 12.6483C157.527 12.6483 157.315 12.3659 157.457 12.2247C158.448 11.5892 160.998 9.96512 160.998 9.96512C160.998 9.96512 161.281 9.54146 160.715 9.68268C160.006 9.75329 157.173 11.7304 156.748 11.5892C156.323 11.5186 159.794 9.40023 159.369 9.04717C159.086 8.76473 153.49 12.7189 153.278 12.2953C153.009 11.6677 152.984 10.9632 153.207 10.3182C153.419 9.54145 152.711 9.68267 152.569 10.3182C152.428 10.8831 151.79 13.1426 151.294 15.1197C150.798 17.0968 154.34 17.4499 154.34 17.4499Z" fill="#FFD1B2"/>
<path d="M118.712 30.2305C118.712 30.2305 128.274 25.2878 138.191 20.6981C148.107 16.1083 150.019 14.1312 151.436 15.4729C153.561 17.3793 154.34 17.45 154.34 17.45C154.34 17.45 126.858 35.4557 124.804 36.7973C122.75 38.0683 118.712 30.2305 118.712 30.2305Z" fill="#183A6B"/>
<path d="M226.162 108.891C226.162 108.891 227.083 109.809 227.933 109.598C228.783 109.386 230.2 109.033 231.687 105.714C232.785 103.286 233.547 100.72 233.954 98.088C234.062 97.1837 233.965 96.2667 233.67 95.4048C233.67 95.4048 228.925 106.985 226.162 108.891Z" fill="white"/>
<path d="M228.004 94.2746C228.004 94.2746 227.791 96.9578 227.508 98.7231C226.941 101.83 225.596 105.078 225.737 106.914C225.808 107.62 225.737 109.244 226.871 109.244C229.562 109.244 231.475 106.42 233.529 96.9578C233.529 96.9578 233.67 93.0742 232.679 92.5093C232.041 92.0857 231.758 95.475 229.704 95.4044C228.571 95.4044 228.571 94.1334 228.004 94.2746Z" fill="#243956"/>
<path d="M203.992 98.2996C203.992 98.2996 204.913 99.2175 205.763 99.0057C206.613 98.7939 208.03 98.4408 209.517 95.1221C209.942 94.1335 209.871 92.7919 210.155 91.9446C210.792 90.0381 211.43 90.603 211.784 87.4961C211.815 86.501 211.621 85.5115 211.217 84.6011C211.217 84.6011 206.755 96.3225 203.992 98.2996Z" fill="white"/>
<path d="M205.692 83.9657C205.687 85.3616 205.569 86.7549 205.338 88.1317C204.771 91.2386 203.426 94.4867 203.567 96.3226C203.638 97.0287 203.567 98.6527 204.701 98.6527C206.684 98.6527 208.455 97.4524 209.375 92.0859C209.659 90.3913 211.429 89.1203 211.5 85.731C211.445 84.9693 211.327 84.2135 211.146 83.4714C210.882 82.9297 210.574 82.4102 210.225 81.918C209.234 82.2004 210.084 84.5306 207.463 84.8836C205.621 85.0248 206.259 83.8245 205.692 83.9657Z" fill="#243956"/>
<path d="M281.198 65.5359L253.574 72.8088L252.157 72.2439L279.852 64.9004L281.198 65.5359Z" fill="#D9E7F6"/>
<path d="M277.869 63.6296L250.174 70.9732L248.828 70.3377L276.452 62.9941L277.869 63.6296Z" fill="#D9E7F6"/>
<path d="M212.35 17.9443C212.35 17.9443 209.588 19.4271 208.95 19.2153C204.205 17.8031 199.105 8.76486 200.805 6.4347C202.505 4.10454 205.834 0.291546 211.5 1.84499C216.671 3.2572 217.308 11.095 214.121 15.9672L212.35 17.9443Z" fill="#FFD1B2"/>
<path d="M217.025 18.5093C216.883 16.5322 215.963 18.0151 214.971 11.7307C214.971 11.7307 212.917 10.1066 210.296 12.7898C207.109 16.1086 209.305 18.5799 210.438 21.2632C211.288 23.2403 217.379 23.3109 217.025 18.5093Z" fill="#FFD1B2"/>
<path d="M211.288 6.08184L213.484 10.8834C213.588 10.6883 213.637 10.4686 213.625 10.2479C213.484 8.9769 212.421 6.99979 214.192 7.35284C216.529 7.77651 215.325 13.6372 215.325 13.6372C215.325 13.6372 215.75 11.8013 215.892 11.1658C216.246 10.0361 215.892 6.85857 215.892 6.85857C215.892 6.85857 215.609 3.39863 213.271 2.5513C210.367 1.49213 211.217 5.44634 211.288 6.08184Z" fill="#476570"/>
<path d="M39.5236 61.0171L40.4444 69.1373L41.9318 66.4541L43.3484 68.9255L44.6942 68.29L43.2068 65.9599L46.465 66.4541L39.5236 61.0171Z" fill="#C0D2E2"/>
<path d="M200.522 9.82422C200.522 9.82422 202.009 13.849 204.346 15.6849C204.346 15.6849 201.371 12.1544 201.088 8.55322C200.877 8.68446 200.71 8.87565 200.61 9.10218C200.509 9.3287 200.478 9.58018 200.522 9.82422Z" fill="#2E4B5B"/>
<path d="M39.8069 60.0283L40.7985 68.1486L42.286 65.4654L43.6317 67.9367L45.0483 67.2306L43.5609 64.9005L46.7483 65.3947L39.8069 60.0283Z" fill="white"/>
<path d="M215.892 7.4941C215.892 4.38722 214.829 2.41011 211.713 1.20973C210.934 0.927285 209.8 0.0799513 208.667 0.00934036C205.338 -0.131881 200.309 1.42156 199.105 4.31661C197.618 7.77654 200.309 10.4598 201.372 11.6601C201.372 11.6601 200.38 7.91776 204.913 5.72882C206.401 5.02271 206.826 4.24599 210.155 5.37577C210.863 5.5876 209.8 -0.343711 214.688 3.68111C215.679 4.59905 215.892 7.4941 215.892 7.4941Z" fill="#2E4B5B"/>
<path d="M262.144 108.044C262.021 108.242 261.925 108.455 261.861 108.679C261.011 110.798 260.232 112.845 259.453 114.964C259.311 115.246 254.282 116.305 254.282 116.305C253.503 115.458 252.795 114.54 252.016 113.693C252.228 113.41 252.511 113.128 252.795 112.775C253.307 112.016 253.624 111.143 253.715 110.233C253.786 109.88 253.786 109.527 253.857 109.103C253.853 109.065 253.858 109.027 253.871 108.991C253.884 108.955 253.905 108.922 253.932 108.895C253.959 108.868 253.992 108.847 254.028 108.834C254.064 108.822 254.102 108.817 254.14 108.821C256.549 108.467 258.886 107.903 261.223 107.338C261.294 107.338 261.365 107.267 261.507 107.267H261.719C260.374 108.397 259.028 109.597 257.611 110.727C257.528 110.783 257.428 110.808 257.328 110.798C257.221 110.782 257.112 110.789 257.007 110.816C256.902 110.844 256.804 110.892 256.718 110.957C256.632 111.023 256.561 111.105 256.507 111.199C256.454 111.293 256.42 111.397 256.407 111.504C256.393 111.607 256.4 111.711 256.428 111.811C256.457 111.911 256.506 112.004 256.573 112.084C256.64 112.163 256.722 112.228 256.816 112.275C256.909 112.321 257.011 112.347 257.115 112.351C257.329 112.353 257.536 112.274 257.694 112.13C257.852 111.986 257.949 111.787 257.965 111.574C257.983 111.468 258.032 111.37 258.107 111.292C259.453 110.162 260.869 108.962 262.215 107.832C262.188 107.86 262.168 107.893 262.156 107.93C262.143 107.967 262.14 108.005 262.144 108.044Z" fill="#C0D2E2"/>
<path d="M248.828 115.458C250.457 114.328 249.324 115.105 250.882 113.975C251.803 115.105 252.795 116.235 253.715 117.364L251.803 118.988C250.67 117.576 250.032 116.8 248.828 115.458Z" fill="#C0D2E2"/>
<path d="M262.144 107.197C262.021 107.394 261.925 107.608 261.861 107.832C261.011 109.95 260.232 111.998 259.453 114.117C259.311 114.399 254.282 115.458 254.282 115.458C253.503 114.611 252.795 113.693 252.016 112.846C252.016 112.846 253.857 108.609 253.857 108.256C253.853 108.218 253.858 108.179 253.871 108.143C253.884 108.107 253.905 108.075 253.932 108.048C253.959 108.021 253.992 108 254.028 107.987C254.064 107.974 254.102 107.97 254.14 107.973C256.549 107.62 258.886 107.055 261.223 106.491C261.294 106.491 261.365 106.42 261.507 106.42H261.719C260.374 107.55 259.028 108.75 257.611 109.88C257.528 109.936 257.428 109.961 257.328 109.95C257.221 109.935 257.112 109.942 257.007 109.969C256.902 109.996 256.804 110.044 256.718 110.11C256.632 110.176 256.561 110.258 256.507 110.352C256.454 110.446 256.42 110.549 256.407 110.657C256.393 110.759 256.4 110.864 256.428 110.964C256.457 111.064 256.506 111.157 256.573 111.237C256.64 111.316 256.722 111.381 256.816 111.427C256.909 111.473 257.011 111.5 257.115 111.504C257.329 111.506 257.536 111.427 257.694 111.283C257.852 111.138 257.949 110.94 257.965 110.727C257.983 110.621 258.032 110.523 258.107 110.445C259.453 109.315 260.869 108.115 262.215 106.985C262.188 107.013 262.168 107.046 262.156 107.083C262.143 107.119 262.14 107.158 262.144 107.197Z" fill="white"/>
<path d="M248.899 114.611C250.528 113.481 249.395 114.258 250.953 113.128C251.874 114.258 252.865 115.387 253.786 116.517L251.874 118.141C250.741 116.729 250.032 115.952 248.899 114.611Z" fill="white"/>
</g>
<defs>
<linearGradient id="paint0_linear_174_2933" x1="64.6124" y1="174.571" x2="246.192" y2="174.571" gradientUnits="userSpaceOnUse">
<stop stop-color="#89DCAB"/>
<stop offset="1" stop-color="#A2FFC9"/>
</linearGradient>
<linearGradient id="paint1_linear_174_2933" x1="172.92" y1="373.444" x2="173.697" y2="35.9354" gradientUnits="userSpaceOnUse">
<stop stop-color="#699EC4"/>
<stop offset="1" stop-color="#D9EEFD" stop-opacity="0.21"/>
</linearGradient>
<linearGradient id="paint2_linear_174_2933" x1="78.1429" y1="126.223" x2="71.1635" y2="92.7461" gradientUnits="userSpaceOnUse">
<stop stop-color="white" stop-opacity="0.251"/>
<stop offset="1" stop-color="#0071E9" stop-opacity="0.251"/>
</linearGradient>
<linearGradient id="paint3_linear_174_2933" x1="202.774" y1="168.897" x2="188.876" y2="124.05" gradientUnits="userSpaceOnUse">
<stop stop-color="white" stop-opacity="0.251"/>
<stop offset="1" stop-color="#0071E9" stop-opacity="0.251"/>
</linearGradient>
<linearGradient id="paint4_linear_174_2933" x1="204.449" y1="141.47" x2="194.191" y2="108.194" gradientUnits="userSpaceOnUse">
<stop stop-color="white" stop-opacity="0.251"/>
<stop offset="1" stop-color="#0071E9" stop-opacity="0.251"/>
</linearGradient>
<linearGradient id="paint5_linear_174_2933" x1="246.488" y1="60.4996" x2="249.295" y2="69.4316" gradientUnits="userSpaceOnUse">
<stop stop-color="white" stop-opacity="0.251"/>
<stop offset="1" stop-color="#0071E9" stop-opacity="0.251"/>
</linearGradient>
<linearGradient id="paint6_linear_174_2933" x1="236.995" y1="61.0619" x2="226.335" y2="81.4647" gradientUnits="userSpaceOnUse">
<stop stop-color="white" stop-opacity="0.251"/>
<stop offset="1" stop-color="#0071E9" stop-opacity="0.251"/>
</linearGradient>
<clipPath id="clip0_174_2933">
<rect width="330" height="222" fill="white"/>
</clipPath>
</defs>
</svg>
